G04 #@! TF.GenerationSoftware,KiCad,Pcbnew,(5.1.9)-1*
G04 #@! TF.CreationDate,2021-06-01T19:36:45+03:00*
G04 #@! TF.ProjectId,ESP-RGBW-3S,4553502d-5247-4425-972d-33532e6b6963,0.4*
G04 #@! TF.SameCoordinates,Original*
G04 #@! TF.FileFunction,Copper,L2,Bot*
G04 #@! TF.FilePolarity,Positive*
%FSLAX46Y46*%
G04 Gerber Fmt 4.6, Leading zero omitted, Abs format (unit mm)*
G04 Created by KiCad (PCBNEW (5.1.9)-1) date 2021-06-01 19:36:45*
%MOMM*%
%LPD*%
G01*
G04 APERTURE LIST*
G04 #@! TA.AperFunction,ComponentPad*
%ADD10R,1.308000X1.308000*%
G04 #@! TD*
G04 #@! TA.AperFunction,SMDPad,CuDef*
%ADD11R,0.900000X0.800000*%
G04 #@! TD*
G04 #@! TA.AperFunction,ComponentPad*
%ADD12C,2.600000*%
G04 #@! TD*
G04 #@! TA.AperFunction,ComponentPad*
%ADD13R,2.600000X2.600000*%
G04 #@! TD*
G04 #@! TA.AperFunction,ComponentPad*
%ADD14R,2.540000X2.540000*%
G04 #@! TD*
G04 #@! TA.AperFunction,ComponentPad*
%ADD15C,2.540000*%
G04 #@! TD*
G04 #@! TA.AperFunction,ComponentPad*
%ADD16O,2.200000X1.740000*%
G04 #@! TD*
G04 #@! TA.AperFunction,ComponentPad*
%ADD17C,0.700000*%
G04 #@! TD*
G04 #@! TA.AperFunction,ComponentPad*
%ADD18C,4.400000*%
G04 #@! TD*
G04 #@! TA.AperFunction,ComponentPad*
%ADD19C,1.800000*%
G04 #@! TD*
G04 #@! TA.AperFunction,ComponentPad*
%ADD20R,1.800000X1.800000*%
G04 #@! TD*
G04 #@! TA.AperFunction,ComponentPad*
%ADD21R,3.500000X3.500000*%
G04 #@! TD*
G04 #@! TA.AperFunction,ComponentPad*
%ADD22O,1.700000X1.700000*%
G04 #@! TD*
G04 #@! TA.AperFunction,ComponentPad*
%ADD23R,1.700000X1.700000*%
G04 #@! TD*
G04 #@! TA.AperFunction,ViaPad*
%ADD24C,1.200000*%
G04 #@! TD*
G04 #@! TA.AperFunction,Conductor*
%ADD25C,0.500000*%
G04 #@! TD*
G04 #@! TA.AperFunction,Conductor*
%ADD26C,2.000000*%
G04 #@! TD*
G04 #@! TA.AperFunction,Conductor*
%ADD27C,1.000000*%
G04 #@! TD*
G04 #@! TA.AperFunction,Conductor*
%ADD28C,3.500000*%
G04 #@! TD*
G04 #@! TA.AperFunction,Conductor*
%ADD29C,3.000000*%
G04 #@! TD*
G04 #@! TA.AperFunction,Conductor*
%ADD30C,0.254000*%
G04 #@! TD*
G04 #@! TA.AperFunction,Conductor*
%ADD31C,0.100000*%
G04 #@! TD*
G04 APERTURE END LIST*
D10*
X42144600Y-72087400D03*
X40744600Y-72087400D03*
X53814600Y-72087400D03*
X55214600Y-72087400D03*
X53814600Y-53087400D03*
X55214600Y-53087400D03*
X42144600Y-53087400D03*
X40744600Y-53087400D03*
D11*
X29099000Y-28221000D03*
X31099000Y-29171000D03*
X31099000Y-27271000D03*
D12*
X25019000Y-64436000D03*
D13*
X25019000Y-59436000D03*
D14*
X37338000Y-53340000D03*
D15*
X37338000Y-71120000D03*
X77978000Y-53340000D03*
X77978000Y-71120000D03*
G04 #@! TA.AperFunction,SMDPad,CuDef*
G36*
G01*
X72768400Y-39243252D02*
X72768400Y-38343248D01*
G75*
G02*
X73018398Y-38093250I249998J0D01*
G01*
X73543402Y-38093250D01*
G75*
G02*
X73793400Y-38343248I0J-249998D01*
G01*
X73793400Y-39243252D01*
G75*
G02*
X73543402Y-39493250I-249998J0D01*
G01*
X73018398Y-39493250D01*
G75*
G02*
X72768400Y-39243252I0J249998D01*
G01*
G37*
G04 #@! TD.AperFunction*
G04 #@! TA.AperFunction,SMDPad,CuDef*
G36*
G01*
X74593400Y-39243252D02*
X74593400Y-38343248D01*
G75*
G02*
X74843398Y-38093250I249998J0D01*
G01*
X75368402Y-38093250D01*
G75*
G02*
X75618400Y-38343248I0J-249998D01*
G01*
X75618400Y-39243252D01*
G75*
G02*
X75368402Y-39493250I-249998J0D01*
G01*
X74843398Y-39493250D01*
G75*
G02*
X74593400Y-39243252I0J249998D01*
G01*
G37*
G04 #@! TD.AperFunction*
G04 #@! TA.AperFunction,SMDPad,CuDef*
G36*
G01*
X69132400Y-39243252D02*
X69132400Y-38343248D01*
G75*
G02*
X69382398Y-38093250I249998J0D01*
G01*
X69907402Y-38093250D01*
G75*
G02*
X70157400Y-38343248I0J-249998D01*
G01*
X70157400Y-39243252D01*
G75*
G02*
X69907402Y-39493250I-249998J0D01*
G01*
X69382398Y-39493250D01*
G75*
G02*
X69132400Y-39243252I0J249998D01*
G01*
G37*
G04 #@! TD.AperFunction*
G04 #@! TA.AperFunction,SMDPad,CuDef*
G36*
G01*
X67307400Y-39243252D02*
X67307400Y-38343248D01*
G75*
G02*
X67557398Y-38093250I249998J0D01*
G01*
X68082402Y-38093250D01*
G75*
G02*
X68332400Y-38343248I0J-249998D01*
G01*
X68332400Y-39243252D01*
G75*
G02*
X68082402Y-39493250I-249998J0D01*
G01*
X67557398Y-39493250D01*
G75*
G02*
X67307400Y-39243252I0J249998D01*
G01*
G37*
G04 #@! TD.AperFunction*
G04 #@! TA.AperFunction,SMDPad,CuDef*
G36*
G01*
X69132400Y-36075002D02*
X69132400Y-35174998D01*
G75*
G02*
X69382398Y-34925000I249998J0D01*
G01*
X69907402Y-34925000D01*
G75*
G02*
X70157400Y-35174998I0J-249998D01*
G01*
X70157400Y-36075002D01*
G75*
G02*
X69907402Y-36325000I-249998J0D01*
G01*
X69382398Y-36325000D01*
G75*
G02*
X69132400Y-36075002I0J249998D01*
G01*
G37*
G04 #@! TD.AperFunction*
G04 #@! TA.AperFunction,SMDPad,CuDef*
G36*
G01*
X67307400Y-36075002D02*
X67307400Y-35174998D01*
G75*
G02*
X67557398Y-34925000I249998J0D01*
G01*
X68082402Y-34925000D01*
G75*
G02*
X68332400Y-35174998I0J-249998D01*
G01*
X68332400Y-36075002D01*
G75*
G02*
X68082402Y-36325000I-249998J0D01*
G01*
X67557398Y-36325000D01*
G75*
G02*
X67307400Y-36075002I0J249998D01*
G01*
G37*
G04 #@! TD.AperFunction*
D16*
X79375000Y-39370000D03*
X25146000Y-45466000D03*
D11*
X32147000Y-34825000D03*
X34147000Y-35775000D03*
X34147000Y-33875000D03*
X32147000Y-47498000D03*
X34147000Y-48448000D03*
X34147000Y-46548000D03*
X32147000Y-41148000D03*
X34147000Y-42098000D03*
X34147000Y-40198000D03*
G04 #@! TA.AperFunction,SMDPad,CuDef*
G36*
G01*
X35287000Y-28570998D02*
X35287000Y-29471002D01*
G75*
G02*
X35037002Y-29721000I-249998J0D01*
G01*
X34511998Y-29721000D01*
G75*
G02*
X34262000Y-29471002I0J249998D01*
G01*
X34262000Y-28570998D01*
G75*
G02*
X34511998Y-28321000I249998J0D01*
G01*
X35037002Y-28321000D01*
G75*
G02*
X35287000Y-28570998I0J-249998D01*
G01*
G37*
G04 #@! TD.AperFunction*
G04 #@! TA.AperFunction,SMDPad,CuDef*
G36*
G01*
X37112000Y-28570998D02*
X37112000Y-29471002D01*
G75*
G02*
X36862002Y-29721000I-249998J0D01*
G01*
X36336998Y-29721000D01*
G75*
G02*
X36087000Y-29471002I0J249998D01*
G01*
X36087000Y-28570998D01*
G75*
G02*
X36336998Y-28321000I249998J0D01*
G01*
X36862002Y-28321000D01*
G75*
G02*
X37112000Y-28570998I0J-249998D01*
G01*
G37*
G04 #@! TD.AperFunction*
G04 #@! TA.AperFunction,SMDPad,CuDef*
G36*
G01*
X37827000Y-35174998D02*
X37827000Y-36075002D01*
G75*
G02*
X37577002Y-36325000I-249998J0D01*
G01*
X37051998Y-36325000D01*
G75*
G02*
X36802000Y-36075002I0J249998D01*
G01*
X36802000Y-35174998D01*
G75*
G02*
X37051998Y-34925000I249998J0D01*
G01*
X37577002Y-34925000D01*
G75*
G02*
X37827000Y-35174998I0J-249998D01*
G01*
G37*
G04 #@! TD.AperFunction*
G04 #@! TA.AperFunction,SMDPad,CuDef*
G36*
G01*
X39652000Y-35174998D02*
X39652000Y-36075002D01*
G75*
G02*
X39402002Y-36325000I-249998J0D01*
G01*
X38876998Y-36325000D01*
G75*
G02*
X38627000Y-36075002I0J249998D01*
G01*
X38627000Y-35174998D01*
G75*
G02*
X38876998Y-34925000I249998J0D01*
G01*
X39402002Y-34925000D01*
G75*
G02*
X39652000Y-35174998I0J-249998D01*
G01*
G37*
G04 #@! TD.AperFunction*
G04 #@! TA.AperFunction,SMDPad,CuDef*
G36*
G01*
X37827000Y-41497998D02*
X37827000Y-42398002D01*
G75*
G02*
X37577002Y-42648000I-249998J0D01*
G01*
X37051998Y-42648000D01*
G75*
G02*
X36802000Y-42398002I0J249998D01*
G01*
X36802000Y-41497998D01*
G75*
G02*
X37051998Y-41248000I249998J0D01*
G01*
X37577002Y-41248000D01*
G75*
G02*
X37827000Y-41497998I0J-249998D01*
G01*
G37*
G04 #@! TD.AperFunction*
G04 #@! TA.AperFunction,SMDPad,CuDef*
G36*
G01*
X39652000Y-41497998D02*
X39652000Y-42398002D01*
G75*
G02*
X39402002Y-42648000I-249998J0D01*
G01*
X38876998Y-42648000D01*
G75*
G02*
X38627000Y-42398002I0J249998D01*
G01*
X38627000Y-41497998D01*
G75*
G02*
X38876998Y-41248000I249998J0D01*
G01*
X39402002Y-41248000D01*
G75*
G02*
X39652000Y-41497998I0J-249998D01*
G01*
G37*
G04 #@! TD.AperFunction*
G04 #@! TA.AperFunction,SMDPad,CuDef*
G36*
G01*
X37827000Y-47847998D02*
X37827000Y-48748002D01*
G75*
G02*
X37577002Y-48998000I-249998J0D01*
G01*
X37051998Y-48998000D01*
G75*
G02*
X36802000Y-48748002I0J249998D01*
G01*
X36802000Y-47847998D01*
G75*
G02*
X37051998Y-47598000I249998J0D01*
G01*
X37577002Y-47598000D01*
G75*
G02*
X37827000Y-47847998I0J-249998D01*
G01*
G37*
G04 #@! TD.AperFunction*
G04 #@! TA.AperFunction,SMDPad,CuDef*
G36*
G01*
X39652000Y-47847998D02*
X39652000Y-48748002D01*
G75*
G02*
X39402002Y-48998000I-249998J0D01*
G01*
X38876998Y-48998000D01*
G75*
G02*
X38627000Y-48748002I0J249998D01*
G01*
X38627000Y-47847998D01*
G75*
G02*
X38876998Y-47598000I249998J0D01*
G01*
X39402002Y-47598000D01*
G75*
G02*
X39652000Y-47847998I0J-249998D01*
G01*
G37*
G04 #@! TD.AperFunction*
G04 #@! TA.AperFunction,SMDPad,CuDef*
G36*
G01*
X43161000Y-47847998D02*
X43161000Y-48748002D01*
G75*
G02*
X42911002Y-48998000I-249998J0D01*
G01*
X42385998Y-48998000D01*
G75*
G02*
X42136000Y-48748002I0J249998D01*
G01*
X42136000Y-47847998D01*
G75*
G02*
X42385998Y-47598000I249998J0D01*
G01*
X42911002Y-47598000D01*
G75*
G02*
X43161000Y-47847998I0J-249998D01*
G01*
G37*
G04 #@! TD.AperFunction*
G04 #@! TA.AperFunction,SMDPad,CuDef*
G36*
G01*
X44986000Y-47847998D02*
X44986000Y-48748002D01*
G75*
G02*
X44736002Y-48998000I-249998J0D01*
G01*
X44210998Y-48998000D01*
G75*
G02*
X43961000Y-48748002I0J249998D01*
G01*
X43961000Y-47847998D01*
G75*
G02*
X44210998Y-47598000I249998J0D01*
G01*
X44736002Y-47598000D01*
G75*
G02*
X44986000Y-47847998I0J-249998D01*
G01*
G37*
G04 #@! TD.AperFunction*
G04 #@! TA.AperFunction,SMDPad,CuDef*
G36*
G01*
X43161000Y-41497998D02*
X43161000Y-42398002D01*
G75*
G02*
X42911002Y-42648000I-249998J0D01*
G01*
X42385998Y-42648000D01*
G75*
G02*
X42136000Y-42398002I0J249998D01*
G01*
X42136000Y-41497998D01*
G75*
G02*
X42385998Y-41248000I249998J0D01*
G01*
X42911002Y-41248000D01*
G75*
G02*
X43161000Y-41497998I0J-249998D01*
G01*
G37*
G04 #@! TD.AperFunction*
G04 #@! TA.AperFunction,SMDPad,CuDef*
G36*
G01*
X44986000Y-41497998D02*
X44986000Y-42398002D01*
G75*
G02*
X44736002Y-42648000I-249998J0D01*
G01*
X44210998Y-42648000D01*
G75*
G02*
X43961000Y-42398002I0J249998D01*
G01*
X43961000Y-41497998D01*
G75*
G02*
X44210998Y-41248000I249998J0D01*
G01*
X44736002Y-41248000D01*
G75*
G02*
X44986000Y-41497998I0J-249998D01*
G01*
G37*
G04 #@! TD.AperFunction*
G04 #@! TA.AperFunction,SMDPad,CuDef*
G36*
G01*
X43161000Y-35174998D02*
X43161000Y-36075002D01*
G75*
G02*
X42911002Y-36325000I-249998J0D01*
G01*
X42385998Y-36325000D01*
G75*
G02*
X42136000Y-36075002I0J249998D01*
G01*
X42136000Y-35174998D01*
G75*
G02*
X42385998Y-34925000I249998J0D01*
G01*
X42911002Y-34925000D01*
G75*
G02*
X43161000Y-35174998I0J-249998D01*
G01*
G37*
G04 #@! TD.AperFunction*
G04 #@! TA.AperFunction,SMDPad,CuDef*
G36*
G01*
X44986000Y-35174998D02*
X44986000Y-36075002D01*
G75*
G02*
X44736002Y-36325000I-249998J0D01*
G01*
X44210998Y-36325000D01*
G75*
G02*
X43961000Y-36075002I0J249998D01*
G01*
X43961000Y-35174998D01*
G75*
G02*
X44210998Y-34925000I249998J0D01*
G01*
X44736002Y-34925000D01*
G75*
G02*
X44986000Y-35174998I0J-249998D01*
G01*
G37*
G04 #@! TD.AperFunction*
G04 #@! TA.AperFunction,SMDPad,CuDef*
G36*
G01*
X40240000Y-28570998D02*
X40240000Y-29471002D01*
G75*
G02*
X39990002Y-29721000I-249998J0D01*
G01*
X39464998Y-29721000D01*
G75*
G02*
X39215000Y-29471002I0J249998D01*
G01*
X39215000Y-28570998D01*
G75*
G02*
X39464998Y-28321000I249998J0D01*
G01*
X39990002Y-28321000D01*
G75*
G02*
X40240000Y-28570998I0J-249998D01*
G01*
G37*
G04 #@! TD.AperFunction*
G04 #@! TA.AperFunction,SMDPad,CuDef*
G36*
G01*
X42065000Y-28570998D02*
X42065000Y-29471002D01*
G75*
G02*
X41815002Y-29721000I-249998J0D01*
G01*
X41289998Y-29721000D01*
G75*
G02*
X41040000Y-29471002I0J249998D01*
G01*
X41040000Y-28570998D01*
G75*
G02*
X41289998Y-28321000I249998J0D01*
G01*
X41815002Y-28321000D01*
G75*
G02*
X42065000Y-28570998I0J-249998D01*
G01*
G37*
G04 #@! TD.AperFunction*
G04 #@! TA.AperFunction,SMDPad,CuDef*
G36*
G01*
X62871400Y-38343248D02*
X62871400Y-39243252D01*
G75*
G02*
X62621402Y-39493250I-249998J0D01*
G01*
X62096398Y-39493250D01*
G75*
G02*
X61846400Y-39243252I0J249998D01*
G01*
X61846400Y-38343248D01*
G75*
G02*
X62096398Y-38093250I249998J0D01*
G01*
X62621402Y-38093250D01*
G75*
G02*
X62871400Y-38343248I0J-249998D01*
G01*
G37*
G04 #@! TD.AperFunction*
G04 #@! TA.AperFunction,SMDPad,CuDef*
G36*
G01*
X64696400Y-38343248D02*
X64696400Y-39243252D01*
G75*
G02*
X64446402Y-39493250I-249998J0D01*
G01*
X63921398Y-39493250D01*
G75*
G02*
X63671400Y-39243252I0J249998D01*
G01*
X63671400Y-38343248D01*
G75*
G02*
X63921398Y-38093250I249998J0D01*
G01*
X64446402Y-38093250D01*
G75*
G02*
X64696400Y-38343248I0J-249998D01*
G01*
G37*
G04 #@! TD.AperFunction*
G04 #@! TA.AperFunction,SMDPad,CuDef*
G36*
G01*
X62871400Y-41511498D02*
X62871400Y-42411502D01*
G75*
G02*
X62621402Y-42661500I-249998J0D01*
G01*
X62096398Y-42661500D01*
G75*
G02*
X61846400Y-42411502I0J249998D01*
G01*
X61846400Y-41511498D01*
G75*
G02*
X62096398Y-41261500I249998J0D01*
G01*
X62621402Y-41261500D01*
G75*
G02*
X62871400Y-41511498I0J-249998D01*
G01*
G37*
G04 #@! TD.AperFunction*
G04 #@! TA.AperFunction,SMDPad,CuDef*
G36*
G01*
X64696400Y-41511498D02*
X64696400Y-42411502D01*
G75*
G02*
X64446402Y-42661500I-249998J0D01*
G01*
X63921398Y-42661500D01*
G75*
G02*
X63671400Y-42411502I0J249998D01*
G01*
X63671400Y-41511498D01*
G75*
G02*
X63921398Y-41261500I249998J0D01*
G01*
X64446402Y-41261500D01*
G75*
G02*
X64696400Y-41511498I0J-249998D01*
G01*
G37*
G04 #@! TD.AperFunction*
G04 #@! TA.AperFunction,SMDPad,CuDef*
G36*
G01*
X62871400Y-44679748D02*
X62871400Y-45579752D01*
G75*
G02*
X62621402Y-45829750I-249998J0D01*
G01*
X62096398Y-45829750D01*
G75*
G02*
X61846400Y-45579752I0J249998D01*
G01*
X61846400Y-44679748D01*
G75*
G02*
X62096398Y-44429750I249998J0D01*
G01*
X62621402Y-44429750D01*
G75*
G02*
X62871400Y-44679748I0J-249998D01*
G01*
G37*
G04 #@! TD.AperFunction*
G04 #@! TA.AperFunction,SMDPad,CuDef*
G36*
G01*
X64696400Y-44679748D02*
X64696400Y-45579752D01*
G75*
G02*
X64446402Y-45829750I-249998J0D01*
G01*
X63921398Y-45829750D01*
G75*
G02*
X63671400Y-45579752I0J249998D01*
G01*
X63671400Y-44679748D01*
G75*
G02*
X63921398Y-44429750I249998J0D01*
G01*
X64446402Y-44429750D01*
G75*
G02*
X64696400Y-44679748I0J-249998D01*
G01*
G37*
G04 #@! TD.AperFunction*
G04 #@! TA.AperFunction,SMDPad,CuDef*
G36*
G01*
X62871400Y-47847998D02*
X62871400Y-48748002D01*
G75*
G02*
X62621402Y-48998000I-249998J0D01*
G01*
X62096398Y-48998000D01*
G75*
G02*
X61846400Y-48748002I0J249998D01*
G01*
X61846400Y-47847998D01*
G75*
G02*
X62096398Y-47598000I249998J0D01*
G01*
X62621402Y-47598000D01*
G75*
G02*
X62871400Y-47847998I0J-249998D01*
G01*
G37*
G04 #@! TD.AperFunction*
G04 #@! TA.AperFunction,SMDPad,CuDef*
G36*
G01*
X64696400Y-47847998D02*
X64696400Y-48748002D01*
G75*
G02*
X64446402Y-48998000I-249998J0D01*
G01*
X63921398Y-48998000D01*
G75*
G02*
X63671400Y-48748002I0J249998D01*
G01*
X63671400Y-47847998D01*
G75*
G02*
X63921398Y-47598000I249998J0D01*
G01*
X64446402Y-47598000D01*
G75*
G02*
X64696400Y-47847998I0J-249998D01*
G01*
G37*
G04 #@! TD.AperFunction*
G04 #@! TA.AperFunction,SMDPad,CuDef*
G36*
G01*
X62871400Y-35174998D02*
X62871400Y-36075002D01*
G75*
G02*
X62621402Y-36325000I-249998J0D01*
G01*
X62096398Y-36325000D01*
G75*
G02*
X61846400Y-36075002I0J249998D01*
G01*
X61846400Y-35174998D01*
G75*
G02*
X62096398Y-34925000I249998J0D01*
G01*
X62621402Y-34925000D01*
G75*
G02*
X62871400Y-35174998I0J-249998D01*
G01*
G37*
G04 #@! TD.AperFunction*
G04 #@! TA.AperFunction,SMDPad,CuDef*
G36*
G01*
X64696400Y-35174998D02*
X64696400Y-36075002D01*
G75*
G02*
X64446402Y-36325000I-249998J0D01*
G01*
X63921398Y-36325000D01*
G75*
G02*
X63671400Y-36075002I0J249998D01*
G01*
X63671400Y-35174998D01*
G75*
G02*
X63921398Y-34925000I249998J0D01*
G01*
X64446402Y-34925000D01*
G75*
G02*
X64696400Y-35174998I0J-249998D01*
G01*
G37*
G04 #@! TD.AperFunction*
D16*
X79375000Y-49530000D03*
X79375000Y-46990000D03*
X79375000Y-44450000D03*
G04 #@! TA.AperFunction,ComponentPad*
G36*
G01*
X78524999Y-41040000D02*
X80225001Y-41040000D01*
G75*
G02*
X80475000Y-41289999I0J-249999D01*
G01*
X80475000Y-42530001D01*
G75*
G02*
X80225001Y-42780000I-249999J0D01*
G01*
X78524999Y-42780000D01*
G75*
G02*
X78275000Y-42530001I0J249999D01*
G01*
X78275000Y-41289999D01*
G75*
G02*
X78524999Y-41040000I249999J0D01*
G01*
G37*
G04 #@! TD.AperFunction*
X25146000Y-53086000D03*
X25146000Y-50546000D03*
G04 #@! TA.AperFunction,ComponentPad*
G36*
G01*
X24295999Y-47136000D02*
X25996001Y-47136000D01*
G75*
G02*
X26246000Y-47385999I0J-249999D01*
G01*
X26246000Y-48626001D01*
G75*
G02*
X25996001Y-48876000I-249999J0D01*
G01*
X24295999Y-48876000D01*
G75*
G02*
X24046000Y-48626001I0J249999D01*
G01*
X24046000Y-47385999D01*
G75*
G02*
X24295999Y-47136000I249999J0D01*
G01*
G37*
G04 #@! TD.AperFunction*
X79375000Y-36830000D03*
X79375000Y-34290000D03*
G04 #@! TA.AperFunction,ComponentPad*
G36*
G01*
X78524999Y-30880000D02*
X80225001Y-30880000D01*
G75*
G02*
X80475000Y-31129999I0J-249999D01*
G01*
X80475000Y-32370001D01*
G75*
G02*
X80225001Y-32620000I-249999J0D01*
G01*
X78524999Y-32620000D01*
G75*
G02*
X78275000Y-32370001I0J249999D01*
G01*
X78275000Y-31129999D01*
G75*
G02*
X78524999Y-30880000I249999J0D01*
G01*
G37*
G04 #@! TD.AperFunction*
D17*
X23010726Y-27027274D03*
X21844000Y-26544000D03*
X20677274Y-27027274D03*
X20194000Y-28194000D03*
X20677274Y-29360726D03*
X21844000Y-29844000D03*
X23010726Y-29360726D03*
X23494000Y-28194000D03*
D18*
X21844000Y-28194000D03*
D17*
X84097726Y-27027274D03*
X82931000Y-26544000D03*
X81764274Y-27027274D03*
X81281000Y-28194000D03*
X81764274Y-29360726D03*
X82931000Y-29844000D03*
X84097726Y-29360726D03*
X84581000Y-28194000D03*
D18*
X82931000Y-28194000D03*
X82931000Y-70866000D03*
D17*
X84581000Y-70866000D03*
X84097726Y-72032726D03*
X82931000Y-72516000D03*
X81764274Y-72032726D03*
X81281000Y-70866000D03*
X81764274Y-69699274D03*
X82931000Y-69216000D03*
X84097726Y-69699274D03*
D18*
X21844000Y-70866000D03*
D17*
X23494000Y-70866000D03*
X23010726Y-72032726D03*
X21844000Y-72516000D03*
X20677274Y-72032726D03*
X20194000Y-70866000D03*
X20677274Y-69699274D03*
X21844000Y-69216000D03*
X23010726Y-69699274D03*
D19*
X69088000Y-49530000D03*
D20*
X69088000Y-46990000D03*
G04 #@! TA.AperFunction,ComponentPad*
G36*
G01*
X34785000Y-64186000D02*
X33035000Y-64186000D01*
G75*
G02*
X32160000Y-63311000I0J875000D01*
G01*
X32160000Y-61561000D01*
G75*
G02*
X33035000Y-60686000I875000J0D01*
G01*
X34785000Y-60686000D01*
G75*
G02*
X35660000Y-61561000I0J-875000D01*
G01*
X35660000Y-63311000D01*
G75*
G02*
X34785000Y-64186000I-875000J0D01*
G01*
G37*
G04 #@! TD.AperFunction*
G04 #@! TA.AperFunction,ComponentPad*
G36*
G01*
X30210000Y-66936000D02*
X28210000Y-66936000D01*
G75*
G02*
X27460000Y-66186000I0J750000D01*
G01*
X27460000Y-64686000D01*
G75*
G02*
X28210000Y-63936000I750000J0D01*
G01*
X30210000Y-63936000D01*
G75*
G02*
X30960000Y-64686000I0J-750000D01*
G01*
X30960000Y-66186000D01*
G75*
G02*
X30210000Y-66936000I-750000J0D01*
G01*
G37*
G04 #@! TD.AperFunction*
D21*
X29210000Y-59436000D03*
D22*
X73719399Y-29845000D03*
X71179399Y-29845000D03*
X68639399Y-29845000D03*
D23*
X66099399Y-29845000D03*
D16*
X25146000Y-42926000D03*
X25146000Y-40386000D03*
X25146000Y-37846000D03*
X25146000Y-35306000D03*
G04 #@! TA.AperFunction,ComponentPad*
G36*
G01*
X24295999Y-31896000D02*
X25996001Y-31896000D01*
G75*
G02*
X26246000Y-32145999I0J-249999D01*
G01*
X26246000Y-33386001D01*
G75*
G02*
X25996001Y-33636000I-249999J0D01*
G01*
X24295999Y-33636000D01*
G75*
G02*
X24046000Y-33386001I0J249999D01*
G01*
X24046000Y-32145999D01*
G75*
G02*
X24295999Y-31896000I249999J0D01*
G01*
G37*
G04 #@! TD.AperFunction*
D24*
X73812400Y-34188400D03*
X33274000Y-50546000D03*
X60706000Y-51054000D03*
X64160400Y-32766000D03*
X75387200Y-41884600D03*
X75311000Y-46990000D03*
X57277000Y-38227000D03*
X57277000Y-40132000D03*
X55115898Y-34287898D03*
X57277000Y-44196000D03*
X57277000Y-42164000D03*
X47599600Y-46075600D03*
X47625000Y-35941000D03*
X48260000Y-41021000D03*
X43434000Y-29718000D03*
D25*
X66013900Y-41961500D02*
X66116200Y-41859200D01*
X64183900Y-41961500D02*
X66013900Y-41961500D01*
X66116200Y-41452800D02*
X66116200Y-41859200D01*
X65189200Y-48298000D02*
X64183900Y-48298000D01*
X66116200Y-47371000D02*
X65189200Y-48298000D01*
X66046050Y-45129750D02*
X66116200Y-45059600D01*
X64183900Y-45129750D02*
X66046050Y-45129750D01*
X66116200Y-45059600D02*
X66116200Y-47371000D01*
X66116200Y-41452800D02*
X66116200Y-45059600D01*
X66116200Y-29861801D02*
X66099399Y-29845000D01*
X66076600Y-35625000D02*
X66116200Y-35585400D01*
X64183900Y-35625000D02*
X66076600Y-35625000D01*
X66116200Y-35585400D02*
X66116200Y-29861801D01*
X66155800Y-35625000D02*
X66116200Y-35585400D01*
X67819900Y-35625000D02*
X66155800Y-35625000D01*
X66108750Y-38793250D02*
X66116200Y-38785800D01*
X64183900Y-38793250D02*
X66108750Y-38793250D01*
X66116200Y-38785800D02*
X66116200Y-35585400D01*
X66116200Y-41452800D02*
X66116200Y-38785800D01*
X67819900Y-38793250D02*
X66108750Y-38793250D01*
D26*
X33909000Y-53340000D02*
X37338000Y-53340000D01*
X29210000Y-58039000D02*
X33909000Y-53340000D01*
X29210000Y-59436000D02*
X29210000Y-58039000D01*
D27*
X37338000Y-53340000D02*
X38862000Y-53340000D01*
X39114600Y-53087400D02*
X40744600Y-53087400D01*
X38862000Y-53340000D02*
X39114600Y-53087400D01*
D26*
X40744600Y-53087400D02*
X42144600Y-53087400D01*
D28*
X25019000Y-59436000D02*
X29210000Y-59436000D01*
D29*
X23905193Y-32258000D02*
X24638000Y-32258000D01*
X21590000Y-34573193D02*
X23905193Y-32258000D01*
X21590000Y-56066000D02*
X21590000Y-34573193D01*
X21649000Y-56066000D02*
X21590000Y-56066000D01*
X25019000Y-59436000D02*
X21649000Y-56066000D01*
D25*
X68639399Y-31301399D02*
X68639399Y-29845000D01*
X71247000Y-34975800D02*
X71247000Y-33909000D01*
X70597800Y-35625000D02*
X71247000Y-34975800D01*
X71247000Y-33909000D02*
X68639399Y-31301399D01*
X69644900Y-35625000D02*
X70597800Y-35625000D01*
X69644900Y-38793250D02*
X71442750Y-38793250D01*
X71442750Y-38793250D02*
X73280900Y-38793250D01*
X71179399Y-32393599D02*
X71179399Y-29845000D01*
X72288400Y-33502600D02*
X71179399Y-32393599D01*
X72288400Y-35348627D02*
X72288400Y-33502600D01*
X71399400Y-36237627D02*
X72288400Y-35348627D01*
X71399400Y-38749900D02*
X71399400Y-36237627D01*
X71442750Y-38793250D02*
X71399400Y-38749900D01*
D26*
X26670000Y-35306000D02*
X25146000Y-35306000D01*
X28599000Y-33377000D02*
X26670000Y-35306000D01*
X28599000Y-28221000D02*
X28599000Y-33377000D01*
X27686000Y-37846000D02*
X25146000Y-37846000D01*
X30707000Y-34825000D02*
X27686000Y-37846000D01*
X31647000Y-34825000D02*
X30707000Y-34825000D01*
X25654000Y-40386000D02*
X25146000Y-40386000D01*
X25693991Y-40425991D02*
X25654000Y-40386000D01*
X28487991Y-40425991D02*
X25693991Y-40425991D01*
X29210000Y-41148000D02*
X28487991Y-40425991D01*
X31647000Y-41148000D02*
X29210000Y-41148000D01*
X26416000Y-42926000D02*
X25146000Y-42926000D01*
X30988000Y-47498000D02*
X26416000Y-42926000D01*
X31647000Y-47498000D02*
X30988000Y-47498000D01*
D25*
X57023000Y-37973000D02*
X57277000Y-38227000D01*
X57023000Y-38227000D02*
X57277000Y-38227000D01*
X76581000Y-44450000D02*
X79375000Y-44450000D01*
X75311000Y-45720000D02*
X76581000Y-44450000D01*
X75311000Y-46990000D02*
X75311000Y-45720000D01*
X57277000Y-38252400D02*
X57277000Y-38227000D01*
X57817850Y-38793250D02*
X57277000Y-38252400D01*
X62358900Y-38793250D02*
X57817850Y-38793250D01*
X57150000Y-40132000D02*
X57277000Y-40132000D01*
X57302400Y-40132000D02*
X57277000Y-40132000D01*
X59131900Y-41961500D02*
X57302400Y-40132000D01*
X62358900Y-41961500D02*
X59131900Y-41961500D01*
X31099000Y-27271000D02*
X37558000Y-27271000D01*
X38162000Y-27875000D02*
X38162000Y-29021000D01*
X38162000Y-29021000D02*
X36599500Y-29021000D01*
X37558000Y-27271000D02*
X38162000Y-27875000D01*
X39727500Y-29021000D02*
X38162000Y-29021000D01*
X34147000Y-33875000D02*
X40352000Y-33875000D01*
X41086000Y-34609000D02*
X41086000Y-35625000D01*
X40352000Y-33875000D02*
X41086000Y-34609000D01*
X41086000Y-35625000D02*
X42648500Y-35625000D01*
X39139500Y-35625000D02*
X41086000Y-35625000D01*
X34147000Y-40198000D02*
X40325000Y-40198000D01*
X40932000Y-40805000D02*
X40932000Y-41948000D01*
X40325000Y-40198000D02*
X40932000Y-40805000D01*
X40932000Y-41948000D02*
X42648500Y-41948000D01*
X39139500Y-41948000D02*
X40932000Y-41948000D01*
X34147000Y-46548000D02*
X40325000Y-46548000D01*
X40325000Y-46548000D02*
X40856000Y-47079000D01*
X40856000Y-47079000D02*
X40856000Y-48298000D01*
X40856000Y-48298000D02*
X42648500Y-48298000D01*
X39139500Y-48298000D02*
X40856000Y-48298000D01*
X55118876Y-34284920D02*
X55115898Y-34287898D01*
X55115898Y-34338698D02*
X55115898Y-34287898D01*
X56402200Y-35625000D02*
X55115898Y-34338698D01*
X62358900Y-35625000D02*
X56402200Y-35625000D01*
X57277000Y-44221400D02*
X57277000Y-44196000D01*
X61353600Y-48298000D02*
X57277000Y-44221400D01*
X62358900Y-48298000D02*
X61353600Y-48298000D01*
X57302400Y-42164000D02*
X57277000Y-42164000D01*
X60242750Y-45129750D02*
X57277000Y-42164000D01*
X62358900Y-45129750D02*
X60242750Y-45129750D01*
X47599600Y-46126400D02*
X47599600Y-46075600D01*
X45428000Y-48298000D02*
X47599600Y-46126400D01*
X44473500Y-48298000D02*
X45428000Y-48298000D01*
X47309000Y-35625000D02*
X47625000Y-35941000D01*
X44473500Y-35625000D02*
X47309000Y-35625000D01*
X46609000Y-41021000D02*
X48260000Y-41021000D01*
X45682000Y-41948000D02*
X46609000Y-41021000D01*
X44473500Y-41948000D02*
X45682000Y-41948000D01*
X43316000Y-29600000D02*
X43434000Y-29718000D01*
X43434000Y-29718000D02*
X42799000Y-29083000D01*
X41614500Y-29083000D02*
X41552500Y-29021000D01*
X42799000Y-29083000D02*
X41614500Y-29083000D01*
D30*
X33636188Y-28196518D02*
X33623928Y-28321000D01*
X33627000Y-28735250D01*
X33785750Y-28894000D01*
X34647500Y-28894000D01*
X34647500Y-28874000D01*
X34901500Y-28874000D01*
X34901500Y-28894000D01*
X34921500Y-28894000D01*
X34921500Y-29148000D01*
X34901500Y-29148000D01*
X34901500Y-30197250D01*
X35060250Y-30356000D01*
X35287000Y-30359072D01*
X35411482Y-30346812D01*
X35531180Y-30310502D01*
X35641494Y-30251537D01*
X35738185Y-30172185D01*
X35762363Y-30142724D01*
X35843613Y-30209405D01*
X35997148Y-30291472D01*
X36163744Y-30342008D01*
X36336998Y-30359072D01*
X36862002Y-30359072D01*
X37035256Y-30342008D01*
X37201852Y-30291472D01*
X37355387Y-30209405D01*
X37489962Y-30098962D01*
X37600405Y-29964387D01*
X37631614Y-29906000D01*
X38118524Y-29906000D01*
X38162000Y-29910282D01*
X38205477Y-29906000D01*
X38695386Y-29906000D01*
X38726595Y-29964387D01*
X38837038Y-30098962D01*
X38971613Y-30209405D01*
X39125148Y-30291472D01*
X39291744Y-30342008D01*
X39464998Y-30359072D01*
X39990002Y-30359072D01*
X40163256Y-30342008D01*
X40329852Y-30291472D01*
X40483387Y-30209405D01*
X40617962Y-30098962D01*
X40640000Y-30072109D01*
X40662038Y-30098962D01*
X40796613Y-30209405D01*
X40950148Y-30291472D01*
X41116744Y-30342008D01*
X41289998Y-30359072D01*
X41815002Y-30359072D01*
X41988256Y-30342008D01*
X42154852Y-30291472D01*
X42302169Y-30212729D01*
X42339557Y-30302992D01*
X42474713Y-30505267D01*
X42646733Y-30677287D01*
X42849008Y-30812443D01*
X43073764Y-30905540D01*
X43312363Y-30953000D01*
X43555637Y-30953000D01*
X43794236Y-30905540D01*
X44018992Y-30812443D01*
X44069000Y-30779029D01*
X44069000Y-32011938D01*
X44071459Y-32036808D01*
X44078704Y-32060627D01*
X44090457Y-32082575D01*
X44106265Y-32101808D01*
X44125522Y-32117588D01*
X44147488Y-32129307D01*
X44171317Y-32136516D01*
X44196096Y-32138938D01*
X65231201Y-32123098D01*
X65231200Y-34740000D01*
X65216014Y-34740000D01*
X65184805Y-34681613D01*
X65074362Y-34547038D01*
X64939787Y-34436595D01*
X64786252Y-34354528D01*
X64619656Y-34303992D01*
X64446402Y-34286928D01*
X63921398Y-34286928D01*
X63748144Y-34303992D01*
X63581548Y-34354528D01*
X63428013Y-34436595D01*
X63293438Y-34547038D01*
X63271400Y-34573891D01*
X63249362Y-34547038D01*
X63114787Y-34436595D01*
X62961252Y-34354528D01*
X62794656Y-34303992D01*
X62621402Y-34286928D01*
X62096398Y-34286928D01*
X61923144Y-34303992D01*
X61756548Y-34354528D01*
X61603013Y-34436595D01*
X61468438Y-34547038D01*
X61357995Y-34681613D01*
X61326786Y-34740000D01*
X56768779Y-34740000D01*
X56350898Y-34322120D01*
X56350898Y-34166261D01*
X56303438Y-33927662D01*
X56210341Y-33702906D01*
X56075185Y-33500631D01*
X55903165Y-33328611D01*
X55700890Y-33193455D01*
X55476134Y-33100358D01*
X55237535Y-33052898D01*
X54994261Y-33052898D01*
X54755662Y-33100358D01*
X54530906Y-33193455D01*
X54328631Y-33328611D01*
X54156611Y-33500631D01*
X54021455Y-33702906D01*
X53928358Y-33927662D01*
X53880898Y-34166261D01*
X53880898Y-34409535D01*
X53928358Y-34648134D01*
X54021455Y-34872890D01*
X54156611Y-35075165D01*
X54328631Y-35247185D01*
X54530906Y-35382341D01*
X54755662Y-35475438D01*
X54994261Y-35522898D01*
X55048520Y-35522898D01*
X55745670Y-36220049D01*
X55773383Y-36253817D01*
X55807151Y-36281530D01*
X55807153Y-36281532D01*
X55899073Y-36356969D01*
X55908141Y-36364411D01*
X56061887Y-36446589D01*
X56228710Y-36497195D01*
X56358723Y-36510000D01*
X56358731Y-36510000D01*
X56402200Y-36514281D01*
X56445669Y-36510000D01*
X61326786Y-36510000D01*
X61357995Y-36568387D01*
X61468438Y-36702962D01*
X61603013Y-36813405D01*
X61756548Y-36895472D01*
X61923144Y-36946008D01*
X62096398Y-36963072D01*
X62621402Y-36963072D01*
X62794656Y-36946008D01*
X62961252Y-36895472D01*
X63114787Y-36813405D01*
X63249362Y-36702962D01*
X63271400Y-36676109D01*
X63293438Y-36702962D01*
X63428013Y-36813405D01*
X63581548Y-36895472D01*
X63748144Y-36946008D01*
X63921398Y-36963072D01*
X64446402Y-36963072D01*
X64619656Y-36946008D01*
X64786252Y-36895472D01*
X64939787Y-36813405D01*
X65074362Y-36702962D01*
X65184805Y-36568387D01*
X65216014Y-36510000D01*
X65231201Y-36510000D01*
X65231200Y-37908250D01*
X65216014Y-37908250D01*
X65184805Y-37849863D01*
X65074362Y-37715288D01*
X64939787Y-37604845D01*
X64786252Y-37522778D01*
X64619656Y-37472242D01*
X64446402Y-37455178D01*
X63921398Y-37455178D01*
X63748144Y-37472242D01*
X63581548Y-37522778D01*
X63428013Y-37604845D01*
X63293438Y-37715288D01*
X63271400Y-37742141D01*
X63249362Y-37715288D01*
X63114787Y-37604845D01*
X62961252Y-37522778D01*
X62794656Y-37472242D01*
X62621402Y-37455178D01*
X62096398Y-37455178D01*
X61923144Y-37472242D01*
X61756548Y-37522778D01*
X61603013Y-37604845D01*
X61468438Y-37715288D01*
X61357995Y-37849863D01*
X61326786Y-37908250D01*
X58472792Y-37908250D01*
X58464540Y-37866764D01*
X58371443Y-37642008D01*
X58236287Y-37439733D01*
X58064267Y-37267713D01*
X57861992Y-37132557D01*
X57637236Y-37039460D01*
X57398637Y-36992000D01*
X57155363Y-36992000D01*
X56916764Y-37039460D01*
X56692008Y-37132557D01*
X56588227Y-37201901D01*
X56528941Y-37233590D01*
X56394183Y-37344183D01*
X56283590Y-37478941D01*
X56251901Y-37538227D01*
X56182557Y-37642008D01*
X56089460Y-37866764D01*
X56042000Y-38105363D01*
X56042000Y-38348637D01*
X56089460Y-38587236D01*
X56182557Y-38811992D01*
X56317713Y-39014267D01*
X56482946Y-39179500D01*
X56317713Y-39344733D01*
X56182557Y-39547008D01*
X56089460Y-39771764D01*
X56042000Y-40010363D01*
X56042000Y-40253637D01*
X56089460Y-40492236D01*
X56182557Y-40716992D01*
X56317713Y-40919267D01*
X56489733Y-41091287D01*
X56574610Y-41148000D01*
X56489733Y-41204713D01*
X56317713Y-41376733D01*
X56182557Y-41579008D01*
X56089460Y-41803764D01*
X56042000Y-42042363D01*
X56042000Y-42285637D01*
X56089460Y-42524236D01*
X56182557Y-42748992D01*
X56317713Y-42951267D01*
X56489733Y-43123287D01*
X56574610Y-43180000D01*
X56489733Y-43236713D01*
X56317713Y-43408733D01*
X56182557Y-43611008D01*
X56089460Y-43835764D01*
X56042000Y-44074363D01*
X56042000Y-44317637D01*
X56089460Y-44556236D01*
X56182557Y-44780992D01*
X56317713Y-44983267D01*
X56489733Y-45155287D01*
X56692008Y-45290443D01*
X56916764Y-45383540D01*
X57155363Y-45431000D01*
X57235022Y-45431000D01*
X60697070Y-48893049D01*
X60724783Y-48926817D01*
X60758551Y-48954530D01*
X60758553Y-48954532D01*
X60796162Y-48985397D01*
X60859541Y-49037411D01*
X61013287Y-49119589D01*
X61180110Y-49170195D01*
X61310123Y-49183000D01*
X61310133Y-49183000D01*
X61327712Y-49184731D01*
X61357995Y-49241387D01*
X61468438Y-49375962D01*
X61603013Y-49486405D01*
X61756548Y-49568472D01*
X61923144Y-49619008D01*
X62096398Y-49636072D01*
X62621402Y-49636072D01*
X62794656Y-49619008D01*
X62961252Y-49568472D01*
X63114787Y-49486405D01*
X63249362Y-49375962D01*
X63271400Y-49349109D01*
X63293438Y-49375962D01*
X63428013Y-49486405D01*
X63581548Y-49568472D01*
X63748144Y-49619008D01*
X63921398Y-49636072D01*
X64446402Y-49636072D01*
X64619656Y-49619008D01*
X64786252Y-49568472D01*
X64939787Y-49486405D01*
X65074362Y-49375962D01*
X65184805Y-49241387D01*
X65215088Y-49184731D01*
X65232669Y-49183000D01*
X65232677Y-49183000D01*
X65362690Y-49170195D01*
X65529513Y-49119589D01*
X65683259Y-49037411D01*
X65818017Y-48926817D01*
X65845734Y-48893044D01*
X66711249Y-48027530D01*
X66745017Y-47999817D01*
X66779593Y-47957687D01*
X66855610Y-47865060D01*
X66855611Y-47865059D01*
X66937789Y-47711313D01*
X66988395Y-47544490D01*
X67001200Y-47414477D01*
X67001200Y-47414469D01*
X67005481Y-47371000D01*
X67001200Y-47327531D01*
X67001200Y-46090000D01*
X67549928Y-46090000D01*
X67549928Y-47890000D01*
X67562188Y-48014482D01*
X67598498Y-48134180D01*
X67657463Y-48244494D01*
X67736815Y-48341185D01*
X67833506Y-48420537D01*
X67943820Y-48479502D01*
X67962127Y-48485056D01*
X67895688Y-48551495D01*
X67727701Y-48802905D01*
X67611989Y-49082257D01*
X67553000Y-49378816D01*
X67553000Y-49681184D01*
X67611989Y-49977743D01*
X67727701Y-50257095D01*
X67895688Y-50508505D01*
X68109495Y-50722312D01*
X68360905Y-50890299D01*
X68640257Y-51006011D01*
X68936816Y-51065000D01*
X69239184Y-51065000D01*
X69535743Y-51006011D01*
X69815095Y-50890299D01*
X70066505Y-50722312D01*
X70280312Y-50508505D01*
X70448299Y-50257095D01*
X70564011Y-49977743D01*
X70581457Y-49890031D01*
X77683698Y-49890031D01*
X77701412Y-49982502D01*
X77817429Y-50255437D01*
X77984464Y-50500494D01*
X78196097Y-50708256D01*
X78444196Y-50870738D01*
X78719227Y-50981696D01*
X79010620Y-51036866D01*
X79248000Y-50880586D01*
X79248000Y-49657000D01*
X79502000Y-49657000D01*
X79502000Y-50880586D01*
X79739380Y-51036866D01*
X80030773Y-50981696D01*
X80305804Y-50870738D01*
X80553903Y-50708256D01*
X80765536Y-50500494D01*
X80932571Y-50255437D01*
X81048588Y-49982502D01*
X81066302Y-49890031D01*
X80945246Y-49657000D01*
X79502000Y-49657000D01*
X79248000Y-49657000D01*
X77804754Y-49657000D01*
X77683698Y-49890031D01*
X70581457Y-49890031D01*
X70623000Y-49681184D01*
X70623000Y-49378816D01*
X70564011Y-49082257D01*
X70448299Y-48802905D01*
X70280312Y-48551495D01*
X70213873Y-48485056D01*
X70232180Y-48479502D01*
X70342494Y-48420537D01*
X70439185Y-48341185D01*
X70518537Y-48244494D01*
X70577502Y-48134180D01*
X70613812Y-48014482D01*
X70626072Y-47890000D01*
X70626072Y-46868363D01*
X74076000Y-46868363D01*
X74076000Y-47111637D01*
X74123460Y-47350236D01*
X74216557Y-47574992D01*
X74351713Y-47777267D01*
X74523733Y-47949287D01*
X74726008Y-48084443D01*
X74950764Y-48177540D01*
X75189363Y-48225000D01*
X75432637Y-48225000D01*
X75671236Y-48177540D01*
X75895992Y-48084443D01*
X76098267Y-47949287D01*
X76270287Y-47777267D01*
X76405443Y-47574992D01*
X76498540Y-47350236D01*
X76546000Y-47111637D01*
X76546000Y-46868363D01*
X76498540Y-46629764D01*
X76405443Y-46405008D01*
X76270287Y-46202733D01*
X76196000Y-46128446D01*
X76196000Y-46086578D01*
X76947579Y-45335000D01*
X77924367Y-45335000D01*
X78075655Y-45519345D01*
X78304821Y-45707417D01*
X78328362Y-45720000D01*
X78304821Y-45732583D01*
X78075655Y-45920655D01*
X77887583Y-46149821D01*
X77747834Y-46411275D01*
X77661776Y-46694968D01*
X77632718Y-46990000D01*
X77661776Y-47285032D01*
X77747834Y-47568725D01*
X77887583Y-47830179D01*
X78075655Y-48059345D01*
X78304821Y-48247417D01*
X78332669Y-48262302D01*
X78196097Y-48351744D01*
X77984464Y-48559506D01*
X77817429Y-48804563D01*
X77701412Y-49077498D01*
X77683698Y-49169969D01*
X77804754Y-49403000D01*
X79248000Y-49403000D01*
X79248000Y-49383000D01*
X79502000Y-49383000D01*
X79502000Y-49403000D01*
X80945246Y-49403000D01*
X81066302Y-49169969D01*
X81048588Y-49077498D01*
X80932571Y-48804563D01*
X80765536Y-48559506D01*
X80553903Y-48351744D01*
X80417331Y-48262302D01*
X80445179Y-48247417D01*
X80674345Y-48059345D01*
X80862417Y-47830179D01*
X81002166Y-47568725D01*
X81088224Y-47285032D01*
X81117282Y-46990000D01*
X81088224Y-46694968D01*
X81002166Y-46411275D01*
X80862417Y-46149821D01*
X80674345Y-45920655D01*
X80445179Y-45732583D01*
X80421638Y-45720000D01*
X80445179Y-45707417D01*
X80674345Y-45519345D01*
X80862417Y-45290179D01*
X81002166Y-45028725D01*
X81088224Y-44745032D01*
X81117282Y-44450000D01*
X81088224Y-44154968D01*
X81002166Y-43871275D01*
X80862417Y-43609821D01*
X80674345Y-43380655D01*
X80608886Y-43326934D01*
X80718387Y-43268405D01*
X80852962Y-43157962D01*
X80963405Y-43023387D01*
X81045472Y-42869851D01*
X81096008Y-42703255D01*
X81113072Y-42530001D01*
X81113072Y-41289999D01*
X81096008Y-41116745D01*
X81045472Y-40950149D01*
X80963405Y-40796613D01*
X80852962Y-40662038D01*
X80718387Y-40551595D01*
X80609686Y-40493493D01*
X80765536Y-40340494D01*
X80932571Y-40095437D01*
X81048588Y-39822502D01*
X81066302Y-39730031D01*
X80945246Y-39497000D01*
X79502000Y-39497000D01*
X79502000Y-39517000D01*
X79248000Y-39517000D01*
X79248000Y-39497000D01*
X77804754Y-39497000D01*
X77683698Y-39730031D01*
X77701412Y-39822502D01*
X77817429Y-40095437D01*
X77984464Y-40340494D01*
X78140314Y-40493493D01*
X78031613Y-40551595D01*
X77897038Y-40662038D01*
X77786595Y-40796613D01*
X77704528Y-40950149D01*
X77653992Y-41116745D01*
X77636928Y-41289999D01*
X77636928Y-42530001D01*
X77653992Y-42703255D01*
X77704528Y-42869851D01*
X77786595Y-43023387D01*
X77897038Y-43157962D01*
X78031613Y-43268405D01*
X78141114Y-43326934D01*
X78075655Y-43380655D01*
X77924367Y-43565000D01*
X76624465Y-43565000D01*
X76580999Y-43560719D01*
X76537533Y-43565000D01*
X76537523Y-43565000D01*
X76407510Y-43577805D01*
X76240687Y-43628411D01*
X76086941Y-43710589D01*
X76086939Y-43710590D01*
X76086940Y-43710590D01*
X75985953Y-43793468D01*
X75985951Y-43793470D01*
X75952183Y-43821183D01*
X75924470Y-43854951D01*
X74715951Y-45063471D01*
X74682184Y-45091183D01*
X74654471Y-45124951D01*
X74654468Y-45124954D01*
X74571590Y-45225941D01*
X74489412Y-45379687D01*
X74438805Y-45546510D01*
X74421719Y-45720000D01*
X74426001Y-45763478D01*
X74426001Y-46128445D01*
X74351713Y-46202733D01*
X74216557Y-46405008D01*
X74123460Y-46629764D01*
X74076000Y-46868363D01*
X70626072Y-46868363D01*
X70626072Y-46090000D01*
X70613812Y-45965518D01*
X70577502Y-45845820D01*
X70518537Y-45735506D01*
X70439185Y-45638815D01*
X70342494Y-45559463D01*
X70232180Y-45500498D01*
X70112482Y-45464188D01*
X69988000Y-45451928D01*
X68188000Y-45451928D01*
X68063518Y-45464188D01*
X67943820Y-45500498D01*
X67833506Y-45559463D01*
X67736815Y-45638815D01*
X67657463Y-45735506D01*
X67598498Y-45845820D01*
X67562188Y-45965518D01*
X67549928Y-46090000D01*
X67001200Y-46090000D01*
X67001200Y-45103067D01*
X67005481Y-45059601D01*
X67001200Y-45016134D01*
X67001200Y-41902667D01*
X67005481Y-41859201D01*
X67001200Y-41815734D01*
X67001200Y-39930106D01*
X67064013Y-39981655D01*
X67217548Y-40063722D01*
X67384144Y-40114258D01*
X67557398Y-40131322D01*
X68082402Y-40131322D01*
X68255656Y-40114258D01*
X68422252Y-40063722D01*
X68575787Y-39981655D01*
X68710362Y-39871212D01*
X68732400Y-39844359D01*
X68754438Y-39871212D01*
X68889013Y-39981655D01*
X69042548Y-40063722D01*
X69209144Y-40114258D01*
X69382398Y-40131322D01*
X69907402Y-40131322D01*
X70080656Y-40114258D01*
X70247252Y-40063722D01*
X70400787Y-39981655D01*
X70535362Y-39871212D01*
X70645805Y-39736637D01*
X70677014Y-39678250D01*
X71399283Y-39678250D01*
X71442749Y-39682531D01*
X71486215Y-39678250D01*
X72248786Y-39678250D01*
X72279995Y-39736637D01*
X72390438Y-39871212D01*
X72525013Y-39981655D01*
X72678548Y-40063722D01*
X72845144Y-40114258D01*
X73018398Y-40131322D01*
X73543402Y-40131322D01*
X73716656Y-40114258D01*
X73883252Y-40063722D01*
X74036787Y-39981655D01*
X74118037Y-39914974D01*
X74142215Y-39944435D01*
X74238906Y-40023787D01*
X74349220Y-40082752D01*
X74468918Y-40119062D01*
X74593400Y-40131322D01*
X74820150Y-40128250D01*
X74978900Y-39969500D01*
X74978900Y-38920250D01*
X75232900Y-38920250D01*
X75232900Y-39969500D01*
X75391650Y-40128250D01*
X75618400Y-40131322D01*
X75742882Y-40119062D01*
X75862580Y-40082752D01*
X75972894Y-40023787D01*
X76069585Y-39944435D01*
X76148937Y-39847744D01*
X76207902Y-39737430D01*
X76244212Y-39617732D01*
X76256472Y-39493250D01*
X76253400Y-39079000D01*
X76094650Y-38920250D01*
X75232900Y-38920250D01*
X74978900Y-38920250D01*
X74958900Y-38920250D01*
X74958900Y-38666250D01*
X74978900Y-38666250D01*
X74978900Y-37617000D01*
X75232900Y-37617000D01*
X75232900Y-38666250D01*
X76094650Y-38666250D01*
X76253400Y-38507500D01*
X76256472Y-38093250D01*
X76244212Y-37968768D01*
X76207902Y-37849070D01*
X76148937Y-37738756D01*
X76069585Y-37642065D01*
X75972894Y-37562713D01*
X75862580Y-37503748D01*
X75742882Y-37467438D01*
X75618400Y-37455178D01*
X75391650Y-37458250D01*
X75232900Y-37617000D01*
X74978900Y-37617000D01*
X74820150Y-37458250D01*
X74593400Y-37455178D01*
X74468918Y-37467438D01*
X74349220Y-37503748D01*
X74238906Y-37562713D01*
X74142215Y-37642065D01*
X74118037Y-37671526D01*
X74036787Y-37604845D01*
X73883252Y-37522778D01*
X73716656Y-37472242D01*
X73543402Y-37455178D01*
X73018398Y-37455178D01*
X72845144Y-37472242D01*
X72678548Y-37522778D01*
X72525013Y-37604845D01*
X72390438Y-37715288D01*
X72284400Y-37844495D01*
X72284400Y-37190031D01*
X77683698Y-37190031D01*
X77701412Y-37282502D01*
X77817429Y-37555437D01*
X77984464Y-37800494D01*
X78196097Y-38008256D01*
X78336184Y-38100000D01*
X78196097Y-38191744D01*
X77984464Y-38399506D01*
X77817429Y-38644563D01*
X77701412Y-38917498D01*
X77683698Y-39009969D01*
X77804754Y-39243000D01*
X79248000Y-39243000D01*
X79248000Y-36957000D01*
X79502000Y-36957000D01*
X79502000Y-39243000D01*
X80945246Y-39243000D01*
X81066302Y-39009969D01*
X81048588Y-38917498D01*
X80932571Y-38644563D01*
X80765536Y-38399506D01*
X80553903Y-38191744D01*
X80413816Y-38100000D01*
X80553903Y-38008256D01*
X80765536Y-37800494D01*
X80932571Y-37555437D01*
X81048588Y-37282502D01*
X81066302Y-37190031D01*
X80945246Y-36957000D01*
X79502000Y-36957000D01*
X79248000Y-36957000D01*
X77804754Y-36957000D01*
X77683698Y-37190031D01*
X72284400Y-37190031D01*
X72284400Y-36604205D01*
X72883450Y-36005156D01*
X72917217Y-35977444D01*
X73011081Y-35863072D01*
X73027811Y-35842686D01*
X73072601Y-35758889D01*
X73109989Y-35688940D01*
X73160595Y-35522117D01*
X73173400Y-35392104D01*
X73173400Y-35392096D01*
X73177681Y-35348627D01*
X73173400Y-35305158D01*
X73173400Y-34290000D01*
X77632718Y-34290000D01*
X77661776Y-34585032D01*
X77747834Y-34868725D01*
X77887583Y-35130179D01*
X78075655Y-35359345D01*
X78304821Y-35547417D01*
X78332669Y-35562302D01*
X78196097Y-35651744D01*
X77984464Y-35859506D01*
X77817429Y-36104563D01*
X77701412Y-36377498D01*
X77683698Y-36469969D01*
X77804754Y-36703000D01*
X79248000Y-36703000D01*
X79248000Y-36683000D01*
X79502000Y-36683000D01*
X79502000Y-36703000D01*
X80945246Y-36703000D01*
X81066302Y-36469969D01*
X81048588Y-36377498D01*
X80932571Y-36104563D01*
X80765536Y-35859506D01*
X80553903Y-35651744D01*
X80417331Y-35562302D01*
X80445179Y-35547417D01*
X80674345Y-35359345D01*
X80862417Y-35130179D01*
X81002166Y-34868725D01*
X81088224Y-34585032D01*
X81117282Y-34290000D01*
X81088224Y-33994968D01*
X81002166Y-33711275D01*
X80862417Y-33449821D01*
X80674345Y-33220655D01*
X80608886Y-33166934D01*
X80718387Y-33108405D01*
X80852962Y-32997962D01*
X80963405Y-32863387D01*
X81045472Y-32709851D01*
X81096008Y-32543255D01*
X81113072Y-32370001D01*
X81113072Y-31129999D01*
X81096008Y-30956745D01*
X81045472Y-30790149D01*
X80963405Y-30636613D01*
X80852962Y-30502038D01*
X80718387Y-30391595D01*
X80564851Y-30309528D01*
X80398255Y-30258992D01*
X80225001Y-30241928D01*
X78524999Y-30241928D01*
X78351745Y-30258992D01*
X78185149Y-30309528D01*
X78031613Y-30391595D01*
X77897038Y-30502038D01*
X77786595Y-30636613D01*
X77704528Y-30790149D01*
X77653992Y-30956745D01*
X77636928Y-31129999D01*
X77636928Y-32370001D01*
X77653992Y-32543255D01*
X77704528Y-32709851D01*
X77786595Y-32863387D01*
X77897038Y-32997962D01*
X78031613Y-33108405D01*
X78141114Y-33166934D01*
X78075655Y-33220655D01*
X77887583Y-33449821D01*
X77747834Y-33711275D01*
X77661776Y-33994968D01*
X77632718Y-34290000D01*
X73173400Y-34290000D01*
X73173400Y-33546065D01*
X73177681Y-33502599D01*
X73173400Y-33459133D01*
X73173400Y-33459123D01*
X73160595Y-33329110D01*
X73109989Y-33162287D01*
X73027811Y-33008541D01*
X72917217Y-32873783D01*
X72883449Y-32846070D01*
X72064399Y-32027021D01*
X72064399Y-31039656D01*
X72126031Y-30998475D01*
X72332874Y-30791632D01*
X72454594Y-30609466D01*
X72524221Y-30726355D01*
X72719130Y-30942588D01*
X72952479Y-31116641D01*
X73215300Y-31241825D01*
X73362509Y-31286476D01*
X73592399Y-31165155D01*
X73592399Y-29972000D01*
X73846399Y-29972000D01*
X73846399Y-31165155D01*
X74076289Y-31286476D01*
X74223498Y-31241825D01*
X74486319Y-31116641D01*
X74719668Y-30942588D01*
X74914577Y-30726355D01*
X75063556Y-30476252D01*
X75160880Y-30201891D01*
X75040213Y-29972000D01*
X73846399Y-29972000D01*
X73592399Y-29972000D01*
X73572399Y-29972000D01*
X73572399Y-29718000D01*
X80539679Y-29718000D01*
X80728912Y-30001207D01*
X81123793Y-30396088D01*
X81588124Y-30706344D01*
X82104061Y-30920052D01*
X82651777Y-31029000D01*
X83210223Y-31029000D01*
X83757939Y-30920052D01*
X84273876Y-30706344D01*
X84738207Y-30396088D01*
X85065000Y-30069295D01*
X85065001Y-68990706D01*
X84738207Y-68663912D01*
X84273876Y-68353656D01*
X83757939Y-68139948D01*
X83210223Y-68031000D01*
X82651777Y-68031000D01*
X82104061Y-68139948D01*
X81588124Y-68353656D01*
X81123793Y-68663912D01*
X80728912Y-69058793D01*
X80418656Y-69523124D01*
X80204948Y-70039061D01*
X80096000Y-70586777D01*
X80096000Y-71145223D01*
X80204948Y-71692939D01*
X80418656Y-72208876D01*
X80728912Y-72673207D01*
X81055705Y-73000000D01*
X78318126Y-73000000D01*
X78640117Y-72916059D01*
X78779818Y-72858193D01*
X78927207Y-72596709D01*
X77978000Y-71647502D01*
X77028793Y-72596709D01*
X77176182Y-72858193D01*
X77530693Y-72981221D01*
X77666225Y-73000000D01*
X56450394Y-73000000D01*
X56458102Y-72985580D01*
X56494412Y-72865882D01*
X56506672Y-72741400D01*
X56503600Y-72373150D01*
X56344850Y-72214400D01*
X55341600Y-72214400D01*
X55341600Y-72234400D01*
X55087600Y-72234400D01*
X55087600Y-72214400D01*
X53941600Y-72214400D01*
X53941600Y-72234400D01*
X53687600Y-72234400D01*
X53687600Y-72214400D01*
X52684350Y-72214400D01*
X52525600Y-72373150D01*
X52522528Y-72741400D01*
X52534788Y-72865882D01*
X52571098Y-72985580D01*
X52578806Y-73000000D01*
X43380394Y-73000000D01*
X43388102Y-72985580D01*
X43424412Y-72865882D01*
X43436672Y-72741400D01*
X43436672Y-71433400D01*
X52522528Y-71433400D01*
X52525600Y-71801650D01*
X52684350Y-71960400D01*
X53687600Y-71960400D01*
X53687600Y-71433400D01*
X53922528Y-71433400D01*
X53925600Y-71801650D01*
X53941600Y-71817650D01*
X53941600Y-71960400D01*
X55087600Y-71960400D01*
X55087600Y-71817650D01*
X55103600Y-71801650D01*
X55106672Y-71433400D01*
X55094412Y-71308918D01*
X55087600Y-71286462D01*
X55087600Y-70957150D01*
X55341600Y-70957150D01*
X55341600Y-71960400D01*
X56344850Y-71960400D01*
X56503600Y-71801650D01*
X56506672Y-71433400D01*
X56494412Y-71308918D01*
X56458102Y-71189220D01*
X56399137Y-71078906D01*
X56370814Y-71044394D01*
X76065277Y-71044394D01*
X76087279Y-71419001D01*
X76181941Y-71782117D01*
X76239807Y-71921818D01*
X76501291Y-72069207D01*
X77450498Y-71120000D01*
X78505502Y-71120000D01*
X79454709Y-72069207D01*
X79716193Y-71921818D01*
X79839221Y-71567307D01*
X79890723Y-71195606D01*
X79868721Y-70820999D01*
X79774059Y-70457883D01*
X79716193Y-70318182D01*
X79454709Y-70170793D01*
X78505502Y-71120000D01*
X77450498Y-71120000D01*
X76501291Y-70170793D01*
X76239807Y-70318182D01*
X76116779Y-70672693D01*
X76065277Y-71044394D01*
X56370814Y-71044394D01*
X56319785Y-70982215D01*
X56223094Y-70902863D01*
X56112780Y-70843898D01*
X55993082Y-70807588D01*
X55868600Y-70795328D01*
X55500350Y-70798400D01*
X55341600Y-70957150D01*
X55087600Y-70957150D01*
X54928850Y-70798400D01*
X54560600Y-70795328D01*
X54514600Y-70799858D01*
X54468600Y-70795328D01*
X54100350Y-70798400D01*
X53941600Y-70957150D01*
X53941600Y-71286462D01*
X53934788Y-71308918D01*
X53922528Y-71433400D01*
X53687600Y-71433400D01*
X53687600Y-70957150D01*
X53528850Y-70798400D01*
X53160600Y-70795328D01*
X53036118Y-70807588D01*
X52916420Y-70843898D01*
X52806106Y-70902863D01*
X52709415Y-70982215D01*
X52630063Y-71078906D01*
X52571098Y-71189220D01*
X52534788Y-71308918D01*
X52522528Y-71433400D01*
X43436672Y-71433400D01*
X43424412Y-71308918D01*
X43388102Y-71189220D01*
X43329137Y-71078906D01*
X43249785Y-70982215D01*
X43153094Y-70902863D01*
X43042780Y-70843898D01*
X42923082Y-70807588D01*
X42798600Y-70795328D01*
X41490600Y-70795328D01*
X41444600Y-70799858D01*
X41398600Y-70795328D01*
X40090600Y-70795328D01*
X39966118Y-70807588D01*
X39846420Y-70843898D01*
X39736106Y-70902863D01*
X39639415Y-70982215D01*
X39560063Y-71078906D01*
X39501098Y-71189220D01*
X39464788Y-71308918D01*
X39452528Y-71433400D01*
X39452528Y-72741400D01*
X39464788Y-72865882D01*
X39501098Y-72985580D01*
X39508806Y-73000000D01*
X37678126Y-73000000D01*
X38000117Y-72916059D01*
X38139818Y-72858193D01*
X38287207Y-72596709D01*
X37338000Y-71647502D01*
X36388793Y-72596709D01*
X36536182Y-72858193D01*
X36890693Y-72981221D01*
X37026225Y-73000000D01*
X23719295Y-73000000D01*
X24046088Y-72673207D01*
X24356344Y-72208876D01*
X24570052Y-71692939D01*
X24679000Y-71145223D01*
X24679000Y-71044394D01*
X35425277Y-71044394D01*
X35447279Y-71419001D01*
X35541941Y-71782117D01*
X35599807Y-71921818D01*
X35861291Y-72069207D01*
X36810498Y-71120000D01*
X37865502Y-71120000D01*
X38814709Y-72069207D01*
X39076193Y-71921818D01*
X39199221Y-71567307D01*
X39250723Y-71195606D01*
X39228721Y-70820999D01*
X39134059Y-70457883D01*
X39076193Y-70318182D01*
X38814709Y-70170793D01*
X37865502Y-71120000D01*
X36810498Y-71120000D01*
X35861291Y-70170793D01*
X35599807Y-70318182D01*
X35476779Y-70672693D01*
X35425277Y-71044394D01*
X24679000Y-71044394D01*
X24679000Y-70586777D01*
X24570052Y-70039061D01*
X24406119Y-69643291D01*
X36388793Y-69643291D01*
X37338000Y-70592498D01*
X38287207Y-69643291D01*
X77028793Y-69643291D01*
X77978000Y-70592498D01*
X78927207Y-69643291D01*
X78779818Y-69381807D01*
X78425307Y-69258779D01*
X78053606Y-69207277D01*
X77678999Y-69229279D01*
X77315883Y-69323941D01*
X77176182Y-69381807D01*
X77028793Y-69643291D01*
X38287207Y-69643291D01*
X38139818Y-69381807D01*
X37785307Y-69258779D01*
X37413606Y-69207277D01*
X37038999Y-69229279D01*
X36675883Y-69323941D01*
X36536182Y-69381807D01*
X36388793Y-69643291D01*
X24406119Y-69643291D01*
X24356344Y-69523124D01*
X24046088Y-69058793D01*
X23651207Y-68663912D01*
X23186876Y-68353656D01*
X22670939Y-68139948D01*
X22123223Y-68031000D01*
X21564777Y-68031000D01*
X21017061Y-68139948D01*
X20501124Y-68353656D01*
X20036793Y-68663912D01*
X19710000Y-68990705D01*
X19710000Y-66936000D01*
X26821928Y-66936000D01*
X26834188Y-67060482D01*
X26870498Y-67180180D01*
X26929463Y-67290494D01*
X27008815Y-67387185D01*
X27105506Y-67466537D01*
X27215820Y-67525502D01*
X27335518Y-67561812D01*
X27460000Y-67574072D01*
X28428250Y-67571000D01*
X28587000Y-67412250D01*
X28587000Y-66059000D01*
X29833000Y-66059000D01*
X29833000Y-67412250D01*
X29991750Y-67571000D01*
X30960000Y-67574072D01*
X31084482Y-67561812D01*
X31204180Y-67525502D01*
X31314494Y-67466537D01*
X31411185Y-67387185D01*
X31490537Y-67290494D01*
X31549502Y-67180180D01*
X31585812Y-67060482D01*
X31598072Y-66936000D01*
X31595000Y-66217750D01*
X31436250Y-66059000D01*
X29833000Y-66059000D01*
X28587000Y-66059000D01*
X26983750Y-66059000D01*
X26825000Y-66217750D01*
X26821928Y-66936000D01*
X19710000Y-66936000D01*
X19710000Y-66059804D01*
X24276252Y-66059804D01*
X24440404Y-66292280D01*
X24813664Y-66369491D01*
X25194814Y-66372398D01*
X25569209Y-66300892D01*
X25597596Y-66292280D01*
X25761748Y-66059804D01*
X25019000Y-65317055D01*
X24276252Y-66059804D01*
X19710000Y-66059804D01*
X19710000Y-64611814D01*
X23082602Y-64611814D01*
X23154108Y-64986209D01*
X23162720Y-65014596D01*
X23395196Y-65178748D01*
X24137945Y-64436000D01*
X25900055Y-64436000D01*
X26642804Y-65178748D01*
X26875280Y-65014596D01*
X26928425Y-64757675D01*
X26983750Y-64813000D01*
X28587000Y-64813000D01*
X28587000Y-63459750D01*
X29833000Y-63459750D01*
X29833000Y-64813000D01*
X31436250Y-64813000D01*
X31595000Y-64654250D01*
X31595756Y-64477434D01*
X31629463Y-64540494D01*
X31708815Y-64637185D01*
X31805506Y-64716537D01*
X31915820Y-64775502D01*
X32035518Y-64811812D01*
X32160000Y-64824072D01*
X33128250Y-64821000D01*
X33287000Y-64662250D01*
X33287000Y-63059000D01*
X34533000Y-63059000D01*
X34533000Y-64662250D01*
X34691750Y-64821000D01*
X35660000Y-64824072D01*
X35784482Y-64811812D01*
X35904180Y-64775502D01*
X36014494Y-64716537D01*
X36111185Y-64637185D01*
X36190537Y-64540494D01*
X36249502Y-64430180D01*
X36285812Y-64310482D01*
X36298072Y-64186000D01*
X36295000Y-63217750D01*
X36136250Y-63059000D01*
X34533000Y-63059000D01*
X33287000Y-63059000D01*
X31683750Y-63059000D01*
X31525000Y-63217750D01*
X31523649Y-63643454D01*
X31490537Y-63581506D01*
X31411185Y-63484815D01*
X31314494Y-63405463D01*
X31204180Y-63346498D01*
X31084482Y-63310188D01*
X30960000Y-63297928D01*
X29991750Y-63301000D01*
X29833000Y-63459750D01*
X28587000Y-63459750D01*
X28428250Y-63301000D01*
X27460000Y-63297928D01*
X27335518Y-63310188D01*
X27215820Y-63346498D01*
X27105506Y-63405463D01*
X27008815Y-63484815D01*
X26929463Y-63581506D01*
X26870498Y-63691820D01*
X26834188Y-63811518D01*
X26832634Y-63827292D01*
X26642804Y-63693252D01*
X25900055Y-64436000D01*
X24137945Y-64436000D01*
X23395196Y-63693252D01*
X23162720Y-63857404D01*
X23085509Y-64230664D01*
X23082602Y-64611814D01*
X19710000Y-64611814D01*
X19710000Y-62812196D01*
X24276252Y-62812196D01*
X25019000Y-63554945D01*
X25761748Y-62812196D01*
X25597596Y-62579720D01*
X25224336Y-62502509D01*
X24843186Y-62499602D01*
X24468791Y-62571108D01*
X24440404Y-62579720D01*
X24276252Y-62812196D01*
X19710000Y-62812196D01*
X19710000Y-57077860D01*
X19735864Y-57126248D01*
X19806223Y-57257881D01*
X20073023Y-57582977D01*
X20398119Y-57849777D01*
X20431015Y-57867360D01*
X22756169Y-60192514D01*
X22804887Y-60353116D01*
X23026351Y-60767446D01*
X23091890Y-60847306D01*
X23093188Y-60860482D01*
X23129498Y-60980180D01*
X23188463Y-61090494D01*
X23267815Y-61187185D01*
X23364506Y-61266537D01*
X23474820Y-61325502D01*
X23594518Y-61361812D01*
X23607694Y-61363110D01*
X23687554Y-61428649D01*
X24101884Y-61650113D01*
X24551458Y-61786490D01*
X24901843Y-61821000D01*
X27428808Y-61821000D01*
X27460000Y-61824072D01*
X30960000Y-61824072D01*
X31084482Y-61811812D01*
X31204180Y-61775502D01*
X31314494Y-61716537D01*
X31411185Y-61637185D01*
X31490537Y-61540494D01*
X31524438Y-61477071D01*
X31525000Y-61654250D01*
X31683750Y-61813000D01*
X33287000Y-61813000D01*
X33287000Y-60209750D01*
X34533000Y-60209750D01*
X34533000Y-61813000D01*
X36136250Y-61813000D01*
X36295000Y-61654250D01*
X36298072Y-60686000D01*
X36285812Y-60561518D01*
X36249502Y-60441820D01*
X36190537Y-60331506D01*
X36111185Y-60234815D01*
X36014494Y-60155463D01*
X35904180Y-60096498D01*
X35784482Y-60060188D01*
X35660000Y-60047928D01*
X34691750Y-60051000D01*
X34533000Y-60209750D01*
X33287000Y-60209750D01*
X33128250Y-60051000D01*
X32160000Y-60047928D01*
X32035518Y-60060188D01*
X31915820Y-60096498D01*
X31805506Y-60155463D01*
X31708815Y-60234815D01*
X31629463Y-60331506D01*
X31598072Y-60390233D01*
X31598072Y-59521967D01*
X31606539Y-59436000D01*
X31598072Y-59350033D01*
X31598072Y-57963167D01*
X34586240Y-54975000D01*
X35546085Y-54975000D01*
X35616815Y-55061185D01*
X35713506Y-55140537D01*
X35823820Y-55199502D01*
X35943518Y-55235812D01*
X36068000Y-55248072D01*
X38608000Y-55248072D01*
X38732482Y-55235812D01*
X38852180Y-55199502D01*
X38962494Y-55140537D01*
X39059185Y-55061185D01*
X39138537Y-54964494D01*
X39197502Y-54854180D01*
X39233812Y-54734482D01*
X39246072Y-54610000D01*
X39246072Y-54409564D01*
X39298447Y-54393676D01*
X39495623Y-54288284D01*
X39566975Y-54229727D01*
X39582886Y-54249114D01*
X39831848Y-54453431D01*
X40115885Y-54605252D01*
X40424084Y-54698743D01*
X40664278Y-54722400D01*
X42224922Y-54722400D01*
X42465116Y-54698743D01*
X42773315Y-54605252D01*
X43057352Y-54453431D01*
X43306314Y-54249114D01*
X43510631Y-54000152D01*
X43648936Y-53741400D01*
X52522528Y-53741400D01*
X52534788Y-53865882D01*
X52571098Y-53985580D01*
X52630063Y-54095894D01*
X52709415Y-54192585D01*
X52806106Y-54271937D01*
X52916420Y-54330902D01*
X53036118Y-54367212D01*
X53160600Y-54379472D01*
X53528850Y-54376400D01*
X53687600Y-54217650D01*
X53687600Y-53741400D01*
X53922528Y-53741400D01*
X53934788Y-53865882D01*
X53941600Y-53888338D01*
X53941600Y-54217650D01*
X54100350Y-54376400D01*
X54468600Y-54379472D01*
X54514600Y-54374942D01*
X54560600Y-54379472D01*
X54928850Y-54376400D01*
X55087600Y-54217650D01*
X55087600Y-53888338D01*
X55094412Y-53865882D01*
X55106672Y-53741400D01*
X55103600Y-53373150D01*
X55087600Y-53357150D01*
X55087600Y-53214400D01*
X55341600Y-53214400D01*
X55341600Y-54217650D01*
X55500350Y-54376400D01*
X55868600Y-54379472D01*
X55993082Y-54367212D01*
X56112780Y-54330902D01*
X56223094Y-54271937D01*
X56319785Y-54192585D01*
X56399137Y-54095894D01*
X56458102Y-53985580D01*
X56494412Y-53865882D01*
X56506672Y-53741400D01*
X56503600Y-53373150D01*
X56344850Y-53214400D01*
X55341600Y-53214400D01*
X55087600Y-53214400D01*
X53941600Y-53214400D01*
X53941600Y-53357150D01*
X53925600Y-53373150D01*
X53922528Y-53741400D01*
X53687600Y-53741400D01*
X53687600Y-53214400D01*
X52684350Y-53214400D01*
X52525600Y-53373150D01*
X52522528Y-53741400D01*
X43648936Y-53741400D01*
X43662452Y-53716115D01*
X43755943Y-53407916D01*
X43781111Y-53152374D01*
X76073000Y-53152374D01*
X76073000Y-53527626D01*
X76146209Y-53895668D01*
X76289811Y-54242356D01*
X76498290Y-54554366D01*
X76763634Y-54819710D01*
X77075644Y-55028189D01*
X77422332Y-55171791D01*
X77790374Y-55245000D01*
X78165626Y-55245000D01*
X78533668Y-55171791D01*
X78880356Y-55028189D01*
X79192366Y-54819710D01*
X79457710Y-54554366D01*
X79666189Y-54242356D01*
X79809791Y-53895668D01*
X79883000Y-53527626D01*
X79883000Y-53152374D01*
X79809791Y-52784332D01*
X79666189Y-52437644D01*
X79457710Y-52125634D01*
X79192366Y-51860290D01*
X78880356Y-51651811D01*
X78533668Y-51508209D01*
X78165626Y-51435000D01*
X77790374Y-51435000D01*
X77422332Y-51508209D01*
X77075644Y-51651811D01*
X76763634Y-51860290D01*
X76498290Y-52125634D01*
X76289811Y-52437644D01*
X76146209Y-52784332D01*
X76073000Y-53152374D01*
X43781111Y-53152374D01*
X43787511Y-53087400D01*
X43755943Y-52766884D01*
X43662452Y-52458685D01*
X43648937Y-52433400D01*
X52522528Y-52433400D01*
X52525600Y-52801650D01*
X52684350Y-52960400D01*
X53687600Y-52960400D01*
X53687600Y-52433400D01*
X53922528Y-52433400D01*
X53925600Y-52801650D01*
X53941600Y-52817650D01*
X53941600Y-52960400D01*
X55087600Y-52960400D01*
X55087600Y-52817650D01*
X55103600Y-52801650D01*
X55106672Y-52433400D01*
X55094412Y-52308918D01*
X55087600Y-52286462D01*
X55087600Y-51957150D01*
X55341600Y-51957150D01*
X55341600Y-52960400D01*
X56344850Y-52960400D01*
X56503600Y-52801650D01*
X56506672Y-52433400D01*
X56494412Y-52308918D01*
X56458102Y-52189220D01*
X56399137Y-52078906D01*
X56319785Y-51982215D01*
X56223094Y-51902863D01*
X56112780Y-51843898D01*
X55993082Y-51807588D01*
X55868600Y-51795328D01*
X55500350Y-51798400D01*
X55341600Y-51957150D01*
X55087600Y-51957150D01*
X54928850Y-51798400D01*
X54560600Y-51795328D01*
X54514600Y-51799858D01*
X54468600Y-51795328D01*
X54100350Y-51798400D01*
X53941600Y-51957150D01*
X53941600Y-52286462D01*
X53934788Y-52308918D01*
X53922528Y-52433400D01*
X53687600Y-52433400D01*
X53687600Y-51957150D01*
X53528850Y-51798400D01*
X53160600Y-51795328D01*
X53036118Y-51807588D01*
X52916420Y-51843898D01*
X52806106Y-51902863D01*
X52709415Y-51982215D01*
X52630063Y-52078906D01*
X52571098Y-52189220D01*
X52534788Y-52308918D01*
X52522528Y-52433400D01*
X43648937Y-52433400D01*
X43510631Y-52174648D01*
X43306314Y-51925686D01*
X43057352Y-51721369D01*
X42773315Y-51569548D01*
X42465116Y-51476057D01*
X42224922Y-51452400D01*
X40664278Y-51452400D01*
X40424084Y-51476057D01*
X40115885Y-51569548D01*
X39831848Y-51721369D01*
X39582886Y-51925686D01*
X39560962Y-51952400D01*
X39234490Y-51952400D01*
X39233812Y-51945518D01*
X39197502Y-51825820D01*
X39138537Y-51715506D01*
X39059185Y-51618815D01*
X38962494Y-51539463D01*
X38852180Y-51480498D01*
X38732482Y-51444188D01*
X38608000Y-51431928D01*
X36068000Y-51431928D01*
X35943518Y-51444188D01*
X35823820Y-51480498D01*
X35713506Y-51539463D01*
X35616815Y-51618815D01*
X35546085Y-51705000D01*
X33989330Y-51705000D01*
X33909000Y-51697088D01*
X33588483Y-51728657D01*
X33368699Y-51795328D01*
X33280285Y-51822148D01*
X32996248Y-51973969D01*
X32747286Y-52178286D01*
X32696084Y-52240676D01*
X28110682Y-56826080D01*
X28048287Y-56877286D01*
X27908245Y-57047928D01*
X27460000Y-57047928D01*
X27428808Y-57051000D01*
X25653345Y-57051000D01*
X23725000Y-55122655D01*
X23725000Y-54011800D01*
X23755464Y-54056494D01*
X23967097Y-54264256D01*
X24215196Y-54426738D01*
X24490227Y-54537696D01*
X24781620Y-54592866D01*
X25019000Y-54436586D01*
X25019000Y-53213000D01*
X25273000Y-53213000D01*
X25273000Y-54436586D01*
X25510380Y-54592866D01*
X25801773Y-54537696D01*
X26076804Y-54426738D01*
X26324903Y-54264256D01*
X26536536Y-54056494D01*
X26703571Y-53811437D01*
X26819588Y-53538502D01*
X26837302Y-53446031D01*
X26716246Y-53213000D01*
X25273000Y-53213000D01*
X25019000Y-53213000D01*
X24999000Y-53213000D01*
X24999000Y-52959000D01*
X25019000Y-52959000D01*
X25019000Y-52939000D01*
X25273000Y-52939000D01*
X25273000Y-52959000D01*
X26716246Y-52959000D01*
X26837302Y-52725969D01*
X26819588Y-52633498D01*
X26703571Y-52360563D01*
X26536536Y-52115506D01*
X26324903Y-51907744D01*
X26188331Y-51818302D01*
X26216179Y-51803417D01*
X26445345Y-51615345D01*
X26633417Y-51386179D01*
X26773166Y-51124725D01*
X26859224Y-50841032D01*
X26888282Y-50546000D01*
X26859224Y-50250968D01*
X26773166Y-49967275D01*
X26633417Y-49705821D01*
X26445345Y-49476655D01*
X26379886Y-49422934D01*
X26489387Y-49364405D01*
X26623962Y-49253962D01*
X26734405Y-49119387D01*
X26816472Y-48965851D01*
X26867008Y-48799255D01*
X26884072Y-48626001D01*
X26884072Y-47385999D01*
X26867008Y-47212745D01*
X26816472Y-47046149D01*
X26734405Y-46892613D01*
X26623962Y-46758038D01*
X26489387Y-46647595D01*
X26380686Y-46589493D01*
X26536536Y-46436494D01*
X26703571Y-46191437D01*
X26819588Y-45918502D01*
X26837302Y-45826031D01*
X26716247Y-45593002D01*
X26770764Y-45593002D01*
X29775080Y-48597319D01*
X29826286Y-48659714D01*
X30075248Y-48864031D01*
X30359285Y-49015852D01*
X30667484Y-49109343D01*
X30907678Y-49133000D01*
X30907680Y-49133000D01*
X30987999Y-49140911D01*
X31068319Y-49133000D01*
X31727322Y-49133000D01*
X31967516Y-49109343D01*
X32275715Y-49015852D01*
X32530343Y-48879750D01*
X33062000Y-48879750D01*
X33073896Y-48985397D01*
X33112674Y-49104318D01*
X33173907Y-49213389D01*
X33255242Y-49308419D01*
X33353553Y-49385755D01*
X33465063Y-49442425D01*
X33585486Y-49476252D01*
X33665250Y-49483000D01*
X33824000Y-49324250D01*
X33824000Y-48721000D01*
X34470000Y-48721000D01*
X34470000Y-49324250D01*
X34628750Y-49483000D01*
X34708514Y-49476252D01*
X34828937Y-49442425D01*
X34940447Y-49385755D01*
X35038758Y-49308419D01*
X35120093Y-49213389D01*
X35181326Y-49104318D01*
X35215994Y-48998000D01*
X36163928Y-48998000D01*
X36176188Y-49122482D01*
X36212498Y-49242180D01*
X36271463Y-49352494D01*
X36350815Y-49449185D01*
X36447506Y-49528537D01*
X36557820Y-49587502D01*
X36677518Y-49623812D01*
X36802000Y-49636072D01*
X37028750Y-49633000D01*
X37187500Y-49474250D01*
X37187500Y-48425000D01*
X36325750Y-48425000D01*
X36167000Y-48583750D01*
X36163928Y-48998000D01*
X35215994Y-48998000D01*
X35220104Y-48985397D01*
X35232000Y-48879750D01*
X35073250Y-48721000D01*
X34470000Y-48721000D01*
X33824000Y-48721000D01*
X33220750Y-48721000D01*
X33062000Y-48879750D01*
X32530343Y-48879750D01*
X32559752Y-48864031D01*
X32808714Y-48659714D01*
X33013031Y-48410752D01*
X33044184Y-48352468D01*
X33048185Y-48349185D01*
X33127537Y-48252494D01*
X33186502Y-48142180D01*
X33186834Y-48141084D01*
X33220750Y-48175000D01*
X33824000Y-48175000D01*
X33824000Y-48048000D01*
X34470000Y-48048000D01*
X34470000Y-48175000D01*
X35073250Y-48175000D01*
X35232000Y-48016250D01*
X35220104Y-47910603D01*
X35181326Y-47791682D01*
X35120093Y-47682611D01*
X35038758Y-47587581D01*
X35020002Y-47572827D01*
X35020002Y-47433000D01*
X36188479Y-47433000D01*
X36176188Y-47473518D01*
X36163928Y-47598000D01*
X36167000Y-48012250D01*
X36325750Y-48171000D01*
X37187500Y-48171000D01*
X37187500Y-48151000D01*
X37441500Y-48151000D01*
X37441500Y-48171000D01*
X37461500Y-48171000D01*
X37461500Y-48425000D01*
X37441500Y-48425000D01*
X37441500Y-49474250D01*
X37600250Y-49633000D01*
X37827000Y-49636072D01*
X37951482Y-49623812D01*
X38071180Y-49587502D01*
X38181494Y-49528537D01*
X38278185Y-49449185D01*
X38302363Y-49419724D01*
X38383613Y-49486405D01*
X38537148Y-49568472D01*
X38703744Y-49619008D01*
X38876998Y-49636072D01*
X39402002Y-49636072D01*
X39575256Y-49619008D01*
X39741852Y-49568472D01*
X39895387Y-49486405D01*
X40029962Y-49375962D01*
X40140405Y-49241387D01*
X40171614Y-49183000D01*
X40812524Y-49183000D01*
X40856000Y-49187282D01*
X40899477Y-49183000D01*
X41616386Y-49183000D01*
X41647595Y-49241387D01*
X41758038Y-49375962D01*
X41892613Y-49486405D01*
X42046148Y-49568472D01*
X42212744Y-49619008D01*
X42385998Y-49636072D01*
X42911002Y-49636072D01*
X43084256Y-49619008D01*
X43250852Y-49568472D01*
X43404387Y-49486405D01*
X43538962Y-49375962D01*
X43561000Y-49349109D01*
X43583038Y-49375962D01*
X43717613Y-49486405D01*
X43871148Y-49568472D01*
X44037744Y-49619008D01*
X44210998Y-49636072D01*
X44736002Y-49636072D01*
X44909256Y-49619008D01*
X45075852Y-49568472D01*
X45229387Y-49486405D01*
X45363962Y-49375962D01*
X45474405Y-49241387D01*
X45507511Y-49179451D01*
X45601490Y-49170195D01*
X45768313Y-49119589D01*
X45922059Y-49037411D01*
X46056817Y-48926817D01*
X46084534Y-48893044D01*
X47666979Y-47310600D01*
X47721237Y-47310600D01*
X47959836Y-47263140D01*
X48184592Y-47170043D01*
X48386867Y-47034887D01*
X48558887Y-46862867D01*
X48694043Y-46660592D01*
X48787140Y-46435836D01*
X48834600Y-46197237D01*
X48834600Y-45953963D01*
X48787140Y-45715364D01*
X48694043Y-45490608D01*
X48558887Y-45288333D01*
X48386867Y-45116313D01*
X48184592Y-44981157D01*
X47959836Y-44888060D01*
X47721237Y-44840600D01*
X47477963Y-44840600D01*
X47239364Y-44888060D01*
X47014608Y-44981157D01*
X46812333Y-45116313D01*
X46640313Y-45288333D01*
X46505157Y-45490608D01*
X46412060Y-45715364D01*
X46364600Y-45953963D01*
X46364600Y-46109821D01*
X45303777Y-47170645D01*
X45229387Y-47109595D01*
X45075852Y-47027528D01*
X44909256Y-46976992D01*
X44736002Y-46959928D01*
X44210998Y-46959928D01*
X44037744Y-46976992D01*
X43871148Y-47027528D01*
X43717613Y-47109595D01*
X43583038Y-47220038D01*
X43561000Y-47246891D01*
X43538962Y-47220038D01*
X43404387Y-47109595D01*
X43250852Y-47027528D01*
X43084256Y-46976992D01*
X42911002Y-46959928D01*
X42385998Y-46959928D01*
X42212744Y-46976992D01*
X42046148Y-47027528D01*
X41892613Y-47109595D01*
X41758038Y-47220038D01*
X41741000Y-47240799D01*
X41741000Y-47122465D01*
X41745281Y-47078999D01*
X41741000Y-47035533D01*
X41741000Y-47035523D01*
X41728195Y-46905510D01*
X41677589Y-46738687D01*
X41595411Y-46584941D01*
X41484817Y-46450183D01*
X41451045Y-46422467D01*
X40981534Y-45952956D01*
X40953817Y-45919183D01*
X40819059Y-45808589D01*
X40665313Y-45726411D01*
X40498490Y-45675805D01*
X40368477Y-45663000D01*
X40368469Y-45663000D01*
X40325000Y-45658719D01*
X40281531Y-45663000D01*
X35006981Y-45663000D01*
X34951494Y-45617463D01*
X34841180Y-45558498D01*
X34721482Y-45522188D01*
X34597000Y-45509928D01*
X33697000Y-45509928D01*
X33572518Y-45522188D01*
X33452820Y-45558498D01*
X33342506Y-45617463D01*
X33245815Y-45696815D01*
X33166463Y-45793506D01*
X33107498Y-45903820D01*
X33071188Y-46023518D01*
X33058928Y-46148000D01*
X33058928Y-46659905D01*
X33048185Y-46646815D01*
X33044184Y-46643532D01*
X33013031Y-46585248D01*
X32808714Y-46336286D01*
X32559752Y-46131969D01*
X32275715Y-45980148D01*
X31967516Y-45886657D01*
X31727322Y-45863000D01*
X31665239Y-45863000D01*
X28338111Y-42535873D01*
X28581285Y-42665852D01*
X28889484Y-42759343D01*
X29129678Y-42783000D01*
X29129680Y-42783000D01*
X29210000Y-42790911D01*
X29290319Y-42783000D01*
X31727322Y-42783000D01*
X31967516Y-42759343D01*
X32275715Y-42665852D01*
X32530343Y-42529750D01*
X33062000Y-42529750D01*
X33073896Y-42635397D01*
X33112674Y-42754318D01*
X33173907Y-42863389D01*
X33255242Y-42958419D01*
X33353553Y-43035755D01*
X33465063Y-43092425D01*
X33585486Y-43126252D01*
X33665250Y-43133000D01*
X33824000Y-42974250D01*
X33824000Y-42371000D01*
X34470000Y-42371000D01*
X34470000Y-42974250D01*
X34628750Y-43133000D01*
X34708514Y-43126252D01*
X34828937Y-43092425D01*
X34940447Y-43035755D01*
X35038758Y-42958419D01*
X35120093Y-42863389D01*
X35181326Y-42754318D01*
X35215994Y-42648000D01*
X36163928Y-42648000D01*
X36176188Y-42772482D01*
X36212498Y-42892180D01*
X36271463Y-43002494D01*
X36350815Y-43099185D01*
X36447506Y-43178537D01*
X36557820Y-43237502D01*
X36677518Y-43273812D01*
X36802000Y-43286072D01*
X37028750Y-43283000D01*
X37187500Y-43124250D01*
X37187500Y-42075000D01*
X36325750Y-42075000D01*
X36167000Y-42233750D01*
X36163928Y-42648000D01*
X35215994Y-42648000D01*
X35220104Y-42635397D01*
X35232000Y-42529750D01*
X35073250Y-42371000D01*
X34470000Y-42371000D01*
X33824000Y-42371000D01*
X33220750Y-42371000D01*
X33062000Y-42529750D01*
X32530343Y-42529750D01*
X32559752Y-42514031D01*
X32808714Y-42309714D01*
X33013031Y-42060752D01*
X33044184Y-42002468D01*
X33048185Y-41999185D01*
X33127537Y-41902494D01*
X33186502Y-41792180D01*
X33186834Y-41791084D01*
X33220750Y-41825000D01*
X33824000Y-41825000D01*
X33824000Y-41698000D01*
X34470000Y-41698000D01*
X34470000Y-41825000D01*
X35073250Y-41825000D01*
X35232000Y-41666250D01*
X35220104Y-41560603D01*
X35181326Y-41441682D01*
X35120093Y-41332611D01*
X35038758Y-41237581D01*
X35020002Y-41222827D01*
X35020002Y-41083000D01*
X36188479Y-41083000D01*
X36176188Y-41123518D01*
X36163928Y-41248000D01*
X36167000Y-41662250D01*
X36325750Y-41821000D01*
X37187500Y-41821000D01*
X37187500Y-41801000D01*
X37441500Y-41801000D01*
X37441500Y-41821000D01*
X37461500Y-41821000D01*
X37461500Y-42075000D01*
X37441500Y-42075000D01*
X37441500Y-43124250D01*
X37600250Y-43283000D01*
X37827000Y-43286072D01*
X37951482Y-43273812D01*
X38071180Y-43237502D01*
X38181494Y-43178537D01*
X38278185Y-43099185D01*
X38302363Y-43069724D01*
X38383613Y-43136405D01*
X38537148Y-43218472D01*
X38703744Y-43269008D01*
X38876998Y-43286072D01*
X39402002Y-43286072D01*
X39575256Y-43269008D01*
X39741852Y-43218472D01*
X39895387Y-43136405D01*
X40029962Y-43025962D01*
X40140405Y-42891387D01*
X40171614Y-42833000D01*
X40888524Y-42833000D01*
X40932000Y-42837282D01*
X40975477Y-42833000D01*
X41616386Y-42833000D01*
X41647595Y-42891387D01*
X41758038Y-43025962D01*
X41892613Y-43136405D01*
X42046148Y-43218472D01*
X42212744Y-43269008D01*
X42385998Y-43286072D01*
X42911002Y-43286072D01*
X43084256Y-43269008D01*
X43250852Y-43218472D01*
X43404387Y-43136405D01*
X43538962Y-43025962D01*
X43561000Y-42999109D01*
X43583038Y-43025962D01*
X43717613Y-43136405D01*
X43871148Y-43218472D01*
X44037744Y-43269008D01*
X44210998Y-43286072D01*
X44736002Y-43286072D01*
X44909256Y-43269008D01*
X45075852Y-43218472D01*
X45229387Y-43136405D01*
X45363962Y-43025962D01*
X45474405Y-42891387D01*
X45505614Y-42833000D01*
X45638531Y-42833000D01*
X45682000Y-42837281D01*
X45725469Y-42833000D01*
X45725477Y-42833000D01*
X45855490Y-42820195D01*
X46022313Y-42769589D01*
X46176059Y-42687411D01*
X46310817Y-42576817D01*
X46338534Y-42543044D01*
X46975579Y-41906000D01*
X47398446Y-41906000D01*
X47472733Y-41980287D01*
X47675008Y-42115443D01*
X47899764Y-42208540D01*
X48138363Y-42256000D01*
X48381637Y-42256000D01*
X48620236Y-42208540D01*
X48844992Y-42115443D01*
X49047267Y-41980287D01*
X49219287Y-41808267D01*
X49354443Y-41605992D01*
X49447540Y-41381236D01*
X49495000Y-41142637D01*
X49495000Y-40899363D01*
X49447540Y-40660764D01*
X49354443Y-40436008D01*
X49219287Y-40233733D01*
X49047267Y-40061713D01*
X48844992Y-39926557D01*
X48620236Y-39833460D01*
X48381637Y-39786000D01*
X48138363Y-39786000D01*
X47899764Y-39833460D01*
X47675008Y-39926557D01*
X47472733Y-40061713D01*
X47398446Y-40136000D01*
X46652469Y-40136000D01*
X46609000Y-40131719D01*
X46565531Y-40136000D01*
X46565523Y-40136000D01*
X46450306Y-40147348D01*
X46435509Y-40148805D01*
X46403557Y-40158498D01*
X46268687Y-40199411D01*
X46114941Y-40281589D01*
X46114939Y-40281590D01*
X46114940Y-40281590D01*
X46013953Y-40364468D01*
X46013951Y-40364470D01*
X45980183Y-40392183D01*
X45952470Y-40425951D01*
X45429061Y-40949361D01*
X45363962Y-40870038D01*
X45229387Y-40759595D01*
X45075852Y-40677528D01*
X44909256Y-40626992D01*
X44736002Y-40609928D01*
X44210998Y-40609928D01*
X44037744Y-40626992D01*
X43871148Y-40677528D01*
X43717613Y-40759595D01*
X43583038Y-40870038D01*
X43561000Y-40896891D01*
X43538962Y-40870038D01*
X43404387Y-40759595D01*
X43250852Y-40677528D01*
X43084256Y-40626992D01*
X42911002Y-40609928D01*
X42385998Y-40609928D01*
X42212744Y-40626992D01*
X42046148Y-40677528D01*
X41892613Y-40759595D01*
X41819874Y-40819291D01*
X41821281Y-40805000D01*
X41817000Y-40761531D01*
X41817000Y-40761523D01*
X41804195Y-40631510D01*
X41772474Y-40526941D01*
X41753589Y-40464686D01*
X41671411Y-40310941D01*
X41588532Y-40209953D01*
X41588530Y-40209951D01*
X41560817Y-40176183D01*
X41527050Y-40148471D01*
X40981534Y-39602956D01*
X40953817Y-39569183D01*
X40819059Y-39458589D01*
X40665313Y-39376411D01*
X40498490Y-39325805D01*
X40368477Y-39313000D01*
X40368469Y-39313000D01*
X40325000Y-39308719D01*
X40281531Y-39313000D01*
X35006981Y-39313000D01*
X34951494Y-39267463D01*
X34841180Y-39208498D01*
X34721482Y-39172188D01*
X34597000Y-39159928D01*
X33697000Y-39159928D01*
X33572518Y-39172188D01*
X33452820Y-39208498D01*
X33342506Y-39267463D01*
X33245815Y-39346815D01*
X33166463Y-39443506D01*
X33107498Y-39553820D01*
X33071188Y-39673518D01*
X33058928Y-39798000D01*
X33058928Y-40309905D01*
X33048185Y-40296815D01*
X33044184Y-40293532D01*
X33013031Y-40235248D01*
X32808714Y-39986286D01*
X32559752Y-39781969D01*
X32275715Y-39630148D01*
X31967516Y-39536657D01*
X31727322Y-39513000D01*
X29887238Y-39513000D01*
X29700916Y-39326678D01*
X29649705Y-39264277D01*
X29400743Y-39059960D01*
X29116706Y-38908139D01*
X28978134Y-38866104D01*
X31384239Y-36460000D01*
X31727322Y-36460000D01*
X31967516Y-36436343D01*
X32275715Y-36342852D01*
X32530343Y-36206750D01*
X33062000Y-36206750D01*
X33073896Y-36312397D01*
X33112674Y-36431318D01*
X33173907Y-36540389D01*
X33255242Y-36635419D01*
X33353553Y-36712755D01*
X33465063Y-36769425D01*
X33585486Y-36803252D01*
X33665250Y-36810000D01*
X33824000Y-36651250D01*
X33824000Y-36048000D01*
X34470000Y-36048000D01*
X34470000Y-36651250D01*
X34628750Y-36810000D01*
X34708514Y-36803252D01*
X34828937Y-36769425D01*
X34940447Y-36712755D01*
X35038758Y-36635419D01*
X35120093Y-36540389D01*
X35181326Y-36431318D01*
X35215994Y-36325000D01*
X36163928Y-36325000D01*
X36176188Y-36449482D01*
X36212498Y-36569180D01*
X36271463Y-36679494D01*
X36350815Y-36776185D01*
X36447506Y-36855537D01*
X36557820Y-36914502D01*
X36677518Y-36950812D01*
X36802000Y-36963072D01*
X37028750Y-36960000D01*
X37187500Y-36801250D01*
X37187500Y-35752000D01*
X36325750Y-35752000D01*
X36167000Y-35910750D01*
X36163928Y-36325000D01*
X35215994Y-36325000D01*
X35220104Y-36312397D01*
X35232000Y-36206750D01*
X35073250Y-36048000D01*
X34470000Y-36048000D01*
X33824000Y-36048000D01*
X33220750Y-36048000D01*
X33062000Y-36206750D01*
X32530343Y-36206750D01*
X32559752Y-36191031D01*
X32808714Y-35986714D01*
X33013031Y-35737752D01*
X33044184Y-35679468D01*
X33048185Y-35676185D01*
X33127537Y-35579494D01*
X33186502Y-35469180D01*
X33186834Y-35468084D01*
X33220750Y-35502000D01*
X33824000Y-35502000D01*
X33824000Y-35375000D01*
X34470000Y-35375000D01*
X34470000Y-35502000D01*
X35073250Y-35502000D01*
X35232000Y-35343250D01*
X35220104Y-35237603D01*
X35181326Y-35118682D01*
X35120093Y-35009611D01*
X35038758Y-34914581D01*
X35020002Y-34899827D01*
X35020002Y-34760000D01*
X36188479Y-34760000D01*
X36176188Y-34800518D01*
X36163928Y-34925000D01*
X36167000Y-35339250D01*
X36325750Y-35498000D01*
X37187500Y-35498000D01*
X37187500Y-35478000D01*
X37441500Y-35478000D01*
X37441500Y-35498000D01*
X37461500Y-35498000D01*
X37461500Y-35752000D01*
X37441500Y-35752000D01*
X37441500Y-36801250D01*
X37600250Y-36960000D01*
X37827000Y-36963072D01*
X37951482Y-36950812D01*
X38071180Y-36914502D01*
X38181494Y-36855537D01*
X38278185Y-36776185D01*
X38302363Y-36746724D01*
X38383613Y-36813405D01*
X38537148Y-36895472D01*
X38703744Y-36946008D01*
X38876998Y-36963072D01*
X39402002Y-36963072D01*
X39575256Y-36946008D01*
X39741852Y-36895472D01*
X39895387Y-36813405D01*
X40029962Y-36702962D01*
X40140405Y-36568387D01*
X40171614Y-36510000D01*
X41042524Y-36510000D01*
X41086000Y-36514282D01*
X41129477Y-36510000D01*
X41616386Y-36510000D01*
X41647595Y-36568387D01*
X41758038Y-36702962D01*
X41892613Y-36813405D01*
X42046148Y-36895472D01*
X42212744Y-36946008D01*
X42385998Y-36963072D01*
X42911002Y-36963072D01*
X43084256Y-36946008D01*
X43250852Y-36895472D01*
X43404387Y-36813405D01*
X43538962Y-36702962D01*
X43561000Y-36676109D01*
X43583038Y-36702962D01*
X43717613Y-36813405D01*
X43871148Y-36895472D01*
X44037744Y-36946008D01*
X44210998Y-36963072D01*
X44736002Y-36963072D01*
X44909256Y-36946008D01*
X45075852Y-36895472D01*
X45229387Y-36813405D01*
X45363962Y-36702962D01*
X45474405Y-36568387D01*
X45505614Y-36510000D01*
X46523933Y-36510000D01*
X46530557Y-36525992D01*
X46665713Y-36728267D01*
X46837733Y-36900287D01*
X47040008Y-37035443D01*
X47264764Y-37128540D01*
X47503363Y-37176000D01*
X47746637Y-37176000D01*
X47985236Y-37128540D01*
X48209992Y-37035443D01*
X48412267Y-36900287D01*
X48584287Y-36728267D01*
X48719443Y-36525992D01*
X48812540Y-36301236D01*
X48860000Y-36062637D01*
X48860000Y-35819363D01*
X48812540Y-35580764D01*
X48719443Y-35356008D01*
X48584287Y-35153733D01*
X48412267Y-34981713D01*
X48209992Y-34846557D01*
X47985236Y-34753460D01*
X47746637Y-34706000D01*
X47503363Y-34706000D01*
X47339068Y-34738680D01*
X47309000Y-34735719D01*
X47265531Y-34740000D01*
X45505614Y-34740000D01*
X45474405Y-34681613D01*
X45363962Y-34547038D01*
X45229387Y-34436595D01*
X45075852Y-34354528D01*
X44909256Y-34303992D01*
X44736002Y-34286928D01*
X44210998Y-34286928D01*
X44037744Y-34303992D01*
X43871148Y-34354528D01*
X43717613Y-34436595D01*
X43583038Y-34547038D01*
X43561000Y-34573891D01*
X43538962Y-34547038D01*
X43404387Y-34436595D01*
X43250852Y-34354528D01*
X43084256Y-34303992D01*
X42911002Y-34286928D01*
X42385998Y-34286928D01*
X42212744Y-34303992D01*
X42046148Y-34354528D01*
X41949328Y-34406280D01*
X41907589Y-34268687D01*
X41825411Y-34114941D01*
X41816109Y-34103606D01*
X41742532Y-34013953D01*
X41742530Y-34013951D01*
X41714817Y-33980183D01*
X41681050Y-33952471D01*
X41008534Y-33279956D01*
X40980817Y-33246183D01*
X40846059Y-33135589D01*
X40692313Y-33053411D01*
X40525490Y-33002805D01*
X40395477Y-32990000D01*
X40395469Y-32990000D01*
X40352000Y-32985719D01*
X40308531Y-32990000D01*
X35006981Y-32990000D01*
X34951494Y-32944463D01*
X34841180Y-32885498D01*
X34721482Y-32849188D01*
X34597000Y-32836928D01*
X33697000Y-32836928D01*
X33572518Y-32849188D01*
X33452820Y-32885498D01*
X33342506Y-32944463D01*
X33245815Y-33023815D01*
X33166463Y-33120506D01*
X33107498Y-33230820D01*
X33071188Y-33350518D01*
X33058928Y-33475000D01*
X33058928Y-33986905D01*
X33048185Y-33973815D01*
X33044184Y-33970532D01*
X33013031Y-33912248D01*
X32808714Y-33663286D01*
X32559752Y-33458969D01*
X32275715Y-33307148D01*
X31967516Y-33213657D01*
X31727322Y-33190000D01*
X30787319Y-33190000D01*
X30706999Y-33182089D01*
X30626680Y-33190000D01*
X30626678Y-33190000D01*
X30386484Y-33213657D01*
X30234000Y-33259912D01*
X30234000Y-30051881D01*
X30294506Y-30101537D01*
X30404820Y-30160502D01*
X30524518Y-30196812D01*
X30649000Y-30209072D01*
X30813250Y-30206000D01*
X30972000Y-30047250D01*
X30972000Y-29298000D01*
X31226000Y-29298000D01*
X31226000Y-30047250D01*
X31384750Y-30206000D01*
X31549000Y-30209072D01*
X31673482Y-30196812D01*
X31793180Y-30160502D01*
X31903494Y-30101537D01*
X32000185Y-30022185D01*
X32079537Y-29925494D01*
X32138502Y-29815180D01*
X32167071Y-29721000D01*
X33623928Y-29721000D01*
X33636188Y-29845482D01*
X33672498Y-29965180D01*
X33731463Y-30075494D01*
X33810815Y-30172185D01*
X33907506Y-30251537D01*
X34017820Y-30310502D01*
X34137518Y-30346812D01*
X34262000Y-30359072D01*
X34488750Y-30356000D01*
X34647500Y-30197250D01*
X34647500Y-29148000D01*
X33785750Y-29148000D01*
X33627000Y-29306750D01*
X33623928Y-29721000D01*
X32167071Y-29721000D01*
X32174812Y-29695482D01*
X32187072Y-29571000D01*
X32184000Y-29456750D01*
X32025250Y-29298000D01*
X31226000Y-29298000D01*
X30972000Y-29298000D01*
X30952000Y-29298000D01*
X30952000Y-29044000D01*
X30972000Y-29044000D01*
X30972000Y-29024000D01*
X31226000Y-29024000D01*
X31226000Y-29044000D01*
X32025250Y-29044000D01*
X32184000Y-28885250D01*
X32187072Y-28771000D01*
X32174812Y-28646518D01*
X32138502Y-28526820D01*
X32079537Y-28416506D01*
X32000185Y-28319815D01*
X31903494Y-28240463D01*
X31867082Y-28221000D01*
X31903494Y-28201537D01*
X31958981Y-28156000D01*
X33648479Y-28156000D01*
X33636188Y-28196518D01*
G04 #@! TA.AperFunction,Conductor*
D31*
G36*
X33636188Y-28196518D02*
G01*
X33623928Y-28321000D01*
X33627000Y-28735250D01*
X33785750Y-28894000D01*
X34647500Y-28894000D01*
X34647500Y-28874000D01*
X34901500Y-28874000D01*
X34901500Y-28894000D01*
X34921500Y-28894000D01*
X34921500Y-29148000D01*
X34901500Y-29148000D01*
X34901500Y-30197250D01*
X35060250Y-30356000D01*
X35287000Y-30359072D01*
X35411482Y-30346812D01*
X35531180Y-30310502D01*
X35641494Y-30251537D01*
X35738185Y-30172185D01*
X35762363Y-30142724D01*
X35843613Y-30209405D01*
X35997148Y-30291472D01*
X36163744Y-30342008D01*
X36336998Y-30359072D01*
X36862002Y-30359072D01*
X37035256Y-30342008D01*
X37201852Y-30291472D01*
X37355387Y-30209405D01*
X37489962Y-30098962D01*
X37600405Y-29964387D01*
X37631614Y-29906000D01*
X38118524Y-29906000D01*
X38162000Y-29910282D01*
X38205477Y-29906000D01*
X38695386Y-29906000D01*
X38726595Y-29964387D01*
X38837038Y-30098962D01*
X38971613Y-30209405D01*
X39125148Y-30291472D01*
X39291744Y-30342008D01*
X39464998Y-30359072D01*
X39990002Y-30359072D01*
X40163256Y-30342008D01*
X40329852Y-30291472D01*
X40483387Y-30209405D01*
X40617962Y-30098962D01*
X40640000Y-30072109D01*
X40662038Y-30098962D01*
X40796613Y-30209405D01*
X40950148Y-30291472D01*
X41116744Y-30342008D01*
X41289998Y-30359072D01*
X41815002Y-30359072D01*
X41988256Y-30342008D01*
X42154852Y-30291472D01*
X42302169Y-30212729D01*
X42339557Y-30302992D01*
X42474713Y-30505267D01*
X42646733Y-30677287D01*
X42849008Y-30812443D01*
X43073764Y-30905540D01*
X43312363Y-30953000D01*
X43555637Y-30953000D01*
X43794236Y-30905540D01*
X44018992Y-30812443D01*
X44069000Y-30779029D01*
X44069000Y-32011938D01*
X44071459Y-32036808D01*
X44078704Y-32060627D01*
X44090457Y-32082575D01*
X44106265Y-32101808D01*
X44125522Y-32117588D01*
X44147488Y-32129307D01*
X44171317Y-32136516D01*
X44196096Y-32138938D01*
X65231201Y-32123098D01*
X65231200Y-34740000D01*
X65216014Y-34740000D01*
X65184805Y-34681613D01*
X65074362Y-34547038D01*
X64939787Y-34436595D01*
X64786252Y-34354528D01*
X64619656Y-34303992D01*
X64446402Y-34286928D01*
X63921398Y-34286928D01*
X63748144Y-34303992D01*
X63581548Y-34354528D01*
X63428013Y-34436595D01*
X63293438Y-34547038D01*
X63271400Y-34573891D01*
X63249362Y-34547038D01*
X63114787Y-34436595D01*
X62961252Y-34354528D01*
X62794656Y-34303992D01*
X62621402Y-34286928D01*
X62096398Y-34286928D01*
X61923144Y-34303992D01*
X61756548Y-34354528D01*
X61603013Y-34436595D01*
X61468438Y-34547038D01*
X61357995Y-34681613D01*
X61326786Y-34740000D01*
X56768779Y-34740000D01*
X56350898Y-34322120D01*
X56350898Y-34166261D01*
X56303438Y-33927662D01*
X56210341Y-33702906D01*
X56075185Y-33500631D01*
X55903165Y-33328611D01*
X55700890Y-33193455D01*
X55476134Y-33100358D01*
X55237535Y-33052898D01*
X54994261Y-33052898D01*
X54755662Y-33100358D01*
X54530906Y-33193455D01*
X54328631Y-33328611D01*
X54156611Y-33500631D01*
X54021455Y-33702906D01*
X53928358Y-33927662D01*
X53880898Y-34166261D01*
X53880898Y-34409535D01*
X53928358Y-34648134D01*
X54021455Y-34872890D01*
X54156611Y-35075165D01*
X54328631Y-35247185D01*
X54530906Y-35382341D01*
X54755662Y-35475438D01*
X54994261Y-35522898D01*
X55048520Y-35522898D01*
X55745670Y-36220049D01*
X55773383Y-36253817D01*
X55807151Y-36281530D01*
X55807153Y-36281532D01*
X55899073Y-36356969D01*
X55908141Y-36364411D01*
X56061887Y-36446589D01*
X56228710Y-36497195D01*
X56358723Y-36510000D01*
X56358731Y-36510000D01*
X56402200Y-36514281D01*
X56445669Y-36510000D01*
X61326786Y-36510000D01*
X61357995Y-36568387D01*
X61468438Y-36702962D01*
X61603013Y-36813405D01*
X61756548Y-36895472D01*
X61923144Y-36946008D01*
X62096398Y-36963072D01*
X62621402Y-36963072D01*
X62794656Y-36946008D01*
X62961252Y-36895472D01*
X63114787Y-36813405D01*
X63249362Y-36702962D01*
X63271400Y-36676109D01*
X63293438Y-36702962D01*
X63428013Y-36813405D01*
X63581548Y-36895472D01*
X63748144Y-36946008D01*
X63921398Y-36963072D01*
X64446402Y-36963072D01*
X64619656Y-36946008D01*
X64786252Y-36895472D01*
X64939787Y-36813405D01*
X65074362Y-36702962D01*
X65184805Y-36568387D01*
X65216014Y-36510000D01*
X65231201Y-36510000D01*
X65231200Y-37908250D01*
X65216014Y-37908250D01*
X65184805Y-37849863D01*
X65074362Y-37715288D01*
X64939787Y-37604845D01*
X64786252Y-37522778D01*
X64619656Y-37472242D01*
X64446402Y-37455178D01*
X63921398Y-37455178D01*
X63748144Y-37472242D01*
X63581548Y-37522778D01*
X63428013Y-37604845D01*
X63293438Y-37715288D01*
X63271400Y-37742141D01*
X63249362Y-37715288D01*
X63114787Y-37604845D01*
X62961252Y-37522778D01*
X62794656Y-37472242D01*
X62621402Y-37455178D01*
X62096398Y-37455178D01*
X61923144Y-37472242D01*
X61756548Y-37522778D01*
X61603013Y-37604845D01*
X61468438Y-37715288D01*
X61357995Y-37849863D01*
X61326786Y-37908250D01*
X58472792Y-37908250D01*
X58464540Y-37866764D01*
X58371443Y-37642008D01*
X58236287Y-37439733D01*
X58064267Y-37267713D01*
X57861992Y-37132557D01*
X57637236Y-37039460D01*
X57398637Y-36992000D01*
X57155363Y-36992000D01*
X56916764Y-37039460D01*
X56692008Y-37132557D01*
X56588227Y-37201901D01*
X56528941Y-37233590D01*
X56394183Y-37344183D01*
X56283590Y-37478941D01*
X56251901Y-37538227D01*
X56182557Y-37642008D01*
X56089460Y-37866764D01*
X56042000Y-38105363D01*
X56042000Y-38348637D01*
X56089460Y-38587236D01*
X56182557Y-38811992D01*
X56317713Y-39014267D01*
X56482946Y-39179500D01*
X56317713Y-39344733D01*
X56182557Y-39547008D01*
X56089460Y-39771764D01*
X56042000Y-40010363D01*
X56042000Y-40253637D01*
X56089460Y-40492236D01*
X56182557Y-40716992D01*
X56317713Y-40919267D01*
X56489733Y-41091287D01*
X56574610Y-41148000D01*
X56489733Y-41204713D01*
X56317713Y-41376733D01*
X56182557Y-41579008D01*
X56089460Y-41803764D01*
X56042000Y-42042363D01*
X56042000Y-42285637D01*
X56089460Y-42524236D01*
X56182557Y-42748992D01*
X56317713Y-42951267D01*
X56489733Y-43123287D01*
X56574610Y-43180000D01*
X56489733Y-43236713D01*
X56317713Y-43408733D01*
X56182557Y-43611008D01*
X56089460Y-43835764D01*
X56042000Y-44074363D01*
X56042000Y-44317637D01*
X56089460Y-44556236D01*
X56182557Y-44780992D01*
X56317713Y-44983267D01*
X56489733Y-45155287D01*
X56692008Y-45290443D01*
X56916764Y-45383540D01*
X57155363Y-45431000D01*
X57235022Y-45431000D01*
X60697070Y-48893049D01*
X60724783Y-48926817D01*
X60758551Y-48954530D01*
X60758553Y-48954532D01*
X60796162Y-48985397D01*
X60859541Y-49037411D01*
X61013287Y-49119589D01*
X61180110Y-49170195D01*
X61310123Y-49183000D01*
X61310133Y-49183000D01*
X61327712Y-49184731D01*
X61357995Y-49241387D01*
X61468438Y-49375962D01*
X61603013Y-49486405D01*
X61756548Y-49568472D01*
X61923144Y-49619008D01*
X62096398Y-49636072D01*
X62621402Y-49636072D01*
X62794656Y-49619008D01*
X62961252Y-49568472D01*
X63114787Y-49486405D01*
X63249362Y-49375962D01*
X63271400Y-49349109D01*
X63293438Y-49375962D01*
X63428013Y-49486405D01*
X63581548Y-49568472D01*
X63748144Y-49619008D01*
X63921398Y-49636072D01*
X64446402Y-49636072D01*
X64619656Y-49619008D01*
X64786252Y-49568472D01*
X64939787Y-49486405D01*
X65074362Y-49375962D01*
X65184805Y-49241387D01*
X65215088Y-49184731D01*
X65232669Y-49183000D01*
X65232677Y-49183000D01*
X65362690Y-49170195D01*
X65529513Y-49119589D01*
X65683259Y-49037411D01*
X65818017Y-48926817D01*
X65845734Y-48893044D01*
X66711249Y-48027530D01*
X66745017Y-47999817D01*
X66779593Y-47957687D01*
X66855610Y-47865060D01*
X66855611Y-47865059D01*
X66937789Y-47711313D01*
X66988395Y-47544490D01*
X67001200Y-47414477D01*
X67001200Y-47414469D01*
X67005481Y-47371000D01*
X67001200Y-47327531D01*
X67001200Y-46090000D01*
X67549928Y-46090000D01*
X67549928Y-47890000D01*
X67562188Y-48014482D01*
X67598498Y-48134180D01*
X67657463Y-48244494D01*
X67736815Y-48341185D01*
X67833506Y-48420537D01*
X67943820Y-48479502D01*
X67962127Y-48485056D01*
X67895688Y-48551495D01*
X67727701Y-48802905D01*
X67611989Y-49082257D01*
X67553000Y-49378816D01*
X67553000Y-49681184D01*
X67611989Y-49977743D01*
X67727701Y-50257095D01*
X67895688Y-50508505D01*
X68109495Y-50722312D01*
X68360905Y-50890299D01*
X68640257Y-51006011D01*
X68936816Y-51065000D01*
X69239184Y-51065000D01*
X69535743Y-51006011D01*
X69815095Y-50890299D01*
X70066505Y-50722312D01*
X70280312Y-50508505D01*
X70448299Y-50257095D01*
X70564011Y-49977743D01*
X70581457Y-49890031D01*
X77683698Y-49890031D01*
X77701412Y-49982502D01*
X77817429Y-50255437D01*
X77984464Y-50500494D01*
X78196097Y-50708256D01*
X78444196Y-50870738D01*
X78719227Y-50981696D01*
X79010620Y-51036866D01*
X79248000Y-50880586D01*
X79248000Y-49657000D01*
X79502000Y-49657000D01*
X79502000Y-50880586D01*
X79739380Y-51036866D01*
X80030773Y-50981696D01*
X80305804Y-50870738D01*
X80553903Y-50708256D01*
X80765536Y-50500494D01*
X80932571Y-50255437D01*
X81048588Y-49982502D01*
X81066302Y-49890031D01*
X80945246Y-49657000D01*
X79502000Y-49657000D01*
X79248000Y-49657000D01*
X77804754Y-49657000D01*
X77683698Y-49890031D01*
X70581457Y-49890031D01*
X70623000Y-49681184D01*
X70623000Y-49378816D01*
X70564011Y-49082257D01*
X70448299Y-48802905D01*
X70280312Y-48551495D01*
X70213873Y-48485056D01*
X70232180Y-48479502D01*
X70342494Y-48420537D01*
X70439185Y-48341185D01*
X70518537Y-48244494D01*
X70577502Y-48134180D01*
X70613812Y-48014482D01*
X70626072Y-47890000D01*
X70626072Y-46868363D01*
X74076000Y-46868363D01*
X74076000Y-47111637D01*
X74123460Y-47350236D01*
X74216557Y-47574992D01*
X74351713Y-47777267D01*
X74523733Y-47949287D01*
X74726008Y-48084443D01*
X74950764Y-48177540D01*
X75189363Y-48225000D01*
X75432637Y-48225000D01*
X75671236Y-48177540D01*
X75895992Y-48084443D01*
X76098267Y-47949287D01*
X76270287Y-47777267D01*
X76405443Y-47574992D01*
X76498540Y-47350236D01*
X76546000Y-47111637D01*
X76546000Y-46868363D01*
X76498540Y-46629764D01*
X76405443Y-46405008D01*
X76270287Y-46202733D01*
X76196000Y-46128446D01*
X76196000Y-46086578D01*
X76947579Y-45335000D01*
X77924367Y-45335000D01*
X78075655Y-45519345D01*
X78304821Y-45707417D01*
X78328362Y-45720000D01*
X78304821Y-45732583D01*
X78075655Y-45920655D01*
X77887583Y-46149821D01*
X77747834Y-46411275D01*
X77661776Y-46694968D01*
X77632718Y-46990000D01*
X77661776Y-47285032D01*
X77747834Y-47568725D01*
X77887583Y-47830179D01*
X78075655Y-48059345D01*
X78304821Y-48247417D01*
X78332669Y-48262302D01*
X78196097Y-48351744D01*
X77984464Y-48559506D01*
X77817429Y-48804563D01*
X77701412Y-49077498D01*
X77683698Y-49169969D01*
X77804754Y-49403000D01*
X79248000Y-49403000D01*
X79248000Y-49383000D01*
X79502000Y-49383000D01*
X79502000Y-49403000D01*
X80945246Y-49403000D01*
X81066302Y-49169969D01*
X81048588Y-49077498D01*
X80932571Y-48804563D01*
X80765536Y-48559506D01*
X80553903Y-48351744D01*
X80417331Y-48262302D01*
X80445179Y-48247417D01*
X80674345Y-48059345D01*
X80862417Y-47830179D01*
X81002166Y-47568725D01*
X81088224Y-47285032D01*
X81117282Y-46990000D01*
X81088224Y-46694968D01*
X81002166Y-46411275D01*
X80862417Y-46149821D01*
X80674345Y-45920655D01*
X80445179Y-45732583D01*
X80421638Y-45720000D01*
X80445179Y-45707417D01*
X80674345Y-45519345D01*
X80862417Y-45290179D01*
X81002166Y-45028725D01*
X81088224Y-44745032D01*
X81117282Y-44450000D01*
X81088224Y-44154968D01*
X81002166Y-43871275D01*
X80862417Y-43609821D01*
X80674345Y-43380655D01*
X80608886Y-43326934D01*
X80718387Y-43268405D01*
X80852962Y-43157962D01*
X80963405Y-43023387D01*
X81045472Y-42869851D01*
X81096008Y-42703255D01*
X81113072Y-42530001D01*
X81113072Y-41289999D01*
X81096008Y-41116745D01*
X81045472Y-40950149D01*
X80963405Y-40796613D01*
X80852962Y-40662038D01*
X80718387Y-40551595D01*
X80609686Y-40493493D01*
X80765536Y-40340494D01*
X80932571Y-40095437D01*
X81048588Y-39822502D01*
X81066302Y-39730031D01*
X80945246Y-39497000D01*
X79502000Y-39497000D01*
X79502000Y-39517000D01*
X79248000Y-39517000D01*
X79248000Y-39497000D01*
X77804754Y-39497000D01*
X77683698Y-39730031D01*
X77701412Y-39822502D01*
X77817429Y-40095437D01*
X77984464Y-40340494D01*
X78140314Y-40493493D01*
X78031613Y-40551595D01*
X77897038Y-40662038D01*
X77786595Y-40796613D01*
X77704528Y-40950149D01*
X77653992Y-41116745D01*
X77636928Y-41289999D01*
X77636928Y-42530001D01*
X77653992Y-42703255D01*
X77704528Y-42869851D01*
X77786595Y-43023387D01*
X77897038Y-43157962D01*
X78031613Y-43268405D01*
X78141114Y-43326934D01*
X78075655Y-43380655D01*
X77924367Y-43565000D01*
X76624465Y-43565000D01*
X76580999Y-43560719D01*
X76537533Y-43565000D01*
X76537523Y-43565000D01*
X76407510Y-43577805D01*
X76240687Y-43628411D01*
X76086941Y-43710589D01*
X76086939Y-43710590D01*
X76086940Y-43710590D01*
X75985953Y-43793468D01*
X75985951Y-43793470D01*
X75952183Y-43821183D01*
X75924470Y-43854951D01*
X74715951Y-45063471D01*
X74682184Y-45091183D01*
X74654471Y-45124951D01*
X74654468Y-45124954D01*
X74571590Y-45225941D01*
X74489412Y-45379687D01*
X74438805Y-45546510D01*
X74421719Y-45720000D01*
X74426001Y-45763478D01*
X74426001Y-46128445D01*
X74351713Y-46202733D01*
X74216557Y-46405008D01*
X74123460Y-46629764D01*
X74076000Y-46868363D01*
X70626072Y-46868363D01*
X70626072Y-46090000D01*
X70613812Y-45965518D01*
X70577502Y-45845820D01*
X70518537Y-45735506D01*
X70439185Y-45638815D01*
X70342494Y-45559463D01*
X70232180Y-45500498D01*
X70112482Y-45464188D01*
X69988000Y-45451928D01*
X68188000Y-45451928D01*
X68063518Y-45464188D01*
X67943820Y-45500498D01*
X67833506Y-45559463D01*
X67736815Y-45638815D01*
X67657463Y-45735506D01*
X67598498Y-45845820D01*
X67562188Y-45965518D01*
X67549928Y-46090000D01*
X67001200Y-46090000D01*
X67001200Y-45103067D01*
X67005481Y-45059601D01*
X67001200Y-45016134D01*
X67001200Y-41902667D01*
X67005481Y-41859201D01*
X67001200Y-41815734D01*
X67001200Y-39930106D01*
X67064013Y-39981655D01*
X67217548Y-40063722D01*
X67384144Y-40114258D01*
X67557398Y-40131322D01*
X68082402Y-40131322D01*
X68255656Y-40114258D01*
X68422252Y-40063722D01*
X68575787Y-39981655D01*
X68710362Y-39871212D01*
X68732400Y-39844359D01*
X68754438Y-39871212D01*
X68889013Y-39981655D01*
X69042548Y-40063722D01*
X69209144Y-40114258D01*
X69382398Y-40131322D01*
X69907402Y-40131322D01*
X70080656Y-40114258D01*
X70247252Y-40063722D01*
X70400787Y-39981655D01*
X70535362Y-39871212D01*
X70645805Y-39736637D01*
X70677014Y-39678250D01*
X71399283Y-39678250D01*
X71442749Y-39682531D01*
X71486215Y-39678250D01*
X72248786Y-39678250D01*
X72279995Y-39736637D01*
X72390438Y-39871212D01*
X72525013Y-39981655D01*
X72678548Y-40063722D01*
X72845144Y-40114258D01*
X73018398Y-40131322D01*
X73543402Y-40131322D01*
X73716656Y-40114258D01*
X73883252Y-40063722D01*
X74036787Y-39981655D01*
X74118037Y-39914974D01*
X74142215Y-39944435D01*
X74238906Y-40023787D01*
X74349220Y-40082752D01*
X74468918Y-40119062D01*
X74593400Y-40131322D01*
X74820150Y-40128250D01*
X74978900Y-39969500D01*
X74978900Y-38920250D01*
X75232900Y-38920250D01*
X75232900Y-39969500D01*
X75391650Y-40128250D01*
X75618400Y-40131322D01*
X75742882Y-40119062D01*
X75862580Y-40082752D01*
X75972894Y-40023787D01*
X76069585Y-39944435D01*
X76148937Y-39847744D01*
X76207902Y-39737430D01*
X76244212Y-39617732D01*
X76256472Y-39493250D01*
X76253400Y-39079000D01*
X76094650Y-38920250D01*
X75232900Y-38920250D01*
X74978900Y-38920250D01*
X74958900Y-38920250D01*
X74958900Y-38666250D01*
X74978900Y-38666250D01*
X74978900Y-37617000D01*
X75232900Y-37617000D01*
X75232900Y-38666250D01*
X76094650Y-38666250D01*
X76253400Y-38507500D01*
X76256472Y-38093250D01*
X76244212Y-37968768D01*
X76207902Y-37849070D01*
X76148937Y-37738756D01*
X76069585Y-37642065D01*
X75972894Y-37562713D01*
X75862580Y-37503748D01*
X75742882Y-37467438D01*
X75618400Y-37455178D01*
X75391650Y-37458250D01*
X75232900Y-37617000D01*
X74978900Y-37617000D01*
X74820150Y-37458250D01*
X74593400Y-37455178D01*
X74468918Y-37467438D01*
X74349220Y-37503748D01*
X74238906Y-37562713D01*
X74142215Y-37642065D01*
X74118037Y-37671526D01*
X74036787Y-37604845D01*
X73883252Y-37522778D01*
X73716656Y-37472242D01*
X73543402Y-37455178D01*
X73018398Y-37455178D01*
X72845144Y-37472242D01*
X72678548Y-37522778D01*
X72525013Y-37604845D01*
X72390438Y-37715288D01*
X72284400Y-37844495D01*
X72284400Y-37190031D01*
X77683698Y-37190031D01*
X77701412Y-37282502D01*
X77817429Y-37555437D01*
X77984464Y-37800494D01*
X78196097Y-38008256D01*
X78336184Y-38100000D01*
X78196097Y-38191744D01*
X77984464Y-38399506D01*
X77817429Y-38644563D01*
X77701412Y-38917498D01*
X77683698Y-39009969D01*
X77804754Y-39243000D01*
X79248000Y-39243000D01*
X79248000Y-36957000D01*
X79502000Y-36957000D01*
X79502000Y-39243000D01*
X80945246Y-39243000D01*
X81066302Y-39009969D01*
X81048588Y-38917498D01*
X80932571Y-38644563D01*
X80765536Y-38399506D01*
X80553903Y-38191744D01*
X80413816Y-38100000D01*
X80553903Y-38008256D01*
X80765536Y-37800494D01*
X80932571Y-37555437D01*
X81048588Y-37282502D01*
X81066302Y-37190031D01*
X80945246Y-36957000D01*
X79502000Y-36957000D01*
X79248000Y-36957000D01*
X77804754Y-36957000D01*
X77683698Y-37190031D01*
X72284400Y-37190031D01*
X72284400Y-36604205D01*
X72883450Y-36005156D01*
X72917217Y-35977444D01*
X73011081Y-35863072D01*
X73027811Y-35842686D01*
X73072601Y-35758889D01*
X73109989Y-35688940D01*
X73160595Y-35522117D01*
X73173400Y-35392104D01*
X73173400Y-35392096D01*
X73177681Y-35348627D01*
X73173400Y-35305158D01*
X73173400Y-34290000D01*
X77632718Y-34290000D01*
X77661776Y-34585032D01*
X77747834Y-34868725D01*
X77887583Y-35130179D01*
X78075655Y-35359345D01*
X78304821Y-35547417D01*
X78332669Y-35562302D01*
X78196097Y-35651744D01*
X77984464Y-35859506D01*
X77817429Y-36104563D01*
X77701412Y-36377498D01*
X77683698Y-36469969D01*
X77804754Y-36703000D01*
X79248000Y-36703000D01*
X79248000Y-36683000D01*
X79502000Y-36683000D01*
X79502000Y-36703000D01*
X80945246Y-36703000D01*
X81066302Y-36469969D01*
X81048588Y-36377498D01*
X80932571Y-36104563D01*
X80765536Y-35859506D01*
X80553903Y-35651744D01*
X80417331Y-35562302D01*
X80445179Y-35547417D01*
X80674345Y-35359345D01*
X80862417Y-35130179D01*
X81002166Y-34868725D01*
X81088224Y-34585032D01*
X81117282Y-34290000D01*
X81088224Y-33994968D01*
X81002166Y-33711275D01*
X80862417Y-33449821D01*
X80674345Y-33220655D01*
X80608886Y-33166934D01*
X80718387Y-33108405D01*
X80852962Y-32997962D01*
X80963405Y-32863387D01*
X81045472Y-32709851D01*
X81096008Y-32543255D01*
X81113072Y-32370001D01*
X81113072Y-31129999D01*
X81096008Y-30956745D01*
X81045472Y-30790149D01*
X80963405Y-30636613D01*
X80852962Y-30502038D01*
X80718387Y-30391595D01*
X80564851Y-30309528D01*
X80398255Y-30258992D01*
X80225001Y-30241928D01*
X78524999Y-30241928D01*
X78351745Y-30258992D01*
X78185149Y-30309528D01*
X78031613Y-30391595D01*
X77897038Y-30502038D01*
X77786595Y-30636613D01*
X77704528Y-30790149D01*
X77653992Y-30956745D01*
X77636928Y-31129999D01*
X77636928Y-32370001D01*
X77653992Y-32543255D01*
X77704528Y-32709851D01*
X77786595Y-32863387D01*
X77897038Y-32997962D01*
X78031613Y-33108405D01*
X78141114Y-33166934D01*
X78075655Y-33220655D01*
X77887583Y-33449821D01*
X77747834Y-33711275D01*
X77661776Y-33994968D01*
X77632718Y-34290000D01*
X73173400Y-34290000D01*
X73173400Y-33546065D01*
X73177681Y-33502599D01*
X73173400Y-33459133D01*
X73173400Y-33459123D01*
X73160595Y-33329110D01*
X73109989Y-33162287D01*
X73027811Y-33008541D01*
X72917217Y-32873783D01*
X72883449Y-32846070D01*
X72064399Y-32027021D01*
X72064399Y-31039656D01*
X72126031Y-30998475D01*
X72332874Y-30791632D01*
X72454594Y-30609466D01*
X72524221Y-30726355D01*
X72719130Y-30942588D01*
X72952479Y-31116641D01*
X73215300Y-31241825D01*
X73362509Y-31286476D01*
X73592399Y-31165155D01*
X73592399Y-29972000D01*
X73846399Y-29972000D01*
X73846399Y-31165155D01*
X74076289Y-31286476D01*
X74223498Y-31241825D01*
X74486319Y-31116641D01*
X74719668Y-30942588D01*
X74914577Y-30726355D01*
X75063556Y-30476252D01*
X75160880Y-30201891D01*
X75040213Y-29972000D01*
X73846399Y-29972000D01*
X73592399Y-29972000D01*
X73572399Y-29972000D01*
X73572399Y-29718000D01*
X80539679Y-29718000D01*
X80728912Y-30001207D01*
X81123793Y-30396088D01*
X81588124Y-30706344D01*
X82104061Y-30920052D01*
X82651777Y-31029000D01*
X83210223Y-31029000D01*
X83757939Y-30920052D01*
X84273876Y-30706344D01*
X84738207Y-30396088D01*
X85065000Y-30069295D01*
X85065001Y-68990706D01*
X84738207Y-68663912D01*
X84273876Y-68353656D01*
X83757939Y-68139948D01*
X83210223Y-68031000D01*
X82651777Y-68031000D01*
X82104061Y-68139948D01*
X81588124Y-68353656D01*
X81123793Y-68663912D01*
X80728912Y-69058793D01*
X80418656Y-69523124D01*
X80204948Y-70039061D01*
X80096000Y-70586777D01*
X80096000Y-71145223D01*
X80204948Y-71692939D01*
X80418656Y-72208876D01*
X80728912Y-72673207D01*
X81055705Y-73000000D01*
X78318126Y-73000000D01*
X78640117Y-72916059D01*
X78779818Y-72858193D01*
X78927207Y-72596709D01*
X77978000Y-71647502D01*
X77028793Y-72596709D01*
X77176182Y-72858193D01*
X77530693Y-72981221D01*
X77666225Y-73000000D01*
X56450394Y-73000000D01*
X56458102Y-72985580D01*
X56494412Y-72865882D01*
X56506672Y-72741400D01*
X56503600Y-72373150D01*
X56344850Y-72214400D01*
X55341600Y-72214400D01*
X55341600Y-72234400D01*
X55087600Y-72234400D01*
X55087600Y-72214400D01*
X53941600Y-72214400D01*
X53941600Y-72234400D01*
X53687600Y-72234400D01*
X53687600Y-72214400D01*
X52684350Y-72214400D01*
X52525600Y-72373150D01*
X52522528Y-72741400D01*
X52534788Y-72865882D01*
X52571098Y-72985580D01*
X52578806Y-73000000D01*
X43380394Y-73000000D01*
X43388102Y-72985580D01*
X43424412Y-72865882D01*
X43436672Y-72741400D01*
X43436672Y-71433400D01*
X52522528Y-71433400D01*
X52525600Y-71801650D01*
X52684350Y-71960400D01*
X53687600Y-71960400D01*
X53687600Y-71433400D01*
X53922528Y-71433400D01*
X53925600Y-71801650D01*
X53941600Y-71817650D01*
X53941600Y-71960400D01*
X55087600Y-71960400D01*
X55087600Y-71817650D01*
X55103600Y-71801650D01*
X55106672Y-71433400D01*
X55094412Y-71308918D01*
X55087600Y-71286462D01*
X55087600Y-70957150D01*
X55341600Y-70957150D01*
X55341600Y-71960400D01*
X56344850Y-71960400D01*
X56503600Y-71801650D01*
X56506672Y-71433400D01*
X56494412Y-71308918D01*
X56458102Y-71189220D01*
X56399137Y-71078906D01*
X56370814Y-71044394D01*
X76065277Y-71044394D01*
X76087279Y-71419001D01*
X76181941Y-71782117D01*
X76239807Y-71921818D01*
X76501291Y-72069207D01*
X77450498Y-71120000D01*
X78505502Y-71120000D01*
X79454709Y-72069207D01*
X79716193Y-71921818D01*
X79839221Y-71567307D01*
X79890723Y-71195606D01*
X79868721Y-70820999D01*
X79774059Y-70457883D01*
X79716193Y-70318182D01*
X79454709Y-70170793D01*
X78505502Y-71120000D01*
X77450498Y-71120000D01*
X76501291Y-70170793D01*
X76239807Y-70318182D01*
X76116779Y-70672693D01*
X76065277Y-71044394D01*
X56370814Y-71044394D01*
X56319785Y-70982215D01*
X56223094Y-70902863D01*
X56112780Y-70843898D01*
X55993082Y-70807588D01*
X55868600Y-70795328D01*
X55500350Y-70798400D01*
X55341600Y-70957150D01*
X55087600Y-70957150D01*
X54928850Y-70798400D01*
X54560600Y-70795328D01*
X54514600Y-70799858D01*
X54468600Y-70795328D01*
X54100350Y-70798400D01*
X53941600Y-70957150D01*
X53941600Y-71286462D01*
X53934788Y-71308918D01*
X53922528Y-71433400D01*
X53687600Y-71433400D01*
X53687600Y-70957150D01*
X53528850Y-70798400D01*
X53160600Y-70795328D01*
X53036118Y-70807588D01*
X52916420Y-70843898D01*
X52806106Y-70902863D01*
X52709415Y-70982215D01*
X52630063Y-71078906D01*
X52571098Y-71189220D01*
X52534788Y-71308918D01*
X52522528Y-71433400D01*
X43436672Y-71433400D01*
X43424412Y-71308918D01*
X43388102Y-71189220D01*
X43329137Y-71078906D01*
X43249785Y-70982215D01*
X43153094Y-70902863D01*
X43042780Y-70843898D01*
X42923082Y-70807588D01*
X42798600Y-70795328D01*
X41490600Y-70795328D01*
X41444600Y-70799858D01*
X41398600Y-70795328D01*
X40090600Y-70795328D01*
X39966118Y-70807588D01*
X39846420Y-70843898D01*
X39736106Y-70902863D01*
X39639415Y-70982215D01*
X39560063Y-71078906D01*
X39501098Y-71189220D01*
X39464788Y-71308918D01*
X39452528Y-71433400D01*
X39452528Y-72741400D01*
X39464788Y-72865882D01*
X39501098Y-72985580D01*
X39508806Y-73000000D01*
X37678126Y-73000000D01*
X38000117Y-72916059D01*
X38139818Y-72858193D01*
X38287207Y-72596709D01*
X37338000Y-71647502D01*
X36388793Y-72596709D01*
X36536182Y-72858193D01*
X36890693Y-72981221D01*
X37026225Y-73000000D01*
X23719295Y-73000000D01*
X24046088Y-72673207D01*
X24356344Y-72208876D01*
X24570052Y-71692939D01*
X24679000Y-71145223D01*
X24679000Y-71044394D01*
X35425277Y-71044394D01*
X35447279Y-71419001D01*
X35541941Y-71782117D01*
X35599807Y-71921818D01*
X35861291Y-72069207D01*
X36810498Y-71120000D01*
X37865502Y-71120000D01*
X38814709Y-72069207D01*
X39076193Y-71921818D01*
X39199221Y-71567307D01*
X39250723Y-71195606D01*
X39228721Y-70820999D01*
X39134059Y-70457883D01*
X39076193Y-70318182D01*
X38814709Y-70170793D01*
X37865502Y-71120000D01*
X36810498Y-71120000D01*
X35861291Y-70170793D01*
X35599807Y-70318182D01*
X35476779Y-70672693D01*
X35425277Y-71044394D01*
X24679000Y-71044394D01*
X24679000Y-70586777D01*
X24570052Y-70039061D01*
X24406119Y-69643291D01*
X36388793Y-69643291D01*
X37338000Y-70592498D01*
X38287207Y-69643291D01*
X77028793Y-69643291D01*
X77978000Y-70592498D01*
X78927207Y-69643291D01*
X78779818Y-69381807D01*
X78425307Y-69258779D01*
X78053606Y-69207277D01*
X77678999Y-69229279D01*
X77315883Y-69323941D01*
X77176182Y-69381807D01*
X77028793Y-69643291D01*
X38287207Y-69643291D01*
X38139818Y-69381807D01*
X37785307Y-69258779D01*
X37413606Y-69207277D01*
X37038999Y-69229279D01*
X36675883Y-69323941D01*
X36536182Y-69381807D01*
X36388793Y-69643291D01*
X24406119Y-69643291D01*
X24356344Y-69523124D01*
X24046088Y-69058793D01*
X23651207Y-68663912D01*
X23186876Y-68353656D01*
X22670939Y-68139948D01*
X22123223Y-68031000D01*
X21564777Y-68031000D01*
X21017061Y-68139948D01*
X20501124Y-68353656D01*
X20036793Y-68663912D01*
X19710000Y-68990705D01*
X19710000Y-66936000D01*
X26821928Y-66936000D01*
X26834188Y-67060482D01*
X26870498Y-67180180D01*
X26929463Y-67290494D01*
X27008815Y-67387185D01*
X27105506Y-67466537D01*
X27215820Y-67525502D01*
X27335518Y-67561812D01*
X27460000Y-67574072D01*
X28428250Y-67571000D01*
X28587000Y-67412250D01*
X28587000Y-66059000D01*
X29833000Y-66059000D01*
X29833000Y-67412250D01*
X29991750Y-67571000D01*
X30960000Y-67574072D01*
X31084482Y-67561812D01*
X31204180Y-67525502D01*
X31314494Y-67466537D01*
X31411185Y-67387185D01*
X31490537Y-67290494D01*
X31549502Y-67180180D01*
X31585812Y-67060482D01*
X31598072Y-66936000D01*
X31595000Y-66217750D01*
X31436250Y-66059000D01*
X29833000Y-66059000D01*
X28587000Y-66059000D01*
X26983750Y-66059000D01*
X26825000Y-66217750D01*
X26821928Y-66936000D01*
X19710000Y-66936000D01*
X19710000Y-66059804D01*
X24276252Y-66059804D01*
X24440404Y-66292280D01*
X24813664Y-66369491D01*
X25194814Y-66372398D01*
X25569209Y-66300892D01*
X25597596Y-66292280D01*
X25761748Y-66059804D01*
X25019000Y-65317055D01*
X24276252Y-66059804D01*
X19710000Y-66059804D01*
X19710000Y-64611814D01*
X23082602Y-64611814D01*
X23154108Y-64986209D01*
X23162720Y-65014596D01*
X23395196Y-65178748D01*
X24137945Y-64436000D01*
X25900055Y-64436000D01*
X26642804Y-65178748D01*
X26875280Y-65014596D01*
X26928425Y-64757675D01*
X26983750Y-64813000D01*
X28587000Y-64813000D01*
X28587000Y-63459750D01*
X29833000Y-63459750D01*
X29833000Y-64813000D01*
X31436250Y-64813000D01*
X31595000Y-64654250D01*
X31595756Y-64477434D01*
X31629463Y-64540494D01*
X31708815Y-64637185D01*
X31805506Y-64716537D01*
X31915820Y-64775502D01*
X32035518Y-64811812D01*
X32160000Y-64824072D01*
X33128250Y-64821000D01*
X33287000Y-64662250D01*
X33287000Y-63059000D01*
X34533000Y-63059000D01*
X34533000Y-64662250D01*
X34691750Y-64821000D01*
X35660000Y-64824072D01*
X35784482Y-64811812D01*
X35904180Y-64775502D01*
X36014494Y-64716537D01*
X36111185Y-64637185D01*
X36190537Y-64540494D01*
X36249502Y-64430180D01*
X36285812Y-64310482D01*
X36298072Y-64186000D01*
X36295000Y-63217750D01*
X36136250Y-63059000D01*
X34533000Y-63059000D01*
X33287000Y-63059000D01*
X31683750Y-63059000D01*
X31525000Y-63217750D01*
X31523649Y-63643454D01*
X31490537Y-63581506D01*
X31411185Y-63484815D01*
X31314494Y-63405463D01*
X31204180Y-63346498D01*
X31084482Y-63310188D01*
X30960000Y-63297928D01*
X29991750Y-63301000D01*
X29833000Y-63459750D01*
X28587000Y-63459750D01*
X28428250Y-63301000D01*
X27460000Y-63297928D01*
X27335518Y-63310188D01*
X27215820Y-63346498D01*
X27105506Y-63405463D01*
X27008815Y-63484815D01*
X26929463Y-63581506D01*
X26870498Y-63691820D01*
X26834188Y-63811518D01*
X26832634Y-63827292D01*
X26642804Y-63693252D01*
X25900055Y-64436000D01*
X24137945Y-64436000D01*
X23395196Y-63693252D01*
X23162720Y-63857404D01*
X23085509Y-64230664D01*
X23082602Y-64611814D01*
X19710000Y-64611814D01*
X19710000Y-62812196D01*
X24276252Y-62812196D01*
X25019000Y-63554945D01*
X25761748Y-62812196D01*
X25597596Y-62579720D01*
X25224336Y-62502509D01*
X24843186Y-62499602D01*
X24468791Y-62571108D01*
X24440404Y-62579720D01*
X24276252Y-62812196D01*
X19710000Y-62812196D01*
X19710000Y-57077860D01*
X19735864Y-57126248D01*
X19806223Y-57257881D01*
X20073023Y-57582977D01*
X20398119Y-57849777D01*
X20431015Y-57867360D01*
X22756169Y-60192514D01*
X22804887Y-60353116D01*
X23026351Y-60767446D01*
X23091890Y-60847306D01*
X23093188Y-60860482D01*
X23129498Y-60980180D01*
X23188463Y-61090494D01*
X23267815Y-61187185D01*
X23364506Y-61266537D01*
X23474820Y-61325502D01*
X23594518Y-61361812D01*
X23607694Y-61363110D01*
X23687554Y-61428649D01*
X24101884Y-61650113D01*
X24551458Y-61786490D01*
X24901843Y-61821000D01*
X27428808Y-61821000D01*
X27460000Y-61824072D01*
X30960000Y-61824072D01*
X31084482Y-61811812D01*
X31204180Y-61775502D01*
X31314494Y-61716537D01*
X31411185Y-61637185D01*
X31490537Y-61540494D01*
X31524438Y-61477071D01*
X31525000Y-61654250D01*
X31683750Y-61813000D01*
X33287000Y-61813000D01*
X33287000Y-60209750D01*
X34533000Y-60209750D01*
X34533000Y-61813000D01*
X36136250Y-61813000D01*
X36295000Y-61654250D01*
X36298072Y-60686000D01*
X36285812Y-60561518D01*
X36249502Y-60441820D01*
X36190537Y-60331506D01*
X36111185Y-60234815D01*
X36014494Y-60155463D01*
X35904180Y-60096498D01*
X35784482Y-60060188D01*
X35660000Y-60047928D01*
X34691750Y-60051000D01*
X34533000Y-60209750D01*
X33287000Y-60209750D01*
X33128250Y-60051000D01*
X32160000Y-60047928D01*
X32035518Y-60060188D01*
X31915820Y-60096498D01*
X31805506Y-60155463D01*
X31708815Y-60234815D01*
X31629463Y-60331506D01*
X31598072Y-60390233D01*
X31598072Y-59521967D01*
X31606539Y-59436000D01*
X31598072Y-59350033D01*
X31598072Y-57963167D01*
X34586240Y-54975000D01*
X35546085Y-54975000D01*
X35616815Y-55061185D01*
X35713506Y-55140537D01*
X35823820Y-55199502D01*
X35943518Y-55235812D01*
X36068000Y-55248072D01*
X38608000Y-55248072D01*
X38732482Y-55235812D01*
X38852180Y-55199502D01*
X38962494Y-55140537D01*
X39059185Y-55061185D01*
X39138537Y-54964494D01*
X39197502Y-54854180D01*
X39233812Y-54734482D01*
X39246072Y-54610000D01*
X39246072Y-54409564D01*
X39298447Y-54393676D01*
X39495623Y-54288284D01*
X39566975Y-54229727D01*
X39582886Y-54249114D01*
X39831848Y-54453431D01*
X40115885Y-54605252D01*
X40424084Y-54698743D01*
X40664278Y-54722400D01*
X42224922Y-54722400D01*
X42465116Y-54698743D01*
X42773315Y-54605252D01*
X43057352Y-54453431D01*
X43306314Y-54249114D01*
X43510631Y-54000152D01*
X43648936Y-53741400D01*
X52522528Y-53741400D01*
X52534788Y-53865882D01*
X52571098Y-53985580D01*
X52630063Y-54095894D01*
X52709415Y-54192585D01*
X52806106Y-54271937D01*
X52916420Y-54330902D01*
X53036118Y-54367212D01*
X53160600Y-54379472D01*
X53528850Y-54376400D01*
X53687600Y-54217650D01*
X53687600Y-53741400D01*
X53922528Y-53741400D01*
X53934788Y-53865882D01*
X53941600Y-53888338D01*
X53941600Y-54217650D01*
X54100350Y-54376400D01*
X54468600Y-54379472D01*
X54514600Y-54374942D01*
X54560600Y-54379472D01*
X54928850Y-54376400D01*
X55087600Y-54217650D01*
X55087600Y-53888338D01*
X55094412Y-53865882D01*
X55106672Y-53741400D01*
X55103600Y-53373150D01*
X55087600Y-53357150D01*
X55087600Y-53214400D01*
X55341600Y-53214400D01*
X55341600Y-54217650D01*
X55500350Y-54376400D01*
X55868600Y-54379472D01*
X55993082Y-54367212D01*
X56112780Y-54330902D01*
X56223094Y-54271937D01*
X56319785Y-54192585D01*
X56399137Y-54095894D01*
X56458102Y-53985580D01*
X56494412Y-53865882D01*
X56506672Y-53741400D01*
X56503600Y-53373150D01*
X56344850Y-53214400D01*
X55341600Y-53214400D01*
X55087600Y-53214400D01*
X53941600Y-53214400D01*
X53941600Y-53357150D01*
X53925600Y-53373150D01*
X53922528Y-53741400D01*
X53687600Y-53741400D01*
X53687600Y-53214400D01*
X52684350Y-53214400D01*
X52525600Y-53373150D01*
X52522528Y-53741400D01*
X43648936Y-53741400D01*
X43662452Y-53716115D01*
X43755943Y-53407916D01*
X43781111Y-53152374D01*
X76073000Y-53152374D01*
X76073000Y-53527626D01*
X76146209Y-53895668D01*
X76289811Y-54242356D01*
X76498290Y-54554366D01*
X76763634Y-54819710D01*
X77075644Y-55028189D01*
X77422332Y-55171791D01*
X77790374Y-55245000D01*
X78165626Y-55245000D01*
X78533668Y-55171791D01*
X78880356Y-55028189D01*
X79192366Y-54819710D01*
X79457710Y-54554366D01*
X79666189Y-54242356D01*
X79809791Y-53895668D01*
X79883000Y-53527626D01*
X79883000Y-53152374D01*
X79809791Y-52784332D01*
X79666189Y-52437644D01*
X79457710Y-52125634D01*
X79192366Y-51860290D01*
X78880356Y-51651811D01*
X78533668Y-51508209D01*
X78165626Y-51435000D01*
X77790374Y-51435000D01*
X77422332Y-51508209D01*
X77075644Y-51651811D01*
X76763634Y-51860290D01*
X76498290Y-52125634D01*
X76289811Y-52437644D01*
X76146209Y-52784332D01*
X76073000Y-53152374D01*
X43781111Y-53152374D01*
X43787511Y-53087400D01*
X43755943Y-52766884D01*
X43662452Y-52458685D01*
X43648937Y-52433400D01*
X52522528Y-52433400D01*
X52525600Y-52801650D01*
X52684350Y-52960400D01*
X53687600Y-52960400D01*
X53687600Y-52433400D01*
X53922528Y-52433400D01*
X53925600Y-52801650D01*
X53941600Y-52817650D01*
X53941600Y-52960400D01*
X55087600Y-52960400D01*
X55087600Y-52817650D01*
X55103600Y-52801650D01*
X55106672Y-52433400D01*
X55094412Y-52308918D01*
X55087600Y-52286462D01*
X55087600Y-51957150D01*
X55341600Y-51957150D01*
X55341600Y-52960400D01*
X56344850Y-52960400D01*
X56503600Y-52801650D01*
X56506672Y-52433400D01*
X56494412Y-52308918D01*
X56458102Y-52189220D01*
X56399137Y-52078906D01*
X56319785Y-51982215D01*
X56223094Y-51902863D01*
X56112780Y-51843898D01*
X55993082Y-51807588D01*
X55868600Y-51795328D01*
X55500350Y-51798400D01*
X55341600Y-51957150D01*
X55087600Y-51957150D01*
X54928850Y-51798400D01*
X54560600Y-51795328D01*
X54514600Y-51799858D01*
X54468600Y-51795328D01*
X54100350Y-51798400D01*
X53941600Y-51957150D01*
X53941600Y-52286462D01*
X53934788Y-52308918D01*
X53922528Y-52433400D01*
X53687600Y-52433400D01*
X53687600Y-51957150D01*
X53528850Y-51798400D01*
X53160600Y-51795328D01*
X53036118Y-51807588D01*
X52916420Y-51843898D01*
X52806106Y-51902863D01*
X52709415Y-51982215D01*
X52630063Y-52078906D01*
X52571098Y-52189220D01*
X52534788Y-52308918D01*
X52522528Y-52433400D01*
X43648937Y-52433400D01*
X43510631Y-52174648D01*
X43306314Y-51925686D01*
X43057352Y-51721369D01*
X42773315Y-51569548D01*
X42465116Y-51476057D01*
X42224922Y-51452400D01*
X40664278Y-51452400D01*
X40424084Y-51476057D01*
X40115885Y-51569548D01*
X39831848Y-51721369D01*
X39582886Y-51925686D01*
X39560962Y-51952400D01*
X39234490Y-51952400D01*
X39233812Y-51945518D01*
X39197502Y-51825820D01*
X39138537Y-51715506D01*
X39059185Y-51618815D01*
X38962494Y-51539463D01*
X38852180Y-51480498D01*
X38732482Y-51444188D01*
X38608000Y-51431928D01*
X36068000Y-51431928D01*
X35943518Y-51444188D01*
X35823820Y-51480498D01*
X35713506Y-51539463D01*
X35616815Y-51618815D01*
X35546085Y-51705000D01*
X33989330Y-51705000D01*
X33909000Y-51697088D01*
X33588483Y-51728657D01*
X33368699Y-51795328D01*
X33280285Y-51822148D01*
X32996248Y-51973969D01*
X32747286Y-52178286D01*
X32696084Y-52240676D01*
X28110682Y-56826080D01*
X28048287Y-56877286D01*
X27908245Y-57047928D01*
X27460000Y-57047928D01*
X27428808Y-57051000D01*
X25653345Y-57051000D01*
X23725000Y-55122655D01*
X23725000Y-54011800D01*
X23755464Y-54056494D01*
X23967097Y-54264256D01*
X24215196Y-54426738D01*
X24490227Y-54537696D01*
X24781620Y-54592866D01*
X25019000Y-54436586D01*
X25019000Y-53213000D01*
X25273000Y-53213000D01*
X25273000Y-54436586D01*
X25510380Y-54592866D01*
X25801773Y-54537696D01*
X26076804Y-54426738D01*
X26324903Y-54264256D01*
X26536536Y-54056494D01*
X26703571Y-53811437D01*
X26819588Y-53538502D01*
X26837302Y-53446031D01*
X26716246Y-53213000D01*
X25273000Y-53213000D01*
X25019000Y-53213000D01*
X24999000Y-53213000D01*
X24999000Y-52959000D01*
X25019000Y-52959000D01*
X25019000Y-52939000D01*
X25273000Y-52939000D01*
X25273000Y-52959000D01*
X26716246Y-52959000D01*
X26837302Y-52725969D01*
X26819588Y-52633498D01*
X26703571Y-52360563D01*
X26536536Y-52115506D01*
X26324903Y-51907744D01*
X26188331Y-51818302D01*
X26216179Y-51803417D01*
X26445345Y-51615345D01*
X26633417Y-51386179D01*
X26773166Y-51124725D01*
X26859224Y-50841032D01*
X26888282Y-50546000D01*
X26859224Y-50250968D01*
X26773166Y-49967275D01*
X26633417Y-49705821D01*
X26445345Y-49476655D01*
X26379886Y-49422934D01*
X26489387Y-49364405D01*
X26623962Y-49253962D01*
X26734405Y-49119387D01*
X26816472Y-48965851D01*
X26867008Y-48799255D01*
X26884072Y-48626001D01*
X26884072Y-47385999D01*
X26867008Y-47212745D01*
X26816472Y-47046149D01*
X26734405Y-46892613D01*
X26623962Y-46758038D01*
X26489387Y-46647595D01*
X26380686Y-46589493D01*
X26536536Y-46436494D01*
X26703571Y-46191437D01*
X26819588Y-45918502D01*
X26837302Y-45826031D01*
X26716247Y-45593002D01*
X26770764Y-45593002D01*
X29775080Y-48597319D01*
X29826286Y-48659714D01*
X30075248Y-48864031D01*
X30359285Y-49015852D01*
X30667484Y-49109343D01*
X30907678Y-49133000D01*
X30907680Y-49133000D01*
X30987999Y-49140911D01*
X31068319Y-49133000D01*
X31727322Y-49133000D01*
X31967516Y-49109343D01*
X32275715Y-49015852D01*
X32530343Y-48879750D01*
X33062000Y-48879750D01*
X33073896Y-48985397D01*
X33112674Y-49104318D01*
X33173907Y-49213389D01*
X33255242Y-49308419D01*
X33353553Y-49385755D01*
X33465063Y-49442425D01*
X33585486Y-49476252D01*
X33665250Y-49483000D01*
X33824000Y-49324250D01*
X33824000Y-48721000D01*
X34470000Y-48721000D01*
X34470000Y-49324250D01*
X34628750Y-49483000D01*
X34708514Y-49476252D01*
X34828937Y-49442425D01*
X34940447Y-49385755D01*
X35038758Y-49308419D01*
X35120093Y-49213389D01*
X35181326Y-49104318D01*
X35215994Y-48998000D01*
X36163928Y-48998000D01*
X36176188Y-49122482D01*
X36212498Y-49242180D01*
X36271463Y-49352494D01*
X36350815Y-49449185D01*
X36447506Y-49528537D01*
X36557820Y-49587502D01*
X36677518Y-49623812D01*
X36802000Y-49636072D01*
X37028750Y-49633000D01*
X37187500Y-49474250D01*
X37187500Y-48425000D01*
X36325750Y-48425000D01*
X36167000Y-48583750D01*
X36163928Y-48998000D01*
X35215994Y-48998000D01*
X35220104Y-48985397D01*
X35232000Y-48879750D01*
X35073250Y-48721000D01*
X34470000Y-48721000D01*
X33824000Y-48721000D01*
X33220750Y-48721000D01*
X33062000Y-48879750D01*
X32530343Y-48879750D01*
X32559752Y-48864031D01*
X32808714Y-48659714D01*
X33013031Y-48410752D01*
X33044184Y-48352468D01*
X33048185Y-48349185D01*
X33127537Y-48252494D01*
X33186502Y-48142180D01*
X33186834Y-48141084D01*
X33220750Y-48175000D01*
X33824000Y-48175000D01*
X33824000Y-48048000D01*
X34470000Y-48048000D01*
X34470000Y-48175000D01*
X35073250Y-48175000D01*
X35232000Y-48016250D01*
X35220104Y-47910603D01*
X35181326Y-47791682D01*
X35120093Y-47682611D01*
X35038758Y-47587581D01*
X35020002Y-47572827D01*
X35020002Y-47433000D01*
X36188479Y-47433000D01*
X36176188Y-47473518D01*
X36163928Y-47598000D01*
X36167000Y-48012250D01*
X36325750Y-48171000D01*
X37187500Y-48171000D01*
X37187500Y-48151000D01*
X37441500Y-48151000D01*
X37441500Y-48171000D01*
X37461500Y-48171000D01*
X37461500Y-48425000D01*
X37441500Y-48425000D01*
X37441500Y-49474250D01*
X37600250Y-49633000D01*
X37827000Y-49636072D01*
X37951482Y-49623812D01*
X38071180Y-49587502D01*
X38181494Y-49528537D01*
X38278185Y-49449185D01*
X38302363Y-49419724D01*
X38383613Y-49486405D01*
X38537148Y-49568472D01*
X38703744Y-49619008D01*
X38876998Y-49636072D01*
X39402002Y-49636072D01*
X39575256Y-49619008D01*
X39741852Y-49568472D01*
X39895387Y-49486405D01*
X40029962Y-49375962D01*
X40140405Y-49241387D01*
X40171614Y-49183000D01*
X40812524Y-49183000D01*
X40856000Y-49187282D01*
X40899477Y-49183000D01*
X41616386Y-49183000D01*
X41647595Y-49241387D01*
X41758038Y-49375962D01*
X41892613Y-49486405D01*
X42046148Y-49568472D01*
X42212744Y-49619008D01*
X42385998Y-49636072D01*
X42911002Y-49636072D01*
X43084256Y-49619008D01*
X43250852Y-49568472D01*
X43404387Y-49486405D01*
X43538962Y-49375962D01*
X43561000Y-49349109D01*
X43583038Y-49375962D01*
X43717613Y-49486405D01*
X43871148Y-49568472D01*
X44037744Y-49619008D01*
X44210998Y-49636072D01*
X44736002Y-49636072D01*
X44909256Y-49619008D01*
X45075852Y-49568472D01*
X45229387Y-49486405D01*
X45363962Y-49375962D01*
X45474405Y-49241387D01*
X45507511Y-49179451D01*
X45601490Y-49170195D01*
X45768313Y-49119589D01*
X45922059Y-49037411D01*
X46056817Y-48926817D01*
X46084534Y-48893044D01*
X47666979Y-47310600D01*
X47721237Y-47310600D01*
X47959836Y-47263140D01*
X48184592Y-47170043D01*
X48386867Y-47034887D01*
X48558887Y-46862867D01*
X48694043Y-46660592D01*
X48787140Y-46435836D01*
X48834600Y-46197237D01*
X48834600Y-45953963D01*
X48787140Y-45715364D01*
X48694043Y-45490608D01*
X48558887Y-45288333D01*
X48386867Y-45116313D01*
X48184592Y-44981157D01*
X47959836Y-44888060D01*
X47721237Y-44840600D01*
X47477963Y-44840600D01*
X47239364Y-44888060D01*
X47014608Y-44981157D01*
X46812333Y-45116313D01*
X46640313Y-45288333D01*
X46505157Y-45490608D01*
X46412060Y-45715364D01*
X46364600Y-45953963D01*
X46364600Y-46109821D01*
X45303777Y-47170645D01*
X45229387Y-47109595D01*
X45075852Y-47027528D01*
X44909256Y-46976992D01*
X44736002Y-46959928D01*
X44210998Y-46959928D01*
X44037744Y-46976992D01*
X43871148Y-47027528D01*
X43717613Y-47109595D01*
X43583038Y-47220038D01*
X43561000Y-47246891D01*
X43538962Y-47220038D01*
X43404387Y-47109595D01*
X43250852Y-47027528D01*
X43084256Y-46976992D01*
X42911002Y-46959928D01*
X42385998Y-46959928D01*
X42212744Y-46976992D01*
X42046148Y-47027528D01*
X41892613Y-47109595D01*
X41758038Y-47220038D01*
X41741000Y-47240799D01*
X41741000Y-47122465D01*
X41745281Y-47078999D01*
X41741000Y-47035533D01*
X41741000Y-47035523D01*
X41728195Y-46905510D01*
X41677589Y-46738687D01*
X41595411Y-46584941D01*
X41484817Y-46450183D01*
X41451045Y-46422467D01*
X40981534Y-45952956D01*
X40953817Y-45919183D01*
X40819059Y-45808589D01*
X40665313Y-45726411D01*
X40498490Y-45675805D01*
X40368477Y-45663000D01*
X40368469Y-45663000D01*
X40325000Y-45658719D01*
X40281531Y-45663000D01*
X35006981Y-45663000D01*
X34951494Y-45617463D01*
X34841180Y-45558498D01*
X34721482Y-45522188D01*
X34597000Y-45509928D01*
X33697000Y-45509928D01*
X33572518Y-45522188D01*
X33452820Y-45558498D01*
X33342506Y-45617463D01*
X33245815Y-45696815D01*
X33166463Y-45793506D01*
X33107498Y-45903820D01*
X33071188Y-46023518D01*
X33058928Y-46148000D01*
X33058928Y-46659905D01*
X33048185Y-46646815D01*
X33044184Y-46643532D01*
X33013031Y-46585248D01*
X32808714Y-46336286D01*
X32559752Y-46131969D01*
X32275715Y-45980148D01*
X31967516Y-45886657D01*
X31727322Y-45863000D01*
X31665239Y-45863000D01*
X28338111Y-42535873D01*
X28581285Y-42665852D01*
X28889484Y-42759343D01*
X29129678Y-42783000D01*
X29129680Y-42783000D01*
X29210000Y-42790911D01*
X29290319Y-42783000D01*
X31727322Y-42783000D01*
X31967516Y-42759343D01*
X32275715Y-42665852D01*
X32530343Y-42529750D01*
X33062000Y-42529750D01*
X33073896Y-42635397D01*
X33112674Y-42754318D01*
X33173907Y-42863389D01*
X33255242Y-42958419D01*
X33353553Y-43035755D01*
X33465063Y-43092425D01*
X33585486Y-43126252D01*
X33665250Y-43133000D01*
X33824000Y-42974250D01*
X33824000Y-42371000D01*
X34470000Y-42371000D01*
X34470000Y-42974250D01*
X34628750Y-43133000D01*
X34708514Y-43126252D01*
X34828937Y-43092425D01*
X34940447Y-43035755D01*
X35038758Y-42958419D01*
X35120093Y-42863389D01*
X35181326Y-42754318D01*
X35215994Y-42648000D01*
X36163928Y-42648000D01*
X36176188Y-42772482D01*
X36212498Y-42892180D01*
X36271463Y-43002494D01*
X36350815Y-43099185D01*
X36447506Y-43178537D01*
X36557820Y-43237502D01*
X36677518Y-43273812D01*
X36802000Y-43286072D01*
X37028750Y-43283000D01*
X37187500Y-43124250D01*
X37187500Y-42075000D01*
X36325750Y-42075000D01*
X36167000Y-42233750D01*
X36163928Y-42648000D01*
X35215994Y-42648000D01*
X35220104Y-42635397D01*
X35232000Y-42529750D01*
X35073250Y-42371000D01*
X34470000Y-42371000D01*
X33824000Y-42371000D01*
X33220750Y-42371000D01*
X33062000Y-42529750D01*
X32530343Y-42529750D01*
X32559752Y-42514031D01*
X32808714Y-42309714D01*
X33013031Y-42060752D01*
X33044184Y-42002468D01*
X33048185Y-41999185D01*
X33127537Y-41902494D01*
X33186502Y-41792180D01*
X33186834Y-41791084D01*
X33220750Y-41825000D01*
X33824000Y-41825000D01*
X33824000Y-41698000D01*
X34470000Y-41698000D01*
X34470000Y-41825000D01*
X35073250Y-41825000D01*
X35232000Y-41666250D01*
X35220104Y-41560603D01*
X35181326Y-41441682D01*
X35120093Y-41332611D01*
X35038758Y-41237581D01*
X35020002Y-41222827D01*
X35020002Y-41083000D01*
X36188479Y-41083000D01*
X36176188Y-41123518D01*
X36163928Y-41248000D01*
X36167000Y-41662250D01*
X36325750Y-41821000D01*
X37187500Y-41821000D01*
X37187500Y-41801000D01*
X37441500Y-41801000D01*
X37441500Y-41821000D01*
X37461500Y-41821000D01*
X37461500Y-42075000D01*
X37441500Y-42075000D01*
X37441500Y-43124250D01*
X37600250Y-43283000D01*
X37827000Y-43286072D01*
X37951482Y-43273812D01*
X38071180Y-43237502D01*
X38181494Y-43178537D01*
X38278185Y-43099185D01*
X38302363Y-43069724D01*
X38383613Y-43136405D01*
X38537148Y-43218472D01*
X38703744Y-43269008D01*
X38876998Y-43286072D01*
X39402002Y-43286072D01*
X39575256Y-43269008D01*
X39741852Y-43218472D01*
X39895387Y-43136405D01*
X40029962Y-43025962D01*
X40140405Y-42891387D01*
X40171614Y-42833000D01*
X40888524Y-42833000D01*
X40932000Y-42837282D01*
X40975477Y-42833000D01*
X41616386Y-42833000D01*
X41647595Y-42891387D01*
X41758038Y-43025962D01*
X41892613Y-43136405D01*
X42046148Y-43218472D01*
X42212744Y-43269008D01*
X42385998Y-43286072D01*
X42911002Y-43286072D01*
X43084256Y-43269008D01*
X43250852Y-43218472D01*
X43404387Y-43136405D01*
X43538962Y-43025962D01*
X43561000Y-42999109D01*
X43583038Y-43025962D01*
X43717613Y-43136405D01*
X43871148Y-43218472D01*
X44037744Y-43269008D01*
X44210998Y-43286072D01*
X44736002Y-43286072D01*
X44909256Y-43269008D01*
X45075852Y-43218472D01*
X45229387Y-43136405D01*
X45363962Y-43025962D01*
X45474405Y-42891387D01*
X45505614Y-42833000D01*
X45638531Y-42833000D01*
X45682000Y-42837281D01*
X45725469Y-42833000D01*
X45725477Y-42833000D01*
X45855490Y-42820195D01*
X46022313Y-42769589D01*
X46176059Y-42687411D01*
X46310817Y-42576817D01*
X46338534Y-42543044D01*
X46975579Y-41906000D01*
X47398446Y-41906000D01*
X47472733Y-41980287D01*
X47675008Y-42115443D01*
X47899764Y-42208540D01*
X48138363Y-42256000D01*
X48381637Y-42256000D01*
X48620236Y-42208540D01*
X48844992Y-42115443D01*
X49047267Y-41980287D01*
X49219287Y-41808267D01*
X49354443Y-41605992D01*
X49447540Y-41381236D01*
X49495000Y-41142637D01*
X49495000Y-40899363D01*
X49447540Y-40660764D01*
X49354443Y-40436008D01*
X49219287Y-40233733D01*
X49047267Y-40061713D01*
X48844992Y-39926557D01*
X48620236Y-39833460D01*
X48381637Y-39786000D01*
X48138363Y-39786000D01*
X47899764Y-39833460D01*
X47675008Y-39926557D01*
X47472733Y-40061713D01*
X47398446Y-40136000D01*
X46652469Y-40136000D01*
X46609000Y-40131719D01*
X46565531Y-40136000D01*
X46565523Y-40136000D01*
X46450306Y-40147348D01*
X46435509Y-40148805D01*
X46403557Y-40158498D01*
X46268687Y-40199411D01*
X46114941Y-40281589D01*
X46114939Y-40281590D01*
X46114940Y-40281590D01*
X46013953Y-40364468D01*
X46013951Y-40364470D01*
X45980183Y-40392183D01*
X45952470Y-40425951D01*
X45429061Y-40949361D01*
X45363962Y-40870038D01*
X45229387Y-40759595D01*
X45075852Y-40677528D01*
X44909256Y-40626992D01*
X44736002Y-40609928D01*
X44210998Y-40609928D01*
X44037744Y-40626992D01*
X43871148Y-40677528D01*
X43717613Y-40759595D01*
X43583038Y-40870038D01*
X43561000Y-40896891D01*
X43538962Y-40870038D01*
X43404387Y-40759595D01*
X43250852Y-40677528D01*
X43084256Y-40626992D01*
X42911002Y-40609928D01*
X42385998Y-40609928D01*
X42212744Y-40626992D01*
X42046148Y-40677528D01*
X41892613Y-40759595D01*
X41819874Y-40819291D01*
X41821281Y-40805000D01*
X41817000Y-40761531D01*
X41817000Y-40761523D01*
X41804195Y-40631510D01*
X41772474Y-40526941D01*
X41753589Y-40464686D01*
X41671411Y-40310941D01*
X41588532Y-40209953D01*
X41588530Y-40209951D01*
X41560817Y-40176183D01*
X41527050Y-40148471D01*
X40981534Y-39602956D01*
X40953817Y-39569183D01*
X40819059Y-39458589D01*
X40665313Y-39376411D01*
X40498490Y-39325805D01*
X40368477Y-39313000D01*
X40368469Y-39313000D01*
X40325000Y-39308719D01*
X40281531Y-39313000D01*
X35006981Y-39313000D01*
X34951494Y-39267463D01*
X34841180Y-39208498D01*
X34721482Y-39172188D01*
X34597000Y-39159928D01*
X33697000Y-39159928D01*
X33572518Y-39172188D01*
X33452820Y-39208498D01*
X33342506Y-39267463D01*
X33245815Y-39346815D01*
X33166463Y-39443506D01*
X33107498Y-39553820D01*
X33071188Y-39673518D01*
X33058928Y-39798000D01*
X33058928Y-40309905D01*
X33048185Y-40296815D01*
X33044184Y-40293532D01*
X33013031Y-40235248D01*
X32808714Y-39986286D01*
X32559752Y-39781969D01*
X32275715Y-39630148D01*
X31967516Y-39536657D01*
X31727322Y-39513000D01*
X29887238Y-39513000D01*
X29700916Y-39326678D01*
X29649705Y-39264277D01*
X29400743Y-39059960D01*
X29116706Y-38908139D01*
X28978134Y-38866104D01*
X31384239Y-36460000D01*
X31727322Y-36460000D01*
X31967516Y-36436343D01*
X32275715Y-36342852D01*
X32530343Y-36206750D01*
X33062000Y-36206750D01*
X33073896Y-36312397D01*
X33112674Y-36431318D01*
X33173907Y-36540389D01*
X33255242Y-36635419D01*
X33353553Y-36712755D01*
X33465063Y-36769425D01*
X33585486Y-36803252D01*
X33665250Y-36810000D01*
X33824000Y-36651250D01*
X33824000Y-36048000D01*
X34470000Y-36048000D01*
X34470000Y-36651250D01*
X34628750Y-36810000D01*
X34708514Y-36803252D01*
X34828937Y-36769425D01*
X34940447Y-36712755D01*
X35038758Y-36635419D01*
X35120093Y-36540389D01*
X35181326Y-36431318D01*
X35215994Y-36325000D01*
X36163928Y-36325000D01*
X36176188Y-36449482D01*
X36212498Y-36569180D01*
X36271463Y-36679494D01*
X36350815Y-36776185D01*
X36447506Y-36855537D01*
X36557820Y-36914502D01*
X36677518Y-36950812D01*
X36802000Y-36963072D01*
X37028750Y-36960000D01*
X37187500Y-36801250D01*
X37187500Y-35752000D01*
X36325750Y-35752000D01*
X36167000Y-35910750D01*
X36163928Y-36325000D01*
X35215994Y-36325000D01*
X35220104Y-36312397D01*
X35232000Y-36206750D01*
X35073250Y-36048000D01*
X34470000Y-36048000D01*
X33824000Y-36048000D01*
X33220750Y-36048000D01*
X33062000Y-36206750D01*
X32530343Y-36206750D01*
X32559752Y-36191031D01*
X32808714Y-35986714D01*
X33013031Y-35737752D01*
X33044184Y-35679468D01*
X33048185Y-35676185D01*
X33127537Y-35579494D01*
X33186502Y-35469180D01*
X33186834Y-35468084D01*
X33220750Y-35502000D01*
X33824000Y-35502000D01*
X33824000Y-35375000D01*
X34470000Y-35375000D01*
X34470000Y-35502000D01*
X35073250Y-35502000D01*
X35232000Y-35343250D01*
X35220104Y-35237603D01*
X35181326Y-35118682D01*
X35120093Y-35009611D01*
X35038758Y-34914581D01*
X35020002Y-34899827D01*
X35020002Y-34760000D01*
X36188479Y-34760000D01*
X36176188Y-34800518D01*
X36163928Y-34925000D01*
X36167000Y-35339250D01*
X36325750Y-35498000D01*
X37187500Y-35498000D01*
X37187500Y-35478000D01*
X37441500Y-35478000D01*
X37441500Y-35498000D01*
X37461500Y-35498000D01*
X37461500Y-35752000D01*
X37441500Y-35752000D01*
X37441500Y-36801250D01*
X37600250Y-36960000D01*
X37827000Y-36963072D01*
X37951482Y-36950812D01*
X38071180Y-36914502D01*
X38181494Y-36855537D01*
X38278185Y-36776185D01*
X38302363Y-36746724D01*
X38383613Y-36813405D01*
X38537148Y-36895472D01*
X38703744Y-36946008D01*
X38876998Y-36963072D01*
X39402002Y-36963072D01*
X39575256Y-36946008D01*
X39741852Y-36895472D01*
X39895387Y-36813405D01*
X40029962Y-36702962D01*
X40140405Y-36568387D01*
X40171614Y-36510000D01*
X41042524Y-36510000D01*
X41086000Y-36514282D01*
X41129477Y-36510000D01*
X41616386Y-36510000D01*
X41647595Y-36568387D01*
X41758038Y-36702962D01*
X41892613Y-36813405D01*
X42046148Y-36895472D01*
X42212744Y-36946008D01*
X42385998Y-36963072D01*
X42911002Y-36963072D01*
X43084256Y-36946008D01*
X43250852Y-36895472D01*
X43404387Y-36813405D01*
X43538962Y-36702962D01*
X43561000Y-36676109D01*
X43583038Y-36702962D01*
X43717613Y-36813405D01*
X43871148Y-36895472D01*
X44037744Y-36946008D01*
X44210998Y-36963072D01*
X44736002Y-36963072D01*
X44909256Y-36946008D01*
X45075852Y-36895472D01*
X45229387Y-36813405D01*
X45363962Y-36702962D01*
X45474405Y-36568387D01*
X45505614Y-36510000D01*
X46523933Y-36510000D01*
X46530557Y-36525992D01*
X46665713Y-36728267D01*
X46837733Y-36900287D01*
X47040008Y-37035443D01*
X47264764Y-37128540D01*
X47503363Y-37176000D01*
X47746637Y-37176000D01*
X47985236Y-37128540D01*
X48209992Y-37035443D01*
X48412267Y-36900287D01*
X48584287Y-36728267D01*
X48719443Y-36525992D01*
X48812540Y-36301236D01*
X48860000Y-36062637D01*
X48860000Y-35819363D01*
X48812540Y-35580764D01*
X48719443Y-35356008D01*
X48584287Y-35153733D01*
X48412267Y-34981713D01*
X48209992Y-34846557D01*
X47985236Y-34753460D01*
X47746637Y-34706000D01*
X47503363Y-34706000D01*
X47339068Y-34738680D01*
X47309000Y-34735719D01*
X47265531Y-34740000D01*
X45505614Y-34740000D01*
X45474405Y-34681613D01*
X45363962Y-34547038D01*
X45229387Y-34436595D01*
X45075852Y-34354528D01*
X44909256Y-34303992D01*
X44736002Y-34286928D01*
X44210998Y-34286928D01*
X44037744Y-34303992D01*
X43871148Y-34354528D01*
X43717613Y-34436595D01*
X43583038Y-34547038D01*
X43561000Y-34573891D01*
X43538962Y-34547038D01*
X43404387Y-34436595D01*
X43250852Y-34354528D01*
X43084256Y-34303992D01*
X42911002Y-34286928D01*
X42385998Y-34286928D01*
X42212744Y-34303992D01*
X42046148Y-34354528D01*
X41949328Y-34406280D01*
X41907589Y-34268687D01*
X41825411Y-34114941D01*
X41816109Y-34103606D01*
X41742532Y-34013953D01*
X41742530Y-34013951D01*
X41714817Y-33980183D01*
X41681050Y-33952471D01*
X41008534Y-33279956D01*
X40980817Y-33246183D01*
X40846059Y-33135589D01*
X40692313Y-33053411D01*
X40525490Y-33002805D01*
X40395477Y-32990000D01*
X40395469Y-32990000D01*
X40352000Y-32985719D01*
X40308531Y-32990000D01*
X35006981Y-32990000D01*
X34951494Y-32944463D01*
X34841180Y-32885498D01*
X34721482Y-32849188D01*
X34597000Y-32836928D01*
X33697000Y-32836928D01*
X33572518Y-32849188D01*
X33452820Y-32885498D01*
X33342506Y-32944463D01*
X33245815Y-33023815D01*
X33166463Y-33120506D01*
X33107498Y-33230820D01*
X33071188Y-33350518D01*
X33058928Y-33475000D01*
X33058928Y-33986905D01*
X33048185Y-33973815D01*
X33044184Y-33970532D01*
X33013031Y-33912248D01*
X32808714Y-33663286D01*
X32559752Y-33458969D01*
X32275715Y-33307148D01*
X31967516Y-33213657D01*
X31727322Y-33190000D01*
X30787319Y-33190000D01*
X30706999Y-33182089D01*
X30626680Y-33190000D01*
X30626678Y-33190000D01*
X30386484Y-33213657D01*
X30234000Y-33259912D01*
X30234000Y-30051881D01*
X30294506Y-30101537D01*
X30404820Y-30160502D01*
X30524518Y-30196812D01*
X30649000Y-30209072D01*
X30813250Y-30206000D01*
X30972000Y-30047250D01*
X30972000Y-29298000D01*
X31226000Y-29298000D01*
X31226000Y-30047250D01*
X31384750Y-30206000D01*
X31549000Y-30209072D01*
X31673482Y-30196812D01*
X31793180Y-30160502D01*
X31903494Y-30101537D01*
X32000185Y-30022185D01*
X32079537Y-29925494D01*
X32138502Y-29815180D01*
X32167071Y-29721000D01*
X33623928Y-29721000D01*
X33636188Y-29845482D01*
X33672498Y-29965180D01*
X33731463Y-30075494D01*
X33810815Y-30172185D01*
X33907506Y-30251537D01*
X34017820Y-30310502D01*
X34137518Y-30346812D01*
X34262000Y-30359072D01*
X34488750Y-30356000D01*
X34647500Y-30197250D01*
X34647500Y-29148000D01*
X33785750Y-29148000D01*
X33627000Y-29306750D01*
X33623928Y-29721000D01*
X32167071Y-29721000D01*
X32174812Y-29695482D01*
X32187072Y-29571000D01*
X32184000Y-29456750D01*
X32025250Y-29298000D01*
X31226000Y-29298000D01*
X30972000Y-29298000D01*
X30952000Y-29298000D01*
X30952000Y-29044000D01*
X30972000Y-29044000D01*
X30972000Y-29024000D01*
X31226000Y-29024000D01*
X31226000Y-29044000D01*
X32025250Y-29044000D01*
X32184000Y-28885250D01*
X32187072Y-28771000D01*
X32174812Y-28646518D01*
X32138502Y-28526820D01*
X32079537Y-28416506D01*
X32000185Y-28319815D01*
X31903494Y-28240463D01*
X31867082Y-28221000D01*
X31903494Y-28201537D01*
X31958981Y-28156000D01*
X33648479Y-28156000D01*
X33636188Y-28196518D01*
G37*
G04 #@! TD.AperFunction*
D30*
X25273000Y-45339000D02*
X25293000Y-45339000D01*
X25293000Y-45593000D01*
X25273000Y-45593000D01*
X25273000Y-45613000D01*
X25019000Y-45613000D01*
X25019000Y-45593000D01*
X24999000Y-45593000D01*
X24999000Y-45339000D01*
X25019000Y-45339000D01*
X25019000Y-45319000D01*
X25273000Y-45319000D01*
X25273000Y-45339000D01*
G04 #@! TA.AperFunction,Conductor*
D31*
G36*
X25273000Y-45339000D02*
G01*
X25293000Y-45339000D01*
X25293000Y-45593000D01*
X25273000Y-45593000D01*
X25273000Y-45613000D01*
X25019000Y-45613000D01*
X25019000Y-45593000D01*
X24999000Y-45593000D01*
X24999000Y-45339000D01*
X25019000Y-45339000D01*
X25019000Y-45319000D01*
X25273000Y-45319000D01*
X25273000Y-45339000D01*
G37*
G04 #@! TD.AperFunction*
M02*
