G04 #@! TF.GenerationSoftware,KiCad,Pcbnew,(5.1.9)-1*
G04 #@! TF.CreationDate,2021-06-01T19:36:45+03:00*
G04 #@! TF.ProjectId,ESP-RGBW-3S,4553502d-5247-4425-972d-33532e6b6963,0.4*
G04 #@! TF.SameCoordinates,Original*
G04 #@! TF.FileFunction,Legend,Bot*
G04 #@! TF.FilePolarity,Positive*
%FSLAX46Y46*%
G04 Gerber Fmt 4.6, Leading zero omitted, Abs format (unit mm)*
G04 Created by KiCad (PCBNEW (5.1.9)-1) date 2021-06-01 19:36:45*
%MOMM*%
%LPD*%
G01*
G04 APERTURE LIST*
%ADD10C,0.150000*%
%ADD11C,0.300000*%
%ADD12C,0.120000*%
%ADD13C,0.010000*%
%ADD14C,2.702000*%
%ADD15C,2.642000*%
%ADD16O,2.302000X1.842000*%
%ADD17C,0.802000*%
%ADD18C,4.502000*%
%ADD19C,1.902000*%
%ADD20O,1.802000X1.802000*%
G04 APERTURE END LIST*
D10*
X56052404Y-56082428D02*
X55290500Y-56082428D01*
X54814309Y-56082428D02*
X54052404Y-56082428D01*
X53576214Y-56082428D02*
X52814309Y-56082428D01*
X52338119Y-56082428D02*
X51576214Y-56082428D01*
X50576214Y-55511000D02*
X50671452Y-55463380D01*
X50814309Y-55463380D01*
X50957166Y-55511000D01*
X51052404Y-55606238D01*
X51100023Y-55701476D01*
X51147642Y-55891952D01*
X51147642Y-56034809D01*
X51100023Y-56225285D01*
X51052404Y-56320523D01*
X50957166Y-56415761D01*
X50814309Y-56463380D01*
X50719071Y-56463380D01*
X50576214Y-56415761D01*
X50528595Y-56368142D01*
X50528595Y-56034809D01*
X50719071Y-56034809D01*
X50100023Y-56463380D02*
X50100023Y-55463380D01*
X49719071Y-55463380D01*
X49623833Y-55511000D01*
X49576214Y-55558619D01*
X49528595Y-55653857D01*
X49528595Y-55796714D01*
X49576214Y-55891952D01*
X49623833Y-55939571D01*
X49719071Y-55987190D01*
X50100023Y-55987190D01*
X49100023Y-56463380D02*
X49100023Y-55463380D01*
X48433357Y-55463380D02*
X48242880Y-55463380D01*
X48147642Y-55511000D01*
X48052404Y-55606238D01*
X48004785Y-55796714D01*
X48004785Y-56130047D01*
X48052404Y-56320523D01*
X48147642Y-56415761D01*
X48242880Y-56463380D01*
X48433357Y-56463380D01*
X48528595Y-56415761D01*
X48623833Y-56320523D01*
X48671452Y-56130047D01*
X48671452Y-55796714D01*
X48623833Y-55606238D01*
X48528595Y-55511000D01*
X48433357Y-55463380D01*
X46814309Y-56463380D02*
X46814309Y-55463380D01*
X46814309Y-55939571D02*
X46242880Y-55939571D01*
X46242880Y-56463380D02*
X46242880Y-55463380D01*
X45766690Y-56463380D02*
X45766690Y-55463380D01*
X45290500Y-56463380D02*
X45290500Y-55463380D01*
X44719071Y-56463380D01*
X44719071Y-55463380D01*
X44385738Y-55463380D02*
X43814309Y-55463380D01*
X44100023Y-56463380D02*
X44100023Y-55463380D01*
X43528595Y-56415761D02*
X43385738Y-56463380D01*
X43147642Y-56463380D01*
X43052404Y-56415761D01*
X43004785Y-56368142D01*
X42957166Y-56272904D01*
X42957166Y-56177666D01*
X43004785Y-56082428D01*
X43052404Y-56034809D01*
X43147642Y-55987190D01*
X43338119Y-55939571D01*
X43433357Y-55891952D01*
X43480976Y-55844333D01*
X43528595Y-55749095D01*
X43528595Y-55653857D01*
X43480976Y-55558619D01*
X43433357Y-55511000D01*
X43338119Y-55463380D01*
X43100023Y-55463380D01*
X42957166Y-55511000D01*
X42528595Y-56082428D02*
X41766690Y-56082428D01*
X41290500Y-56082428D02*
X40528595Y-56082428D01*
X40052404Y-56082428D02*
X39290500Y-56082428D01*
X38814309Y-56082428D02*
X38052404Y-56082428D01*
X37576214Y-56082428D02*
X36814309Y-56082428D01*
X55528595Y-58113380D02*
X56100023Y-58113380D01*
X55814309Y-58113380D02*
X55814309Y-57113380D01*
X55909547Y-57256238D01*
X56004785Y-57351476D01*
X56100023Y-57399095D01*
X54671452Y-57113380D02*
X54861928Y-57113380D01*
X54957166Y-57161000D01*
X55004785Y-57208619D01*
X55100023Y-57351476D01*
X55147642Y-57541952D01*
X55147642Y-57922904D01*
X55100023Y-58018142D01*
X55052404Y-58065761D01*
X54957166Y-58113380D01*
X54766690Y-58113380D01*
X54671452Y-58065761D01*
X54623833Y-58018142D01*
X54576214Y-57922904D01*
X54576214Y-57684809D01*
X54623833Y-57589571D01*
X54671452Y-57541952D01*
X54766690Y-57494333D01*
X54957166Y-57494333D01*
X55052404Y-57541952D01*
X55100023Y-57589571D01*
X55147642Y-57684809D01*
X54147642Y-58018142D02*
X54100023Y-58065761D01*
X54147642Y-58113380D01*
X54195261Y-58065761D01*
X54147642Y-58018142D01*
X54147642Y-58113380D01*
X54147642Y-57494333D02*
X54100023Y-57541952D01*
X54147642Y-57589571D01*
X54195261Y-57541952D01*
X54147642Y-57494333D01*
X54147642Y-57589571D01*
X52909547Y-58113380D02*
X52909547Y-57113380D01*
X52909547Y-57589571D02*
X52338119Y-57589571D01*
X52338119Y-58113380D02*
X52338119Y-57113380D01*
X50671452Y-58113380D02*
X50671452Y-57589571D01*
X50719071Y-57494333D01*
X50814309Y-57446714D01*
X51004785Y-57446714D01*
X51100023Y-57494333D01*
X50671452Y-58065761D02*
X50766690Y-58113380D01*
X51004785Y-58113380D01*
X51100023Y-58065761D01*
X51147642Y-57970523D01*
X51147642Y-57875285D01*
X51100023Y-57780047D01*
X51004785Y-57732428D01*
X50766690Y-57732428D01*
X50671452Y-57684809D01*
X50338119Y-57446714D02*
X49957166Y-57446714D01*
X50195261Y-57113380D02*
X50195261Y-57970523D01*
X50147642Y-58065761D01*
X50052404Y-58113380D01*
X49957166Y-58113380D01*
X48861928Y-58113380D02*
X48861928Y-57113380D01*
X48861928Y-57494333D02*
X48766690Y-57446714D01*
X48576214Y-57446714D01*
X48480976Y-57494333D01*
X48433357Y-57541952D01*
X48385738Y-57637190D01*
X48385738Y-57922904D01*
X48433357Y-58018142D01*
X48480976Y-58065761D01*
X48576214Y-58113380D01*
X48766690Y-58113380D01*
X48861928Y-58065761D01*
X47814309Y-58113380D02*
X47909547Y-58065761D01*
X47957166Y-58018142D01*
X48004785Y-57922904D01*
X48004785Y-57637190D01*
X47957166Y-57541952D01*
X47909547Y-57494333D01*
X47814309Y-57446714D01*
X47671452Y-57446714D01*
X47576214Y-57494333D01*
X47528595Y-57541952D01*
X47480976Y-57637190D01*
X47480976Y-57922904D01*
X47528595Y-58018142D01*
X47576214Y-58065761D01*
X47671452Y-58113380D01*
X47814309Y-58113380D01*
X46909547Y-58113380D02*
X47004785Y-58065761D01*
X47052404Y-58018142D01*
X47100023Y-57922904D01*
X47100023Y-57637190D01*
X47052404Y-57541952D01*
X47004785Y-57494333D01*
X46909547Y-57446714D01*
X46766690Y-57446714D01*
X46671452Y-57494333D01*
X46623833Y-57541952D01*
X46576214Y-57637190D01*
X46576214Y-57922904D01*
X46623833Y-58018142D01*
X46671452Y-58065761D01*
X46766690Y-58113380D01*
X46909547Y-58113380D01*
X46290500Y-57446714D02*
X45909547Y-57446714D01*
X46147642Y-57113380D02*
X46147642Y-57970523D01*
X46100023Y-58065761D01*
X46004785Y-58113380D01*
X45909547Y-58113380D01*
X55861928Y-58763380D02*
X55766690Y-58763380D01*
X55671452Y-58811000D01*
X55623833Y-58858619D01*
X55576214Y-58953857D01*
X55528595Y-59144333D01*
X55528595Y-59382428D01*
X55576214Y-59572904D01*
X55623833Y-59668142D01*
X55671452Y-59715761D01*
X55766690Y-59763380D01*
X55861928Y-59763380D01*
X55957166Y-59715761D01*
X56004785Y-59668142D01*
X56052404Y-59572904D01*
X56100023Y-59382428D01*
X56100023Y-59144333D01*
X56052404Y-58953857D01*
X56004785Y-58858619D01*
X55957166Y-58811000D01*
X55861928Y-58763380D01*
X54909547Y-58763380D02*
X54814309Y-58763380D01*
X54719071Y-58811000D01*
X54671452Y-58858619D01*
X54623833Y-58953857D01*
X54576214Y-59144333D01*
X54576214Y-59382428D01*
X54623833Y-59572904D01*
X54671452Y-59668142D01*
X54719071Y-59715761D01*
X54814309Y-59763380D01*
X54909547Y-59763380D01*
X55004785Y-59715761D01*
X55052404Y-59668142D01*
X55100023Y-59572904D01*
X55147642Y-59382428D01*
X55147642Y-59144333D01*
X55100023Y-58953857D01*
X55052404Y-58858619D01*
X55004785Y-58811000D01*
X54909547Y-58763380D01*
X54147642Y-59668142D02*
X54100023Y-59715761D01*
X54147642Y-59763380D01*
X54195261Y-59715761D01*
X54147642Y-59668142D01*
X54147642Y-59763380D01*
X54147642Y-59144333D02*
X54100023Y-59191952D01*
X54147642Y-59239571D01*
X54195261Y-59191952D01*
X54147642Y-59144333D01*
X54147642Y-59239571D01*
X52909547Y-59096714D02*
X52909547Y-59763380D01*
X52909547Y-59191952D02*
X52861928Y-59144333D01*
X52766690Y-59096714D01*
X52623833Y-59096714D01*
X52528595Y-59144333D01*
X52480976Y-59239571D01*
X52480976Y-59763380D01*
X51861928Y-59763380D02*
X51957166Y-59715761D01*
X52004785Y-59668142D01*
X52052404Y-59572904D01*
X52052404Y-59287190D01*
X52004785Y-59191952D01*
X51957166Y-59144333D01*
X51861928Y-59096714D01*
X51719071Y-59096714D01*
X51623833Y-59144333D01*
X51576214Y-59191952D01*
X51528595Y-59287190D01*
X51528595Y-59572904D01*
X51576214Y-59668142D01*
X51623833Y-59715761D01*
X51719071Y-59763380D01*
X51861928Y-59763380D01*
X50338119Y-59763380D02*
X50338119Y-58763380D01*
X50338119Y-59144333D02*
X50242880Y-59096714D01*
X50052404Y-59096714D01*
X49957166Y-59144333D01*
X49909547Y-59191952D01*
X49861928Y-59287190D01*
X49861928Y-59572904D01*
X49909547Y-59668142D01*
X49957166Y-59715761D01*
X50052404Y-59763380D01*
X50242880Y-59763380D01*
X50338119Y-59715761D01*
X49433357Y-59668142D02*
X49385738Y-59715761D01*
X49433357Y-59763380D01*
X49480976Y-59715761D01*
X49433357Y-59668142D01*
X49433357Y-59763380D01*
X48195261Y-59763380D02*
X48195261Y-59096714D01*
X48195261Y-58763380D02*
X48242880Y-58811000D01*
X48195261Y-58858619D01*
X48147642Y-58811000D01*
X48195261Y-58763380D01*
X48195261Y-58858619D01*
X47861928Y-59096714D02*
X47480976Y-59096714D01*
X47719071Y-59763380D02*
X47719071Y-58906238D01*
X47671452Y-58811000D01*
X47576214Y-58763380D01*
X47480976Y-58763380D01*
X45909547Y-59763380D02*
X46385738Y-59763380D01*
X46385738Y-58763380D01*
X55861928Y-60413380D02*
X55766690Y-60413380D01*
X55671452Y-60461000D01*
X55623833Y-60508619D01*
X55576214Y-60603857D01*
X55528595Y-60794333D01*
X55528595Y-61032428D01*
X55576214Y-61222904D01*
X55623833Y-61318142D01*
X55671452Y-61365761D01*
X55766690Y-61413380D01*
X55861928Y-61413380D01*
X55957166Y-61365761D01*
X56004785Y-61318142D01*
X56052404Y-61222904D01*
X56100023Y-61032428D01*
X56100023Y-60794333D01*
X56052404Y-60603857D01*
X56004785Y-60508619D01*
X55957166Y-60461000D01*
X55861928Y-60413380D01*
X55147642Y-60508619D02*
X55100023Y-60461000D01*
X55004785Y-60413380D01*
X54766690Y-60413380D01*
X54671452Y-60461000D01*
X54623833Y-60508619D01*
X54576214Y-60603857D01*
X54576214Y-60699095D01*
X54623833Y-60841952D01*
X55195261Y-61413380D01*
X54576214Y-61413380D01*
X54147642Y-61318142D02*
X54100023Y-61365761D01*
X54147642Y-61413380D01*
X54195261Y-61365761D01*
X54147642Y-61318142D01*
X54147642Y-61413380D01*
X54147642Y-60794333D02*
X54100023Y-60841952D01*
X54147642Y-60889571D01*
X54195261Y-60841952D01*
X54147642Y-60794333D01*
X54147642Y-60889571D01*
X52909547Y-61413380D02*
X52909547Y-60413380D01*
X52909547Y-60889571D02*
X52338119Y-60889571D01*
X52338119Y-61413380D02*
X52338119Y-60413380D01*
X50957166Y-61413380D02*
X51052404Y-61365761D01*
X51100023Y-61318142D01*
X51147642Y-61222904D01*
X51147642Y-60937190D01*
X51100023Y-60841952D01*
X51052404Y-60794333D01*
X50957166Y-60746714D01*
X50814309Y-60746714D01*
X50719071Y-60794333D01*
X50671452Y-60841952D01*
X50623833Y-60937190D01*
X50623833Y-61222904D01*
X50671452Y-61318142D01*
X50719071Y-61365761D01*
X50814309Y-61413380D01*
X50957166Y-61413380D01*
X50195261Y-60746714D02*
X50195261Y-61413380D01*
X50195261Y-60841952D02*
X50147642Y-60794333D01*
X50052404Y-60746714D01*
X49909547Y-60746714D01*
X49814309Y-60794333D01*
X49766690Y-60889571D01*
X49766690Y-61413380D01*
X48528595Y-61413380D02*
X48528595Y-60413380D01*
X48528595Y-60794333D02*
X48433357Y-60746714D01*
X48242880Y-60746714D01*
X48147642Y-60794333D01*
X48100023Y-60841952D01*
X48052404Y-60937190D01*
X48052404Y-61222904D01*
X48100023Y-61318142D01*
X48147642Y-61365761D01*
X48242880Y-61413380D01*
X48433357Y-61413380D01*
X48528595Y-61365761D01*
X47480976Y-61413380D02*
X47576214Y-61365761D01*
X47623833Y-61318142D01*
X47671452Y-61222904D01*
X47671452Y-60937190D01*
X47623833Y-60841952D01*
X47576214Y-60794333D01*
X47480976Y-60746714D01*
X47338119Y-60746714D01*
X47242880Y-60794333D01*
X47195261Y-60841952D01*
X47147642Y-60937190D01*
X47147642Y-61222904D01*
X47195261Y-61318142D01*
X47242880Y-61365761D01*
X47338119Y-61413380D01*
X47480976Y-61413380D01*
X46576214Y-61413380D02*
X46671452Y-61365761D01*
X46719071Y-61318142D01*
X46766690Y-61222904D01*
X46766690Y-60937190D01*
X46719071Y-60841952D01*
X46671452Y-60794333D01*
X46576214Y-60746714D01*
X46433357Y-60746714D01*
X46338119Y-60794333D01*
X46290500Y-60841952D01*
X46242880Y-60937190D01*
X46242880Y-61222904D01*
X46290500Y-61318142D01*
X46338119Y-61365761D01*
X46433357Y-61413380D01*
X46576214Y-61413380D01*
X45957166Y-60746714D02*
X45576214Y-60746714D01*
X45814309Y-60413380D02*
X45814309Y-61270523D01*
X45766690Y-61365761D01*
X45671452Y-61413380D01*
X45576214Y-61413380D01*
X45195261Y-61365761D02*
X45195261Y-61413380D01*
X45242880Y-61508619D01*
X45290500Y-61556238D01*
X44004785Y-60746714D02*
X44004785Y-61413380D01*
X44004785Y-60841952D02*
X43957166Y-60794333D01*
X43861928Y-60746714D01*
X43719071Y-60746714D01*
X43623833Y-60794333D01*
X43576214Y-60889571D01*
X43576214Y-61413380D01*
X42957166Y-61413380D02*
X43052404Y-61365761D01*
X43100023Y-61318142D01*
X43147642Y-61222904D01*
X43147642Y-60937190D01*
X43100023Y-60841952D01*
X43052404Y-60794333D01*
X42957166Y-60746714D01*
X42814309Y-60746714D01*
X42719071Y-60794333D01*
X42671452Y-60841952D01*
X42623833Y-60937190D01*
X42623833Y-61222904D01*
X42671452Y-61318142D01*
X42719071Y-61365761D01*
X42814309Y-61413380D01*
X42957166Y-61413380D01*
X41433357Y-61413380D02*
X41433357Y-60413380D01*
X41433357Y-60794333D02*
X41338119Y-60746714D01*
X41147642Y-60746714D01*
X41052404Y-60794333D01*
X41004785Y-60841952D01*
X40957166Y-60937190D01*
X40957166Y-61222904D01*
X41004785Y-61318142D01*
X41052404Y-61365761D01*
X41147642Y-61413380D01*
X41338119Y-61413380D01*
X41433357Y-61365761D01*
X40528595Y-61318142D02*
X40480976Y-61365761D01*
X40528595Y-61413380D01*
X40576214Y-61365761D01*
X40528595Y-61318142D01*
X40528595Y-61413380D01*
X39290500Y-61413380D02*
X39290500Y-60746714D01*
X39290500Y-60413380D02*
X39338119Y-60461000D01*
X39290500Y-60508619D01*
X39242880Y-60461000D01*
X39290500Y-60413380D01*
X39290500Y-60508619D01*
X38957166Y-60746714D02*
X38576214Y-60746714D01*
X38814309Y-61413380D02*
X38814309Y-60556238D01*
X38766690Y-60461000D01*
X38671452Y-60413380D01*
X38576214Y-60413380D01*
X37004785Y-61413380D02*
X37480976Y-61413380D01*
X37480976Y-60413380D01*
X55528595Y-63063380D02*
X56100023Y-63063380D01*
X55814309Y-63063380D02*
X55814309Y-62063380D01*
X55909547Y-62206238D01*
X56004785Y-62301476D01*
X56100023Y-62349095D01*
X54623833Y-62063380D02*
X55100023Y-62063380D01*
X55147642Y-62539571D01*
X55100023Y-62491952D01*
X55004785Y-62444333D01*
X54766690Y-62444333D01*
X54671452Y-62491952D01*
X54623833Y-62539571D01*
X54576214Y-62634809D01*
X54576214Y-62872904D01*
X54623833Y-62968142D01*
X54671452Y-63015761D01*
X54766690Y-63063380D01*
X55004785Y-63063380D01*
X55100023Y-63015761D01*
X55147642Y-62968142D01*
X54147642Y-62968142D02*
X54100023Y-63015761D01*
X54147642Y-63063380D01*
X54195261Y-63015761D01*
X54147642Y-62968142D01*
X54147642Y-63063380D01*
X54147642Y-62444333D02*
X54100023Y-62491952D01*
X54147642Y-62539571D01*
X54195261Y-62491952D01*
X54147642Y-62444333D01*
X54147642Y-62539571D01*
X52909547Y-62396714D02*
X52909547Y-63063380D01*
X52909547Y-62491952D02*
X52861928Y-62444333D01*
X52766690Y-62396714D01*
X52623833Y-62396714D01*
X52528595Y-62444333D01*
X52480976Y-62539571D01*
X52480976Y-63063380D01*
X51861928Y-63063380D02*
X51957166Y-63015761D01*
X52004785Y-62968142D01*
X52052404Y-62872904D01*
X52052404Y-62587190D01*
X52004785Y-62491952D01*
X51957166Y-62444333D01*
X51861928Y-62396714D01*
X51719071Y-62396714D01*
X51623833Y-62444333D01*
X51576214Y-62491952D01*
X51528595Y-62587190D01*
X51528595Y-62872904D01*
X51576214Y-62968142D01*
X51623833Y-63015761D01*
X51719071Y-63063380D01*
X51861928Y-63063380D01*
X50338119Y-63063380D02*
X50338119Y-62063380D01*
X50338119Y-62444333D02*
X50242880Y-62396714D01*
X50052404Y-62396714D01*
X49957166Y-62444333D01*
X49909547Y-62491952D01*
X49861928Y-62587190D01*
X49861928Y-62872904D01*
X49909547Y-62968142D01*
X49957166Y-63015761D01*
X50052404Y-63063380D01*
X50242880Y-63063380D01*
X50338119Y-63015761D01*
X49290500Y-63063380D02*
X49385738Y-63015761D01*
X49433357Y-62968142D01*
X49480976Y-62872904D01*
X49480976Y-62587190D01*
X49433357Y-62491952D01*
X49385738Y-62444333D01*
X49290500Y-62396714D01*
X49147642Y-62396714D01*
X49052404Y-62444333D01*
X49004785Y-62491952D01*
X48957166Y-62587190D01*
X48957166Y-62872904D01*
X49004785Y-62968142D01*
X49052404Y-63015761D01*
X49147642Y-63063380D01*
X49290500Y-63063380D01*
X48385738Y-63063380D02*
X48480976Y-63015761D01*
X48528595Y-62968142D01*
X48576214Y-62872904D01*
X48576214Y-62587190D01*
X48528595Y-62491952D01*
X48480976Y-62444333D01*
X48385738Y-62396714D01*
X48242880Y-62396714D01*
X48147642Y-62444333D01*
X48100023Y-62491952D01*
X48052404Y-62587190D01*
X48052404Y-62872904D01*
X48100023Y-62968142D01*
X48147642Y-63015761D01*
X48242880Y-63063380D01*
X48385738Y-63063380D01*
X47766690Y-62396714D02*
X47385738Y-62396714D01*
X47623833Y-62063380D02*
X47623833Y-62920523D01*
X47576214Y-63015761D01*
X47480976Y-63063380D01*
X47385738Y-63063380D01*
X46290500Y-63063380D02*
X46290500Y-62396714D01*
X46290500Y-62063380D02*
X46338119Y-62111000D01*
X46290500Y-62158619D01*
X46242880Y-62111000D01*
X46290500Y-62063380D01*
X46290500Y-62158619D01*
X45957166Y-62396714D02*
X45576214Y-62396714D01*
X45814309Y-63063380D02*
X45814309Y-62206238D01*
X45766690Y-62111000D01*
X45671452Y-62063380D01*
X45576214Y-62063380D01*
X44480976Y-63063380D02*
X44480976Y-62063380D01*
X44480976Y-62539571D02*
X43909547Y-62539571D01*
X43909547Y-63063380D02*
X43909547Y-62063380D01*
X55861928Y-63713380D02*
X55766690Y-63713380D01*
X55671452Y-63761000D01*
X55623833Y-63808619D01*
X55576214Y-63903857D01*
X55528595Y-64094333D01*
X55528595Y-64332428D01*
X55576214Y-64522904D01*
X55623833Y-64618142D01*
X55671452Y-64665761D01*
X55766690Y-64713380D01*
X55861928Y-64713380D01*
X55957166Y-64665761D01*
X56004785Y-64618142D01*
X56052404Y-64522904D01*
X56100023Y-64332428D01*
X56100023Y-64094333D01*
X56052404Y-63903857D01*
X56004785Y-63808619D01*
X55957166Y-63761000D01*
X55861928Y-63713380D01*
X55195261Y-63713380D02*
X54576214Y-63713380D01*
X54909547Y-64094333D01*
X54766690Y-64094333D01*
X54671452Y-64141952D01*
X54623833Y-64189571D01*
X54576214Y-64284809D01*
X54576214Y-64522904D01*
X54623833Y-64618142D01*
X54671452Y-64665761D01*
X54766690Y-64713380D01*
X55052404Y-64713380D01*
X55147642Y-64665761D01*
X55195261Y-64618142D01*
X54147642Y-64618142D02*
X54100023Y-64665761D01*
X54147642Y-64713380D01*
X54195261Y-64665761D01*
X54147642Y-64618142D01*
X54147642Y-64713380D01*
X54147642Y-64094333D02*
X54100023Y-64141952D01*
X54147642Y-64189571D01*
X54195261Y-64141952D01*
X54147642Y-64094333D01*
X54147642Y-64189571D01*
X52909547Y-64713380D02*
X52909547Y-63713380D01*
X52909547Y-64189571D02*
X52338119Y-64189571D01*
X52338119Y-64713380D02*
X52338119Y-63713380D01*
X50671452Y-64713380D02*
X50671452Y-64189571D01*
X50719071Y-64094333D01*
X50814309Y-64046714D01*
X51004785Y-64046714D01*
X51100023Y-64094333D01*
X50671452Y-64665761D02*
X50766690Y-64713380D01*
X51004785Y-64713380D01*
X51100023Y-64665761D01*
X51147642Y-64570523D01*
X51147642Y-64475285D01*
X51100023Y-64380047D01*
X51004785Y-64332428D01*
X50766690Y-64332428D01*
X50671452Y-64284809D01*
X50338119Y-64046714D02*
X49957166Y-64046714D01*
X50195261Y-63713380D02*
X50195261Y-64570523D01*
X50147642Y-64665761D01*
X50052404Y-64713380D01*
X49957166Y-64713380D01*
X48861928Y-64713380D02*
X48861928Y-63713380D01*
X48861928Y-64094333D02*
X48766690Y-64046714D01*
X48576214Y-64046714D01*
X48480976Y-64094333D01*
X48433357Y-64141952D01*
X48385738Y-64237190D01*
X48385738Y-64522904D01*
X48433357Y-64618142D01*
X48480976Y-64665761D01*
X48576214Y-64713380D01*
X48766690Y-64713380D01*
X48861928Y-64665761D01*
X47814309Y-64713380D02*
X47909547Y-64665761D01*
X47957166Y-64618142D01*
X48004785Y-64522904D01*
X48004785Y-64237190D01*
X47957166Y-64141952D01*
X47909547Y-64094333D01*
X47814309Y-64046714D01*
X47671452Y-64046714D01*
X47576214Y-64094333D01*
X47528595Y-64141952D01*
X47480976Y-64237190D01*
X47480976Y-64522904D01*
X47528595Y-64618142D01*
X47576214Y-64665761D01*
X47671452Y-64713380D01*
X47814309Y-64713380D01*
X46909547Y-64713380D02*
X47004785Y-64665761D01*
X47052404Y-64618142D01*
X47100023Y-64522904D01*
X47100023Y-64237190D01*
X47052404Y-64141952D01*
X47004785Y-64094333D01*
X46909547Y-64046714D01*
X46766690Y-64046714D01*
X46671452Y-64094333D01*
X46623833Y-64141952D01*
X46576214Y-64237190D01*
X46576214Y-64522904D01*
X46623833Y-64618142D01*
X46671452Y-64665761D01*
X46766690Y-64713380D01*
X46909547Y-64713380D01*
X46290500Y-64046714D02*
X45909547Y-64046714D01*
X46147642Y-63713380D02*
X46147642Y-64570523D01*
X46100023Y-64665761D01*
X46004785Y-64713380D01*
X45909547Y-64713380D01*
X55861928Y-65363380D02*
X55766690Y-65363380D01*
X55671452Y-65411000D01*
X55623833Y-65458619D01*
X55576214Y-65553857D01*
X55528595Y-65744333D01*
X55528595Y-65982428D01*
X55576214Y-66172904D01*
X55623833Y-66268142D01*
X55671452Y-66315761D01*
X55766690Y-66363380D01*
X55861928Y-66363380D01*
X55957166Y-66315761D01*
X56004785Y-66268142D01*
X56052404Y-66172904D01*
X56100023Y-65982428D01*
X56100023Y-65744333D01*
X56052404Y-65553857D01*
X56004785Y-65458619D01*
X55957166Y-65411000D01*
X55861928Y-65363380D01*
X54576214Y-66363380D02*
X55147642Y-66363380D01*
X54861928Y-66363380D02*
X54861928Y-65363380D01*
X54957166Y-65506238D01*
X55052404Y-65601476D01*
X55147642Y-65649095D01*
X54147642Y-66268142D02*
X54100023Y-66315761D01*
X54147642Y-66363380D01*
X54195261Y-66315761D01*
X54147642Y-66268142D01*
X54147642Y-66363380D01*
X54147642Y-65744333D02*
X54100023Y-65791952D01*
X54147642Y-65839571D01*
X54195261Y-65791952D01*
X54147642Y-65744333D01*
X54147642Y-65839571D01*
X52909547Y-66363380D02*
X52909547Y-65363380D01*
X52909547Y-65839571D02*
X52338119Y-65839571D01*
X52338119Y-66363380D02*
X52338119Y-65363380D01*
X50671452Y-66363380D02*
X50671452Y-65839571D01*
X50719071Y-65744333D01*
X50814309Y-65696714D01*
X51004785Y-65696714D01*
X51100023Y-65744333D01*
X50671452Y-66315761D02*
X50766690Y-66363380D01*
X51004785Y-66363380D01*
X51100023Y-66315761D01*
X51147642Y-66220523D01*
X51147642Y-66125285D01*
X51100023Y-66030047D01*
X51004785Y-65982428D01*
X50766690Y-65982428D01*
X50671452Y-65934809D01*
X50338119Y-65696714D02*
X49957166Y-65696714D01*
X50195261Y-65363380D02*
X50195261Y-66220523D01*
X50147642Y-66315761D01*
X50052404Y-66363380D01*
X49957166Y-66363380D01*
X48861928Y-66363380D02*
X48861928Y-65363380D01*
X48861928Y-65744333D02*
X48766690Y-65696714D01*
X48576214Y-65696714D01*
X48480976Y-65744333D01*
X48433357Y-65791952D01*
X48385738Y-65887190D01*
X48385738Y-66172904D01*
X48433357Y-66268142D01*
X48480976Y-66315761D01*
X48576214Y-66363380D01*
X48766690Y-66363380D01*
X48861928Y-66315761D01*
X47814309Y-66363380D02*
X47909547Y-66315761D01*
X47957166Y-66268142D01*
X48004785Y-66172904D01*
X48004785Y-65887190D01*
X47957166Y-65791952D01*
X47909547Y-65744333D01*
X47814309Y-65696714D01*
X47671452Y-65696714D01*
X47576214Y-65744333D01*
X47528595Y-65791952D01*
X47480976Y-65887190D01*
X47480976Y-66172904D01*
X47528595Y-66268142D01*
X47576214Y-66315761D01*
X47671452Y-66363380D01*
X47814309Y-66363380D01*
X46909547Y-66363380D02*
X47004785Y-66315761D01*
X47052404Y-66268142D01*
X47100023Y-66172904D01*
X47100023Y-65887190D01*
X47052404Y-65791952D01*
X47004785Y-65744333D01*
X46909547Y-65696714D01*
X46766690Y-65696714D01*
X46671452Y-65744333D01*
X46623833Y-65791952D01*
X46576214Y-65887190D01*
X46576214Y-66172904D01*
X46623833Y-66268142D01*
X46671452Y-66315761D01*
X46766690Y-66363380D01*
X46909547Y-66363380D01*
X46290500Y-65696714D02*
X45909547Y-65696714D01*
X46147642Y-65363380D02*
X46147642Y-66220523D01*
X46100023Y-66315761D01*
X46004785Y-66363380D01*
X45909547Y-66363380D01*
X45528595Y-66315761D02*
X45528595Y-66363380D01*
X45576214Y-66458619D01*
X45623833Y-66506238D01*
X44338119Y-65696714D02*
X44338119Y-66363380D01*
X44338119Y-65791952D02*
X44290500Y-65744333D01*
X44195261Y-65696714D01*
X44052404Y-65696714D01*
X43957166Y-65744333D01*
X43909547Y-65839571D01*
X43909547Y-66363380D01*
X43290500Y-66363380D02*
X43385738Y-66315761D01*
X43433357Y-66268142D01*
X43480976Y-66172904D01*
X43480976Y-65887190D01*
X43433357Y-65791952D01*
X43385738Y-65744333D01*
X43290500Y-65696714D01*
X43147642Y-65696714D01*
X43052404Y-65744333D01*
X43004785Y-65791952D01*
X42957166Y-65887190D01*
X42957166Y-66172904D01*
X43004785Y-66268142D01*
X43052404Y-66315761D01*
X43147642Y-66363380D01*
X43290500Y-66363380D01*
X41766690Y-66363380D02*
X41766690Y-65363380D01*
X41766690Y-65744333D02*
X41671452Y-65696714D01*
X41480976Y-65696714D01*
X41385738Y-65744333D01*
X41338119Y-65791952D01*
X41290500Y-65887190D01*
X41290500Y-66172904D01*
X41338119Y-66268142D01*
X41385738Y-66315761D01*
X41480976Y-66363380D01*
X41671452Y-66363380D01*
X41766690Y-66315761D01*
X40861928Y-66268142D02*
X40814309Y-66315761D01*
X40861928Y-66363380D01*
X40909547Y-66315761D01*
X40861928Y-66268142D01*
X40861928Y-66363380D01*
X39623833Y-66363380D02*
X39623833Y-65696714D01*
X39623833Y-65363380D02*
X39671452Y-65411000D01*
X39623833Y-65458619D01*
X39576214Y-65411000D01*
X39623833Y-65363380D01*
X39623833Y-65458619D01*
X39290500Y-65696714D02*
X38909547Y-65696714D01*
X39147642Y-66363380D02*
X39147642Y-65506238D01*
X39100023Y-65411000D01*
X39004785Y-65363380D01*
X38909547Y-65363380D01*
X37338119Y-66363380D02*
X37814309Y-66363380D01*
X37814309Y-65363380D01*
X55528595Y-68013380D02*
X56100023Y-68013380D01*
X55814309Y-68013380D02*
X55814309Y-67013380D01*
X55909547Y-67156238D01*
X56004785Y-67251476D01*
X56100023Y-67299095D01*
X54909547Y-67013380D02*
X54814309Y-67013380D01*
X54719071Y-67061000D01*
X54671452Y-67108619D01*
X54623833Y-67203857D01*
X54576214Y-67394333D01*
X54576214Y-67632428D01*
X54623833Y-67822904D01*
X54671452Y-67918142D01*
X54719071Y-67965761D01*
X54814309Y-68013380D01*
X54909547Y-68013380D01*
X55004785Y-67965761D01*
X55052404Y-67918142D01*
X55100023Y-67822904D01*
X55147642Y-67632428D01*
X55147642Y-67394333D01*
X55100023Y-67203857D01*
X55052404Y-67108619D01*
X55004785Y-67061000D01*
X54909547Y-67013380D01*
X54147642Y-67918142D02*
X54100023Y-67965761D01*
X54147642Y-68013380D01*
X54195261Y-67965761D01*
X54147642Y-67918142D01*
X54147642Y-68013380D01*
X54147642Y-67394333D02*
X54100023Y-67441952D01*
X54147642Y-67489571D01*
X54195261Y-67441952D01*
X54147642Y-67394333D01*
X54147642Y-67489571D01*
X52909547Y-68013380D02*
X52909547Y-67013380D01*
X52909547Y-67489571D02*
X52338119Y-67489571D01*
X52338119Y-68013380D02*
X52338119Y-67013380D01*
X50671452Y-68013380D02*
X50671452Y-67489571D01*
X50719071Y-67394333D01*
X50814309Y-67346714D01*
X51004785Y-67346714D01*
X51100023Y-67394333D01*
X50671452Y-67965761D02*
X50766690Y-68013380D01*
X51004785Y-68013380D01*
X51100023Y-67965761D01*
X51147642Y-67870523D01*
X51147642Y-67775285D01*
X51100023Y-67680047D01*
X51004785Y-67632428D01*
X50766690Y-67632428D01*
X50671452Y-67584809D01*
X50338119Y-67346714D02*
X49957166Y-67346714D01*
X50195261Y-67013380D02*
X50195261Y-67870523D01*
X50147642Y-67965761D01*
X50052404Y-68013380D01*
X49957166Y-68013380D01*
X48861928Y-68013380D02*
X48861928Y-67013380D01*
X48861928Y-67394333D02*
X48766690Y-67346714D01*
X48576214Y-67346714D01*
X48480976Y-67394333D01*
X48433357Y-67441952D01*
X48385738Y-67537190D01*
X48385738Y-67822904D01*
X48433357Y-67918142D01*
X48480976Y-67965761D01*
X48576214Y-68013380D01*
X48766690Y-68013380D01*
X48861928Y-67965761D01*
X47814309Y-68013380D02*
X47909547Y-67965761D01*
X47957166Y-67918142D01*
X48004785Y-67822904D01*
X48004785Y-67537190D01*
X47957166Y-67441952D01*
X47909547Y-67394333D01*
X47814309Y-67346714D01*
X47671452Y-67346714D01*
X47576214Y-67394333D01*
X47528595Y-67441952D01*
X47480976Y-67537190D01*
X47480976Y-67822904D01*
X47528595Y-67918142D01*
X47576214Y-67965761D01*
X47671452Y-68013380D01*
X47814309Y-68013380D01*
X46909547Y-68013380D02*
X47004785Y-67965761D01*
X47052404Y-67918142D01*
X47100023Y-67822904D01*
X47100023Y-67537190D01*
X47052404Y-67441952D01*
X47004785Y-67394333D01*
X46909547Y-67346714D01*
X46766690Y-67346714D01*
X46671452Y-67394333D01*
X46623833Y-67441952D01*
X46576214Y-67537190D01*
X46576214Y-67822904D01*
X46623833Y-67918142D01*
X46671452Y-67965761D01*
X46766690Y-68013380D01*
X46909547Y-68013380D01*
X46290500Y-67346714D02*
X45909547Y-67346714D01*
X46147642Y-67013380D02*
X46147642Y-67870523D01*
X46100023Y-67965761D01*
X46004785Y-68013380D01*
X45909547Y-68013380D01*
X55861928Y-68663380D02*
X55766690Y-68663380D01*
X55671452Y-68711000D01*
X55623833Y-68758619D01*
X55576214Y-68853857D01*
X55528595Y-69044333D01*
X55528595Y-69282428D01*
X55576214Y-69472904D01*
X55623833Y-69568142D01*
X55671452Y-69615761D01*
X55766690Y-69663380D01*
X55861928Y-69663380D01*
X55957166Y-69615761D01*
X56004785Y-69568142D01*
X56052404Y-69472904D01*
X56100023Y-69282428D01*
X56100023Y-69044333D01*
X56052404Y-68853857D01*
X56004785Y-68758619D01*
X55957166Y-68711000D01*
X55861928Y-68663380D01*
X55052404Y-69663380D02*
X54861928Y-69663380D01*
X54766690Y-69615761D01*
X54719071Y-69568142D01*
X54623833Y-69425285D01*
X54576214Y-69234809D01*
X54576214Y-68853857D01*
X54623833Y-68758619D01*
X54671452Y-68711000D01*
X54766690Y-68663380D01*
X54957166Y-68663380D01*
X55052404Y-68711000D01*
X55100023Y-68758619D01*
X55147642Y-68853857D01*
X55147642Y-69091952D01*
X55100023Y-69187190D01*
X55052404Y-69234809D01*
X54957166Y-69282428D01*
X54766690Y-69282428D01*
X54671452Y-69234809D01*
X54623833Y-69187190D01*
X54576214Y-69091952D01*
X54147642Y-69568142D02*
X54100023Y-69615761D01*
X54147642Y-69663380D01*
X54195261Y-69615761D01*
X54147642Y-69568142D01*
X54147642Y-69663380D01*
X54147642Y-69044333D02*
X54100023Y-69091952D01*
X54147642Y-69139571D01*
X54195261Y-69091952D01*
X54147642Y-69044333D01*
X54147642Y-69139571D01*
X52909547Y-69663380D02*
X52909547Y-68663380D01*
X52909547Y-69139571D02*
X52338119Y-69139571D01*
X52338119Y-69663380D02*
X52338119Y-68663380D01*
X50671452Y-69663380D02*
X50671452Y-69139571D01*
X50719071Y-69044333D01*
X50814309Y-68996714D01*
X51004785Y-68996714D01*
X51100023Y-69044333D01*
X50671452Y-69615761D02*
X50766690Y-69663380D01*
X51004785Y-69663380D01*
X51100023Y-69615761D01*
X51147642Y-69520523D01*
X51147642Y-69425285D01*
X51100023Y-69330047D01*
X51004785Y-69282428D01*
X50766690Y-69282428D01*
X50671452Y-69234809D01*
X50338119Y-68996714D02*
X49957166Y-68996714D01*
X50195261Y-68663380D02*
X50195261Y-69520523D01*
X50147642Y-69615761D01*
X50052404Y-69663380D01*
X49957166Y-69663380D01*
X48861928Y-69663380D02*
X48861928Y-68663380D01*
X48861928Y-69044333D02*
X48766690Y-68996714D01*
X48576214Y-68996714D01*
X48480976Y-69044333D01*
X48433357Y-69091952D01*
X48385738Y-69187190D01*
X48385738Y-69472904D01*
X48433357Y-69568142D01*
X48480976Y-69615761D01*
X48576214Y-69663380D01*
X48766690Y-69663380D01*
X48861928Y-69615761D01*
X47814309Y-69663380D02*
X47909547Y-69615761D01*
X47957166Y-69568142D01*
X48004785Y-69472904D01*
X48004785Y-69187190D01*
X47957166Y-69091952D01*
X47909547Y-69044333D01*
X47814309Y-68996714D01*
X47671452Y-68996714D01*
X47576214Y-69044333D01*
X47528595Y-69091952D01*
X47480976Y-69187190D01*
X47480976Y-69472904D01*
X47528595Y-69568142D01*
X47576214Y-69615761D01*
X47671452Y-69663380D01*
X47814309Y-69663380D01*
X46909547Y-69663380D02*
X47004785Y-69615761D01*
X47052404Y-69568142D01*
X47100023Y-69472904D01*
X47100023Y-69187190D01*
X47052404Y-69091952D01*
X47004785Y-69044333D01*
X46909547Y-68996714D01*
X46766690Y-68996714D01*
X46671452Y-69044333D01*
X46623833Y-69091952D01*
X46576214Y-69187190D01*
X46576214Y-69472904D01*
X46623833Y-69568142D01*
X46671452Y-69615761D01*
X46766690Y-69663380D01*
X46909547Y-69663380D01*
X46290500Y-68996714D02*
X45909547Y-68996714D01*
X46147642Y-68663380D02*
X46147642Y-69520523D01*
X46100023Y-69615761D01*
X46004785Y-69663380D01*
X45909547Y-69663380D01*
D11*
X20716857Y-58547095D02*
X20716857Y-60070904D01*
X21478761Y-59309000D02*
X19954952Y-59309000D01*
X20716857Y-63754095D02*
X20716857Y-65277904D01*
D10*
X34591047Y-70318380D02*
X34591047Y-71032666D01*
X34638666Y-71175523D01*
X34733904Y-71270761D01*
X34876761Y-71318380D01*
X34972000Y-71318380D01*
X33638666Y-71318380D02*
X34114857Y-71318380D01*
X34114857Y-70318380D01*
X32733904Y-71223142D02*
X32781523Y-71270761D01*
X32924380Y-71318380D01*
X33019619Y-71318380D01*
X33162476Y-71270761D01*
X33257714Y-71175523D01*
X33305333Y-71080285D01*
X33352952Y-70889809D01*
X33352952Y-70746952D01*
X33305333Y-70556476D01*
X33257714Y-70461238D01*
X33162476Y-70366000D01*
X33019619Y-70318380D01*
X32924380Y-70318380D01*
X32781523Y-70366000D01*
X32733904Y-70413619D01*
X32019619Y-70318380D02*
X32019619Y-71032666D01*
X32067238Y-71175523D01*
X32162476Y-71270761D01*
X32305333Y-71318380D01*
X32400571Y-71318380D01*
X31067238Y-71318380D02*
X31543428Y-71318380D01*
X31543428Y-70318380D01*
X30162476Y-71223142D02*
X30210095Y-71270761D01*
X30352952Y-71318380D01*
X30448190Y-71318380D01*
X30591047Y-71270761D01*
X30686285Y-71175523D01*
X30733904Y-71080285D01*
X30781523Y-70889809D01*
X30781523Y-70746952D01*
X30733904Y-70556476D01*
X30686285Y-70461238D01*
X30591047Y-70366000D01*
X30448190Y-70318380D01*
X30352952Y-70318380D01*
X30210095Y-70366000D01*
X30162476Y-70413619D01*
X29448190Y-70318380D02*
X29448190Y-71032666D01*
X29495809Y-71175523D01*
X29591047Y-71270761D01*
X29733904Y-71318380D01*
X29829142Y-71318380D01*
X28495809Y-71318380D02*
X28972000Y-71318380D01*
X28972000Y-70318380D01*
X27591047Y-71223142D02*
X27638666Y-71270761D01*
X27781523Y-71318380D01*
X27876761Y-71318380D01*
X28019619Y-71270761D01*
X28114857Y-71175523D01*
X28162476Y-71080285D01*
X28210095Y-70889809D01*
X28210095Y-70746952D01*
X28162476Y-70556476D01*
X28114857Y-70461238D01*
X28019619Y-70366000D01*
X27876761Y-70318380D01*
X27781523Y-70318380D01*
X27638666Y-70366000D01*
X27591047Y-70413619D01*
X26876761Y-70318380D02*
X26876761Y-71032666D01*
X26924380Y-71175523D01*
X27019619Y-71270761D01*
X27162476Y-71318380D01*
X27257714Y-71318380D01*
X25924380Y-71318380D02*
X26400571Y-71318380D01*
X26400571Y-70318380D01*
X25019619Y-71223142D02*
X25067238Y-71270761D01*
X25210095Y-71318380D01*
X25305333Y-71318380D01*
X25448190Y-71270761D01*
X25543428Y-71175523D01*
X25591047Y-71080285D01*
X25638666Y-70889809D01*
X25638666Y-70746952D01*
X25591047Y-70556476D01*
X25543428Y-70461238D01*
X25448190Y-70366000D01*
X25305333Y-70318380D01*
X25210095Y-70318380D01*
X25067238Y-70366000D01*
X25019619Y-70413619D01*
D12*
X29339000Y-29801000D02*
X29339000Y-28871000D01*
X29339000Y-26641000D02*
X29339000Y-27571000D01*
X29339000Y-26641000D02*
X31499000Y-26641000D01*
X29339000Y-29801000D02*
X30799000Y-29801000D01*
D13*
G36*
X66664309Y-51943087D02*
G01*
X66458327Y-51943502D01*
X66293564Y-51944475D01*
X66165230Y-51946235D01*
X66068535Y-51949011D01*
X65998688Y-51953033D01*
X65950900Y-51958530D01*
X65920379Y-51965732D01*
X65902336Y-51974869D01*
X65891980Y-51986170D01*
X65888432Y-51992245D01*
X65877993Y-52027615D01*
X65859603Y-52107187D01*
X65834435Y-52225191D01*
X65803667Y-52375856D01*
X65768473Y-52553412D01*
X65730028Y-52752086D01*
X65689508Y-52966109D01*
X65682817Y-53001895D01*
X65641993Y-53217085D01*
X65602771Y-53417154D01*
X65566356Y-53596455D01*
X65533948Y-53749341D01*
X65506750Y-53870164D01*
X65485964Y-53953276D01*
X65472793Y-53993032D01*
X65471362Y-53995109D01*
X65437675Y-54015218D01*
X65364138Y-54050554D01*
X65258289Y-54098028D01*
X65127661Y-54154552D01*
X64979792Y-54217039D01*
X64822214Y-54282400D01*
X64662465Y-54347547D01*
X64508079Y-54409393D01*
X64366591Y-54464848D01*
X64245538Y-54510826D01*
X64152453Y-54544238D01*
X64094873Y-54561996D01*
X64083076Y-54564044D01*
X64047006Y-54553063D01*
X63979191Y-54517758D01*
X63877968Y-54457077D01*
X63741672Y-54369970D01*
X63568639Y-54255385D01*
X63357205Y-54112273D01*
X63234396Y-54028200D01*
X63021625Y-53882094D01*
X62846751Y-53762206D01*
X62705767Y-53666038D01*
X62594665Y-53591091D01*
X62509438Y-53534867D01*
X62446078Y-53494869D01*
X62400577Y-53468599D01*
X62368927Y-53453558D01*
X62347121Y-53447250D01*
X62331151Y-53447175D01*
X62317009Y-53450836D01*
X62311117Y-53452739D01*
X62278655Y-53475220D01*
X62216798Y-53529158D01*
X62130321Y-53609691D01*
X62023998Y-53711960D01*
X61902603Y-53831104D01*
X61770913Y-53962264D01*
X61633700Y-54100578D01*
X61495739Y-54241188D01*
X61361806Y-54379232D01*
X61236675Y-54509850D01*
X61125120Y-54628182D01*
X61031917Y-54729369D01*
X60961839Y-54808549D01*
X60919661Y-54860862D01*
X60909200Y-54879796D01*
X60923176Y-54911801D01*
X60962994Y-54980594D01*
X61025490Y-55081261D01*
X61107499Y-55208883D01*
X61205857Y-55358547D01*
X61317401Y-55525336D01*
X61438965Y-55704334D01*
X61455300Y-55728189D01*
X61619253Y-55969157D01*
X61754420Y-56171692D01*
X61860507Y-56335327D01*
X61937218Y-56459597D01*
X61984259Y-56544039D01*
X62001335Y-56588185D01*
X62001400Y-56589669D01*
X61991379Y-56634646D01*
X61963419Y-56717293D01*
X61920675Y-56830326D01*
X61866303Y-56966459D01*
X61803457Y-57118407D01*
X61735292Y-57278887D01*
X61664963Y-57440612D01*
X61595626Y-57596298D01*
X61530436Y-57738660D01*
X61472548Y-57860413D01*
X61425116Y-57954273D01*
X61391296Y-58012954D01*
X61378128Y-58028767D01*
X61341798Y-58041222D01*
X61261472Y-58061344D01*
X61143164Y-58087864D01*
X60992887Y-58119515D01*
X60816654Y-58155026D01*
X60620477Y-58193130D01*
X60425628Y-58229739D01*
X60216080Y-58268849D01*
X60020635Y-58306023D01*
X59845349Y-58340056D01*
X59696276Y-58369744D01*
X59579471Y-58393883D01*
X59500987Y-58411269D01*
X59467750Y-58420297D01*
X59410600Y-58444310D01*
X59410600Y-59458137D01*
X59410727Y-59712508D01*
X59411242Y-59920773D01*
X59412346Y-60087625D01*
X59414243Y-60217757D01*
X59417133Y-60315863D01*
X59421220Y-60386637D01*
X59426704Y-60434771D01*
X59433788Y-60464958D01*
X59442674Y-60481893D01*
X59453564Y-60490269D01*
X59455050Y-60490937D01*
X59489539Y-60499855D01*
X59568081Y-60516864D01*
X59684781Y-60540792D01*
X59833744Y-60570462D01*
X60009076Y-60604701D01*
X60204882Y-60642335D01*
X60412412Y-60681653D01*
X60666690Y-60730004D01*
X60874626Y-60770765D01*
X61039969Y-60804790D01*
X61166471Y-60832932D01*
X61257881Y-60856046D01*
X61317951Y-60874986D01*
X61350431Y-60890606D01*
X61357008Y-60896727D01*
X61374187Y-60930612D01*
X61407437Y-61005481D01*
X61454138Y-61115084D01*
X61511667Y-61253168D01*
X61577404Y-61413484D01*
X61648726Y-61589780D01*
X61672466Y-61648961D01*
X61765879Y-61885185D01*
X61839105Y-62076857D01*
X61892769Y-62225765D01*
X61927497Y-62333699D01*
X61943917Y-62402446D01*
X61945019Y-62427281D01*
X61928326Y-62463877D01*
X61885892Y-62536837D01*
X61821100Y-62640903D01*
X61737334Y-62770818D01*
X61637978Y-62921325D01*
X61526415Y-63087166D01*
X61421499Y-63240645D01*
X61302732Y-63414318D01*
X61193703Y-63576068D01*
X61097689Y-63720854D01*
X61017970Y-63843632D01*
X60957822Y-63939362D01*
X60920524Y-64003001D01*
X60909201Y-64028650D01*
X60926660Y-64055792D01*
X60976453Y-64114448D01*
X61054699Y-64200506D01*
X61157518Y-64309852D01*
X61281031Y-64438374D01*
X61421357Y-64581959D01*
X61574616Y-64736494D01*
X61615993Y-64777849D01*
X61799878Y-64960758D01*
X61951488Y-65110188D01*
X62074008Y-65229034D01*
X62170622Y-65320192D01*
X62244516Y-65386558D01*
X62298874Y-65431030D01*
X62336881Y-65456502D01*
X62361723Y-65465870D01*
X62371643Y-65464963D01*
X62403478Y-65446747D01*
X62471961Y-65403089D01*
X62571943Y-65337418D01*
X62698274Y-65253166D01*
X62845807Y-65153763D01*
X63009391Y-65042639D01*
X63154535Y-64943369D01*
X63327385Y-64825729D01*
X63488548Y-64717840D01*
X63632890Y-64623003D01*
X63755277Y-64544516D01*
X63850575Y-64485680D01*
X63913650Y-64449794D01*
X63938015Y-64439800D01*
X63977114Y-64451373D01*
X64051403Y-64483217D01*
X64151618Y-64531014D01*
X64268493Y-64590448D01*
X64321581Y-64618515D01*
X64442398Y-64681055D01*
X64550300Y-64733034D01*
X64636134Y-64770334D01*
X64690749Y-64788836D01*
X64702494Y-64789965D01*
X64716267Y-64778292D01*
X64737901Y-64744702D01*
X64768551Y-64686575D01*
X64809371Y-64601291D01*
X64861516Y-64486230D01*
X64926139Y-64338773D01*
X65004396Y-64156298D01*
X65097439Y-63936186D01*
X65206424Y-63675818D01*
X65332504Y-63372573D01*
X65420044Y-63161205D01*
X65532544Y-62888552D01*
X65639125Y-62628890D01*
X65738212Y-62386147D01*
X65828226Y-62164254D01*
X65907590Y-61967137D01*
X65974726Y-61798727D01*
X66028057Y-61662952D01*
X66066006Y-61563742D01*
X66086996Y-61505024D01*
X66090800Y-61490595D01*
X66068626Y-61444172D01*
X66008093Y-61389216D01*
X65982850Y-61371931D01*
X65910586Y-61323442D01*
X65815496Y-61257057D01*
X65715448Y-61185294D01*
X65692258Y-61168348D01*
X65445466Y-60957074D01*
X65238045Y-60716875D01*
X65071346Y-60452517D01*
X64946718Y-60168766D01*
X64865510Y-59870387D01*
X64829073Y-59562146D01*
X64838757Y-59248807D01*
X64895911Y-58935137D01*
X64984168Y-58668480D01*
X65063666Y-58494289D01*
X65157078Y-58337354D01*
X65273762Y-58184174D01*
X65423076Y-58021253D01*
X65455800Y-57988188D01*
X65680892Y-57788065D01*
X65915337Y-57631804D01*
X66170686Y-57512514D01*
X66357500Y-57450337D01*
X66539093Y-57412529D01*
X66751080Y-57391630D01*
X66975952Y-57387641D01*
X67196200Y-57400561D01*
X67394316Y-57430390D01*
X67475100Y-57450337D01*
X67774337Y-57561894D01*
X68050674Y-57715384D01*
X68299990Y-57906403D01*
X68518165Y-58130548D01*
X68701076Y-58383416D01*
X68844603Y-58660604D01*
X68944625Y-58957709D01*
X68963616Y-59040667D01*
X69004359Y-59359829D01*
X68996280Y-59676426D01*
X68941300Y-59985493D01*
X68841341Y-60282064D01*
X68698324Y-60561174D01*
X68514170Y-60817859D01*
X68290800Y-61047151D01*
X68140343Y-61168348D01*
X68041801Y-61239522D01*
X67943848Y-61308379D01*
X67864351Y-61362401D01*
X67849750Y-61371931D01*
X67779118Y-61427527D01*
X67744047Y-61477664D01*
X67741800Y-61490595D01*
X67751303Y-61521804D01*
X67778758Y-61595979D01*
X67822589Y-61709193D01*
X67881218Y-61857515D01*
X67953068Y-62037016D01*
X68036561Y-62243769D01*
X68130120Y-62473844D01*
X68232167Y-62723312D01*
X68341124Y-62988245D01*
X68412557Y-63161205D01*
X68549851Y-63492436D01*
X68669332Y-63779162D01*
X68772153Y-64024001D01*
X68859470Y-64229574D01*
X68932436Y-64398501D01*
X68992205Y-64533402D01*
X69039933Y-64636896D01*
X69076772Y-64711604D01*
X69103878Y-64760146D01*
X69122403Y-64785141D01*
X69130107Y-64789965D01*
X69168169Y-64780993D01*
X69241458Y-64751418D01*
X69340822Y-64705360D01*
X69457109Y-64646938D01*
X69511020Y-64618515D01*
X69632213Y-64555404D01*
X69740729Y-64502073D01*
X69827304Y-64462838D01*
X69882675Y-64442017D01*
X69894586Y-64439800D01*
X69926495Y-64453766D01*
X69994957Y-64493465D01*
X70094838Y-64555598D01*
X70221003Y-64636864D01*
X70368320Y-64733964D01*
X70531653Y-64843598D01*
X70678066Y-64943369D01*
X70851108Y-65061650D01*
X71012397Y-65171075D01*
X71156784Y-65268213D01*
X71279121Y-65349633D01*
X71374257Y-65411906D01*
X71437043Y-65451600D01*
X71460958Y-65464963D01*
X71479423Y-65463875D01*
X71509141Y-65448423D01*
X71553296Y-65415711D01*
X71615074Y-65362843D01*
X71697659Y-65286923D01*
X71804236Y-65185055D01*
X71937991Y-65054343D01*
X72102108Y-64891891D01*
X72216608Y-64777849D01*
X72372588Y-64621146D01*
X72516640Y-64474326D01*
X72644885Y-64341504D01*
X72753443Y-64226790D01*
X72838434Y-64134298D01*
X72895977Y-64068142D01*
X72922194Y-64032432D01*
X72923400Y-64028650D01*
X72909412Y-63998121D01*
X72869630Y-63930974D01*
X72807333Y-63832251D01*
X72725800Y-63706994D01*
X72628307Y-63560246D01*
X72518134Y-63397047D01*
X72411102Y-63240645D01*
X72291638Y-63065702D01*
X72181421Y-62901496D01*
X72083834Y-62753284D01*
X72002263Y-62626323D01*
X71940090Y-62525870D01*
X71900699Y-62457184D01*
X71887582Y-62427281D01*
X71892220Y-62383505D01*
X71914751Y-62301727D01*
X71955803Y-62180158D01*
X72016002Y-62017011D01*
X72095974Y-61810496D01*
X72160135Y-61648961D01*
X72232699Y-61468848D01*
X72300521Y-61302701D01*
X72360981Y-61156770D01*
X72411458Y-61037307D01*
X72449329Y-60950563D01*
X72471972Y-60902789D01*
X72475593Y-60896727D01*
X72496974Y-60882314D01*
X72544272Y-60864961D01*
X72621237Y-60843815D01*
X72731620Y-60818021D01*
X72879171Y-60786726D01*
X73067642Y-60749076D01*
X73300781Y-60704216D01*
X73420189Y-60681653D01*
X73630419Y-60641820D01*
X73825993Y-60604223D01*
X74001014Y-60570037D01*
X74149589Y-60540435D01*
X74265822Y-60516591D01*
X74343819Y-60499681D01*
X74377550Y-60490937D01*
X74388701Y-60483289D01*
X74397822Y-60467659D01*
X74405117Y-60439352D01*
X74410787Y-60393676D01*
X74415034Y-60325938D01*
X74418061Y-60231443D01*
X74420068Y-60105498D01*
X74421259Y-59943411D01*
X74421836Y-59740488D01*
X74421999Y-59492035D01*
X74422000Y-59458137D01*
X74422000Y-58444310D01*
X74364850Y-58420297D01*
X74327253Y-58410240D01*
X74245727Y-58392314D01*
X74126327Y-58367723D01*
X73975107Y-58337672D01*
X73798123Y-58303365D01*
X73601427Y-58266007D01*
X73406973Y-58229739D01*
X73197656Y-58190364D01*
X73002698Y-58152403D01*
X72828110Y-58117124D01*
X72679906Y-58085796D01*
X72564098Y-58059688D01*
X72486700Y-58040069D01*
X72454473Y-58028767D01*
X72431167Y-57996795D01*
X72392204Y-57924920D01*
X72340738Y-57820427D01*
X72279923Y-57690600D01*
X72212916Y-57542725D01*
X72142871Y-57384086D01*
X72072944Y-57221968D01*
X72006288Y-57063657D01*
X71946061Y-56916437D01*
X71895415Y-56787592D01*
X71857508Y-56684409D01*
X71835493Y-56614171D01*
X71831200Y-56589669D01*
X71846291Y-56548195D01*
X71891366Y-56466395D01*
X71966130Y-56344736D01*
X72070289Y-56183682D01*
X72203547Y-55983698D01*
X72365612Y-55745249D01*
X72377300Y-55728189D01*
X72499932Y-55547967D01*
X72612954Y-55379317D01*
X72713201Y-55227155D01*
X72797509Y-55096396D01*
X72862714Y-54991956D01*
X72905652Y-54918752D01*
X72923158Y-54881698D01*
X72923400Y-54879796D01*
X72906017Y-54851538D01*
X72857048Y-54792662D01*
X72781269Y-54708030D01*
X72683455Y-54602500D01*
X72568380Y-54480935D01*
X72440819Y-54348193D01*
X72305545Y-54209135D01*
X72167335Y-54068621D01*
X72030962Y-53931512D01*
X71901202Y-53802668D01*
X71782828Y-53686948D01*
X71680615Y-53589214D01*
X71599338Y-53514324D01*
X71543772Y-53467141D01*
X71521484Y-53452739D01*
X71506602Y-53448345D01*
X71491167Y-53446946D01*
X71471170Y-53451041D01*
X71442602Y-53463126D01*
X71401455Y-53485699D01*
X71343720Y-53521257D01*
X71265390Y-53572298D01*
X71162455Y-53641319D01*
X71030907Y-53730817D01*
X70866737Y-53843291D01*
X70665938Y-53981236D01*
X70595426Y-54029698D01*
X70364032Y-54187700D01*
X70171893Y-54316594D01*
X70017375Y-54417413D01*
X69898842Y-54491190D01*
X69814658Y-54538960D01*
X69763189Y-54561754D01*
X69749546Y-54564125D01*
X69709053Y-54553891D01*
X69629862Y-54526696D01*
X69519520Y-54485629D01*
X69385574Y-54433783D01*
X69235573Y-54374248D01*
X69077063Y-54310115D01*
X68917591Y-54244475D01*
X68764706Y-54180420D01*
X68625955Y-54121039D01*
X68508885Y-54069424D01*
X68421043Y-54028666D01*
X68369978Y-54001856D01*
X68361464Y-53995654D01*
X68349561Y-53963925D01*
X68329870Y-53887851D01*
X68303595Y-53773088D01*
X68271942Y-53625290D01*
X68236116Y-53450109D01*
X68197323Y-53253201D01*
X68156767Y-53040218D01*
X68149691Y-53002320D01*
X68109049Y-52786368D01*
X68070273Y-52584811D01*
X68034537Y-52403426D01*
X68003017Y-52247990D01*
X67976886Y-52124279D01*
X67957320Y-52038069D01*
X67945492Y-51995137D01*
X67944396Y-51992670D01*
X67936018Y-51980177D01*
X67922369Y-51969974D01*
X67898657Y-51961830D01*
X67860089Y-51955512D01*
X67801873Y-51950791D01*
X67719215Y-51947434D01*
X67607325Y-51945209D01*
X67461408Y-51943886D01*
X67276673Y-51943232D01*
X67048327Y-51943016D01*
X66916301Y-51943000D01*
X66664309Y-51943087D01*
G37*
X66664309Y-51943087D02*
X66458327Y-51943502D01*
X66293564Y-51944475D01*
X66165230Y-51946235D01*
X66068535Y-51949011D01*
X65998688Y-51953033D01*
X65950900Y-51958530D01*
X65920379Y-51965732D01*
X65902336Y-51974869D01*
X65891980Y-51986170D01*
X65888432Y-51992245D01*
X65877993Y-52027615D01*
X65859603Y-52107187D01*
X65834435Y-52225191D01*
X65803667Y-52375856D01*
X65768473Y-52553412D01*
X65730028Y-52752086D01*
X65689508Y-52966109D01*
X65682817Y-53001895D01*
X65641993Y-53217085D01*
X65602771Y-53417154D01*
X65566356Y-53596455D01*
X65533948Y-53749341D01*
X65506750Y-53870164D01*
X65485964Y-53953276D01*
X65472793Y-53993032D01*
X65471362Y-53995109D01*
X65437675Y-54015218D01*
X65364138Y-54050554D01*
X65258289Y-54098028D01*
X65127661Y-54154552D01*
X64979792Y-54217039D01*
X64822214Y-54282400D01*
X64662465Y-54347547D01*
X64508079Y-54409393D01*
X64366591Y-54464848D01*
X64245538Y-54510826D01*
X64152453Y-54544238D01*
X64094873Y-54561996D01*
X64083076Y-54564044D01*
X64047006Y-54553063D01*
X63979191Y-54517758D01*
X63877968Y-54457077D01*
X63741672Y-54369970D01*
X63568639Y-54255385D01*
X63357205Y-54112273D01*
X63234396Y-54028200D01*
X63021625Y-53882094D01*
X62846751Y-53762206D01*
X62705767Y-53666038D01*
X62594665Y-53591091D01*
X62509438Y-53534867D01*
X62446078Y-53494869D01*
X62400577Y-53468599D01*
X62368927Y-53453558D01*
X62347121Y-53447250D01*
X62331151Y-53447175D01*
X62317009Y-53450836D01*
X62311117Y-53452739D01*
X62278655Y-53475220D01*
X62216798Y-53529158D01*
X62130321Y-53609691D01*
X62023998Y-53711960D01*
X61902603Y-53831104D01*
X61770913Y-53962264D01*
X61633700Y-54100578D01*
X61495739Y-54241188D01*
X61361806Y-54379232D01*
X61236675Y-54509850D01*
X61125120Y-54628182D01*
X61031917Y-54729369D01*
X60961839Y-54808549D01*
X60919661Y-54860862D01*
X60909200Y-54879796D01*
X60923176Y-54911801D01*
X60962994Y-54980594D01*
X61025490Y-55081261D01*
X61107499Y-55208883D01*
X61205857Y-55358547D01*
X61317401Y-55525336D01*
X61438965Y-55704334D01*
X61455300Y-55728189D01*
X61619253Y-55969157D01*
X61754420Y-56171692D01*
X61860507Y-56335327D01*
X61937218Y-56459597D01*
X61984259Y-56544039D01*
X62001335Y-56588185D01*
X62001400Y-56589669D01*
X61991379Y-56634646D01*
X61963419Y-56717293D01*
X61920675Y-56830326D01*
X61866303Y-56966459D01*
X61803457Y-57118407D01*
X61735292Y-57278887D01*
X61664963Y-57440612D01*
X61595626Y-57596298D01*
X61530436Y-57738660D01*
X61472548Y-57860413D01*
X61425116Y-57954273D01*
X61391296Y-58012954D01*
X61378128Y-58028767D01*
X61341798Y-58041222D01*
X61261472Y-58061344D01*
X61143164Y-58087864D01*
X60992887Y-58119515D01*
X60816654Y-58155026D01*
X60620477Y-58193130D01*
X60425628Y-58229739D01*
X60216080Y-58268849D01*
X60020635Y-58306023D01*
X59845349Y-58340056D01*
X59696276Y-58369744D01*
X59579471Y-58393883D01*
X59500987Y-58411269D01*
X59467750Y-58420297D01*
X59410600Y-58444310D01*
X59410600Y-59458137D01*
X59410727Y-59712508D01*
X59411242Y-59920773D01*
X59412346Y-60087625D01*
X59414243Y-60217757D01*
X59417133Y-60315863D01*
X59421220Y-60386637D01*
X59426704Y-60434771D01*
X59433788Y-60464958D01*
X59442674Y-60481893D01*
X59453564Y-60490269D01*
X59455050Y-60490937D01*
X59489539Y-60499855D01*
X59568081Y-60516864D01*
X59684781Y-60540792D01*
X59833744Y-60570462D01*
X60009076Y-60604701D01*
X60204882Y-60642335D01*
X60412412Y-60681653D01*
X60666690Y-60730004D01*
X60874626Y-60770765D01*
X61039969Y-60804790D01*
X61166471Y-60832932D01*
X61257881Y-60856046D01*
X61317951Y-60874986D01*
X61350431Y-60890606D01*
X61357008Y-60896727D01*
X61374187Y-60930612D01*
X61407437Y-61005481D01*
X61454138Y-61115084D01*
X61511667Y-61253168D01*
X61577404Y-61413484D01*
X61648726Y-61589780D01*
X61672466Y-61648961D01*
X61765879Y-61885185D01*
X61839105Y-62076857D01*
X61892769Y-62225765D01*
X61927497Y-62333699D01*
X61943917Y-62402446D01*
X61945019Y-62427281D01*
X61928326Y-62463877D01*
X61885892Y-62536837D01*
X61821100Y-62640903D01*
X61737334Y-62770818D01*
X61637978Y-62921325D01*
X61526415Y-63087166D01*
X61421499Y-63240645D01*
X61302732Y-63414318D01*
X61193703Y-63576068D01*
X61097689Y-63720854D01*
X61017970Y-63843632D01*
X60957822Y-63939362D01*
X60920524Y-64003001D01*
X60909201Y-64028650D01*
X60926660Y-64055792D01*
X60976453Y-64114448D01*
X61054699Y-64200506D01*
X61157518Y-64309852D01*
X61281031Y-64438374D01*
X61421357Y-64581959D01*
X61574616Y-64736494D01*
X61615993Y-64777849D01*
X61799878Y-64960758D01*
X61951488Y-65110188D01*
X62074008Y-65229034D01*
X62170622Y-65320192D01*
X62244516Y-65386558D01*
X62298874Y-65431030D01*
X62336881Y-65456502D01*
X62361723Y-65465870D01*
X62371643Y-65464963D01*
X62403478Y-65446747D01*
X62471961Y-65403089D01*
X62571943Y-65337418D01*
X62698274Y-65253166D01*
X62845807Y-65153763D01*
X63009391Y-65042639D01*
X63154535Y-64943369D01*
X63327385Y-64825729D01*
X63488548Y-64717840D01*
X63632890Y-64623003D01*
X63755277Y-64544516D01*
X63850575Y-64485680D01*
X63913650Y-64449794D01*
X63938015Y-64439800D01*
X63977114Y-64451373D01*
X64051403Y-64483217D01*
X64151618Y-64531014D01*
X64268493Y-64590448D01*
X64321581Y-64618515D01*
X64442398Y-64681055D01*
X64550300Y-64733034D01*
X64636134Y-64770334D01*
X64690749Y-64788836D01*
X64702494Y-64789965D01*
X64716267Y-64778292D01*
X64737901Y-64744702D01*
X64768551Y-64686575D01*
X64809371Y-64601291D01*
X64861516Y-64486230D01*
X64926139Y-64338773D01*
X65004396Y-64156298D01*
X65097439Y-63936186D01*
X65206424Y-63675818D01*
X65332504Y-63372573D01*
X65420044Y-63161205D01*
X65532544Y-62888552D01*
X65639125Y-62628890D01*
X65738212Y-62386147D01*
X65828226Y-62164254D01*
X65907590Y-61967137D01*
X65974726Y-61798727D01*
X66028057Y-61662952D01*
X66066006Y-61563742D01*
X66086996Y-61505024D01*
X66090800Y-61490595D01*
X66068626Y-61444172D01*
X66008093Y-61389216D01*
X65982850Y-61371931D01*
X65910586Y-61323442D01*
X65815496Y-61257057D01*
X65715448Y-61185294D01*
X65692258Y-61168348D01*
X65445466Y-60957074D01*
X65238045Y-60716875D01*
X65071346Y-60452517D01*
X64946718Y-60168766D01*
X64865510Y-59870387D01*
X64829073Y-59562146D01*
X64838757Y-59248807D01*
X64895911Y-58935137D01*
X64984168Y-58668480D01*
X65063666Y-58494289D01*
X65157078Y-58337354D01*
X65273762Y-58184174D01*
X65423076Y-58021253D01*
X65455800Y-57988188D01*
X65680892Y-57788065D01*
X65915337Y-57631804D01*
X66170686Y-57512514D01*
X66357500Y-57450337D01*
X66539093Y-57412529D01*
X66751080Y-57391630D01*
X66975952Y-57387641D01*
X67196200Y-57400561D01*
X67394316Y-57430390D01*
X67475100Y-57450337D01*
X67774337Y-57561894D01*
X68050674Y-57715384D01*
X68299990Y-57906403D01*
X68518165Y-58130548D01*
X68701076Y-58383416D01*
X68844603Y-58660604D01*
X68944625Y-58957709D01*
X68963616Y-59040667D01*
X69004359Y-59359829D01*
X68996280Y-59676426D01*
X68941300Y-59985493D01*
X68841341Y-60282064D01*
X68698324Y-60561174D01*
X68514170Y-60817859D01*
X68290800Y-61047151D01*
X68140343Y-61168348D01*
X68041801Y-61239522D01*
X67943848Y-61308379D01*
X67864351Y-61362401D01*
X67849750Y-61371931D01*
X67779118Y-61427527D01*
X67744047Y-61477664D01*
X67741800Y-61490595D01*
X67751303Y-61521804D01*
X67778758Y-61595979D01*
X67822589Y-61709193D01*
X67881218Y-61857515D01*
X67953068Y-62037016D01*
X68036561Y-62243769D01*
X68130120Y-62473844D01*
X68232167Y-62723312D01*
X68341124Y-62988245D01*
X68412557Y-63161205D01*
X68549851Y-63492436D01*
X68669332Y-63779162D01*
X68772153Y-64024001D01*
X68859470Y-64229574D01*
X68932436Y-64398501D01*
X68992205Y-64533402D01*
X69039933Y-64636896D01*
X69076772Y-64711604D01*
X69103878Y-64760146D01*
X69122403Y-64785141D01*
X69130107Y-64789965D01*
X69168169Y-64780993D01*
X69241458Y-64751418D01*
X69340822Y-64705360D01*
X69457109Y-64646938D01*
X69511020Y-64618515D01*
X69632213Y-64555404D01*
X69740729Y-64502073D01*
X69827304Y-64462838D01*
X69882675Y-64442017D01*
X69894586Y-64439800D01*
X69926495Y-64453766D01*
X69994957Y-64493465D01*
X70094838Y-64555598D01*
X70221003Y-64636864D01*
X70368320Y-64733964D01*
X70531653Y-64843598D01*
X70678066Y-64943369D01*
X70851108Y-65061650D01*
X71012397Y-65171075D01*
X71156784Y-65268213D01*
X71279121Y-65349633D01*
X71374257Y-65411906D01*
X71437043Y-65451600D01*
X71460958Y-65464963D01*
X71479423Y-65463875D01*
X71509141Y-65448423D01*
X71553296Y-65415711D01*
X71615074Y-65362843D01*
X71697659Y-65286923D01*
X71804236Y-65185055D01*
X71937991Y-65054343D01*
X72102108Y-64891891D01*
X72216608Y-64777849D01*
X72372588Y-64621146D01*
X72516640Y-64474326D01*
X72644885Y-64341504D01*
X72753443Y-64226790D01*
X72838434Y-64134298D01*
X72895977Y-64068142D01*
X72922194Y-64032432D01*
X72923400Y-64028650D01*
X72909412Y-63998121D01*
X72869630Y-63930974D01*
X72807333Y-63832251D01*
X72725800Y-63706994D01*
X72628307Y-63560246D01*
X72518134Y-63397047D01*
X72411102Y-63240645D01*
X72291638Y-63065702D01*
X72181421Y-62901496D01*
X72083834Y-62753284D01*
X72002263Y-62626323D01*
X71940090Y-62525870D01*
X71900699Y-62457184D01*
X71887582Y-62427281D01*
X71892220Y-62383505D01*
X71914751Y-62301727D01*
X71955803Y-62180158D01*
X72016002Y-62017011D01*
X72095974Y-61810496D01*
X72160135Y-61648961D01*
X72232699Y-61468848D01*
X72300521Y-61302701D01*
X72360981Y-61156770D01*
X72411458Y-61037307D01*
X72449329Y-60950563D01*
X72471972Y-60902789D01*
X72475593Y-60896727D01*
X72496974Y-60882314D01*
X72544272Y-60864961D01*
X72621237Y-60843815D01*
X72731620Y-60818021D01*
X72879171Y-60786726D01*
X73067642Y-60749076D01*
X73300781Y-60704216D01*
X73420189Y-60681653D01*
X73630419Y-60641820D01*
X73825993Y-60604223D01*
X74001014Y-60570037D01*
X74149589Y-60540435D01*
X74265822Y-60516591D01*
X74343819Y-60499681D01*
X74377550Y-60490937D01*
X74388701Y-60483289D01*
X74397822Y-60467659D01*
X74405117Y-60439352D01*
X74410787Y-60393676D01*
X74415034Y-60325938D01*
X74418061Y-60231443D01*
X74420068Y-60105498D01*
X74421259Y-59943411D01*
X74421836Y-59740488D01*
X74421999Y-59492035D01*
X74422000Y-59458137D01*
X74422000Y-58444310D01*
X74364850Y-58420297D01*
X74327253Y-58410240D01*
X74245727Y-58392314D01*
X74126327Y-58367723D01*
X73975107Y-58337672D01*
X73798123Y-58303365D01*
X73601427Y-58266007D01*
X73406973Y-58229739D01*
X73197656Y-58190364D01*
X73002698Y-58152403D01*
X72828110Y-58117124D01*
X72679906Y-58085796D01*
X72564098Y-58059688D01*
X72486700Y-58040069D01*
X72454473Y-58028767D01*
X72431167Y-57996795D01*
X72392204Y-57924920D01*
X72340738Y-57820427D01*
X72279923Y-57690600D01*
X72212916Y-57542725D01*
X72142871Y-57384086D01*
X72072944Y-57221968D01*
X72006288Y-57063657D01*
X71946061Y-56916437D01*
X71895415Y-56787592D01*
X71857508Y-56684409D01*
X71835493Y-56614171D01*
X71831200Y-56589669D01*
X71846291Y-56548195D01*
X71891366Y-56466395D01*
X71966130Y-56344736D01*
X72070289Y-56183682D01*
X72203547Y-55983698D01*
X72365612Y-55745249D01*
X72377300Y-55728189D01*
X72499932Y-55547967D01*
X72612954Y-55379317D01*
X72713201Y-55227155D01*
X72797509Y-55096396D01*
X72862714Y-54991956D01*
X72905652Y-54918752D01*
X72923158Y-54881698D01*
X72923400Y-54879796D01*
X72906017Y-54851538D01*
X72857048Y-54792662D01*
X72781269Y-54708030D01*
X72683455Y-54602500D01*
X72568380Y-54480935D01*
X72440819Y-54348193D01*
X72305545Y-54209135D01*
X72167335Y-54068621D01*
X72030962Y-53931512D01*
X71901202Y-53802668D01*
X71782828Y-53686948D01*
X71680615Y-53589214D01*
X71599338Y-53514324D01*
X71543772Y-53467141D01*
X71521484Y-53452739D01*
X71506602Y-53448345D01*
X71491167Y-53446946D01*
X71471170Y-53451041D01*
X71442602Y-53463126D01*
X71401455Y-53485699D01*
X71343720Y-53521257D01*
X71265390Y-53572298D01*
X71162455Y-53641319D01*
X71030907Y-53730817D01*
X70866737Y-53843291D01*
X70665938Y-53981236D01*
X70595426Y-54029698D01*
X70364032Y-54187700D01*
X70171893Y-54316594D01*
X70017375Y-54417413D01*
X69898842Y-54491190D01*
X69814658Y-54538960D01*
X69763189Y-54561754D01*
X69749546Y-54564125D01*
X69709053Y-54553891D01*
X69629862Y-54526696D01*
X69519520Y-54485629D01*
X69385574Y-54433783D01*
X69235573Y-54374248D01*
X69077063Y-54310115D01*
X68917591Y-54244475D01*
X68764706Y-54180420D01*
X68625955Y-54121039D01*
X68508885Y-54069424D01*
X68421043Y-54028666D01*
X68369978Y-54001856D01*
X68361464Y-53995654D01*
X68349561Y-53963925D01*
X68329870Y-53887851D01*
X68303595Y-53773088D01*
X68271942Y-53625290D01*
X68236116Y-53450109D01*
X68197323Y-53253201D01*
X68156767Y-53040218D01*
X68149691Y-53002320D01*
X68109049Y-52786368D01*
X68070273Y-52584811D01*
X68034537Y-52403426D01*
X68003017Y-52247990D01*
X67976886Y-52124279D01*
X67957320Y-52038069D01*
X67945492Y-51995137D01*
X67944396Y-51992670D01*
X67936018Y-51980177D01*
X67922369Y-51969974D01*
X67898657Y-51961830D01*
X67860089Y-51955512D01*
X67801873Y-51950791D01*
X67719215Y-51947434D01*
X67607325Y-51945209D01*
X67461408Y-51943886D01*
X67276673Y-51943232D01*
X67048327Y-51943016D01*
X66916301Y-51943000D01*
X66664309Y-51943087D01*
G36*
X60951130Y-67025269D02*
G01*
X60799223Y-67058212D01*
X60687592Y-67110328D01*
X60604047Y-67161961D01*
X60653614Y-67229630D01*
X60698904Y-67287613D01*
X60761030Y-67362574D01*
X60800742Y-67408720D01*
X60898302Y-67520140D01*
X60978690Y-67478570D01*
X61080008Y-67446234D01*
X61196573Y-67438454D01*
X61306723Y-67454915D01*
X61374149Y-67484312D01*
X61418477Y-67514502D01*
X61453614Y-67544080D01*
X61480750Y-67579118D01*
X61501076Y-67625684D01*
X61515783Y-67689850D01*
X61526060Y-67777685D01*
X61533099Y-67895261D01*
X61538091Y-68048648D01*
X61542224Y-68243915D01*
X61544200Y-68351400D01*
X61556900Y-69049900D01*
X61976000Y-69064654D01*
X61976000Y-67028545D01*
X61766450Y-67035922D01*
X61556900Y-67043300D01*
X61544200Y-67142747D01*
X61534133Y-67203745D01*
X61521504Y-67221645D01*
X61500081Y-67204018D01*
X61496895Y-67200204D01*
X61394483Y-67113212D01*
X61261135Y-67054143D01*
X61109225Y-67024370D01*
X60951130Y-67025269D01*
G37*
X60951130Y-67025269D02*
X60799223Y-67058212D01*
X60687592Y-67110328D01*
X60604047Y-67161961D01*
X60653614Y-67229630D01*
X60698904Y-67287613D01*
X60761030Y-67362574D01*
X60800742Y-67408720D01*
X60898302Y-67520140D01*
X60978690Y-67478570D01*
X61080008Y-67446234D01*
X61196573Y-67438454D01*
X61306723Y-67454915D01*
X61374149Y-67484312D01*
X61418477Y-67514502D01*
X61453614Y-67544080D01*
X61480750Y-67579118D01*
X61501076Y-67625684D01*
X61515783Y-67689850D01*
X61526060Y-67777685D01*
X61533099Y-67895261D01*
X61538091Y-68048648D01*
X61542224Y-68243915D01*
X61544200Y-68351400D01*
X61556900Y-69049900D01*
X61976000Y-69064654D01*
X61976000Y-67028545D01*
X61766450Y-67035922D01*
X61556900Y-67043300D01*
X61544200Y-67142747D01*
X61534133Y-67203745D01*
X61521504Y-67221645D01*
X61500081Y-67204018D01*
X61496895Y-67200204D01*
X61394483Y-67113212D01*
X61261135Y-67054143D01*
X61109225Y-67024370D01*
X60951130Y-67025269D01*
G36*
X69633163Y-67030942D02*
G01*
X69488278Y-67072506D01*
X69456300Y-67087564D01*
X69314570Y-67178434D01*
X69209132Y-67291551D01*
X69133812Y-67424300D01*
X69117049Y-67462625D01*
X69103740Y-67500860D01*
X69093406Y-67545333D01*
X69085567Y-67602368D01*
X69079747Y-67678293D01*
X69075466Y-67779432D01*
X69072246Y-67912112D01*
X69069607Y-68082658D01*
X69067072Y-68297398D01*
X69066955Y-68308009D01*
X69058609Y-69064718D01*
X69270155Y-69057309D01*
X69481700Y-69049900D01*
X69494400Y-68364100D01*
X69498544Y-68156443D01*
X69502712Y-67993300D01*
X69507403Y-67868387D01*
X69513115Y-67775420D01*
X69520346Y-67708115D01*
X69529593Y-67660189D01*
X69541354Y-67625358D01*
X69554993Y-67599192D01*
X69635481Y-67506145D01*
X69742623Y-67453015D01*
X69874231Y-67437000D01*
X70011024Y-67452403D01*
X70115788Y-67501858D01*
X70198075Y-67590232D01*
X70209498Y-67607834D01*
X70227371Y-67638202D01*
X70241355Y-67669285D01*
X70252020Y-67707583D01*
X70259933Y-67759599D01*
X70265664Y-67831832D01*
X70269781Y-67930785D01*
X70272853Y-68062957D01*
X70275447Y-68234851D01*
X70277294Y-68383150D01*
X70285487Y-69062600D01*
X70688200Y-69062600D01*
X70688200Y-67030600D01*
X70281800Y-67030600D01*
X70281800Y-67132200D01*
X70276523Y-67204619D01*
X70257205Y-67229270D01*
X70218613Y-67208158D01*
X70180801Y-67170939D01*
X70075658Y-67093106D01*
X69940343Y-67042794D01*
X69788349Y-67021555D01*
X69633163Y-67030942D01*
G37*
X69633163Y-67030942D02*
X69488278Y-67072506D01*
X69456300Y-67087564D01*
X69314570Y-67178434D01*
X69209132Y-67291551D01*
X69133812Y-67424300D01*
X69117049Y-67462625D01*
X69103740Y-67500860D01*
X69093406Y-67545333D01*
X69085567Y-67602368D01*
X69079747Y-67678293D01*
X69075466Y-67779432D01*
X69072246Y-67912112D01*
X69069607Y-68082658D01*
X69067072Y-68297398D01*
X69066955Y-68308009D01*
X69058609Y-69064718D01*
X69270155Y-69057309D01*
X69481700Y-69049900D01*
X69494400Y-68364100D01*
X69498544Y-68156443D01*
X69502712Y-67993300D01*
X69507403Y-67868387D01*
X69513115Y-67775420D01*
X69520346Y-67708115D01*
X69529593Y-67660189D01*
X69541354Y-67625358D01*
X69554993Y-67599192D01*
X69635481Y-67506145D01*
X69742623Y-67453015D01*
X69874231Y-67437000D01*
X70011024Y-67452403D01*
X70115788Y-67501858D01*
X70198075Y-67590232D01*
X70209498Y-67607834D01*
X70227371Y-67638202D01*
X70241355Y-67669285D01*
X70252020Y-67707583D01*
X70259933Y-67759599D01*
X70265664Y-67831832D01*
X70269781Y-67930785D01*
X70272853Y-68062957D01*
X70275447Y-68234851D01*
X70277294Y-68383150D01*
X70285487Y-69062600D01*
X70688200Y-69062600D01*
X70688200Y-67030600D01*
X70281800Y-67030600D01*
X70281800Y-67132200D01*
X70276523Y-67204619D01*
X70257205Y-67229270D01*
X70218613Y-67208158D01*
X70180801Y-67170939D01*
X70075658Y-67093106D01*
X69940343Y-67042794D01*
X69788349Y-67021555D01*
X69633163Y-67030942D01*
G36*
X57843741Y-67049608D02*
G01*
X57661637Y-67130532D01*
X57508870Y-67245899D01*
X57412444Y-67348622D01*
X57343288Y-67455802D01*
X57297095Y-67578832D01*
X57269555Y-67729109D01*
X57256532Y-67913250D01*
X57246118Y-68199000D01*
X58496200Y-68199000D01*
X58496200Y-68269818D01*
X58479166Y-68356544D01*
X58435340Y-68456813D01*
X58375640Y-68550126D01*
X58312392Y-68614967D01*
X58233148Y-68650748D01*
X58123873Y-68672694D01*
X58003885Y-68679020D01*
X57892503Y-68667938D01*
X57852442Y-68657500D01*
X57770579Y-68622589D01*
X57684597Y-68574751D01*
X57670169Y-68565299D01*
X57578239Y-68502914D01*
X57440320Y-68620742D01*
X57372447Y-68681395D01*
X57323211Y-68730480D01*
X57302525Y-68758057D01*
X57302400Y-68759036D01*
X57320369Y-68786097D01*
X57365791Y-68830848D01*
X57392126Y-68853460D01*
X57576307Y-68973293D01*
X57781350Y-69049866D01*
X57998099Y-69080900D01*
X58217399Y-69064120D01*
X58229500Y-69061734D01*
X58426002Y-68998210D01*
X58591528Y-68894807D01*
X58724593Y-68753011D01*
X58823708Y-68574306D01*
X58874915Y-68416775D01*
X58892339Y-68308740D01*
X58902347Y-68169162D01*
X58904797Y-68016776D01*
X58899546Y-67870316D01*
X58891622Y-67796595D01*
X58496200Y-67796595D01*
X58496200Y-67868800D01*
X57652347Y-67868800D01*
X57669793Y-67773550D01*
X57717716Y-67627513D01*
X57799328Y-67516179D01*
X57910493Y-67443241D01*
X58047074Y-67412397D01*
X58074903Y-67411600D01*
X58190720Y-67423987D01*
X58289111Y-67456809D01*
X58292764Y-67458725D01*
X58370547Y-67522770D01*
X58438285Y-67616995D01*
X58483851Y-67721261D01*
X58496200Y-67796595D01*
X58891622Y-67796595D01*
X58886454Y-67748516D01*
X58880221Y-67716185D01*
X58810696Y-67500674D01*
X58708581Y-67323062D01*
X58574787Y-67184321D01*
X58410226Y-67085422D01*
X58237159Y-67031398D01*
X58037565Y-67015979D01*
X57843741Y-67049608D01*
G37*
X57843741Y-67049608D02*
X57661637Y-67130532D01*
X57508870Y-67245899D01*
X57412444Y-67348622D01*
X57343288Y-67455802D01*
X57297095Y-67578832D01*
X57269555Y-67729109D01*
X57256532Y-67913250D01*
X57246118Y-68199000D01*
X58496200Y-68199000D01*
X58496200Y-68269818D01*
X58479166Y-68356544D01*
X58435340Y-68456813D01*
X58375640Y-68550126D01*
X58312392Y-68614967D01*
X58233148Y-68650748D01*
X58123873Y-68672694D01*
X58003885Y-68679020D01*
X57892503Y-68667938D01*
X57852442Y-68657500D01*
X57770579Y-68622589D01*
X57684597Y-68574751D01*
X57670169Y-68565299D01*
X57578239Y-68502914D01*
X57440320Y-68620742D01*
X57372447Y-68681395D01*
X57323211Y-68730480D01*
X57302525Y-68758057D01*
X57302400Y-68759036D01*
X57320369Y-68786097D01*
X57365791Y-68830848D01*
X57392126Y-68853460D01*
X57576307Y-68973293D01*
X57781350Y-69049866D01*
X57998099Y-69080900D01*
X58217399Y-69064120D01*
X58229500Y-69061734D01*
X58426002Y-68998210D01*
X58591528Y-68894807D01*
X58724593Y-68753011D01*
X58823708Y-68574306D01*
X58874915Y-68416775D01*
X58892339Y-68308740D01*
X58902347Y-68169162D01*
X58904797Y-68016776D01*
X58899546Y-67870316D01*
X58891622Y-67796595D01*
X58496200Y-67796595D01*
X58496200Y-67868800D01*
X57652347Y-67868800D01*
X57669793Y-67773550D01*
X57717716Y-67627513D01*
X57799328Y-67516179D01*
X57910493Y-67443241D01*
X58047074Y-67412397D01*
X58074903Y-67411600D01*
X58190720Y-67423987D01*
X58289111Y-67456809D01*
X58292764Y-67458725D01*
X58370547Y-67522770D01*
X58438285Y-67616995D01*
X58483851Y-67721261D01*
X58496200Y-67796595D01*
X58891622Y-67796595D01*
X58886454Y-67748516D01*
X58880221Y-67716185D01*
X58810696Y-67500674D01*
X58708581Y-67323062D01*
X58574787Y-67184321D01*
X58410226Y-67085422D01*
X58237159Y-67031398D01*
X58037565Y-67015979D01*
X57843741Y-67049608D01*
G36*
X59674477Y-67014547D02*
G01*
X59578353Y-67031309D01*
X59537444Y-67041345D01*
X59372104Y-67100027D01*
X59217371Y-67184801D01*
X59092232Y-67285050D01*
X59081108Y-67296547D01*
X59042431Y-67341269D01*
X59036867Y-67370593D01*
X59062383Y-67405801D01*
X59069873Y-67414132D01*
X59120536Y-67463827D01*
X59188650Y-67523199D01*
X59211975Y-67542126D01*
X59305449Y-67616256D01*
X59422497Y-67533753D01*
X59499687Y-67485476D01*
X59572623Y-67458383D01*
X59664286Y-67445152D01*
X59710022Y-67442172D01*
X59872426Y-67449852D01*
X60001715Y-67493791D01*
X60102739Y-67576491D01*
X60170328Y-67679770D01*
X60201548Y-67749072D01*
X60220682Y-67816506D01*
X60230531Y-67898194D01*
X60233896Y-68010256D01*
X60234055Y-68046600D01*
X60232023Y-68171569D01*
X60223828Y-68261785D01*
X60206891Y-68333168D01*
X60178633Y-68401640D01*
X60175514Y-68408066D01*
X60092835Y-68523614D01*
X59980316Y-68605216D01*
X59847325Y-68651225D01*
X59703234Y-68659994D01*
X59557411Y-68629874D01*
X59419227Y-68559219D01*
X59399151Y-68544576D01*
X59307918Y-68474988D01*
X59213209Y-68550096D01*
X59144271Y-68608042D01*
X59084883Y-68663354D01*
X59070114Y-68678801D01*
X59037714Y-68719649D01*
X59039940Y-68749290D01*
X59070114Y-68786156D01*
X59170886Y-68874995D01*
X59302374Y-68958389D01*
X59444902Y-69024476D01*
X59492894Y-69041055D01*
X59607875Y-69071348D01*
X59710389Y-69082859D01*
X59822903Y-69076708D01*
X59920337Y-69062377D01*
X60074378Y-69017297D01*
X60229933Y-68939312D01*
X60364465Y-68840267D01*
X60390483Y-68815327D01*
X60499894Y-68670246D01*
X60581293Y-68490465D01*
X60632393Y-68285090D01*
X60650905Y-68063226D01*
X60635504Y-67840493D01*
X60582554Y-67610268D01*
X60496061Y-67418087D01*
X60375491Y-67263380D01*
X60220313Y-67145578D01*
X60029992Y-67064112D01*
X59875107Y-67028324D01*
X59764186Y-67013907D01*
X59674477Y-67014547D01*
G37*
X59674477Y-67014547D02*
X59578353Y-67031309D01*
X59537444Y-67041345D01*
X59372104Y-67100027D01*
X59217371Y-67184801D01*
X59092232Y-67285050D01*
X59081108Y-67296547D01*
X59042431Y-67341269D01*
X59036867Y-67370593D01*
X59062383Y-67405801D01*
X59069873Y-67414132D01*
X59120536Y-67463827D01*
X59188650Y-67523199D01*
X59211975Y-67542126D01*
X59305449Y-67616256D01*
X59422497Y-67533753D01*
X59499687Y-67485476D01*
X59572623Y-67458383D01*
X59664286Y-67445152D01*
X59710022Y-67442172D01*
X59872426Y-67449852D01*
X60001715Y-67493791D01*
X60102739Y-67576491D01*
X60170328Y-67679770D01*
X60201548Y-67749072D01*
X60220682Y-67816506D01*
X60230531Y-67898194D01*
X60233896Y-68010256D01*
X60234055Y-68046600D01*
X60232023Y-68171569D01*
X60223828Y-68261785D01*
X60206891Y-68333168D01*
X60178633Y-68401640D01*
X60175514Y-68408066D01*
X60092835Y-68523614D01*
X59980316Y-68605216D01*
X59847325Y-68651225D01*
X59703234Y-68659994D01*
X59557411Y-68629874D01*
X59419227Y-68559219D01*
X59399151Y-68544576D01*
X59307918Y-68474988D01*
X59213209Y-68550096D01*
X59144271Y-68608042D01*
X59084883Y-68663354D01*
X59070114Y-68678801D01*
X59037714Y-68719649D01*
X59039940Y-68749290D01*
X59070114Y-68786156D01*
X59170886Y-68874995D01*
X59302374Y-68958389D01*
X59444902Y-69024476D01*
X59492894Y-69041055D01*
X59607875Y-69071348D01*
X59710389Y-69082859D01*
X59822903Y-69076708D01*
X59920337Y-69062377D01*
X60074378Y-69017297D01*
X60229933Y-68939312D01*
X60364465Y-68840267D01*
X60390483Y-68815327D01*
X60499894Y-68670246D01*
X60581293Y-68490465D01*
X60632393Y-68285090D01*
X60650905Y-68063226D01*
X60635504Y-67840493D01*
X60582554Y-67610268D01*
X60496061Y-67418087D01*
X60375491Y-67263380D01*
X60220313Y-67145578D01*
X60029992Y-67064112D01*
X59875107Y-67028324D01*
X59764186Y-67013907D01*
X59674477Y-67014547D01*
G36*
X63596404Y-67726285D02*
G01*
X63593986Y-67933625D01*
X63591395Y-68096349D01*
X63588148Y-68220636D01*
X63583763Y-68312668D01*
X63577759Y-68378627D01*
X63569654Y-68424695D01*
X63558964Y-68457052D01*
X63545209Y-68481880D01*
X63536531Y-68494074D01*
X63450581Y-68588303D01*
X63358626Y-68640762D01*
X63245357Y-68659618D01*
X63225513Y-68660054D01*
X63084610Y-68642619D01*
X62974427Y-68586035D01*
X62890247Y-68487547D01*
X62871350Y-68453386D01*
X62853916Y-68416913D01*
X62840439Y-68380207D01*
X62830412Y-68336443D01*
X62823325Y-68278793D01*
X62818671Y-68200430D01*
X62815941Y-68094525D01*
X62814627Y-67954253D01*
X62814222Y-67772786D01*
X62814200Y-67685618D01*
X62814200Y-67030600D01*
X62407800Y-67030600D01*
X62407800Y-69062600D01*
X62814200Y-69062600D01*
X62814200Y-68862835D01*
X62940356Y-68947731D01*
X63106741Y-69034142D01*
X63279119Y-69076291D01*
X63448283Y-69072219D01*
X63487300Y-69064166D01*
X63663152Y-68996440D01*
X63810050Y-68887579D01*
X63924839Y-68740209D01*
X63962058Y-68668900D01*
X63978813Y-68630769D01*
X63992014Y-68593385D01*
X64002086Y-68550391D01*
X64009453Y-68495432D01*
X64014539Y-68422153D01*
X64017769Y-68324197D01*
X64019567Y-68195208D01*
X64020357Y-68028832D01*
X64020564Y-67818713D01*
X64020569Y-67792600D01*
X64020700Y-67043300D01*
X63603908Y-67028582D01*
X63596404Y-67726285D01*
G37*
X63596404Y-67726285D02*
X63593986Y-67933625D01*
X63591395Y-68096349D01*
X63588148Y-68220636D01*
X63583763Y-68312668D01*
X63577759Y-68378627D01*
X63569654Y-68424695D01*
X63558964Y-68457052D01*
X63545209Y-68481880D01*
X63536531Y-68494074D01*
X63450581Y-68588303D01*
X63358626Y-68640762D01*
X63245357Y-68659618D01*
X63225513Y-68660054D01*
X63084610Y-68642619D01*
X62974427Y-68586035D01*
X62890247Y-68487547D01*
X62871350Y-68453386D01*
X62853916Y-68416913D01*
X62840439Y-68380207D01*
X62830412Y-68336443D01*
X62823325Y-68278793D01*
X62818671Y-68200430D01*
X62815941Y-68094525D01*
X62814627Y-67954253D01*
X62814222Y-67772786D01*
X62814200Y-67685618D01*
X62814200Y-67030600D01*
X62407800Y-67030600D01*
X62407800Y-69062600D01*
X62814200Y-69062600D01*
X62814200Y-68862835D01*
X62940356Y-68947731D01*
X63106741Y-69034142D01*
X63279119Y-69076291D01*
X63448283Y-69072219D01*
X63487300Y-69064166D01*
X63663152Y-68996440D01*
X63810050Y-68887579D01*
X63924839Y-68740209D01*
X63962058Y-68668900D01*
X63978813Y-68630769D01*
X63992014Y-68593385D01*
X64002086Y-68550391D01*
X64009453Y-68495432D01*
X64014539Y-68422153D01*
X64017769Y-68324197D01*
X64019567Y-68195208D01*
X64020357Y-68028832D01*
X64020564Y-67818713D01*
X64020569Y-67792600D01*
X64020700Y-67043300D01*
X63603908Y-67028582D01*
X63596404Y-67726285D01*
G36*
X65053055Y-67027039D02*
G01*
X64877325Y-67077891D01*
X64713886Y-67168731D01*
X64582501Y-67286628D01*
X64509806Y-67375373D01*
X64455948Y-67463518D01*
X64418342Y-67560785D01*
X64394403Y-67676897D01*
X64381547Y-67821576D01*
X64377190Y-68004546D01*
X64377130Y-68059300D01*
X64378316Y-68213268D01*
X64381915Y-68327488D01*
X64389148Y-68412998D01*
X64401234Y-68480835D01*
X64419393Y-68542038D01*
X64435087Y-68583628D01*
X64510012Y-68717616D01*
X64619625Y-68845709D01*
X64748732Y-68952392D01*
X64853383Y-69010840D01*
X64994143Y-69052948D01*
X65157653Y-69072836D01*
X65319870Y-69068060D01*
X65359642Y-69062343D01*
X65546895Y-69005357D01*
X65712176Y-68905806D01*
X65848046Y-68769415D01*
X65941437Y-68614645D01*
X65978335Y-68498385D01*
X66004041Y-68346134D01*
X66018432Y-68171481D01*
X66020456Y-68045631D01*
X65607643Y-68045631D01*
X65601830Y-68230993D01*
X65582971Y-68373174D01*
X65547735Y-68478854D01*
X65492795Y-68554715D01*
X65414820Y-68607437D01*
X65310483Y-68643700D01*
X65309517Y-68643946D01*
X65161055Y-68659604D01*
X65026802Y-68629460D01*
X64949766Y-68585381D01*
X64884553Y-68528869D01*
X64838326Y-68465729D01*
X64808083Y-68386277D01*
X64790822Y-68280833D01*
X64783540Y-68139715D01*
X64782700Y-68046600D01*
X64783752Y-67908464D01*
X64787843Y-67810143D01*
X64796382Y-67740679D01*
X64810775Y-67689114D01*
X64832431Y-67644489D01*
X64834874Y-67640286D01*
X64926397Y-67528281D01*
X65043078Y-67460344D01*
X65183995Y-67437008D01*
X65186903Y-67437000D01*
X65333692Y-67455891D01*
X65448672Y-67513576D01*
X65534544Y-67611567D01*
X65551050Y-67641111D01*
X65576545Y-67697221D01*
X65593176Y-67754963D01*
X65602714Y-67826993D01*
X65606930Y-67925970D01*
X65607643Y-68045631D01*
X66020456Y-68045631D01*
X66021384Y-67988014D01*
X66012772Y-67809323D01*
X65992472Y-67648995D01*
X65960361Y-67520621D01*
X65951624Y-67497834D01*
X65857368Y-67332700D01*
X65731054Y-67200713D01*
X65580075Y-67103013D01*
X65411821Y-67040740D01*
X65233684Y-67015036D01*
X65053055Y-67027039D01*
G37*
X65053055Y-67027039D02*
X64877325Y-67077891D01*
X64713886Y-67168731D01*
X64582501Y-67286628D01*
X64509806Y-67375373D01*
X64455948Y-67463518D01*
X64418342Y-67560785D01*
X64394403Y-67676897D01*
X64381547Y-67821576D01*
X64377190Y-68004546D01*
X64377130Y-68059300D01*
X64378316Y-68213268D01*
X64381915Y-68327488D01*
X64389148Y-68412998D01*
X64401234Y-68480835D01*
X64419393Y-68542038D01*
X64435087Y-68583628D01*
X64510012Y-68717616D01*
X64619625Y-68845709D01*
X64748732Y-68952392D01*
X64853383Y-69010840D01*
X64994143Y-69052948D01*
X65157653Y-69072836D01*
X65319870Y-69068060D01*
X65359642Y-69062343D01*
X65546895Y-69005357D01*
X65712176Y-68905806D01*
X65848046Y-68769415D01*
X65941437Y-68614645D01*
X65978335Y-68498385D01*
X66004041Y-68346134D01*
X66018432Y-68171481D01*
X66020456Y-68045631D01*
X65607643Y-68045631D01*
X65601830Y-68230993D01*
X65582971Y-68373174D01*
X65547735Y-68478854D01*
X65492795Y-68554715D01*
X65414820Y-68607437D01*
X65310483Y-68643700D01*
X65309517Y-68643946D01*
X65161055Y-68659604D01*
X65026802Y-68629460D01*
X64949766Y-68585381D01*
X64884553Y-68528869D01*
X64838326Y-68465729D01*
X64808083Y-68386277D01*
X64790822Y-68280833D01*
X64783540Y-68139715D01*
X64782700Y-68046600D01*
X64783752Y-67908464D01*
X64787843Y-67810143D01*
X64796382Y-67740679D01*
X64810775Y-67689114D01*
X64832431Y-67644489D01*
X64834874Y-67640286D01*
X64926397Y-67528281D01*
X65043078Y-67460344D01*
X65183995Y-67437008D01*
X65186903Y-67437000D01*
X65333692Y-67455891D01*
X65448672Y-67513576D01*
X65534544Y-67611567D01*
X65551050Y-67641111D01*
X65576545Y-67697221D01*
X65593176Y-67754963D01*
X65602714Y-67826993D01*
X65606930Y-67925970D01*
X65607643Y-68045631D01*
X66020456Y-68045631D01*
X66021384Y-67988014D01*
X66012772Y-67809323D01*
X65992472Y-67648995D01*
X65960361Y-67520621D01*
X65951624Y-67497834D01*
X65857368Y-67332700D01*
X65731054Y-67200713D01*
X65580075Y-67103013D01*
X65411821Y-67040740D01*
X65233684Y-67015036D01*
X65053055Y-67027039D01*
G36*
X66973723Y-67022750D02*
G01*
X66828900Y-67044726D01*
X66694694Y-67075941D01*
X66602074Y-67108216D01*
X66505974Y-67155188D01*
X66419817Y-67205344D01*
X66354667Y-67251436D01*
X66321589Y-67286218D01*
X66319574Y-67293248D01*
X66334893Y-67321856D01*
X66375334Y-67376903D01*
X66432346Y-67446791D01*
X66435907Y-67450970D01*
X66552414Y-67587343D01*
X66693414Y-67507768D01*
X66818673Y-67454308D01*
X66960334Y-67421109D01*
X67102496Y-67409723D01*
X67229260Y-67421702D01*
X67306560Y-67447921D01*
X67385710Y-67509858D01*
X67426839Y-67586742D01*
X67428874Y-67666909D01*
X67390745Y-67738696D01*
X67336988Y-67779078D01*
X67274383Y-67800264D01*
X67181147Y-67819138D01*
X67077421Y-67831627D01*
X67077006Y-67831659D01*
X66865979Y-67853059D01*
X66698609Y-67882880D01*
X66568051Y-67924057D01*
X66467460Y-67979523D01*
X66389990Y-68052211D01*
X66328796Y-68145055D01*
X66323923Y-68154364D01*
X66278653Y-68284475D01*
X66261038Y-68432420D01*
X66271756Y-68577812D01*
X66306136Y-68689523D01*
X66392770Y-68815319D01*
X66518869Y-68919952D01*
X66676478Y-69000485D01*
X66857644Y-69053980D01*
X67054413Y-69077500D01*
X67258831Y-69068105D01*
X67310000Y-69060304D01*
X67409838Y-69035503D01*
X67525716Y-68996173D01*
X67610919Y-68960532D01*
X67703833Y-68912408D01*
X67796768Y-68856518D01*
X67879059Y-68800266D01*
X67940041Y-68751053D01*
X67969049Y-68716283D01*
X67970080Y-68711215D01*
X67952176Y-68687409D01*
X67905264Y-68640346D01*
X67839032Y-68579680D01*
X67830615Y-68572268D01*
X67691470Y-68450236D01*
X67577214Y-68528846D01*
X67422524Y-68617063D01*
X67264752Y-68665979D01*
X67084299Y-68681583D01*
X67077391Y-68681600D01*
X66912687Y-68669644D01*
X66792132Y-68633448D01*
X66714966Y-68572516D01*
X66680430Y-68486353D01*
X66679829Y-68422587D01*
X66695113Y-68360446D01*
X66731339Y-68313468D01*
X66795255Y-68278515D01*
X66893610Y-68252453D01*
X67033153Y-68232144D01*
X67105988Y-68224545D01*
X67312993Y-68197062D01*
X67476547Y-68156959D01*
X67603123Y-68101016D01*
X67699193Y-68026013D01*
X67771231Y-67928728D01*
X67795393Y-67881500D01*
X67824857Y-67790464D01*
X67841507Y-67686434D01*
X67842843Y-67655846D01*
X67822837Y-67474316D01*
X67761149Y-67321767D01*
X67657919Y-67198340D01*
X67513286Y-67104177D01*
X67327388Y-67039421D01*
X67217610Y-67017899D01*
X67109760Y-67012859D01*
X66973723Y-67022750D01*
G37*
X66973723Y-67022750D02*
X66828900Y-67044726D01*
X66694694Y-67075941D01*
X66602074Y-67108216D01*
X66505974Y-67155188D01*
X66419817Y-67205344D01*
X66354667Y-67251436D01*
X66321589Y-67286218D01*
X66319574Y-67293248D01*
X66334893Y-67321856D01*
X66375334Y-67376903D01*
X66432346Y-67446791D01*
X66435907Y-67450970D01*
X66552414Y-67587343D01*
X66693414Y-67507768D01*
X66818673Y-67454308D01*
X66960334Y-67421109D01*
X67102496Y-67409723D01*
X67229260Y-67421702D01*
X67306560Y-67447921D01*
X67385710Y-67509858D01*
X67426839Y-67586742D01*
X67428874Y-67666909D01*
X67390745Y-67738696D01*
X67336988Y-67779078D01*
X67274383Y-67800264D01*
X67181147Y-67819138D01*
X67077421Y-67831627D01*
X67077006Y-67831659D01*
X66865979Y-67853059D01*
X66698609Y-67882880D01*
X66568051Y-67924057D01*
X66467460Y-67979523D01*
X66389990Y-68052211D01*
X66328796Y-68145055D01*
X66323923Y-68154364D01*
X66278653Y-68284475D01*
X66261038Y-68432420D01*
X66271756Y-68577812D01*
X66306136Y-68689523D01*
X66392770Y-68815319D01*
X66518869Y-68919952D01*
X66676478Y-69000485D01*
X66857644Y-69053980D01*
X67054413Y-69077500D01*
X67258831Y-69068105D01*
X67310000Y-69060304D01*
X67409838Y-69035503D01*
X67525716Y-68996173D01*
X67610919Y-68960532D01*
X67703833Y-68912408D01*
X67796768Y-68856518D01*
X67879059Y-68800266D01*
X67940041Y-68751053D01*
X67969049Y-68716283D01*
X67970080Y-68711215D01*
X67952176Y-68687409D01*
X67905264Y-68640346D01*
X67839032Y-68579680D01*
X67830615Y-68572268D01*
X67691470Y-68450236D01*
X67577214Y-68528846D01*
X67422524Y-68617063D01*
X67264752Y-68665979D01*
X67084299Y-68681583D01*
X67077391Y-68681600D01*
X66912687Y-68669644D01*
X66792132Y-68633448D01*
X66714966Y-68572516D01*
X66680430Y-68486353D01*
X66679829Y-68422587D01*
X66695113Y-68360446D01*
X66731339Y-68313468D01*
X66795255Y-68278515D01*
X66893610Y-68252453D01*
X67033153Y-68232144D01*
X67105988Y-68224545D01*
X67312993Y-68197062D01*
X67476547Y-68156959D01*
X67603123Y-68101016D01*
X67699193Y-68026013D01*
X67771231Y-67928728D01*
X67795393Y-67881500D01*
X67824857Y-67790464D01*
X67841507Y-67686434D01*
X67842843Y-67655846D01*
X67822837Y-67474316D01*
X67761149Y-67321767D01*
X67657919Y-67198340D01*
X67513286Y-67104177D01*
X67327388Y-67039421D01*
X67217610Y-67017899D01*
X67109760Y-67012859D01*
X66973723Y-67022750D01*
G36*
X71733711Y-67028625D02*
G01*
X71553561Y-67076291D01*
X71387263Y-67163423D01*
X71276046Y-67255554D01*
X71168140Y-67387983D01*
X71091139Y-67541710D01*
X71042731Y-67723782D01*
X71020604Y-67941248D01*
X71018592Y-68040250D01*
X71018400Y-68199000D01*
X72290702Y-68199000D01*
X72273747Y-68294250D01*
X72227714Y-68439941D01*
X72149483Y-68555170D01*
X72047105Y-68630797D01*
X71898827Y-68675469D01*
X71738346Y-68676261D01*
X71576346Y-68634647D01*
X71423508Y-68552100D01*
X71411043Y-68543066D01*
X71381555Y-68525740D01*
X71351827Y-68525961D01*
X71310603Y-68548388D01*
X71246631Y-68597681D01*
X71213483Y-68624865D01*
X71067781Y-68745100D01*
X71183543Y-68851506D01*
X71272867Y-68920741D01*
X71375253Y-68981910D01*
X71432018Y-69007567D01*
X71574715Y-69047131D01*
X71735767Y-69070096D01*
X71892741Y-69074341D01*
X72005654Y-69061762D01*
X72180622Y-69005523D01*
X72339402Y-68916444D01*
X72433518Y-68837190D01*
X72539012Y-68696152D01*
X72616360Y-68522540D01*
X72665681Y-68325991D01*
X72687098Y-68116141D01*
X72680730Y-67902624D01*
X72675185Y-67868800D01*
X72287130Y-67868800D01*
X71450200Y-67868800D01*
X71450200Y-67796595D01*
X71470058Y-67698478D01*
X71521544Y-67594693D01*
X71592534Y-67505382D01*
X71653637Y-67458725D01*
X71770416Y-67419410D01*
X71900083Y-67412289D01*
X72022496Y-67436882D01*
X72087794Y-67469085D01*
X72178333Y-67557974D01*
X72244232Y-67682967D01*
X72272227Y-67786250D01*
X72287130Y-67868800D01*
X72675185Y-67868800D01*
X72646700Y-67695079D01*
X72585126Y-67503139D01*
X72496131Y-67336440D01*
X72413432Y-67235739D01*
X72267573Y-67123981D01*
X72099687Y-67052313D01*
X71918742Y-67020580D01*
X71733711Y-67028625D01*
G37*
X71733711Y-67028625D02*
X71553561Y-67076291D01*
X71387263Y-67163423D01*
X71276046Y-67255554D01*
X71168140Y-67387983D01*
X71091139Y-67541710D01*
X71042731Y-67723782D01*
X71020604Y-67941248D01*
X71018592Y-68040250D01*
X71018400Y-68199000D01*
X72290702Y-68199000D01*
X72273747Y-68294250D01*
X72227714Y-68439941D01*
X72149483Y-68555170D01*
X72047105Y-68630797D01*
X71898827Y-68675469D01*
X71738346Y-68676261D01*
X71576346Y-68634647D01*
X71423508Y-68552100D01*
X71411043Y-68543066D01*
X71381555Y-68525740D01*
X71351827Y-68525961D01*
X71310603Y-68548388D01*
X71246631Y-68597681D01*
X71213483Y-68624865D01*
X71067781Y-68745100D01*
X71183543Y-68851506D01*
X71272867Y-68920741D01*
X71375253Y-68981910D01*
X71432018Y-69007567D01*
X71574715Y-69047131D01*
X71735767Y-69070096D01*
X71892741Y-69074341D01*
X72005654Y-69061762D01*
X72180622Y-69005523D01*
X72339402Y-68916444D01*
X72433518Y-68837190D01*
X72539012Y-68696152D01*
X72616360Y-68522540D01*
X72665681Y-68325991D01*
X72687098Y-68116141D01*
X72680730Y-67902624D01*
X72675185Y-67868800D01*
X72287130Y-67868800D01*
X71450200Y-67868800D01*
X71450200Y-67796595D01*
X71470058Y-67698478D01*
X71521544Y-67594693D01*
X71592534Y-67505382D01*
X71653637Y-67458725D01*
X71770416Y-67419410D01*
X71900083Y-67412289D01*
X72022496Y-67436882D01*
X72087794Y-67469085D01*
X72178333Y-67557974D01*
X72244232Y-67682967D01*
X72272227Y-67786250D01*
X72287130Y-67868800D01*
X72675185Y-67868800D01*
X72646700Y-67695079D01*
X72585126Y-67503139D01*
X72496131Y-67336440D01*
X72413432Y-67235739D01*
X72267573Y-67123981D01*
X72099687Y-67052313D01*
X71918742Y-67020580D01*
X71733711Y-67028625D01*
G36*
X75615878Y-67023523D02*
G01*
X75440270Y-67069840D01*
X75278991Y-67153175D01*
X75139336Y-67272062D01*
X75028602Y-67425033D01*
X74990292Y-67504260D01*
X74961120Y-67607597D01*
X74940894Y-67747728D01*
X74929604Y-67911445D01*
X74927239Y-68085538D01*
X74933786Y-68256799D01*
X74949235Y-68412018D01*
X74973574Y-68537987D01*
X74991232Y-68591189D01*
X75082719Y-68751245D01*
X75209000Y-68887121D01*
X75359441Y-68988903D01*
X75463400Y-69031543D01*
X75614661Y-69063411D01*
X75779492Y-69074249D01*
X75922621Y-69063064D01*
X76105407Y-69005480D01*
X76272044Y-68900530D01*
X76335257Y-68843886D01*
X76429852Y-68733166D01*
X76499121Y-68608129D01*
X76545664Y-68460344D01*
X76572080Y-68281377D01*
X76580968Y-68062796D01*
X76581000Y-68046600D01*
X76161900Y-68046600D01*
X76158727Y-68210557D01*
X76147189Y-68333707D01*
X76124260Y-68425761D01*
X76086911Y-68496431D01*
X76032115Y-68555427D01*
X75993681Y-68586242D01*
X75881348Y-68640706D01*
X75749406Y-68659453D01*
X75614473Y-68642382D01*
X75493165Y-68589391D01*
X75493022Y-68589298D01*
X75429085Y-68529817D01*
X75383363Y-68443289D01*
X75354077Y-68323514D01*
X75339446Y-68164293D01*
X75336958Y-68045631D01*
X75337951Y-67912409D01*
X75342705Y-67817289D01*
X75352992Y-67747615D01*
X75370581Y-67690728D01*
X75393550Y-67641111D01*
X75472833Y-67535926D01*
X75577375Y-67467260D01*
X75697113Y-67435125D01*
X75821981Y-67439532D01*
X75941916Y-67480493D01*
X76046853Y-67558019D01*
X76109727Y-67640286D01*
X76132132Y-67684822D01*
X76147144Y-67735276D01*
X76156171Y-67802604D01*
X76160618Y-67897766D01*
X76161893Y-68031720D01*
X76161900Y-68046600D01*
X76581000Y-68046600D01*
X76573856Y-67829543D01*
X76550493Y-67652686D01*
X76508017Y-67507208D01*
X76443536Y-67384285D01*
X76354154Y-67275098D01*
X76315672Y-67237775D01*
X76155712Y-67121350D01*
X75980895Y-67047811D01*
X75798519Y-67015691D01*
X75615878Y-67023523D01*
G37*
X75615878Y-67023523D02*
X75440270Y-67069840D01*
X75278991Y-67153175D01*
X75139336Y-67272062D01*
X75028602Y-67425033D01*
X74990292Y-67504260D01*
X74961120Y-67607597D01*
X74940894Y-67747728D01*
X74929604Y-67911445D01*
X74927239Y-68085538D01*
X74933786Y-68256799D01*
X74949235Y-68412018D01*
X74973574Y-68537987D01*
X74991232Y-68591189D01*
X75082719Y-68751245D01*
X75209000Y-68887121D01*
X75359441Y-68988903D01*
X75463400Y-69031543D01*
X75614661Y-69063411D01*
X75779492Y-69074249D01*
X75922621Y-69063064D01*
X76105407Y-69005480D01*
X76272044Y-68900530D01*
X76335257Y-68843886D01*
X76429852Y-68733166D01*
X76499121Y-68608129D01*
X76545664Y-68460344D01*
X76572080Y-68281377D01*
X76580968Y-68062796D01*
X76581000Y-68046600D01*
X76161900Y-68046600D01*
X76158727Y-68210557D01*
X76147189Y-68333707D01*
X76124260Y-68425761D01*
X76086911Y-68496431D01*
X76032115Y-68555427D01*
X75993681Y-68586242D01*
X75881348Y-68640706D01*
X75749406Y-68659453D01*
X75614473Y-68642382D01*
X75493165Y-68589391D01*
X75493022Y-68589298D01*
X75429085Y-68529817D01*
X75383363Y-68443289D01*
X75354077Y-68323514D01*
X75339446Y-68164293D01*
X75336958Y-68045631D01*
X75337951Y-67912409D01*
X75342705Y-67817289D01*
X75352992Y-67747615D01*
X75370581Y-67690728D01*
X75393550Y-67641111D01*
X75472833Y-67535926D01*
X75577375Y-67467260D01*
X75697113Y-67435125D01*
X75821981Y-67439532D01*
X75941916Y-67480493D01*
X76046853Y-67558019D01*
X76109727Y-67640286D01*
X76132132Y-67684822D01*
X76147144Y-67735276D01*
X76156171Y-67802604D01*
X76160618Y-67897766D01*
X76161893Y-68031720D01*
X76161900Y-68046600D01*
X76581000Y-68046600D01*
X76573856Y-67829543D01*
X76550493Y-67652686D01*
X76508017Y-67507208D01*
X76443536Y-67384285D01*
X76354154Y-67275098D01*
X76315672Y-67237775D01*
X76155712Y-67121350D01*
X75980895Y-67047811D01*
X75798519Y-67015691D01*
X75615878Y-67023523D01*
G36*
X61286885Y-70251667D02*
G01*
X61140507Y-70328245D01*
X61129567Y-70347976D01*
X61141297Y-70382904D01*
X61179656Y-70440245D01*
X61248601Y-70527214D01*
X61251768Y-70531067D01*
X61398422Y-70709333D01*
X61497877Y-70657494D01*
X61625157Y-70617120D01*
X61753232Y-70622107D01*
X61871024Y-70668990D01*
X61967457Y-70754304D01*
X62007711Y-70817005D01*
X62021374Y-70848993D01*
X62031960Y-70889132D01*
X62039849Y-70943862D01*
X62045421Y-71019625D01*
X62049055Y-71122862D01*
X62051131Y-71260014D01*
X62052029Y-71437524D01*
X62052161Y-71570850D01*
X62052200Y-72237600D01*
X62458600Y-72237600D01*
X62458600Y-70231000D01*
X62052200Y-70231000D01*
X62052200Y-70411385D01*
X61963352Y-70343617D01*
X61809050Y-70256451D01*
X61637661Y-70211935D01*
X61460000Y-70210274D01*
X61286885Y-70251667D01*
G37*
X61286885Y-70251667D02*
X61140507Y-70328245D01*
X61129567Y-70347976D01*
X61141297Y-70382904D01*
X61179656Y-70440245D01*
X61248601Y-70527214D01*
X61251768Y-70531067D01*
X61398422Y-70709333D01*
X61497877Y-70657494D01*
X61625157Y-70617120D01*
X61753232Y-70622107D01*
X61871024Y-70668990D01*
X61967457Y-70754304D01*
X62007711Y-70817005D01*
X62021374Y-70848993D01*
X62031960Y-70889132D01*
X62039849Y-70943862D01*
X62045421Y-71019625D01*
X62049055Y-71122862D01*
X62051131Y-71260014D01*
X62052029Y-71437524D01*
X62052161Y-71570850D01*
X62052200Y-72237600D01*
X62458600Y-72237600D01*
X62458600Y-70231000D01*
X62052200Y-70231000D01*
X62052200Y-70411385D01*
X61963352Y-70343617D01*
X61809050Y-70256451D01*
X61637661Y-70211935D01*
X61460000Y-70210274D01*
X61286885Y-70251667D01*
G36*
X65617069Y-70915655D02*
G01*
X65559502Y-71091281D01*
X65506307Y-71249006D01*
X65459584Y-71382966D01*
X65421431Y-71487296D01*
X65393948Y-71556130D01*
X65379235Y-71583605D01*
X65377976Y-71583586D01*
X65367017Y-71554815D01*
X65344921Y-71483678D01*
X65313628Y-71376896D01*
X65275077Y-71241191D01*
X65231208Y-71083285D01*
X65189256Y-70929500D01*
X65142378Y-70756703D01*
X65099432Y-70599340D01*
X65062321Y-70464301D01*
X65032946Y-70358476D01*
X65013206Y-70288757D01*
X65005319Y-70262750D01*
X64976730Y-70245063D01*
X64905049Y-70234649D01*
X64786732Y-70231013D01*
X64777265Y-70231000D01*
X64667546Y-70232968D01*
X64602033Y-70239544D01*
X64574260Y-70251734D01*
X64573231Y-70262750D01*
X64584374Y-70296059D01*
X64608238Y-70369629D01*
X64642199Y-70475292D01*
X64683631Y-70604882D01*
X64729910Y-70750233D01*
X64730376Y-70751700D01*
X64787098Y-70929973D01*
X64853457Y-71138167D01*
X64923566Y-71357833D01*
X64991539Y-71570522D01*
X65040421Y-71723250D01*
X65205185Y-72237600D01*
X65571457Y-72237600D01*
X65772569Y-71562945D01*
X65825572Y-71386678D01*
X65874500Y-71226878D01*
X65917348Y-71089869D01*
X65952107Y-70981975D01*
X65976771Y-70909520D01*
X65989333Y-70878829D01*
X65989860Y-70878292D01*
X66000963Y-70898984D01*
X66024258Y-70962390D01*
X66057768Y-71062437D01*
X66099519Y-71193054D01*
X66147536Y-71348169D01*
X66199844Y-71521710D01*
X66207238Y-71546596D01*
X66408438Y-72224900D01*
X66592887Y-72232370D01*
X66699119Y-72233544D01*
X66762032Y-72225932D01*
X66788489Y-72208645D01*
X66789182Y-72206970D01*
X66802646Y-72166822D01*
X66828722Y-72086603D01*
X66865424Y-71972575D01*
X66910764Y-71830997D01*
X66962756Y-71668132D01*
X67019414Y-71490240D01*
X67078750Y-71303583D01*
X67138778Y-71114420D01*
X67197511Y-70929015D01*
X67252963Y-70753626D01*
X67303148Y-70594517D01*
X67346077Y-70457946D01*
X67379766Y-70350177D01*
X67402227Y-70277469D01*
X67411473Y-70246085D01*
X67411600Y-70245369D01*
X67388152Y-70238859D01*
X67325604Y-70233887D01*
X67235650Y-70231236D01*
X67196894Y-70231000D01*
X66982188Y-70231000D01*
X66959686Y-70313550D01*
X66946878Y-70360764D01*
X66922962Y-70449141D01*
X66890071Y-70570796D01*
X66850333Y-70717846D01*
X66805881Y-70882408D01*
X66774342Y-70999204D01*
X66728965Y-71165420D01*
X66687431Y-71314071D01*
X66651668Y-71438531D01*
X66623606Y-71532172D01*
X66605176Y-71588369D01*
X66598800Y-71601958D01*
X66588082Y-71578668D01*
X66564123Y-71513069D01*
X66529001Y-71411290D01*
X66484793Y-71279458D01*
X66433573Y-71123701D01*
X66377420Y-70950147D01*
X66368603Y-70922654D01*
X66151105Y-70243700D01*
X65839225Y-70228638D01*
X65617069Y-70915655D01*
G37*
X65617069Y-70915655D02*
X65559502Y-71091281D01*
X65506307Y-71249006D01*
X65459584Y-71382966D01*
X65421431Y-71487296D01*
X65393948Y-71556130D01*
X65379235Y-71583605D01*
X65377976Y-71583586D01*
X65367017Y-71554815D01*
X65344921Y-71483678D01*
X65313628Y-71376896D01*
X65275077Y-71241191D01*
X65231208Y-71083285D01*
X65189256Y-70929500D01*
X65142378Y-70756703D01*
X65099432Y-70599340D01*
X65062321Y-70464301D01*
X65032946Y-70358476D01*
X65013206Y-70288757D01*
X65005319Y-70262750D01*
X64976730Y-70245063D01*
X64905049Y-70234649D01*
X64786732Y-70231013D01*
X64777265Y-70231000D01*
X64667546Y-70232968D01*
X64602033Y-70239544D01*
X64574260Y-70251734D01*
X64573231Y-70262750D01*
X64584374Y-70296059D01*
X64608238Y-70369629D01*
X64642199Y-70475292D01*
X64683631Y-70604882D01*
X64729910Y-70750233D01*
X64730376Y-70751700D01*
X64787098Y-70929973D01*
X64853457Y-71138167D01*
X64923566Y-71357833D01*
X64991539Y-71570522D01*
X65040421Y-71723250D01*
X65205185Y-72237600D01*
X65571457Y-72237600D01*
X65772569Y-71562945D01*
X65825572Y-71386678D01*
X65874500Y-71226878D01*
X65917348Y-71089869D01*
X65952107Y-70981975D01*
X65976771Y-70909520D01*
X65989333Y-70878829D01*
X65989860Y-70878292D01*
X66000963Y-70898984D01*
X66024258Y-70962390D01*
X66057768Y-71062437D01*
X66099519Y-71193054D01*
X66147536Y-71348169D01*
X66199844Y-71521710D01*
X66207238Y-71546596D01*
X66408438Y-72224900D01*
X66592887Y-72232370D01*
X66699119Y-72233544D01*
X66762032Y-72225932D01*
X66788489Y-72208645D01*
X66789182Y-72206970D01*
X66802646Y-72166822D01*
X66828722Y-72086603D01*
X66865424Y-71972575D01*
X66910764Y-71830997D01*
X66962756Y-71668132D01*
X67019414Y-71490240D01*
X67078750Y-71303583D01*
X67138778Y-71114420D01*
X67197511Y-70929015D01*
X67252963Y-70753626D01*
X67303148Y-70594517D01*
X67346077Y-70457946D01*
X67379766Y-70350177D01*
X67402227Y-70277469D01*
X67411473Y-70246085D01*
X67411600Y-70245369D01*
X67388152Y-70238859D01*
X67325604Y-70233887D01*
X67235650Y-70231236D01*
X67196894Y-70231000D01*
X66982188Y-70231000D01*
X66959686Y-70313550D01*
X66946878Y-70360764D01*
X66922962Y-70449141D01*
X66890071Y-70570796D01*
X66850333Y-70717846D01*
X66805881Y-70882408D01*
X66774342Y-70999204D01*
X66728965Y-71165420D01*
X66687431Y-71314071D01*
X66651668Y-71438531D01*
X66623606Y-71532172D01*
X66605176Y-71588369D01*
X66598800Y-71601958D01*
X66588082Y-71578668D01*
X66564123Y-71513069D01*
X66529001Y-71411290D01*
X66484793Y-71279458D01*
X66433573Y-71123701D01*
X66377420Y-70950147D01*
X66368603Y-70922654D01*
X66151105Y-70243700D01*
X65839225Y-70228638D01*
X65617069Y-70915655D01*
G36*
X69453731Y-70245593D02*
G01*
X69399150Y-70268179D01*
X69327304Y-70304967D01*
X69278891Y-70336147D01*
X69265800Y-70351308D01*
X69281032Y-70379151D01*
X69321687Y-70435399D01*
X69380211Y-70509819D01*
X69406573Y-70541951D01*
X69547345Y-70711548D01*
X69628823Y-70661869D01*
X69748424Y-70616296D01*
X69873299Y-70615105D01*
X69991644Y-70654836D01*
X70091656Y-70732028D01*
X70148450Y-70814231D01*
X70165886Y-70850892D01*
X70179363Y-70887761D01*
X70189391Y-70931669D01*
X70196478Y-70989452D01*
X70201132Y-71067940D01*
X70203861Y-71173969D01*
X70205174Y-71314371D01*
X70205579Y-71495978D01*
X70205600Y-71582581D01*
X70205600Y-72237600D01*
X70612000Y-72237600D01*
X70612000Y-70231000D01*
X70205600Y-70231000D01*
X70205600Y-70438158D01*
X70104193Y-70351357D01*
X69961311Y-70261136D01*
X69798241Y-70212605D01*
X69625532Y-70207010D01*
X69453731Y-70245593D01*
G37*
X69453731Y-70245593D02*
X69399150Y-70268179D01*
X69327304Y-70304967D01*
X69278891Y-70336147D01*
X69265800Y-70351308D01*
X69281032Y-70379151D01*
X69321687Y-70435399D01*
X69380211Y-70509819D01*
X69406573Y-70541951D01*
X69547345Y-70711548D01*
X69628823Y-70661869D01*
X69748424Y-70616296D01*
X69873299Y-70615105D01*
X69991644Y-70654836D01*
X70091656Y-70732028D01*
X70148450Y-70814231D01*
X70165886Y-70850892D01*
X70179363Y-70887761D01*
X70189391Y-70931669D01*
X70196478Y-70989452D01*
X70201132Y-71067940D01*
X70203861Y-71173969D01*
X70205174Y-71314371D01*
X70205579Y-71495978D01*
X70205600Y-71582581D01*
X70205600Y-72237600D01*
X70612000Y-72237600D01*
X70612000Y-70231000D01*
X70205600Y-70231000D01*
X70205600Y-70438158D01*
X70104193Y-70351357D01*
X69961311Y-70261136D01*
X69798241Y-70212605D01*
X69625532Y-70207010D01*
X69453731Y-70245593D01*
G36*
X73542158Y-67025381D02*
G01*
X73383776Y-67067259D01*
X73241807Y-67146085D01*
X73123645Y-67259456D01*
X73036683Y-67404967D01*
X73009474Y-67481063D01*
X72991699Y-67573899D01*
X72978865Y-67704879D01*
X72970976Y-67861626D01*
X72968036Y-68031765D01*
X72970048Y-68202917D01*
X72977016Y-68362706D01*
X72988943Y-68498755D01*
X73005835Y-68598687D01*
X73009133Y-68610963D01*
X73080034Y-68769350D01*
X73188068Y-68899871D01*
X73325145Y-68997797D01*
X73483170Y-69058397D01*
X73654053Y-69076940D01*
X73780149Y-69061673D01*
X73870393Y-69031742D01*
X73972870Y-68983417D01*
X74034650Y-68946893D01*
X74168001Y-68858881D01*
X74168000Y-69635339D01*
X74167601Y-69861754D01*
X74166283Y-70041667D01*
X74163865Y-70179372D01*
X74160169Y-70279162D01*
X74155015Y-70345329D01*
X74148222Y-70382166D01*
X74139610Y-70393968D01*
X74136250Y-70393048D01*
X74095217Y-70366109D01*
X74036544Y-70324830D01*
X74028300Y-70318857D01*
X73882979Y-70242935D01*
X73719861Y-70207291D01*
X73550845Y-70210986D01*
X73387834Y-70253081D01*
X73242725Y-70332640D01*
X73181121Y-70385656D01*
X73129556Y-70438082D01*
X73088037Y-70485481D01*
X73055417Y-70533946D01*
X73030548Y-70589566D01*
X73012285Y-70658435D01*
X72999480Y-70746643D01*
X72990987Y-70860281D01*
X72985658Y-71005441D01*
X72982347Y-71188214D01*
X72979908Y-71414692D01*
X72979511Y-71456550D01*
X72972121Y-72237600D01*
X73380600Y-72237600D01*
X73380640Y-71570850D01*
X73381182Y-71350368D01*
X73383495Y-71174544D01*
X73388653Y-71037239D01*
X73397731Y-70932317D01*
X73411804Y-70853638D01*
X73431946Y-70795066D01*
X73459231Y-70750463D01*
X73494735Y-70713690D01*
X73536449Y-70680862D01*
X73647658Y-70628495D01*
X73773211Y-70615236D01*
X73899125Y-70638431D01*
X74011415Y-70695429D01*
X74096098Y-70783575D01*
X74098584Y-70787502D01*
X74115622Y-70816941D01*
X74128962Y-70848251D01*
X74139148Y-70887904D01*
X74146720Y-70942371D01*
X74152223Y-71018123D01*
X74156197Y-71121630D01*
X74159185Y-71259363D01*
X74161729Y-71437793D01*
X74163165Y-71558150D01*
X74171030Y-72237600D01*
X74574400Y-72237600D01*
X74574400Y-68098457D01*
X74169624Y-68098457D01*
X74156090Y-68260126D01*
X74124439Y-68404901D01*
X74074594Y-68520018D01*
X74050237Y-68554084D01*
X73966600Y-68617501D01*
X73854998Y-68653745D01*
X73731367Y-68661200D01*
X73611645Y-68638253D01*
X73542309Y-68605542D01*
X73486992Y-68563469D01*
X73446907Y-68511760D01*
X73419775Y-68442063D01*
X73403318Y-68346026D01*
X73395258Y-68215297D01*
X73393300Y-68059300D01*
X73394459Y-67907904D01*
X73398609Y-67797352D01*
X73406767Y-67717726D01*
X73419947Y-67659107D01*
X73439089Y-67611729D01*
X73505788Y-67518632D01*
X73597987Y-67462358D01*
X73721760Y-67440143D01*
X73812346Y-67441913D01*
X73904664Y-67451271D01*
X73963994Y-67467670D01*
X74008147Y-67498497D01*
X74044127Y-67538050D01*
X74102293Y-67639688D01*
X74142649Y-67775476D01*
X74165118Y-67932653D01*
X74169624Y-68098457D01*
X74574400Y-68098457D01*
X74574400Y-67030600D01*
X74168000Y-67030600D01*
X74168000Y-67130482D01*
X74168001Y-67230364D01*
X74041845Y-67145468D01*
X73878586Y-67062082D01*
X73709559Y-67022854D01*
X73542158Y-67025381D01*
G37*
X73542158Y-67025381D02*
X73383776Y-67067259D01*
X73241807Y-67146085D01*
X73123645Y-67259456D01*
X73036683Y-67404967D01*
X73009474Y-67481063D01*
X72991699Y-67573899D01*
X72978865Y-67704879D01*
X72970976Y-67861626D01*
X72968036Y-68031765D01*
X72970048Y-68202917D01*
X72977016Y-68362706D01*
X72988943Y-68498755D01*
X73005835Y-68598687D01*
X73009133Y-68610963D01*
X73080034Y-68769350D01*
X73188068Y-68899871D01*
X73325145Y-68997797D01*
X73483170Y-69058397D01*
X73654053Y-69076940D01*
X73780149Y-69061673D01*
X73870393Y-69031742D01*
X73972870Y-68983417D01*
X74034650Y-68946893D01*
X74168001Y-68858881D01*
X74168000Y-69635339D01*
X74167601Y-69861754D01*
X74166283Y-70041667D01*
X74163865Y-70179372D01*
X74160169Y-70279162D01*
X74155015Y-70345329D01*
X74148222Y-70382166D01*
X74139610Y-70393968D01*
X74136250Y-70393048D01*
X74095217Y-70366109D01*
X74036544Y-70324830D01*
X74028300Y-70318857D01*
X73882979Y-70242935D01*
X73719861Y-70207291D01*
X73550845Y-70210986D01*
X73387834Y-70253081D01*
X73242725Y-70332640D01*
X73181121Y-70385656D01*
X73129556Y-70438082D01*
X73088037Y-70485481D01*
X73055417Y-70533946D01*
X73030548Y-70589566D01*
X73012285Y-70658435D01*
X72999480Y-70746643D01*
X72990987Y-70860281D01*
X72985658Y-71005441D01*
X72982347Y-71188214D01*
X72979908Y-71414692D01*
X72979511Y-71456550D01*
X72972121Y-72237600D01*
X73380600Y-72237600D01*
X73380640Y-71570850D01*
X73381182Y-71350368D01*
X73383495Y-71174544D01*
X73388653Y-71037239D01*
X73397731Y-70932317D01*
X73411804Y-70853638D01*
X73431946Y-70795066D01*
X73459231Y-70750463D01*
X73494735Y-70713690D01*
X73536449Y-70680862D01*
X73647658Y-70628495D01*
X73773211Y-70615236D01*
X73899125Y-70638431D01*
X74011415Y-70695429D01*
X74096098Y-70783575D01*
X74098584Y-70787502D01*
X74115622Y-70816941D01*
X74128962Y-70848251D01*
X74139148Y-70887904D01*
X74146720Y-70942371D01*
X74152223Y-71018123D01*
X74156197Y-71121630D01*
X74159185Y-71259363D01*
X74161729Y-71437793D01*
X74163165Y-71558150D01*
X74171030Y-72237600D01*
X74574400Y-72237600D01*
X74574400Y-68098457D01*
X74169624Y-68098457D01*
X74156090Y-68260126D01*
X74124439Y-68404901D01*
X74074594Y-68520018D01*
X74050237Y-68554084D01*
X73966600Y-68617501D01*
X73854998Y-68653745D01*
X73731367Y-68661200D01*
X73611645Y-68638253D01*
X73542309Y-68605542D01*
X73486992Y-68563469D01*
X73446907Y-68511760D01*
X73419775Y-68442063D01*
X73403318Y-68346026D01*
X73395258Y-68215297D01*
X73393300Y-68059300D01*
X73394459Y-67907904D01*
X73398609Y-67797352D01*
X73406767Y-67717726D01*
X73419947Y-67659107D01*
X73439089Y-67611729D01*
X73505788Y-67518632D01*
X73597987Y-67462358D01*
X73721760Y-67440143D01*
X73812346Y-67441913D01*
X73904664Y-67451271D01*
X73963994Y-67467670D01*
X74008147Y-67498497D01*
X74044127Y-67538050D01*
X74102293Y-67639688D01*
X74142649Y-67775476D01*
X74165118Y-67932653D01*
X74169624Y-68098457D01*
X74574400Y-68098457D01*
X74574400Y-67030600D01*
X74168000Y-67030600D01*
X74168000Y-67130482D01*
X74168001Y-67230364D01*
X74041845Y-67145468D01*
X73878586Y-67062082D01*
X73709559Y-67022854D01*
X73542158Y-67025381D01*
G36*
X60109042Y-70219909D02*
G01*
X59920634Y-70272744D01*
X59758354Y-70368508D01*
X59623995Y-70506197D01*
X59534911Y-70651713D01*
X59497799Y-70731224D01*
X59472967Y-70799833D01*
X59457350Y-70872454D01*
X59447879Y-70964002D01*
X59441490Y-71089394D01*
X59440685Y-71110006D01*
X59429608Y-71399400D01*
X60687289Y-71399400D01*
X60673105Y-71505150D01*
X60631530Y-71634168D01*
X60549091Y-71743620D01*
X60434504Y-71825004D01*
X60299945Y-71869241D01*
X60187219Y-71870164D01*
X60058249Y-71844259D01*
X59935358Y-71797758D01*
X59847855Y-71742991D01*
X59773731Y-71680620D01*
X59636616Y-71797122D01*
X59567753Y-71857297D01*
X59516176Y-71905498D01*
X59492488Y-71931790D01*
X59492192Y-71932438D01*
X59505049Y-71962984D01*
X59551819Y-72010193D01*
X59622050Y-72065979D01*
X59705292Y-72122253D01*
X59791094Y-72170931D01*
X59815841Y-72182876D01*
X59942184Y-72224481D01*
X60094651Y-72250260D01*
X60253889Y-72258890D01*
X60400542Y-72249048D01*
X60490100Y-72228926D01*
X60653421Y-72162632D01*
X60780571Y-72079595D01*
X60885841Y-71968948D01*
X60946207Y-71882000D01*
X61021448Y-71723487D01*
X61072099Y-71531042D01*
X61096207Y-71316209D01*
X61091815Y-71090534D01*
X61087565Y-71047083D01*
X61086934Y-71043800D01*
X60687289Y-71043800D01*
X59843670Y-71043800D01*
X59859402Y-70961250D01*
X59908367Y-70811174D01*
X59988989Y-70697433D01*
X60097439Y-70623183D01*
X60229892Y-70591581D01*
X60305972Y-70592952D01*
X60444946Y-70629072D01*
X60557078Y-70704420D01*
X60635742Y-70812767D01*
X60673105Y-70938049D01*
X60687289Y-71043800D01*
X61086934Y-71043800D01*
X61042645Y-70813704D01*
X60964425Y-70615972D01*
X60854340Y-70455454D01*
X60713824Y-70333717D01*
X60544315Y-70252329D01*
X60347248Y-70212857D01*
X60321784Y-70211009D01*
X60109042Y-70219909D01*
G37*
X60109042Y-70219909D02*
X59920634Y-70272744D01*
X59758354Y-70368508D01*
X59623995Y-70506197D01*
X59534911Y-70651713D01*
X59497799Y-70731224D01*
X59472967Y-70799833D01*
X59457350Y-70872454D01*
X59447879Y-70964002D01*
X59441490Y-71089394D01*
X59440685Y-71110006D01*
X59429608Y-71399400D01*
X60687289Y-71399400D01*
X60673105Y-71505150D01*
X60631530Y-71634168D01*
X60549091Y-71743620D01*
X60434504Y-71825004D01*
X60299945Y-71869241D01*
X60187219Y-71870164D01*
X60058249Y-71844259D01*
X59935358Y-71797758D01*
X59847855Y-71742991D01*
X59773731Y-71680620D01*
X59636616Y-71797122D01*
X59567753Y-71857297D01*
X59516176Y-71905498D01*
X59492488Y-71931790D01*
X59492192Y-71932438D01*
X59505049Y-71962984D01*
X59551819Y-72010193D01*
X59622050Y-72065979D01*
X59705292Y-72122253D01*
X59791094Y-72170931D01*
X59815841Y-72182876D01*
X59942184Y-72224481D01*
X60094651Y-72250260D01*
X60253889Y-72258890D01*
X60400542Y-72249048D01*
X60490100Y-72228926D01*
X60653421Y-72162632D01*
X60780571Y-72079595D01*
X60885841Y-71968948D01*
X60946207Y-71882000D01*
X61021448Y-71723487D01*
X61072099Y-71531042D01*
X61096207Y-71316209D01*
X61091815Y-71090534D01*
X61087565Y-71047083D01*
X61086934Y-71043800D01*
X60687289Y-71043800D01*
X59843670Y-71043800D01*
X59859402Y-70961250D01*
X59908367Y-70811174D01*
X59988989Y-70697433D01*
X60097439Y-70623183D01*
X60229892Y-70591581D01*
X60305972Y-70592952D01*
X60444946Y-70629072D01*
X60557078Y-70704420D01*
X60635742Y-70812767D01*
X60673105Y-70938049D01*
X60687289Y-71043800D01*
X61086934Y-71043800D01*
X61042645Y-70813704D01*
X60964425Y-70615972D01*
X60854340Y-70455454D01*
X60713824Y-70333717D01*
X60544315Y-70252329D01*
X60347248Y-70212857D01*
X60321784Y-70211009D01*
X60109042Y-70219909D01*
G36*
X63607777Y-70211017D02*
G01*
X63446605Y-70229837D01*
X63363299Y-70248454D01*
X63227973Y-70305393D01*
X63105765Y-70391670D01*
X63008633Y-70496561D01*
X62948535Y-70609338D01*
X62943878Y-70624700D01*
X62935282Y-70683210D01*
X62928089Y-70788287D01*
X62922438Y-70935713D01*
X62918464Y-71121272D01*
X62916307Y-71340745D01*
X62915942Y-71481950D01*
X62915800Y-72237600D01*
X63322200Y-72237600D01*
X63322200Y-72080684D01*
X63399189Y-72145465D01*
X63477781Y-72197036D01*
X63564624Y-72234728D01*
X63570639Y-72236482D01*
X63695710Y-72256931D01*
X63843823Y-72260152D01*
X63991249Y-72246971D01*
X64114257Y-72218212D01*
X64116279Y-72217493D01*
X64277705Y-72135804D01*
X64402505Y-72022903D01*
X64487561Y-71884750D01*
X64529756Y-71727301D01*
X64527697Y-71634350D01*
X64134193Y-71634350D01*
X64113572Y-71733959D01*
X64054712Y-71807215D01*
X63976897Y-71842264D01*
X63906051Y-71858051D01*
X63868300Y-71866912D01*
X63794188Y-71874408D01*
X63695362Y-71871374D01*
X63590285Y-71859888D01*
X63497423Y-71842029D01*
X63435240Y-71819875D01*
X63431868Y-71817800D01*
X63369786Y-71755732D01*
X63334277Y-71664132D01*
X63322244Y-71534726D01*
X63322200Y-71524746D01*
X63322200Y-71399400D01*
X63641370Y-71399400D01*
X63814004Y-71402935D01*
X63942291Y-71415477D01*
X64032316Y-71439925D01*
X64090167Y-71479181D01*
X64121927Y-71536147D01*
X64133682Y-71613723D01*
X64134193Y-71634350D01*
X64527697Y-71634350D01*
X64525972Y-71556516D01*
X64506802Y-71471184D01*
X64437551Y-71320569D01*
X64326773Y-71197869D01*
X64185800Y-71110155D01*
X64131054Y-71088399D01*
X64069263Y-71072744D01*
X63990109Y-71061884D01*
X63883274Y-71054513D01*
X63738439Y-71049324D01*
X63696850Y-71048258D01*
X63322200Y-71039140D01*
X63322200Y-70891884D01*
X63329565Y-70783006D01*
X63353236Y-70712439D01*
X63366650Y-70693873D01*
X63445046Y-70637987D01*
X63555422Y-70602160D01*
X63683791Y-70586343D01*
X63816167Y-70590485D01*
X63938563Y-70614537D01*
X64036992Y-70658450D01*
X64080500Y-70696410D01*
X64101952Y-70714806D01*
X64129211Y-70714247D01*
X64172561Y-70690616D01*
X64242288Y-70639793D01*
X64264650Y-70622660D01*
X64336980Y-70564380D01*
X64390123Y-70516558D01*
X64413974Y-70488384D01*
X64414400Y-70486471D01*
X64393550Y-70447328D01*
X64339266Y-70395263D01*
X64263951Y-70339258D01*
X64180009Y-70288292D01*
X64099842Y-70251347D01*
X64081104Y-70245133D01*
X63945058Y-70218573D01*
X63780605Y-70207232D01*
X63607777Y-70211017D01*
G37*
X63607777Y-70211017D02*
X63446605Y-70229837D01*
X63363299Y-70248454D01*
X63227973Y-70305393D01*
X63105765Y-70391670D01*
X63008633Y-70496561D01*
X62948535Y-70609338D01*
X62943878Y-70624700D01*
X62935282Y-70683210D01*
X62928089Y-70788287D01*
X62922438Y-70935713D01*
X62918464Y-71121272D01*
X62916307Y-71340745D01*
X62915942Y-71481950D01*
X62915800Y-72237600D01*
X63322200Y-72237600D01*
X63322200Y-72080684D01*
X63399189Y-72145465D01*
X63477781Y-72197036D01*
X63564624Y-72234728D01*
X63570639Y-72236482D01*
X63695710Y-72256931D01*
X63843823Y-72260152D01*
X63991249Y-72246971D01*
X64114257Y-72218212D01*
X64116279Y-72217493D01*
X64277705Y-72135804D01*
X64402505Y-72022903D01*
X64487561Y-71884750D01*
X64529756Y-71727301D01*
X64527697Y-71634350D01*
X64134193Y-71634350D01*
X64113572Y-71733959D01*
X64054712Y-71807215D01*
X63976897Y-71842264D01*
X63906051Y-71858051D01*
X63868300Y-71866912D01*
X63794188Y-71874408D01*
X63695362Y-71871374D01*
X63590285Y-71859888D01*
X63497423Y-71842029D01*
X63435240Y-71819875D01*
X63431868Y-71817800D01*
X63369786Y-71755732D01*
X63334277Y-71664132D01*
X63322244Y-71534726D01*
X63322200Y-71524746D01*
X63322200Y-71399400D01*
X63641370Y-71399400D01*
X63814004Y-71402935D01*
X63942291Y-71415477D01*
X64032316Y-71439925D01*
X64090167Y-71479181D01*
X64121927Y-71536147D01*
X64133682Y-71613723D01*
X64134193Y-71634350D01*
X64527697Y-71634350D01*
X64525972Y-71556516D01*
X64506802Y-71471184D01*
X64437551Y-71320569D01*
X64326773Y-71197869D01*
X64185800Y-71110155D01*
X64131054Y-71088399D01*
X64069263Y-71072744D01*
X63990109Y-71061884D01*
X63883274Y-71054513D01*
X63738439Y-71049324D01*
X63696850Y-71048258D01*
X63322200Y-71039140D01*
X63322200Y-70891884D01*
X63329565Y-70783006D01*
X63353236Y-70712439D01*
X63366650Y-70693873D01*
X63445046Y-70637987D01*
X63555422Y-70602160D01*
X63683791Y-70586343D01*
X63816167Y-70590485D01*
X63938563Y-70614537D01*
X64036992Y-70658450D01*
X64080500Y-70696410D01*
X64101952Y-70714806D01*
X64129211Y-70714247D01*
X64172561Y-70690616D01*
X64242288Y-70639793D01*
X64264650Y-70622660D01*
X64336980Y-70564380D01*
X64390123Y-70516558D01*
X64413974Y-70488384D01*
X64414400Y-70486471D01*
X64393550Y-70447328D01*
X64339266Y-70395263D01*
X64263951Y-70339258D01*
X64180009Y-70288292D01*
X64099842Y-70251347D01*
X64081104Y-70245133D01*
X63945058Y-70218573D01*
X63780605Y-70207232D01*
X63607777Y-70211017D01*
G36*
X67640200Y-72237600D02*
G01*
X68046600Y-72237600D01*
X68046600Y-72148700D01*
X68053337Y-72082079D01*
X68075680Y-72063322D01*
X68116827Y-72091031D01*
X68135019Y-72110067D01*
X68201554Y-72159002D01*
X68301055Y-72204218D01*
X68415744Y-72239613D01*
X68527842Y-72259082D01*
X68574603Y-72260994D01*
X68675466Y-72251087D01*
X68776844Y-72228982D01*
X68798813Y-72221924D01*
X68933455Y-72151347D01*
X69056784Y-72045180D01*
X69152256Y-71918361D01*
X69168318Y-71888282D01*
X69188405Y-71844954D01*
X69203374Y-71802563D01*
X69213972Y-71753011D01*
X69220951Y-71688198D01*
X69225060Y-71600027D01*
X69227049Y-71480399D01*
X69227531Y-71356427D01*
X68830257Y-71356427D01*
X68811781Y-71527338D01*
X68772384Y-71657898D01*
X68710907Y-71751567D01*
X68626192Y-71811805D01*
X68601125Y-71822091D01*
X68467956Y-71851961D01*
X68342909Y-71837266D01*
X68260181Y-71804677D01*
X68187057Y-71761952D01*
X68133604Y-71709610D01*
X68096963Y-71639527D01*
X68074274Y-71543585D01*
X68062677Y-71413660D01*
X68059312Y-71241633D01*
X68059308Y-71234300D01*
X68060359Y-71092139D01*
X68064418Y-70989682D01*
X68072831Y-70915859D01*
X68086945Y-70859600D01*
X68108108Y-70809837D01*
X68111844Y-70802500D01*
X68187521Y-70705310D01*
X68289052Y-70642067D01*
X68405242Y-70612898D01*
X68524897Y-70617929D01*
X68636822Y-70657286D01*
X68729822Y-70731097D01*
X68773491Y-70795026D01*
X68800238Y-70874621D01*
X68818856Y-70996908D01*
X68828971Y-71141705D01*
X68830257Y-71356427D01*
X69227531Y-71356427D01*
X69227668Y-71321215D01*
X69227700Y-71247000D01*
X69226487Y-71039293D01*
X69221610Y-70874834D01*
X69211209Y-70746100D01*
X69193427Y-70645572D01*
X69166406Y-70565729D01*
X69128288Y-70499049D01*
X69077214Y-70438013D01*
X69012557Y-70376203D01*
X68884400Y-70281514D01*
X68748797Y-70226894D01*
X68589616Y-70206380D01*
X68551654Y-70205848D01*
X68440100Y-70218610D01*
X68322069Y-70252052D01*
X68215326Y-70299460D01*
X68137636Y-70354123D01*
X68126040Y-70366657D01*
X68088826Y-70400756D01*
X68069427Y-70408800D01*
X68062445Y-70384675D01*
X68055692Y-70317403D01*
X68049605Y-70214634D01*
X68044620Y-70084022D01*
X68041175Y-69933217D01*
X68040787Y-69907150D01*
X68033900Y-69405500D01*
X67837050Y-69398081D01*
X67640200Y-69390663D01*
X67640200Y-72237600D01*
G37*
X67640200Y-72237600D02*
X68046600Y-72237600D01*
X68046600Y-72148700D01*
X68053337Y-72082079D01*
X68075680Y-72063322D01*
X68116827Y-72091031D01*
X68135019Y-72110067D01*
X68201554Y-72159002D01*
X68301055Y-72204218D01*
X68415744Y-72239613D01*
X68527842Y-72259082D01*
X68574603Y-72260994D01*
X68675466Y-72251087D01*
X68776844Y-72228982D01*
X68798813Y-72221924D01*
X68933455Y-72151347D01*
X69056784Y-72045180D01*
X69152256Y-71918361D01*
X69168318Y-71888282D01*
X69188405Y-71844954D01*
X69203374Y-71802563D01*
X69213972Y-71753011D01*
X69220951Y-71688198D01*
X69225060Y-71600027D01*
X69227049Y-71480399D01*
X69227531Y-71356427D01*
X68830257Y-71356427D01*
X68811781Y-71527338D01*
X68772384Y-71657898D01*
X68710907Y-71751567D01*
X68626192Y-71811805D01*
X68601125Y-71822091D01*
X68467956Y-71851961D01*
X68342909Y-71837266D01*
X68260181Y-71804677D01*
X68187057Y-71761952D01*
X68133604Y-71709610D01*
X68096963Y-71639527D01*
X68074274Y-71543585D01*
X68062677Y-71413660D01*
X68059312Y-71241633D01*
X68059308Y-71234300D01*
X68060359Y-71092139D01*
X68064418Y-70989682D01*
X68072831Y-70915859D01*
X68086945Y-70859600D01*
X68108108Y-70809837D01*
X68111844Y-70802500D01*
X68187521Y-70705310D01*
X68289052Y-70642067D01*
X68405242Y-70612898D01*
X68524897Y-70617929D01*
X68636822Y-70657286D01*
X68729822Y-70731097D01*
X68773491Y-70795026D01*
X68800238Y-70874621D01*
X68818856Y-70996908D01*
X68828971Y-71141705D01*
X68830257Y-71356427D01*
X69227531Y-71356427D01*
X69227668Y-71321215D01*
X69227700Y-71247000D01*
X69226487Y-71039293D01*
X69221610Y-70874834D01*
X69211209Y-70746100D01*
X69193427Y-70645572D01*
X69166406Y-70565729D01*
X69128288Y-70499049D01*
X69077214Y-70438013D01*
X69012557Y-70376203D01*
X68884400Y-70281514D01*
X68748797Y-70226894D01*
X68589616Y-70206380D01*
X68551654Y-70205848D01*
X68440100Y-70218610D01*
X68322069Y-70252052D01*
X68215326Y-70299460D01*
X68137636Y-70354123D01*
X68126040Y-70366657D01*
X68088826Y-70400756D01*
X68069427Y-70408800D01*
X68062445Y-70384675D01*
X68055692Y-70317403D01*
X68049605Y-70214634D01*
X68044620Y-70084022D01*
X68041175Y-69933217D01*
X68040787Y-69907150D01*
X68033900Y-69405500D01*
X67837050Y-69398081D01*
X67640200Y-69390663D01*
X67640200Y-72237600D01*
G36*
X71804682Y-70210632D02*
G01*
X71672496Y-70217902D01*
X71575730Y-70228944D01*
X71499009Y-70246769D01*
X71426959Y-70274388D01*
X71389771Y-70291885D01*
X71249117Y-70382431D01*
X71148193Y-70499923D01*
X71093566Y-70612000D01*
X71082575Y-70658910D01*
X71073311Y-70738679D01*
X71065592Y-70854863D01*
X71059237Y-71011019D01*
X71054062Y-71210703D01*
X71049888Y-71457470D01*
X71049727Y-71469250D01*
X71039339Y-72237600D01*
X71475600Y-72237600D01*
X71475600Y-72080684D01*
X71552589Y-72145465D01*
X71631181Y-72197036D01*
X71718024Y-72234728D01*
X71724039Y-72236482D01*
X71842796Y-72255931D01*
X71985073Y-72259737D01*
X72126221Y-72248392D01*
X72229366Y-72226436D01*
X72393373Y-72153181D01*
X72526108Y-72048421D01*
X72620946Y-71918221D01*
X72654894Y-71836893D01*
X72676839Y-71696422D01*
X72672050Y-71641294D01*
X72287053Y-71641294D01*
X72259024Y-71727161D01*
X72196540Y-71800205D01*
X72103804Y-71849777D01*
X72071059Y-71858408D01*
X71992833Y-71867258D01*
X71888735Y-71869625D01*
X71776853Y-71866172D01*
X71675272Y-71857560D01*
X71602081Y-71844451D01*
X71591093Y-71840842D01*
X71537804Y-71795038D01*
X71498759Y-71709938D01*
X71477950Y-71596006D01*
X71475600Y-71538393D01*
X71475600Y-71395464D01*
X71816533Y-71403782D01*
X71955352Y-71407721D01*
X72053043Y-71412715D01*
X72119276Y-71420425D01*
X72163717Y-71432514D01*
X72196036Y-71450646D01*
X72222933Y-71473677D01*
X72276424Y-71553250D01*
X72287053Y-71641294D01*
X72672050Y-71641294D01*
X72663586Y-71543888D01*
X72619244Y-71395882D01*
X72547921Y-71268992D01*
X72501253Y-71216597D01*
X72433098Y-71159985D01*
X72360676Y-71118043D01*
X72274608Y-71088355D01*
X72165515Y-71068508D01*
X72024020Y-71056084D01*
X71850250Y-71048935D01*
X71475600Y-71038263D01*
X71475600Y-70899661D01*
X71480529Y-70811448D01*
X71493132Y-70737710D01*
X71503045Y-70709779D01*
X71559733Y-70652971D01*
X71654869Y-70611429D01*
X71777354Y-70589212D01*
X71839910Y-70586600D01*
X71981695Y-70592532D01*
X72085568Y-70612312D01*
X72163240Y-70648915D01*
X72199836Y-70678035D01*
X72264393Y-70737865D01*
X72416097Y-70620056D01*
X72488795Y-70561220D01*
X72542485Y-70513229D01*
X72567198Y-70485096D01*
X72567800Y-70482903D01*
X72550001Y-70457028D01*
X72504126Y-70410734D01*
X72460532Y-70371741D01*
X72353474Y-70296213D01*
X72232943Y-70245389D01*
X72089072Y-70216844D01*
X71911994Y-70208156D01*
X71804682Y-70210632D01*
G37*
X71804682Y-70210632D02*
X71672496Y-70217902D01*
X71575730Y-70228944D01*
X71499009Y-70246769D01*
X71426959Y-70274388D01*
X71389771Y-70291885D01*
X71249117Y-70382431D01*
X71148193Y-70499923D01*
X71093566Y-70612000D01*
X71082575Y-70658910D01*
X71073311Y-70738679D01*
X71065592Y-70854863D01*
X71059237Y-71011019D01*
X71054062Y-71210703D01*
X71049888Y-71457470D01*
X71049727Y-71469250D01*
X71039339Y-72237600D01*
X71475600Y-72237600D01*
X71475600Y-72080684D01*
X71552589Y-72145465D01*
X71631181Y-72197036D01*
X71718024Y-72234728D01*
X71724039Y-72236482D01*
X71842796Y-72255931D01*
X71985073Y-72259737D01*
X72126221Y-72248392D01*
X72229366Y-72226436D01*
X72393373Y-72153181D01*
X72526108Y-72048421D01*
X72620946Y-71918221D01*
X72654894Y-71836893D01*
X72676839Y-71696422D01*
X72672050Y-71641294D01*
X72287053Y-71641294D01*
X72259024Y-71727161D01*
X72196540Y-71800205D01*
X72103804Y-71849777D01*
X72071059Y-71858408D01*
X71992833Y-71867258D01*
X71888735Y-71869625D01*
X71776853Y-71866172D01*
X71675272Y-71857560D01*
X71602081Y-71844451D01*
X71591093Y-71840842D01*
X71537804Y-71795038D01*
X71498759Y-71709938D01*
X71477950Y-71596006D01*
X71475600Y-71538393D01*
X71475600Y-71395464D01*
X71816533Y-71403782D01*
X71955352Y-71407721D01*
X72053043Y-71412715D01*
X72119276Y-71420425D01*
X72163717Y-71432514D01*
X72196036Y-71450646D01*
X72222933Y-71473677D01*
X72276424Y-71553250D01*
X72287053Y-71641294D01*
X72672050Y-71641294D01*
X72663586Y-71543888D01*
X72619244Y-71395882D01*
X72547921Y-71268992D01*
X72501253Y-71216597D01*
X72433098Y-71159985D01*
X72360676Y-71118043D01*
X72274608Y-71088355D01*
X72165515Y-71068508D01*
X72024020Y-71056084D01*
X71850250Y-71048935D01*
X71475600Y-71038263D01*
X71475600Y-70899661D01*
X71480529Y-70811448D01*
X71493132Y-70737710D01*
X71503045Y-70709779D01*
X71559733Y-70652971D01*
X71654869Y-70611429D01*
X71777354Y-70589212D01*
X71839910Y-70586600D01*
X71981695Y-70592532D01*
X72085568Y-70612312D01*
X72163240Y-70648915D01*
X72199836Y-70678035D01*
X72264393Y-70737865D01*
X72416097Y-70620056D01*
X72488795Y-70561220D01*
X72542485Y-70513229D01*
X72567198Y-70485096D01*
X72567800Y-70482903D01*
X72550001Y-70457028D01*
X72504126Y-70410734D01*
X72460532Y-70371741D01*
X72353474Y-70296213D01*
X72232943Y-70245389D01*
X72089072Y-70216844D01*
X71911994Y-70208156D01*
X71804682Y-70210632D01*
D12*
X73966336Y-38058250D02*
X74420464Y-38058250D01*
X73966336Y-39528250D02*
X74420464Y-39528250D01*
X68505336Y-39528250D02*
X68959464Y-39528250D01*
X68505336Y-38058250D02*
X68959464Y-38058250D01*
X68505336Y-36360000D02*
X68959464Y-36360000D01*
X68505336Y-34890000D02*
X68959464Y-34890000D01*
X32387000Y-36405000D02*
X32387000Y-35475000D01*
X32387000Y-33245000D02*
X32387000Y-34175000D01*
X32387000Y-33245000D02*
X34547000Y-33245000D01*
X32387000Y-36405000D02*
X33847000Y-36405000D01*
X32387000Y-49078000D02*
X32387000Y-48148000D01*
X32387000Y-45918000D02*
X32387000Y-46848000D01*
X32387000Y-45918000D02*
X34547000Y-45918000D01*
X32387000Y-49078000D02*
X33847000Y-49078000D01*
X32387000Y-42728000D02*
X32387000Y-41798000D01*
X32387000Y-39568000D02*
X32387000Y-40498000D01*
X32387000Y-39568000D02*
X34547000Y-39568000D01*
X32387000Y-42728000D02*
X33847000Y-42728000D01*
X35914064Y-28286000D02*
X35459936Y-28286000D01*
X35914064Y-29756000D02*
X35459936Y-29756000D01*
X38454064Y-34890000D02*
X37999936Y-34890000D01*
X38454064Y-36360000D02*
X37999936Y-36360000D01*
X38454064Y-41213000D02*
X37999936Y-41213000D01*
X38454064Y-42683000D02*
X37999936Y-42683000D01*
X38454064Y-47563000D02*
X37999936Y-47563000D01*
X38454064Y-49033000D02*
X37999936Y-49033000D01*
X43788064Y-47563000D02*
X43333936Y-47563000D01*
X43788064Y-49033000D02*
X43333936Y-49033000D01*
X43788064Y-41213000D02*
X43333936Y-41213000D01*
X43788064Y-42683000D02*
X43333936Y-42683000D01*
X43788064Y-34890000D02*
X43333936Y-34890000D01*
X43788064Y-36360000D02*
X43333936Y-36360000D01*
X40867064Y-28286000D02*
X40412936Y-28286000D01*
X40867064Y-29756000D02*
X40412936Y-29756000D01*
X63498464Y-38058250D02*
X63044336Y-38058250D01*
X63498464Y-39528250D02*
X63044336Y-39528250D01*
X63498464Y-41226500D02*
X63044336Y-41226500D01*
X63498464Y-42696500D02*
X63044336Y-42696500D01*
X63498464Y-44394750D02*
X63044336Y-44394750D01*
X63498464Y-45864750D02*
X63044336Y-45864750D01*
X63498464Y-47563000D02*
X63044336Y-47563000D01*
X63498464Y-49033000D02*
X63044336Y-49033000D01*
X63498464Y-34890000D02*
X63044336Y-34890000D01*
X63498464Y-36360000D02*
X63044336Y-36360000D01*
D10*
X27400238Y-27598619D02*
X27495476Y-27551000D01*
X27590714Y-27455761D01*
X27733571Y-27312904D01*
X27828809Y-27265285D01*
X27924047Y-27265285D01*
X27876428Y-27503380D02*
X27971666Y-27455761D01*
X28066904Y-27360523D01*
X28114523Y-27170047D01*
X28114523Y-26836714D01*
X28066904Y-26646238D01*
X27971666Y-26551000D01*
X27876428Y-26503380D01*
X27685952Y-26503380D01*
X27590714Y-26551000D01*
X27495476Y-26646238D01*
X27447857Y-26836714D01*
X27447857Y-27170047D01*
X27495476Y-27360523D01*
X27590714Y-27455761D01*
X27685952Y-27503380D01*
X27876428Y-27503380D01*
X26495476Y-27503380D02*
X27066904Y-27503380D01*
X26781190Y-27503380D02*
X26781190Y-26503380D01*
X26876428Y-26646238D01*
X26971666Y-26741476D01*
X27066904Y-26789095D01*
X74785457Y-37721630D02*
X75118790Y-37245440D01*
X75356885Y-37721630D02*
X75356885Y-36721630D01*
X74975933Y-36721630D01*
X74880695Y-36769250D01*
X74833076Y-36816869D01*
X74785457Y-36912107D01*
X74785457Y-37054964D01*
X74833076Y-37150202D01*
X74880695Y-37197821D01*
X74975933Y-37245440D01*
X75356885Y-37245440D01*
X74309266Y-37721630D02*
X74118790Y-37721630D01*
X74023552Y-37674011D01*
X73975933Y-37626392D01*
X73880695Y-37483535D01*
X73833076Y-37293059D01*
X73833076Y-36912107D01*
X73880695Y-36816869D01*
X73928314Y-36769250D01*
X74023552Y-36721630D01*
X74214028Y-36721630D01*
X74309266Y-36769250D01*
X74356885Y-36816869D01*
X74404504Y-36912107D01*
X74404504Y-37150202D01*
X74356885Y-37245440D01*
X74309266Y-37293059D01*
X74214028Y-37340678D01*
X74023552Y-37340678D01*
X73928314Y-37293059D01*
X73880695Y-37245440D01*
X73833076Y-37150202D01*
X73499742Y-36721630D02*
X72833076Y-36721630D01*
X73261647Y-37721630D01*
X69375257Y-37733060D02*
X69708590Y-37256870D01*
X69946685Y-37733060D02*
X69946685Y-36733060D01*
X69565733Y-36733060D01*
X69470495Y-36780680D01*
X69422876Y-36828299D01*
X69375257Y-36923537D01*
X69375257Y-37066394D01*
X69422876Y-37161632D01*
X69470495Y-37209251D01*
X69565733Y-37256870D01*
X69946685Y-37256870D01*
X68899066Y-37733060D02*
X68708590Y-37733060D01*
X68613352Y-37685441D01*
X68565733Y-37637822D01*
X68470495Y-37494965D01*
X68422876Y-37304489D01*
X68422876Y-36923537D01*
X68470495Y-36828299D01*
X68518114Y-36780680D01*
X68613352Y-36733060D01*
X68803828Y-36733060D01*
X68899066Y-36780680D01*
X68946685Y-36828299D01*
X68994304Y-36923537D01*
X68994304Y-37161632D01*
X68946685Y-37256870D01*
X68899066Y-37304489D01*
X68803828Y-37352108D01*
X68613352Y-37352108D01*
X68518114Y-37304489D01*
X68470495Y-37256870D01*
X68422876Y-37161632D01*
X67565733Y-36733060D02*
X67756209Y-36733060D01*
X67851447Y-36780680D01*
X67899066Y-36828299D01*
X67994304Y-36971156D01*
X68041923Y-37161632D01*
X68041923Y-37542584D01*
X67994304Y-37637822D01*
X67946685Y-37685441D01*
X67851447Y-37733060D01*
X67660971Y-37733060D01*
X67565733Y-37685441D01*
X67518114Y-37637822D01*
X67470495Y-37542584D01*
X67470495Y-37304489D01*
X67518114Y-37209251D01*
X67565733Y-37161632D01*
X67660971Y-37114013D01*
X67851447Y-37114013D01*
X67946685Y-37161632D01*
X67994304Y-37209251D01*
X68041923Y-37304489D01*
X69349857Y-34553380D02*
X69683190Y-34077190D01*
X69921285Y-34553380D02*
X69921285Y-33553380D01*
X69540333Y-33553380D01*
X69445095Y-33601000D01*
X69397476Y-33648619D01*
X69349857Y-33743857D01*
X69349857Y-33886714D01*
X69397476Y-33981952D01*
X69445095Y-34029571D01*
X69540333Y-34077190D01*
X69921285Y-34077190D01*
X68873666Y-34553380D02*
X68683190Y-34553380D01*
X68587952Y-34505761D01*
X68540333Y-34458142D01*
X68445095Y-34315285D01*
X68397476Y-34124809D01*
X68397476Y-33743857D01*
X68445095Y-33648619D01*
X68492714Y-33601000D01*
X68587952Y-33553380D01*
X68778428Y-33553380D01*
X68873666Y-33601000D01*
X68921285Y-33648619D01*
X68968904Y-33743857D01*
X68968904Y-33981952D01*
X68921285Y-34077190D01*
X68873666Y-34124809D01*
X68778428Y-34172428D01*
X68587952Y-34172428D01*
X68492714Y-34124809D01*
X68445095Y-34077190D01*
X68397476Y-33981952D01*
X67492714Y-33553380D02*
X67968904Y-33553380D01*
X68016523Y-34029571D01*
X67968904Y-33981952D01*
X67873666Y-33934333D01*
X67635571Y-33934333D01*
X67540333Y-33981952D01*
X67492714Y-34029571D01*
X67445095Y-34124809D01*
X67445095Y-34362904D01*
X67492714Y-34458142D01*
X67540333Y-34505761D01*
X67635571Y-34553380D01*
X67873666Y-34553380D01*
X67968904Y-34505761D01*
X68016523Y-34458142D01*
X30549838Y-34228019D02*
X30645076Y-34180400D01*
X30740314Y-34085161D01*
X30883171Y-33942304D01*
X30978409Y-33894685D01*
X31073647Y-33894685D01*
X31026028Y-34132780D02*
X31121266Y-34085161D01*
X31216504Y-33989923D01*
X31264123Y-33799447D01*
X31264123Y-33466114D01*
X31216504Y-33275638D01*
X31121266Y-33180400D01*
X31026028Y-33132780D01*
X30835552Y-33132780D01*
X30740314Y-33180400D01*
X30645076Y-33275638D01*
X30597457Y-33466114D01*
X30597457Y-33799447D01*
X30645076Y-33989923D01*
X30740314Y-34085161D01*
X30835552Y-34132780D01*
X31026028Y-34132780D01*
X30216504Y-33228019D02*
X30168885Y-33180400D01*
X30073647Y-33132780D01*
X29835552Y-33132780D01*
X29740314Y-33180400D01*
X29692695Y-33228019D01*
X29645076Y-33323257D01*
X29645076Y-33418495D01*
X29692695Y-33561352D01*
X30264123Y-34132780D01*
X29645076Y-34132780D01*
X30549838Y-46801019D02*
X30645076Y-46753400D01*
X30740314Y-46658161D01*
X30883171Y-46515304D01*
X30978409Y-46467685D01*
X31073647Y-46467685D01*
X31026028Y-46705780D02*
X31121266Y-46658161D01*
X31216504Y-46562923D01*
X31264123Y-46372447D01*
X31264123Y-46039114D01*
X31216504Y-45848638D01*
X31121266Y-45753400D01*
X31026028Y-45705780D01*
X30835552Y-45705780D01*
X30740314Y-45753400D01*
X30645076Y-45848638D01*
X30597457Y-46039114D01*
X30597457Y-46372447D01*
X30645076Y-46562923D01*
X30740314Y-46658161D01*
X30835552Y-46705780D01*
X31026028Y-46705780D01*
X29740314Y-46039114D02*
X29740314Y-46705780D01*
X29978409Y-45658161D02*
X30216504Y-46372447D01*
X29597457Y-46372447D01*
X30549838Y-40527219D02*
X30645076Y-40479600D01*
X30740314Y-40384361D01*
X30883171Y-40241504D01*
X30978409Y-40193885D01*
X31073647Y-40193885D01*
X31026028Y-40431980D02*
X31121266Y-40384361D01*
X31216504Y-40289123D01*
X31264123Y-40098647D01*
X31264123Y-39765314D01*
X31216504Y-39574838D01*
X31121266Y-39479600D01*
X31026028Y-39431980D01*
X30835552Y-39431980D01*
X30740314Y-39479600D01*
X30645076Y-39574838D01*
X30597457Y-39765314D01*
X30597457Y-40098647D01*
X30645076Y-40289123D01*
X30740314Y-40384361D01*
X30835552Y-40431980D01*
X31026028Y-40431980D01*
X30264123Y-39431980D02*
X29645076Y-39431980D01*
X29978409Y-39812933D01*
X29835552Y-39812933D01*
X29740314Y-39860552D01*
X29692695Y-39908171D01*
X29645076Y-40003409D01*
X29645076Y-40241504D01*
X29692695Y-40336742D01*
X29740314Y-40384361D01*
X29835552Y-40431980D01*
X30121266Y-40431980D01*
X30216504Y-40384361D01*
X30264123Y-40336742D01*
X36329857Y-27823380D02*
X36663190Y-27347190D01*
X36901285Y-27823380D02*
X36901285Y-26823380D01*
X36520333Y-26823380D01*
X36425095Y-26871000D01*
X36377476Y-26918619D01*
X36329857Y-27013857D01*
X36329857Y-27156714D01*
X36377476Y-27251952D01*
X36425095Y-27299571D01*
X36520333Y-27347190D01*
X36901285Y-27347190D01*
X35377476Y-27823380D02*
X35948904Y-27823380D01*
X35663190Y-27823380D02*
X35663190Y-26823380D01*
X35758428Y-26966238D01*
X35853666Y-27061476D01*
X35948904Y-27109095D01*
X34996523Y-26918619D02*
X34948904Y-26871000D01*
X34853666Y-26823380D01*
X34615571Y-26823380D01*
X34520333Y-26871000D01*
X34472714Y-26918619D01*
X34425095Y-27013857D01*
X34425095Y-27109095D01*
X34472714Y-27251952D01*
X35044142Y-27823380D01*
X34425095Y-27823380D01*
X38869857Y-34427380D02*
X39203190Y-33951190D01*
X39441285Y-34427380D02*
X39441285Y-33427380D01*
X39060333Y-33427380D01*
X38965095Y-33475000D01*
X38917476Y-33522619D01*
X38869857Y-33617857D01*
X38869857Y-33760714D01*
X38917476Y-33855952D01*
X38965095Y-33903571D01*
X39060333Y-33951190D01*
X39441285Y-33951190D01*
X37917476Y-34427380D02*
X38488904Y-34427380D01*
X38203190Y-34427380D02*
X38203190Y-33427380D01*
X38298428Y-33570238D01*
X38393666Y-33665476D01*
X38488904Y-33713095D01*
X37060333Y-33760714D02*
X37060333Y-34427380D01*
X37298428Y-33379761D02*
X37536523Y-34094047D01*
X36917476Y-34094047D01*
X38869857Y-40750380D02*
X39203190Y-40274190D01*
X39441285Y-40750380D02*
X39441285Y-39750380D01*
X39060333Y-39750380D01*
X38965095Y-39798000D01*
X38917476Y-39845619D01*
X38869857Y-39940857D01*
X38869857Y-40083714D01*
X38917476Y-40178952D01*
X38965095Y-40226571D01*
X39060333Y-40274190D01*
X39441285Y-40274190D01*
X37917476Y-40750380D02*
X38488904Y-40750380D01*
X38203190Y-40750380D02*
X38203190Y-39750380D01*
X38298428Y-39893238D01*
X38393666Y-39988476D01*
X38488904Y-40036095D01*
X37060333Y-39750380D02*
X37250809Y-39750380D01*
X37346047Y-39798000D01*
X37393666Y-39845619D01*
X37488904Y-39988476D01*
X37536523Y-40178952D01*
X37536523Y-40559904D01*
X37488904Y-40655142D01*
X37441285Y-40702761D01*
X37346047Y-40750380D01*
X37155571Y-40750380D01*
X37060333Y-40702761D01*
X37012714Y-40655142D01*
X36965095Y-40559904D01*
X36965095Y-40321809D01*
X37012714Y-40226571D01*
X37060333Y-40178952D01*
X37155571Y-40131333D01*
X37346047Y-40131333D01*
X37441285Y-40178952D01*
X37488904Y-40226571D01*
X37536523Y-40321809D01*
X38869857Y-47100380D02*
X39203190Y-46624190D01*
X39441285Y-47100380D02*
X39441285Y-46100380D01*
X39060333Y-46100380D01*
X38965095Y-46148000D01*
X38917476Y-46195619D01*
X38869857Y-46290857D01*
X38869857Y-46433714D01*
X38917476Y-46528952D01*
X38965095Y-46576571D01*
X39060333Y-46624190D01*
X39441285Y-46624190D01*
X37917476Y-47100380D02*
X38488904Y-47100380D01*
X38203190Y-47100380D02*
X38203190Y-46100380D01*
X38298428Y-46243238D01*
X38393666Y-46338476D01*
X38488904Y-46386095D01*
X37346047Y-46528952D02*
X37441285Y-46481333D01*
X37488904Y-46433714D01*
X37536523Y-46338476D01*
X37536523Y-46290857D01*
X37488904Y-46195619D01*
X37441285Y-46148000D01*
X37346047Y-46100380D01*
X37155571Y-46100380D01*
X37060333Y-46148000D01*
X37012714Y-46195619D01*
X36965095Y-46290857D01*
X36965095Y-46338476D01*
X37012714Y-46433714D01*
X37060333Y-46481333D01*
X37155571Y-46528952D01*
X37346047Y-46528952D01*
X37441285Y-46576571D01*
X37488904Y-46624190D01*
X37536523Y-46719428D01*
X37536523Y-46909904D01*
X37488904Y-47005142D01*
X37441285Y-47052761D01*
X37346047Y-47100380D01*
X37155571Y-47100380D01*
X37060333Y-47052761D01*
X37012714Y-47005142D01*
X36965095Y-46909904D01*
X36965095Y-46719428D01*
X37012714Y-46624190D01*
X37060333Y-46576571D01*
X37155571Y-46528952D01*
X44203857Y-47100380D02*
X44537190Y-46624190D01*
X44775285Y-47100380D02*
X44775285Y-46100380D01*
X44394333Y-46100380D01*
X44299095Y-46148000D01*
X44251476Y-46195619D01*
X44203857Y-46290857D01*
X44203857Y-46433714D01*
X44251476Y-46528952D01*
X44299095Y-46576571D01*
X44394333Y-46624190D01*
X44775285Y-46624190D01*
X43251476Y-47100380D02*
X43822904Y-47100380D01*
X43537190Y-47100380D02*
X43537190Y-46100380D01*
X43632428Y-46243238D01*
X43727666Y-46338476D01*
X43822904Y-46386095D01*
X42918142Y-46100380D02*
X42251476Y-46100380D01*
X42680047Y-47100380D01*
X44203857Y-40750380D02*
X44537190Y-40274190D01*
X44775285Y-40750380D02*
X44775285Y-39750380D01*
X44394333Y-39750380D01*
X44299095Y-39798000D01*
X44251476Y-39845619D01*
X44203857Y-39940857D01*
X44203857Y-40083714D01*
X44251476Y-40178952D01*
X44299095Y-40226571D01*
X44394333Y-40274190D01*
X44775285Y-40274190D01*
X43251476Y-40750380D02*
X43822904Y-40750380D01*
X43537190Y-40750380D02*
X43537190Y-39750380D01*
X43632428Y-39893238D01*
X43727666Y-39988476D01*
X43822904Y-40036095D01*
X42346714Y-39750380D02*
X42822904Y-39750380D01*
X42870523Y-40226571D01*
X42822904Y-40178952D01*
X42727666Y-40131333D01*
X42489571Y-40131333D01*
X42394333Y-40178952D01*
X42346714Y-40226571D01*
X42299095Y-40321809D01*
X42299095Y-40559904D01*
X42346714Y-40655142D01*
X42394333Y-40702761D01*
X42489571Y-40750380D01*
X42727666Y-40750380D01*
X42822904Y-40702761D01*
X42870523Y-40655142D01*
X44203857Y-34427380D02*
X44537190Y-33951190D01*
X44775285Y-34427380D02*
X44775285Y-33427380D01*
X44394333Y-33427380D01*
X44299095Y-33475000D01*
X44251476Y-33522619D01*
X44203857Y-33617857D01*
X44203857Y-33760714D01*
X44251476Y-33855952D01*
X44299095Y-33903571D01*
X44394333Y-33951190D01*
X44775285Y-33951190D01*
X43251476Y-34427380D02*
X43822904Y-34427380D01*
X43537190Y-34427380D02*
X43537190Y-33427380D01*
X43632428Y-33570238D01*
X43727666Y-33665476D01*
X43822904Y-33713095D01*
X42918142Y-33427380D02*
X42299095Y-33427380D01*
X42632428Y-33808333D01*
X42489571Y-33808333D01*
X42394333Y-33855952D01*
X42346714Y-33903571D01*
X42299095Y-33998809D01*
X42299095Y-34236904D01*
X42346714Y-34332142D01*
X42394333Y-34379761D01*
X42489571Y-34427380D01*
X42775285Y-34427380D01*
X42870523Y-34379761D01*
X42918142Y-34332142D01*
X41282857Y-27823380D02*
X41616190Y-27347190D01*
X41854285Y-27823380D02*
X41854285Y-26823380D01*
X41473333Y-26823380D01*
X41378095Y-26871000D01*
X41330476Y-26918619D01*
X41282857Y-27013857D01*
X41282857Y-27156714D01*
X41330476Y-27251952D01*
X41378095Y-27299571D01*
X41473333Y-27347190D01*
X41854285Y-27347190D01*
X40330476Y-27823380D02*
X40901904Y-27823380D01*
X40616190Y-27823380D02*
X40616190Y-26823380D01*
X40711428Y-26966238D01*
X40806666Y-27061476D01*
X40901904Y-27109095D01*
X39378095Y-27823380D02*
X39949523Y-27823380D01*
X39663809Y-27823380D02*
X39663809Y-26823380D01*
X39759047Y-26966238D01*
X39854285Y-27061476D01*
X39949523Y-27109095D01*
X63453306Y-37733060D02*
X63786640Y-37256870D01*
X64024735Y-37733060D02*
X64024735Y-36733060D01*
X63643782Y-36733060D01*
X63548544Y-36780680D01*
X63500925Y-36828299D01*
X63453306Y-36923537D01*
X63453306Y-37066394D01*
X63500925Y-37161632D01*
X63548544Y-37209251D01*
X63643782Y-37256870D01*
X64024735Y-37256870D01*
X62596163Y-36733060D02*
X62786640Y-36733060D01*
X62881878Y-36780680D01*
X62929497Y-36828299D01*
X63024735Y-36971156D01*
X63072354Y-37161632D01*
X63072354Y-37542584D01*
X63024735Y-37637822D01*
X62977116Y-37685441D01*
X62881878Y-37733060D01*
X62691401Y-37733060D01*
X62596163Y-37685441D01*
X62548544Y-37637822D01*
X62500925Y-37542584D01*
X62500925Y-37304489D01*
X62548544Y-37209251D01*
X62596163Y-37161632D01*
X62691401Y-37114013D01*
X62881878Y-37114013D01*
X62977116Y-37161632D01*
X63024735Y-37209251D01*
X63072354Y-37304489D01*
X63453306Y-40907660D02*
X63786640Y-40431470D01*
X64024735Y-40907660D02*
X64024735Y-39907660D01*
X63643782Y-39907660D01*
X63548544Y-39955280D01*
X63500925Y-40002899D01*
X63453306Y-40098137D01*
X63453306Y-40240994D01*
X63500925Y-40336232D01*
X63548544Y-40383851D01*
X63643782Y-40431470D01*
X64024735Y-40431470D01*
X62548544Y-39907660D02*
X63024735Y-39907660D01*
X63072354Y-40383851D01*
X63024735Y-40336232D01*
X62929497Y-40288613D01*
X62691401Y-40288613D01*
X62596163Y-40336232D01*
X62548544Y-40383851D01*
X62500925Y-40479089D01*
X62500925Y-40717184D01*
X62548544Y-40812422D01*
X62596163Y-40860041D01*
X62691401Y-40907660D01*
X62929497Y-40907660D01*
X63024735Y-40860041D01*
X63072354Y-40812422D01*
X63453306Y-44082260D02*
X63786640Y-43606070D01*
X64024735Y-44082260D02*
X64024735Y-43082260D01*
X63643782Y-43082260D01*
X63548544Y-43129880D01*
X63500925Y-43177499D01*
X63453306Y-43272737D01*
X63453306Y-43415594D01*
X63500925Y-43510832D01*
X63548544Y-43558451D01*
X63643782Y-43606070D01*
X64024735Y-43606070D01*
X62596163Y-43415594D02*
X62596163Y-44082260D01*
X62834259Y-43034641D02*
X63072354Y-43748927D01*
X62453306Y-43748927D01*
X63453306Y-47256860D02*
X63786640Y-46780670D01*
X64024735Y-47256860D02*
X64024735Y-46256860D01*
X63643782Y-46256860D01*
X63548544Y-46304480D01*
X63500925Y-46352099D01*
X63453306Y-46447337D01*
X63453306Y-46590194D01*
X63500925Y-46685432D01*
X63548544Y-46733051D01*
X63643782Y-46780670D01*
X64024735Y-46780670D01*
X63119973Y-46256860D02*
X62500925Y-46256860D01*
X62834259Y-46637813D01*
X62691401Y-46637813D01*
X62596163Y-46685432D01*
X62548544Y-46733051D01*
X62500925Y-46828289D01*
X62500925Y-47066384D01*
X62548544Y-47161622D01*
X62596163Y-47209241D01*
X62691401Y-47256860D01*
X62977116Y-47256860D01*
X63072354Y-47209241D01*
X63119973Y-47161622D01*
X63478706Y-34533060D02*
X63812040Y-34056870D01*
X64050135Y-34533060D02*
X64050135Y-33533060D01*
X63669182Y-33533060D01*
X63573944Y-33580680D01*
X63526325Y-33628299D01*
X63478706Y-33723537D01*
X63478706Y-33866394D01*
X63526325Y-33961632D01*
X63573944Y-34009251D01*
X63669182Y-34056870D01*
X64050135Y-34056870D01*
X62526325Y-34533060D02*
X63097754Y-34533060D01*
X62812040Y-34533060D02*
X62812040Y-33533060D01*
X62907278Y-33675918D01*
X63002516Y-33771156D01*
X63097754Y-33818775D01*
%LPC*%
G36*
G01*
X41490599Y-71382400D02*
X42798601Y-71382400D01*
G75*
G02*
X42849600Y-71433399I0J-50999D01*
G01*
X42849600Y-72741401D01*
G75*
G02*
X42798601Y-72792400I-50999J0D01*
G01*
X41490599Y-72792400D01*
G75*
G02*
X41439600Y-72741401I0J50999D01*
G01*
X41439600Y-71433399D01*
G75*
G02*
X41490599Y-71382400I50999J0D01*
G01*
G37*
G36*
G01*
X40090599Y-71382400D02*
X41398601Y-71382400D01*
G75*
G02*
X41449600Y-71433399I0J-50999D01*
G01*
X41449600Y-72741401D01*
G75*
G02*
X41398601Y-72792400I-50999J0D01*
G01*
X40090599Y-72792400D01*
G75*
G02*
X40039600Y-72741401I0J50999D01*
G01*
X40039600Y-71433399D01*
G75*
G02*
X40090599Y-71382400I50999J0D01*
G01*
G37*
G36*
G01*
X53160599Y-71382400D02*
X54468601Y-71382400D01*
G75*
G02*
X54519600Y-71433399I0J-50999D01*
G01*
X54519600Y-72741401D01*
G75*
G02*
X54468601Y-72792400I-50999J0D01*
G01*
X53160599Y-72792400D01*
G75*
G02*
X53109600Y-72741401I0J50999D01*
G01*
X53109600Y-71433399D01*
G75*
G02*
X53160599Y-71382400I50999J0D01*
G01*
G37*
G36*
G01*
X54560599Y-71382400D02*
X55868601Y-71382400D01*
G75*
G02*
X55919600Y-71433399I0J-50999D01*
G01*
X55919600Y-72741401D01*
G75*
G02*
X55868601Y-72792400I-50999J0D01*
G01*
X54560599Y-72792400D01*
G75*
G02*
X54509600Y-72741401I0J50999D01*
G01*
X54509600Y-71433399D01*
G75*
G02*
X54560599Y-71382400I50999J0D01*
G01*
G37*
G36*
G01*
X53160599Y-52382400D02*
X54468601Y-52382400D01*
G75*
G02*
X54519600Y-52433399I0J-50999D01*
G01*
X54519600Y-53741401D01*
G75*
G02*
X54468601Y-53792400I-50999J0D01*
G01*
X53160599Y-53792400D01*
G75*
G02*
X53109600Y-53741401I0J50999D01*
G01*
X53109600Y-52433399D01*
G75*
G02*
X53160599Y-52382400I50999J0D01*
G01*
G37*
G36*
G01*
X54560599Y-52382400D02*
X55868601Y-52382400D01*
G75*
G02*
X55919600Y-52433399I0J-50999D01*
G01*
X55919600Y-53741401D01*
G75*
G02*
X55868601Y-53792400I-50999J0D01*
G01*
X54560599Y-53792400D01*
G75*
G02*
X54509600Y-53741401I0J50999D01*
G01*
X54509600Y-52433399D01*
G75*
G02*
X54560599Y-52382400I50999J0D01*
G01*
G37*
G36*
G01*
X41490599Y-52382400D02*
X42798601Y-52382400D01*
G75*
G02*
X42849600Y-52433399I0J-50999D01*
G01*
X42849600Y-53741401D01*
G75*
G02*
X42798601Y-53792400I-50999J0D01*
G01*
X41490599Y-53792400D01*
G75*
G02*
X41439600Y-53741401I0J50999D01*
G01*
X41439600Y-52433399D01*
G75*
G02*
X41490599Y-52382400I50999J0D01*
G01*
G37*
G36*
G01*
X40090599Y-52382400D02*
X41398601Y-52382400D01*
G75*
G02*
X41449600Y-52433399I0J-50999D01*
G01*
X41449600Y-53741401D01*
G75*
G02*
X41398601Y-53792400I-50999J0D01*
G01*
X40090599Y-53792400D01*
G75*
G02*
X40039600Y-53741401I0J50999D01*
G01*
X40039600Y-52433399D01*
G75*
G02*
X40090599Y-52382400I50999J0D01*
G01*
G37*
G36*
G01*
X29600000Y-27821000D02*
X29600000Y-28621000D01*
G75*
G02*
X29549000Y-28672000I-51000J0D01*
G01*
X28649000Y-28672000D01*
G75*
G02*
X28598000Y-28621000I0J51000D01*
G01*
X28598000Y-27821000D01*
G75*
G02*
X28649000Y-27770000I51000J0D01*
G01*
X29549000Y-27770000D01*
G75*
G02*
X29600000Y-27821000I0J-51000D01*
G01*
G37*
G36*
G01*
X31600000Y-28771000D02*
X31600000Y-29571000D01*
G75*
G02*
X31549000Y-29622000I-51000J0D01*
G01*
X30649000Y-29622000D01*
G75*
G02*
X30598000Y-29571000I0J51000D01*
G01*
X30598000Y-28771000D01*
G75*
G02*
X30649000Y-28720000I51000J0D01*
G01*
X31549000Y-28720000D01*
G75*
G02*
X31600000Y-28771000I0J-51000D01*
G01*
G37*
G36*
G01*
X31600000Y-26871000D02*
X31600000Y-27671000D01*
G75*
G02*
X31549000Y-27722000I-51000J0D01*
G01*
X30649000Y-27722000D01*
G75*
G02*
X30598000Y-27671000I0J51000D01*
G01*
X30598000Y-26871000D01*
G75*
G02*
X30649000Y-26820000I51000J0D01*
G01*
X31549000Y-26820000D01*
G75*
G02*
X31600000Y-26871000I0J-51000D01*
G01*
G37*
D14*
X25019000Y-64436000D03*
G36*
G01*
X23719000Y-58085000D02*
X26319000Y-58085000D01*
G75*
G02*
X26370000Y-58136000I0J-51000D01*
G01*
X26370000Y-60736000D01*
G75*
G02*
X26319000Y-60787000I-51000J0D01*
G01*
X23719000Y-60787000D01*
G75*
G02*
X23668000Y-60736000I0J51000D01*
G01*
X23668000Y-58136000D01*
G75*
G02*
X23719000Y-58085000I51000J0D01*
G01*
G37*
G36*
G01*
X36017000Y-54610000D02*
X36017000Y-52070000D01*
G75*
G02*
X36068000Y-52019000I51000J0D01*
G01*
X38608000Y-52019000D01*
G75*
G02*
X38659000Y-52070000I0J-51000D01*
G01*
X38659000Y-54610000D01*
G75*
G02*
X38608000Y-54661000I-51000J0D01*
G01*
X36068000Y-54661000D01*
G75*
G02*
X36017000Y-54610000I0J51000D01*
G01*
G37*
D15*
X37338000Y-71120000D03*
X77978000Y-53340000D03*
X77978000Y-71120000D03*
G36*
G01*
X72717400Y-39269375D02*
X72717400Y-38317125D01*
G75*
G02*
X72992275Y-38042250I274875J0D01*
G01*
X73569525Y-38042250D01*
G75*
G02*
X73844400Y-38317125I0J-274875D01*
G01*
X73844400Y-39269375D01*
G75*
G02*
X73569525Y-39544250I-274875J0D01*
G01*
X72992275Y-39544250D01*
G75*
G02*
X72717400Y-39269375I0J274875D01*
G01*
G37*
G36*
G01*
X74542400Y-39269375D02*
X74542400Y-38317125D01*
G75*
G02*
X74817275Y-38042250I274875J0D01*
G01*
X75394525Y-38042250D01*
G75*
G02*
X75669400Y-38317125I0J-274875D01*
G01*
X75669400Y-39269375D01*
G75*
G02*
X75394525Y-39544250I-274875J0D01*
G01*
X74817275Y-39544250D01*
G75*
G02*
X74542400Y-39269375I0J274875D01*
G01*
G37*
G36*
G01*
X69081400Y-39269375D02*
X69081400Y-38317125D01*
G75*
G02*
X69356275Y-38042250I274875J0D01*
G01*
X69933525Y-38042250D01*
G75*
G02*
X70208400Y-38317125I0J-274875D01*
G01*
X70208400Y-39269375D01*
G75*
G02*
X69933525Y-39544250I-274875J0D01*
G01*
X69356275Y-39544250D01*
G75*
G02*
X69081400Y-39269375I0J274875D01*
G01*
G37*
G36*
G01*
X67256400Y-39269375D02*
X67256400Y-38317125D01*
G75*
G02*
X67531275Y-38042250I274875J0D01*
G01*
X68108525Y-38042250D01*
G75*
G02*
X68383400Y-38317125I0J-274875D01*
G01*
X68383400Y-39269375D01*
G75*
G02*
X68108525Y-39544250I-274875J0D01*
G01*
X67531275Y-39544250D01*
G75*
G02*
X67256400Y-39269375I0J274875D01*
G01*
G37*
G36*
G01*
X69081400Y-36101125D02*
X69081400Y-35148875D01*
G75*
G02*
X69356275Y-34874000I274875J0D01*
G01*
X69933525Y-34874000D01*
G75*
G02*
X70208400Y-35148875I0J-274875D01*
G01*
X70208400Y-36101125D01*
G75*
G02*
X69933525Y-36376000I-274875J0D01*
G01*
X69356275Y-36376000D01*
G75*
G02*
X69081400Y-36101125I0J274875D01*
G01*
G37*
G36*
G01*
X67256400Y-36101125D02*
X67256400Y-35148875D01*
G75*
G02*
X67531275Y-34874000I274875J0D01*
G01*
X68108525Y-34874000D01*
G75*
G02*
X68383400Y-35148875I0J-274875D01*
G01*
X68383400Y-36101125D01*
G75*
G02*
X68108525Y-36376000I-274875J0D01*
G01*
X67531275Y-36376000D01*
G75*
G02*
X67256400Y-36101125I0J274875D01*
G01*
G37*
D16*
X79375000Y-39370000D03*
X25146000Y-45466000D03*
G36*
G01*
X32648000Y-34425000D02*
X32648000Y-35225000D01*
G75*
G02*
X32597000Y-35276000I-51000J0D01*
G01*
X31697000Y-35276000D01*
G75*
G02*
X31646000Y-35225000I0J51000D01*
G01*
X31646000Y-34425000D01*
G75*
G02*
X31697000Y-34374000I51000J0D01*
G01*
X32597000Y-34374000D01*
G75*
G02*
X32648000Y-34425000I0J-51000D01*
G01*
G37*
G36*
G01*
X34648000Y-35375000D02*
X34648000Y-36175000D01*
G75*
G02*
X34597000Y-36226000I-51000J0D01*
G01*
X33697000Y-36226000D01*
G75*
G02*
X33646000Y-36175000I0J51000D01*
G01*
X33646000Y-35375000D01*
G75*
G02*
X33697000Y-35324000I51000J0D01*
G01*
X34597000Y-35324000D01*
G75*
G02*
X34648000Y-35375000I0J-51000D01*
G01*
G37*
G36*
G01*
X34648000Y-33475000D02*
X34648000Y-34275000D01*
G75*
G02*
X34597000Y-34326000I-51000J0D01*
G01*
X33697000Y-34326000D01*
G75*
G02*
X33646000Y-34275000I0J51000D01*
G01*
X33646000Y-33475000D01*
G75*
G02*
X33697000Y-33424000I51000J0D01*
G01*
X34597000Y-33424000D01*
G75*
G02*
X34648000Y-33475000I0J-51000D01*
G01*
G37*
G36*
G01*
X32648000Y-47098000D02*
X32648000Y-47898000D01*
G75*
G02*
X32597000Y-47949000I-51000J0D01*
G01*
X31697000Y-47949000D01*
G75*
G02*
X31646000Y-47898000I0J51000D01*
G01*
X31646000Y-47098000D01*
G75*
G02*
X31697000Y-47047000I51000J0D01*
G01*
X32597000Y-47047000D01*
G75*
G02*
X32648000Y-47098000I0J-51000D01*
G01*
G37*
G36*
G01*
X34648000Y-48048000D02*
X34648000Y-48848000D01*
G75*
G02*
X34597000Y-48899000I-51000J0D01*
G01*
X33697000Y-48899000D01*
G75*
G02*
X33646000Y-48848000I0J51000D01*
G01*
X33646000Y-48048000D01*
G75*
G02*
X33697000Y-47997000I51000J0D01*
G01*
X34597000Y-47997000D01*
G75*
G02*
X34648000Y-48048000I0J-51000D01*
G01*
G37*
G36*
G01*
X34648000Y-46148000D02*
X34648000Y-46948000D01*
G75*
G02*
X34597000Y-46999000I-51000J0D01*
G01*
X33697000Y-46999000D01*
G75*
G02*
X33646000Y-46948000I0J51000D01*
G01*
X33646000Y-46148000D01*
G75*
G02*
X33697000Y-46097000I51000J0D01*
G01*
X34597000Y-46097000D01*
G75*
G02*
X34648000Y-46148000I0J-51000D01*
G01*
G37*
G36*
G01*
X32648000Y-40748000D02*
X32648000Y-41548000D01*
G75*
G02*
X32597000Y-41599000I-51000J0D01*
G01*
X31697000Y-41599000D01*
G75*
G02*
X31646000Y-41548000I0J51000D01*
G01*
X31646000Y-40748000D01*
G75*
G02*
X31697000Y-40697000I51000J0D01*
G01*
X32597000Y-40697000D01*
G75*
G02*
X32648000Y-40748000I0J-51000D01*
G01*
G37*
G36*
G01*
X34648000Y-41698000D02*
X34648000Y-42498000D01*
G75*
G02*
X34597000Y-42549000I-51000J0D01*
G01*
X33697000Y-42549000D01*
G75*
G02*
X33646000Y-42498000I0J51000D01*
G01*
X33646000Y-41698000D01*
G75*
G02*
X33697000Y-41647000I51000J0D01*
G01*
X34597000Y-41647000D01*
G75*
G02*
X34648000Y-41698000I0J-51000D01*
G01*
G37*
G36*
G01*
X34648000Y-39798000D02*
X34648000Y-40598000D01*
G75*
G02*
X34597000Y-40649000I-51000J0D01*
G01*
X33697000Y-40649000D01*
G75*
G02*
X33646000Y-40598000I0J51000D01*
G01*
X33646000Y-39798000D01*
G75*
G02*
X33697000Y-39747000I51000J0D01*
G01*
X34597000Y-39747000D01*
G75*
G02*
X34648000Y-39798000I0J-51000D01*
G01*
G37*
G36*
G01*
X35338000Y-28544875D02*
X35338000Y-29497125D01*
G75*
G02*
X35063125Y-29772000I-274875J0D01*
G01*
X34485875Y-29772000D01*
G75*
G02*
X34211000Y-29497125I0J274875D01*
G01*
X34211000Y-28544875D01*
G75*
G02*
X34485875Y-28270000I274875J0D01*
G01*
X35063125Y-28270000D01*
G75*
G02*
X35338000Y-28544875I0J-274875D01*
G01*
G37*
G36*
G01*
X37163000Y-28544875D02*
X37163000Y-29497125D01*
G75*
G02*
X36888125Y-29772000I-274875J0D01*
G01*
X36310875Y-29772000D01*
G75*
G02*
X36036000Y-29497125I0J274875D01*
G01*
X36036000Y-28544875D01*
G75*
G02*
X36310875Y-28270000I274875J0D01*
G01*
X36888125Y-28270000D01*
G75*
G02*
X37163000Y-28544875I0J-274875D01*
G01*
G37*
G36*
G01*
X37878000Y-35148875D02*
X37878000Y-36101125D01*
G75*
G02*
X37603125Y-36376000I-274875J0D01*
G01*
X37025875Y-36376000D01*
G75*
G02*
X36751000Y-36101125I0J274875D01*
G01*
X36751000Y-35148875D01*
G75*
G02*
X37025875Y-34874000I274875J0D01*
G01*
X37603125Y-34874000D01*
G75*
G02*
X37878000Y-35148875I0J-274875D01*
G01*
G37*
G36*
G01*
X39703000Y-35148875D02*
X39703000Y-36101125D01*
G75*
G02*
X39428125Y-36376000I-274875J0D01*
G01*
X38850875Y-36376000D01*
G75*
G02*
X38576000Y-36101125I0J274875D01*
G01*
X38576000Y-35148875D01*
G75*
G02*
X38850875Y-34874000I274875J0D01*
G01*
X39428125Y-34874000D01*
G75*
G02*
X39703000Y-35148875I0J-274875D01*
G01*
G37*
G36*
G01*
X37878000Y-41471875D02*
X37878000Y-42424125D01*
G75*
G02*
X37603125Y-42699000I-274875J0D01*
G01*
X37025875Y-42699000D01*
G75*
G02*
X36751000Y-42424125I0J274875D01*
G01*
X36751000Y-41471875D01*
G75*
G02*
X37025875Y-41197000I274875J0D01*
G01*
X37603125Y-41197000D01*
G75*
G02*
X37878000Y-41471875I0J-274875D01*
G01*
G37*
G36*
G01*
X39703000Y-41471875D02*
X39703000Y-42424125D01*
G75*
G02*
X39428125Y-42699000I-274875J0D01*
G01*
X38850875Y-42699000D01*
G75*
G02*
X38576000Y-42424125I0J274875D01*
G01*
X38576000Y-41471875D01*
G75*
G02*
X38850875Y-41197000I274875J0D01*
G01*
X39428125Y-41197000D01*
G75*
G02*
X39703000Y-41471875I0J-274875D01*
G01*
G37*
G36*
G01*
X37878000Y-47821875D02*
X37878000Y-48774125D01*
G75*
G02*
X37603125Y-49049000I-274875J0D01*
G01*
X37025875Y-49049000D01*
G75*
G02*
X36751000Y-48774125I0J274875D01*
G01*
X36751000Y-47821875D01*
G75*
G02*
X37025875Y-47547000I274875J0D01*
G01*
X37603125Y-47547000D01*
G75*
G02*
X37878000Y-47821875I0J-274875D01*
G01*
G37*
G36*
G01*
X39703000Y-47821875D02*
X39703000Y-48774125D01*
G75*
G02*
X39428125Y-49049000I-274875J0D01*
G01*
X38850875Y-49049000D01*
G75*
G02*
X38576000Y-48774125I0J274875D01*
G01*
X38576000Y-47821875D01*
G75*
G02*
X38850875Y-47547000I274875J0D01*
G01*
X39428125Y-47547000D01*
G75*
G02*
X39703000Y-47821875I0J-274875D01*
G01*
G37*
G36*
G01*
X43212000Y-47821875D02*
X43212000Y-48774125D01*
G75*
G02*
X42937125Y-49049000I-274875J0D01*
G01*
X42359875Y-49049000D01*
G75*
G02*
X42085000Y-48774125I0J274875D01*
G01*
X42085000Y-47821875D01*
G75*
G02*
X42359875Y-47547000I274875J0D01*
G01*
X42937125Y-47547000D01*
G75*
G02*
X43212000Y-47821875I0J-274875D01*
G01*
G37*
G36*
G01*
X45037000Y-47821875D02*
X45037000Y-48774125D01*
G75*
G02*
X44762125Y-49049000I-274875J0D01*
G01*
X44184875Y-49049000D01*
G75*
G02*
X43910000Y-48774125I0J274875D01*
G01*
X43910000Y-47821875D01*
G75*
G02*
X44184875Y-47547000I274875J0D01*
G01*
X44762125Y-47547000D01*
G75*
G02*
X45037000Y-47821875I0J-274875D01*
G01*
G37*
G36*
G01*
X43212000Y-41471875D02*
X43212000Y-42424125D01*
G75*
G02*
X42937125Y-42699000I-274875J0D01*
G01*
X42359875Y-42699000D01*
G75*
G02*
X42085000Y-42424125I0J274875D01*
G01*
X42085000Y-41471875D01*
G75*
G02*
X42359875Y-41197000I274875J0D01*
G01*
X42937125Y-41197000D01*
G75*
G02*
X43212000Y-41471875I0J-274875D01*
G01*
G37*
G36*
G01*
X45037000Y-41471875D02*
X45037000Y-42424125D01*
G75*
G02*
X44762125Y-42699000I-274875J0D01*
G01*
X44184875Y-42699000D01*
G75*
G02*
X43910000Y-42424125I0J274875D01*
G01*
X43910000Y-41471875D01*
G75*
G02*
X44184875Y-41197000I274875J0D01*
G01*
X44762125Y-41197000D01*
G75*
G02*
X45037000Y-41471875I0J-274875D01*
G01*
G37*
G36*
G01*
X43212000Y-35148875D02*
X43212000Y-36101125D01*
G75*
G02*
X42937125Y-36376000I-274875J0D01*
G01*
X42359875Y-36376000D01*
G75*
G02*
X42085000Y-36101125I0J274875D01*
G01*
X42085000Y-35148875D01*
G75*
G02*
X42359875Y-34874000I274875J0D01*
G01*
X42937125Y-34874000D01*
G75*
G02*
X43212000Y-35148875I0J-274875D01*
G01*
G37*
G36*
G01*
X45037000Y-35148875D02*
X45037000Y-36101125D01*
G75*
G02*
X44762125Y-36376000I-274875J0D01*
G01*
X44184875Y-36376000D01*
G75*
G02*
X43910000Y-36101125I0J274875D01*
G01*
X43910000Y-35148875D01*
G75*
G02*
X44184875Y-34874000I274875J0D01*
G01*
X44762125Y-34874000D01*
G75*
G02*
X45037000Y-35148875I0J-274875D01*
G01*
G37*
G36*
G01*
X40291000Y-28544875D02*
X40291000Y-29497125D01*
G75*
G02*
X40016125Y-29772000I-274875J0D01*
G01*
X39438875Y-29772000D01*
G75*
G02*
X39164000Y-29497125I0J274875D01*
G01*
X39164000Y-28544875D01*
G75*
G02*
X39438875Y-28270000I274875J0D01*
G01*
X40016125Y-28270000D01*
G75*
G02*
X40291000Y-28544875I0J-274875D01*
G01*
G37*
G36*
G01*
X42116000Y-28544875D02*
X42116000Y-29497125D01*
G75*
G02*
X41841125Y-29772000I-274875J0D01*
G01*
X41263875Y-29772000D01*
G75*
G02*
X40989000Y-29497125I0J274875D01*
G01*
X40989000Y-28544875D01*
G75*
G02*
X41263875Y-28270000I274875J0D01*
G01*
X41841125Y-28270000D01*
G75*
G02*
X42116000Y-28544875I0J-274875D01*
G01*
G37*
G36*
G01*
X62922400Y-38317125D02*
X62922400Y-39269375D01*
G75*
G02*
X62647525Y-39544250I-274875J0D01*
G01*
X62070275Y-39544250D01*
G75*
G02*
X61795400Y-39269375I0J274875D01*
G01*
X61795400Y-38317125D01*
G75*
G02*
X62070275Y-38042250I274875J0D01*
G01*
X62647525Y-38042250D01*
G75*
G02*
X62922400Y-38317125I0J-274875D01*
G01*
G37*
G36*
G01*
X64747400Y-38317125D02*
X64747400Y-39269375D01*
G75*
G02*
X64472525Y-39544250I-274875J0D01*
G01*
X63895275Y-39544250D01*
G75*
G02*
X63620400Y-39269375I0J274875D01*
G01*
X63620400Y-38317125D01*
G75*
G02*
X63895275Y-38042250I274875J0D01*
G01*
X64472525Y-38042250D01*
G75*
G02*
X64747400Y-38317125I0J-274875D01*
G01*
G37*
G36*
G01*
X62922400Y-41485375D02*
X62922400Y-42437625D01*
G75*
G02*
X62647525Y-42712500I-274875J0D01*
G01*
X62070275Y-42712500D01*
G75*
G02*
X61795400Y-42437625I0J274875D01*
G01*
X61795400Y-41485375D01*
G75*
G02*
X62070275Y-41210500I274875J0D01*
G01*
X62647525Y-41210500D01*
G75*
G02*
X62922400Y-41485375I0J-274875D01*
G01*
G37*
G36*
G01*
X64747400Y-41485375D02*
X64747400Y-42437625D01*
G75*
G02*
X64472525Y-42712500I-274875J0D01*
G01*
X63895275Y-42712500D01*
G75*
G02*
X63620400Y-42437625I0J274875D01*
G01*
X63620400Y-41485375D01*
G75*
G02*
X63895275Y-41210500I274875J0D01*
G01*
X64472525Y-41210500D01*
G75*
G02*
X64747400Y-41485375I0J-274875D01*
G01*
G37*
G36*
G01*
X62922400Y-44653625D02*
X62922400Y-45605875D01*
G75*
G02*
X62647525Y-45880750I-274875J0D01*
G01*
X62070275Y-45880750D01*
G75*
G02*
X61795400Y-45605875I0J274875D01*
G01*
X61795400Y-44653625D01*
G75*
G02*
X62070275Y-44378750I274875J0D01*
G01*
X62647525Y-44378750D01*
G75*
G02*
X62922400Y-44653625I0J-274875D01*
G01*
G37*
G36*
G01*
X64747400Y-44653625D02*
X64747400Y-45605875D01*
G75*
G02*
X64472525Y-45880750I-274875J0D01*
G01*
X63895275Y-45880750D01*
G75*
G02*
X63620400Y-45605875I0J274875D01*
G01*
X63620400Y-44653625D01*
G75*
G02*
X63895275Y-44378750I274875J0D01*
G01*
X64472525Y-44378750D01*
G75*
G02*
X64747400Y-44653625I0J-274875D01*
G01*
G37*
G36*
G01*
X62922400Y-47821875D02*
X62922400Y-48774125D01*
G75*
G02*
X62647525Y-49049000I-274875J0D01*
G01*
X62070275Y-49049000D01*
G75*
G02*
X61795400Y-48774125I0J274875D01*
G01*
X61795400Y-47821875D01*
G75*
G02*
X62070275Y-47547000I274875J0D01*
G01*
X62647525Y-47547000D01*
G75*
G02*
X62922400Y-47821875I0J-274875D01*
G01*
G37*
G36*
G01*
X64747400Y-47821875D02*
X64747400Y-48774125D01*
G75*
G02*
X64472525Y-49049000I-274875J0D01*
G01*
X63895275Y-49049000D01*
G75*
G02*
X63620400Y-48774125I0J274875D01*
G01*
X63620400Y-47821875D01*
G75*
G02*
X63895275Y-47547000I274875J0D01*
G01*
X64472525Y-47547000D01*
G75*
G02*
X64747400Y-47821875I0J-274875D01*
G01*
G37*
G36*
G01*
X62922400Y-35148875D02*
X62922400Y-36101125D01*
G75*
G02*
X62647525Y-36376000I-274875J0D01*
G01*
X62070275Y-36376000D01*
G75*
G02*
X61795400Y-36101125I0J274875D01*
G01*
X61795400Y-35148875D01*
G75*
G02*
X62070275Y-34874000I274875J0D01*
G01*
X62647525Y-34874000D01*
G75*
G02*
X62922400Y-35148875I0J-274875D01*
G01*
G37*
G36*
G01*
X64747400Y-35148875D02*
X64747400Y-36101125D01*
G75*
G02*
X64472525Y-36376000I-274875J0D01*
G01*
X63895275Y-36376000D01*
G75*
G02*
X63620400Y-36101125I0J274875D01*
G01*
X63620400Y-35148875D01*
G75*
G02*
X63895275Y-34874000I274875J0D01*
G01*
X64472525Y-34874000D01*
G75*
G02*
X64747400Y-35148875I0J-274875D01*
G01*
G37*
X79375000Y-49530000D03*
X79375000Y-46990000D03*
X79375000Y-44450000D03*
G36*
G01*
X78488654Y-40989000D02*
X80261346Y-40989000D01*
G75*
G02*
X80526000Y-41253654I0J-264654D01*
G01*
X80526000Y-42566346D01*
G75*
G02*
X80261346Y-42831000I-264654J0D01*
G01*
X78488654Y-42831000D01*
G75*
G02*
X78224000Y-42566346I0J264654D01*
G01*
X78224000Y-41253654D01*
G75*
G02*
X78488654Y-40989000I264654J0D01*
G01*
G37*
X25146000Y-53086000D03*
X25146000Y-50546000D03*
G36*
G01*
X24259654Y-47085000D02*
X26032346Y-47085000D01*
G75*
G02*
X26297000Y-47349654I0J-264654D01*
G01*
X26297000Y-48662346D01*
G75*
G02*
X26032346Y-48927000I-264654J0D01*
G01*
X24259654Y-48927000D01*
G75*
G02*
X23995000Y-48662346I0J264654D01*
G01*
X23995000Y-47349654D01*
G75*
G02*
X24259654Y-47085000I264654J0D01*
G01*
G37*
X79375000Y-36830000D03*
X79375000Y-34290000D03*
G36*
G01*
X78488654Y-30829000D02*
X80261346Y-30829000D01*
G75*
G02*
X80526000Y-31093654I0J-264654D01*
G01*
X80526000Y-32406346D01*
G75*
G02*
X80261346Y-32671000I-264654J0D01*
G01*
X78488654Y-32671000D01*
G75*
G02*
X78224000Y-32406346I0J264654D01*
G01*
X78224000Y-31093654D01*
G75*
G02*
X78488654Y-30829000I264654J0D01*
G01*
G37*
D17*
X23010726Y-27027274D03*
X21844000Y-26544000D03*
X20677274Y-27027274D03*
X20194000Y-28194000D03*
X20677274Y-29360726D03*
X21844000Y-29844000D03*
X23010726Y-29360726D03*
X23494000Y-28194000D03*
D18*
X21844000Y-28194000D03*
D17*
X84097726Y-27027274D03*
X82931000Y-26544000D03*
X81764274Y-27027274D03*
X81281000Y-28194000D03*
X81764274Y-29360726D03*
X82931000Y-29844000D03*
X84097726Y-29360726D03*
X84581000Y-28194000D03*
D18*
X82931000Y-28194000D03*
X82931000Y-70866000D03*
D17*
X84581000Y-70866000D03*
X84097726Y-72032726D03*
X82931000Y-72516000D03*
X81764274Y-72032726D03*
X81281000Y-70866000D03*
X81764274Y-69699274D03*
X82931000Y-69216000D03*
X84097726Y-69699274D03*
D18*
X21844000Y-70866000D03*
D17*
X23494000Y-70866000D03*
X23010726Y-72032726D03*
X21844000Y-72516000D03*
X20677274Y-72032726D03*
X20194000Y-70866000D03*
X20677274Y-69699274D03*
X21844000Y-69216000D03*
X23010726Y-69699274D03*
D19*
X69088000Y-49530000D03*
G36*
G01*
X68188000Y-46039000D02*
X69988000Y-46039000D01*
G75*
G02*
X70039000Y-46090000I0J-51000D01*
G01*
X70039000Y-47890000D01*
G75*
G02*
X69988000Y-47941000I-51000J0D01*
G01*
X68188000Y-47941000D01*
G75*
G02*
X68137000Y-47890000I0J51000D01*
G01*
X68137000Y-46090000D01*
G75*
G02*
X68188000Y-46039000I51000J0D01*
G01*
G37*
G36*
G01*
X34810500Y-64237000D02*
X33009500Y-64237000D01*
G75*
G02*
X32109000Y-63336500I0J900500D01*
G01*
X32109000Y-61535500D01*
G75*
G02*
X33009500Y-60635000I900500J0D01*
G01*
X34810500Y-60635000D01*
G75*
G02*
X35711000Y-61535500I0J-900500D01*
G01*
X35711000Y-63336500D01*
G75*
G02*
X34810500Y-64237000I-900500J0D01*
G01*
G37*
G36*
G01*
X30235500Y-66987000D02*
X28184500Y-66987000D01*
G75*
G02*
X27409000Y-66211500I0J775500D01*
G01*
X27409000Y-64660500D01*
G75*
G02*
X28184500Y-63885000I775500J0D01*
G01*
X30235500Y-63885000D01*
G75*
G02*
X31011000Y-64660500I0J-775500D01*
G01*
X31011000Y-66211500D01*
G75*
G02*
X30235500Y-66987000I-775500J0D01*
G01*
G37*
G36*
G01*
X30960000Y-61237000D02*
X27460000Y-61237000D01*
G75*
G02*
X27409000Y-61186000I0J51000D01*
G01*
X27409000Y-57686000D01*
G75*
G02*
X27460000Y-57635000I51000J0D01*
G01*
X30960000Y-57635000D01*
G75*
G02*
X31011000Y-57686000I0J-51000D01*
G01*
X31011000Y-61186000D01*
G75*
G02*
X30960000Y-61237000I-51000J0D01*
G01*
G37*
D20*
X73719399Y-29845000D03*
X71179399Y-29845000D03*
X68639399Y-29845000D03*
G36*
G01*
X66949399Y-30746000D02*
X65249399Y-30746000D01*
G75*
G02*
X65198399Y-30695000I0J51000D01*
G01*
X65198399Y-28995000D01*
G75*
G02*
X65249399Y-28944000I51000J0D01*
G01*
X66949399Y-28944000D01*
G75*
G02*
X67000399Y-28995000I0J-51000D01*
G01*
X67000399Y-30695000D01*
G75*
G02*
X66949399Y-30746000I-51000J0D01*
G01*
G37*
D16*
X25146000Y-42926000D03*
X25146000Y-40386000D03*
X25146000Y-37846000D03*
X25146000Y-35306000D03*
G36*
G01*
X24259654Y-31845000D02*
X26032346Y-31845000D01*
G75*
G02*
X26297000Y-32109654I0J-264654D01*
G01*
X26297000Y-33422346D01*
G75*
G02*
X26032346Y-33687000I-264654J0D01*
G01*
X24259654Y-33687000D01*
G75*
G02*
X23995000Y-33422346I0J264654D01*
G01*
X23995000Y-32109654D01*
G75*
G02*
X24259654Y-31845000I264654J0D01*
G01*
G37*
M02*
