G04 #@! TF.GenerationSoftware,KiCad,Pcbnew,(5.1.9)-1*
G04 #@! TF.CreationDate,2021-06-01T19:36:45+03:00*
G04 #@! TF.ProjectId,ESP-RGBW-3S,4553502d-5247-4425-972d-33532e6b6963,0.4*
G04 #@! TF.SameCoordinates,Original*
G04 #@! TF.FileFunction,Legend,Top*
G04 #@! TF.FilePolarity,Positive*
%FSLAX46Y46*%
G04 Gerber Fmt 4.6, Leading zero omitted, Abs format (unit mm)*
G04 Created by KiCad (PCBNEW (5.1.9)-1) date 2021-06-01 19:36:45*
%MOMM*%
%LPD*%
G01*
G04 APERTURE LIST*
%ADD10C,0.200000*%
%ADD11C,0.800000*%
%ADD12C,0.120000*%
%ADD13C,0.150000*%
%ADD14C,0.127000*%
%ADD15C,0.500000*%
%ADD16C,0.152400*%
%ADD17C,2.702000*%
%ADD18C,2.642000*%
%ADD19O,2.302000X1.842000*%
%ADD20C,0.802000*%
%ADD21C,4.502000*%
%ADD22C,1.902000*%
%ADD23O,1.802000X1.802000*%
G04 APERTURE END LIST*
D10*
X31583333Y-49307904D02*
X31583333Y-49784095D01*
X31297619Y-49212666D02*
X32297619Y-49546000D01*
X31297619Y-49879333D01*
X31297619Y-50212666D02*
X32297619Y-50212666D01*
X32297619Y-50450761D01*
X32250000Y-50593619D01*
X32154761Y-50688857D01*
X32059523Y-50736476D01*
X31869047Y-50784095D01*
X31726190Y-50784095D01*
X31535714Y-50736476D01*
X31440476Y-50688857D01*
X31345238Y-50593619D01*
X31297619Y-50450761D01*
X31297619Y-50212666D01*
X31392857Y-51784095D02*
X31345238Y-51736476D01*
X31297619Y-51593619D01*
X31297619Y-51498380D01*
X31345238Y-51355523D01*
X31440476Y-51260285D01*
X31535714Y-51212666D01*
X31726190Y-51165047D01*
X31869047Y-51165047D01*
X32059523Y-51212666D01*
X32154761Y-51260285D01*
X32250000Y-51355523D01*
X32297619Y-51498380D01*
X32297619Y-51593619D01*
X32250000Y-51736476D01*
X32202380Y-51784095D01*
X32250000Y-30130904D02*
X32297619Y-30035666D01*
X32297619Y-29892809D01*
X32250000Y-29749952D01*
X32154761Y-29654714D01*
X32059523Y-29607095D01*
X31869047Y-29559476D01*
X31726190Y-29559476D01*
X31535714Y-29607095D01*
X31440476Y-29654714D01*
X31345238Y-29749952D01*
X31297619Y-29892809D01*
X31297619Y-29988047D01*
X31345238Y-30130904D01*
X31392857Y-30178523D01*
X31726190Y-30178523D01*
X31726190Y-29988047D01*
X31297619Y-30607095D02*
X32297619Y-30607095D01*
X32297619Y-30988047D01*
X32250000Y-31083285D01*
X32202380Y-31130904D01*
X32107142Y-31178523D01*
X31964285Y-31178523D01*
X31869047Y-31130904D01*
X31821428Y-31083285D01*
X31773809Y-30988047D01*
X31773809Y-30607095D01*
X31297619Y-31607095D02*
X32297619Y-31607095D01*
X32297619Y-32273761D02*
X32297619Y-32464238D01*
X32250000Y-32559476D01*
X32154761Y-32654714D01*
X31964285Y-32702333D01*
X31630952Y-32702333D01*
X31440476Y-32654714D01*
X31345238Y-32559476D01*
X31297619Y-32464238D01*
X31297619Y-32273761D01*
X31345238Y-32178523D01*
X31440476Y-32083285D01*
X31630952Y-32035666D01*
X31964285Y-32035666D01*
X32154761Y-32083285D01*
X32250000Y-32178523D01*
X32297619Y-32273761D01*
X31392857Y-33130904D02*
X31345238Y-33178523D01*
X31297619Y-33130904D01*
X31345238Y-33083285D01*
X31392857Y-33130904D01*
X31297619Y-33130904D01*
X31916666Y-33130904D02*
X31869047Y-33178523D01*
X31821428Y-33130904D01*
X31869047Y-33083285D01*
X31916666Y-33130904D01*
X31821428Y-33130904D01*
X31297619Y-42735523D02*
X31297619Y-42164095D01*
X31297619Y-42449809D02*
X32297619Y-42449809D01*
X32154761Y-42354571D01*
X32059523Y-42259333D01*
X32011904Y-42164095D01*
X32297619Y-43068857D02*
X32297619Y-43687904D01*
X31916666Y-43354571D01*
X31916666Y-43497428D01*
X31869047Y-43592666D01*
X31821428Y-43640285D01*
X31726190Y-43687904D01*
X31488095Y-43687904D01*
X31392857Y-43640285D01*
X31345238Y-43592666D01*
X31297619Y-43497428D01*
X31297619Y-43211714D01*
X31345238Y-43116476D01*
X31392857Y-43068857D01*
X31297619Y-40195523D02*
X31297619Y-39624095D01*
X31297619Y-39909809D02*
X32297619Y-39909809D01*
X32154761Y-39814571D01*
X32059523Y-39719333D01*
X32011904Y-39624095D01*
X32202380Y-40576476D02*
X32250000Y-40624095D01*
X32297619Y-40719333D01*
X32297619Y-40957428D01*
X32250000Y-41052666D01*
X32202380Y-41100285D01*
X32107142Y-41147904D01*
X32011904Y-41147904D01*
X31869047Y-41100285D01*
X31297619Y-40528857D01*
X31297619Y-41147904D01*
X31297619Y-37655523D02*
X31297619Y-37084095D01*
X31297619Y-37369809D02*
X32297619Y-37369809D01*
X32154761Y-37274571D01*
X32059523Y-37179333D01*
X32011904Y-37084095D01*
X32297619Y-38512666D02*
X32297619Y-38322190D01*
X32250000Y-38226952D01*
X32202380Y-38179333D01*
X32059523Y-38084095D01*
X31869047Y-38036476D01*
X31488095Y-38036476D01*
X31392857Y-38084095D01*
X31345238Y-38131714D01*
X31297619Y-38226952D01*
X31297619Y-38417428D01*
X31345238Y-38512666D01*
X31392857Y-38560285D01*
X31488095Y-38607904D01*
X31726190Y-38607904D01*
X31821428Y-38560285D01*
X31869047Y-38512666D01*
X31916666Y-38417428D01*
X31916666Y-38226952D01*
X31869047Y-38131714D01*
X31821428Y-38084095D01*
X31726190Y-38036476D01*
X31297619Y-35115523D02*
X31297619Y-34544095D01*
X31297619Y-34829809D02*
X32297619Y-34829809D01*
X32154761Y-34734571D01*
X32059523Y-34639333D01*
X32011904Y-34544095D01*
X31964285Y-35972666D02*
X31297619Y-35972666D01*
X32345238Y-35734571D02*
X31630952Y-35496476D01*
X31630952Y-36115523D01*
D11*
X82062609Y-30353000D02*
G75*
G03*
X82062609Y-30353000I-401609J0D01*
G01*
X81935609Y-40513000D02*
G75*
G03*
X81935609Y-40513000I-401609J0D01*
G01*
X27833609Y-46609000D02*
G75*
G03*
X27833609Y-46609000I-401609J0D01*
G01*
X27833609Y-31369000D02*
G75*
G03*
X27833609Y-31369000I-401609J0D01*
G01*
D12*
X85090000Y-53848000D02*
X80010000Y-53848000D01*
X85090000Y-67310000D02*
X85090000Y-53848000D01*
X80010000Y-67310000D02*
X85090000Y-67310000D01*
X80010000Y-53848000D02*
X80010000Y-67310000D01*
D13*
X80828571Y-66085404D02*
X80828571Y-65752071D01*
X81352380Y-65609214D02*
X81352380Y-66085404D01*
X80352380Y-66085404D01*
X80352380Y-65609214D01*
X81304761Y-65228261D02*
X81352380Y-65085404D01*
X81352380Y-64847309D01*
X81304761Y-64752071D01*
X81257142Y-64704452D01*
X81161904Y-64656833D01*
X81066666Y-64656833D01*
X80971428Y-64704452D01*
X80923809Y-64752071D01*
X80876190Y-64847309D01*
X80828571Y-65037785D01*
X80780952Y-65133023D01*
X80733333Y-65180642D01*
X80638095Y-65228261D01*
X80542857Y-65228261D01*
X80447619Y-65180642D01*
X80400000Y-65133023D01*
X80352380Y-65037785D01*
X80352380Y-64799690D01*
X80400000Y-64656833D01*
X81352380Y-64228261D02*
X80352380Y-64228261D01*
X80352380Y-63847309D01*
X80400000Y-63752071D01*
X80447619Y-63704452D01*
X80542857Y-63656833D01*
X80685714Y-63656833D01*
X80780952Y-63704452D01*
X80828571Y-63752071D01*
X80876190Y-63847309D01*
X80876190Y-64228261D01*
X80971428Y-63228261D02*
X80971428Y-62466357D01*
X81352380Y-61418738D02*
X80876190Y-61752071D01*
X81352380Y-61990166D02*
X80352380Y-61990166D01*
X80352380Y-61609214D01*
X80400000Y-61513976D01*
X80447619Y-61466357D01*
X80542857Y-61418738D01*
X80685714Y-61418738D01*
X80780952Y-61466357D01*
X80828571Y-61513976D01*
X80876190Y-61609214D01*
X80876190Y-61990166D01*
X80400000Y-60466357D02*
X80352380Y-60561595D01*
X80352380Y-60704452D01*
X80400000Y-60847309D01*
X80495238Y-60942547D01*
X80590476Y-60990166D01*
X80780952Y-61037785D01*
X80923809Y-61037785D01*
X81114285Y-60990166D01*
X81209523Y-60942547D01*
X81304761Y-60847309D01*
X81352380Y-60704452D01*
X81352380Y-60609214D01*
X81304761Y-60466357D01*
X81257142Y-60418738D01*
X80923809Y-60418738D01*
X80923809Y-60609214D01*
X80828571Y-59656833D02*
X80876190Y-59513976D01*
X80923809Y-59466357D01*
X81019047Y-59418738D01*
X81161904Y-59418738D01*
X81257142Y-59466357D01*
X81304761Y-59513976D01*
X81352380Y-59609214D01*
X81352380Y-59990166D01*
X80352380Y-59990166D01*
X80352380Y-59656833D01*
X80400000Y-59561595D01*
X80447619Y-59513976D01*
X80542857Y-59466357D01*
X80638095Y-59466357D01*
X80733333Y-59513976D01*
X80780952Y-59561595D01*
X80828571Y-59656833D01*
X80828571Y-59990166D01*
X80352380Y-59085404D02*
X81352380Y-58847309D01*
X80638095Y-58656833D01*
X81352380Y-58466357D01*
X80352380Y-58228261D01*
X80971428Y-57847309D02*
X80971428Y-57085404D01*
X80352380Y-56704452D02*
X80352380Y-56085404D01*
X80733333Y-56418738D01*
X80733333Y-56275880D01*
X80780952Y-56180642D01*
X80828571Y-56133023D01*
X80923809Y-56085404D01*
X81161904Y-56085404D01*
X81257142Y-56133023D01*
X81304761Y-56180642D01*
X81352380Y-56275880D01*
X81352380Y-56561595D01*
X81304761Y-56656833D01*
X81257142Y-56704452D01*
X81304761Y-55704452D02*
X81352380Y-55561595D01*
X81352380Y-55323500D01*
X81304761Y-55228261D01*
X81257142Y-55180642D01*
X81161904Y-55133023D01*
X81066666Y-55133023D01*
X80971428Y-55180642D01*
X80923809Y-55228261D01*
X80876190Y-55323500D01*
X80828571Y-55513976D01*
X80780952Y-55609214D01*
X80733333Y-55656833D01*
X80638095Y-55704452D01*
X80542857Y-55704452D01*
X80447619Y-55656833D01*
X80400000Y-55609214D01*
X80352380Y-55513976D01*
X80352380Y-55275880D01*
X80400000Y-55133023D01*
X82335714Y-66180642D02*
X83002380Y-65942547D01*
X82335714Y-65704452D01*
X82907142Y-65323500D02*
X82954761Y-65275880D01*
X83002380Y-65323500D01*
X82954761Y-65371119D01*
X82907142Y-65323500D01*
X83002380Y-65323500D01*
X82002380Y-63894928D02*
X82002380Y-63799690D01*
X82050000Y-63704452D01*
X82097619Y-63656833D01*
X82192857Y-63609214D01*
X82383333Y-63561595D01*
X82621428Y-63561595D01*
X82811904Y-63609214D01*
X82907142Y-63656833D01*
X82954761Y-63704452D01*
X83002380Y-63799690D01*
X83002380Y-63894928D01*
X82954761Y-63990166D01*
X82907142Y-64037785D01*
X82811904Y-64085404D01*
X82621428Y-64133023D01*
X82383333Y-64133023D01*
X82192857Y-64085404D01*
X82097619Y-64037785D01*
X82050000Y-63990166D01*
X82002380Y-63894928D01*
X82907142Y-63133023D02*
X82954761Y-63085404D01*
X83002380Y-63133023D01*
X82954761Y-63180642D01*
X82907142Y-63133023D01*
X83002380Y-63133023D01*
X82335714Y-62228261D02*
X83002380Y-62228261D01*
X81954761Y-62466357D02*
X82669047Y-62704452D01*
X82669047Y-62085404D01*
X84176190Y-65894928D02*
X84652380Y-65894928D01*
X83652380Y-66228261D02*
X84176190Y-65894928D01*
X83652380Y-65561595D01*
X83985714Y-64799690D02*
X84652380Y-64799690D01*
X83985714Y-65228261D02*
X84509523Y-65228261D01*
X84604761Y-65180642D01*
X84652380Y-65085404D01*
X84652380Y-64942547D01*
X84604761Y-64847309D01*
X84557142Y-64799690D01*
X84652380Y-64323500D02*
X83985714Y-64323500D01*
X84176190Y-64323500D02*
X84080952Y-64275880D01*
X84033333Y-64228261D01*
X83985714Y-64133023D01*
X83985714Y-64037785D01*
X84652380Y-63704452D02*
X83985714Y-63704452D01*
X83652380Y-63704452D02*
X83700000Y-63752071D01*
X83747619Y-63704452D01*
X83700000Y-63656833D01*
X83652380Y-63704452D01*
X83747619Y-63704452D01*
X83985714Y-63323500D02*
X84652380Y-63085404D01*
X83985714Y-62847309D02*
X84652380Y-63085404D01*
X84890476Y-63180642D01*
X84938095Y-63228261D01*
X84985714Y-63323500D01*
X84604761Y-61752071D02*
X84652380Y-61609214D01*
X84652380Y-61371119D01*
X84604761Y-61275880D01*
X84557142Y-61228261D01*
X84461904Y-61180642D01*
X84366666Y-61180642D01*
X84271428Y-61228261D01*
X84223809Y-61275880D01*
X84176190Y-61371119D01*
X84128571Y-61561595D01*
X84080952Y-61656833D01*
X84033333Y-61704452D01*
X83938095Y-61752071D01*
X83842857Y-61752071D01*
X83747619Y-61704452D01*
X83700000Y-61656833D01*
X83652380Y-61561595D01*
X83652380Y-61323500D01*
X83700000Y-61180642D01*
X84652380Y-60752071D02*
X83985714Y-60752071D01*
X84080952Y-60752071D02*
X84033333Y-60704452D01*
X83985714Y-60609214D01*
X83985714Y-60466357D01*
X84033333Y-60371119D01*
X84128571Y-60323500D01*
X84652380Y-60323500D01*
X84128571Y-60323500D02*
X84033333Y-60275880D01*
X83985714Y-60180642D01*
X83985714Y-60037785D01*
X84033333Y-59942547D01*
X84128571Y-59894928D01*
X84652380Y-59894928D01*
X84604761Y-59037785D02*
X84652380Y-59133023D01*
X84652380Y-59323500D01*
X84604761Y-59418738D01*
X84509523Y-59466357D01*
X84128571Y-59466357D01*
X84033333Y-59418738D01*
X83985714Y-59323500D01*
X83985714Y-59133023D01*
X84033333Y-59037785D01*
X84128571Y-58990166D01*
X84223809Y-58990166D01*
X84319047Y-59466357D01*
X83985714Y-58704452D02*
X83985714Y-58323500D01*
X83652380Y-58561595D02*
X84509523Y-58561595D01*
X84604761Y-58513976D01*
X84652380Y-58418738D01*
X84652380Y-58323500D01*
X84652380Y-57561595D02*
X84128571Y-57561595D01*
X84033333Y-57609214D01*
X83985714Y-57704452D01*
X83985714Y-57894928D01*
X84033333Y-57990166D01*
X84604761Y-57561595D02*
X84652380Y-57656833D01*
X84652380Y-57894928D01*
X84604761Y-57990166D01*
X84509523Y-58037785D01*
X84414285Y-58037785D01*
X84319047Y-57990166D01*
X84271428Y-57894928D01*
X84271428Y-57656833D01*
X84223809Y-57561595D01*
X83985714Y-57085404D02*
X84652380Y-57085404D01*
X84080952Y-57085404D02*
X84033333Y-57037785D01*
X83985714Y-56942547D01*
X83985714Y-56799690D01*
X84033333Y-56704452D01*
X84128571Y-56656833D01*
X84652380Y-56656833D01*
X84652380Y-55752071D02*
X84128571Y-55752071D01*
X84033333Y-55799690D01*
X83985714Y-55894928D01*
X83985714Y-56085404D01*
X84033333Y-56180642D01*
X84604761Y-55752071D02*
X84652380Y-55847309D01*
X84652380Y-56085404D01*
X84604761Y-56180642D01*
X84509523Y-56228261D01*
X84414285Y-56228261D01*
X84319047Y-56180642D01*
X84271428Y-56085404D01*
X84271428Y-55847309D01*
X84223809Y-55752071D01*
D10*
X67199142Y-39135857D02*
X66699142Y-39135857D01*
X66699142Y-39921571D02*
X66699142Y-38421571D01*
X67413428Y-38421571D01*
X68199142Y-39921571D02*
X68056285Y-39850142D01*
X67984857Y-39707285D01*
X67984857Y-38421571D01*
X69413428Y-39921571D02*
X69413428Y-39135857D01*
X69342000Y-38993000D01*
X69199142Y-38921571D01*
X68913428Y-38921571D01*
X68770571Y-38993000D01*
X69413428Y-39850142D02*
X69270571Y-39921571D01*
X68913428Y-39921571D01*
X68770571Y-39850142D01*
X68699142Y-39707285D01*
X68699142Y-39564428D01*
X68770571Y-39421571D01*
X68913428Y-39350142D01*
X69270571Y-39350142D01*
X69413428Y-39278714D01*
X70056285Y-39850142D02*
X70199142Y-39921571D01*
X70484857Y-39921571D01*
X70627714Y-39850142D01*
X70699142Y-39707285D01*
X70699142Y-39635857D01*
X70627714Y-39493000D01*
X70484857Y-39421571D01*
X70270571Y-39421571D01*
X70127714Y-39350142D01*
X70056285Y-39207285D01*
X70056285Y-39135857D01*
X70127714Y-38993000D01*
X70270571Y-38921571D01*
X70484857Y-38921571D01*
X70627714Y-38993000D01*
X71342000Y-39921571D02*
X71342000Y-38421571D01*
X71984857Y-39921571D02*
X71984857Y-39135857D01*
X71913428Y-38993000D01*
X71770571Y-38921571D01*
X71556285Y-38921571D01*
X71413428Y-38993000D01*
X71342000Y-39064428D01*
X71080333Y-27630380D02*
X70747000Y-27154190D01*
X70508904Y-27630380D02*
X70508904Y-26630380D01*
X70889857Y-26630380D01*
X70985095Y-26678000D01*
X71032714Y-26725619D01*
X71080333Y-26820857D01*
X71080333Y-26963714D01*
X71032714Y-27058952D01*
X70985095Y-27106571D01*
X70889857Y-27154190D01*
X70508904Y-27154190D01*
X71413666Y-26630380D02*
X72080333Y-27630380D01*
X72080333Y-26630380D02*
X71413666Y-27630380D01*
X68072095Y-26630380D02*
X68643523Y-26630380D01*
X68357809Y-27630380D02*
X68357809Y-26630380D01*
X68881619Y-26630380D02*
X69548285Y-27630380D01*
X69548285Y-26630380D02*
X68881619Y-27630380D01*
X73533047Y-27122428D02*
X74294952Y-27122428D01*
X63611333Y-26503380D02*
X64230380Y-26503380D01*
X63897047Y-26884333D01*
X64039904Y-26884333D01*
X64135142Y-26931952D01*
X64182761Y-26979571D01*
X64230380Y-27074809D01*
X64230380Y-27312904D01*
X64182761Y-27408142D01*
X64135142Y-27455761D01*
X64039904Y-27503380D01*
X63754190Y-27503380D01*
X63658952Y-27455761D01*
X63611333Y-27408142D01*
X64658952Y-27408142D02*
X64706571Y-27455761D01*
X64658952Y-27503380D01*
X64611333Y-27455761D01*
X64658952Y-27408142D01*
X64658952Y-27503380D01*
X65039904Y-26503380D02*
X65658952Y-26503380D01*
X65325619Y-26884333D01*
X65468476Y-26884333D01*
X65563714Y-26931952D01*
X65611333Y-26979571D01*
X65658952Y-27074809D01*
X65658952Y-27312904D01*
X65611333Y-27408142D01*
X65563714Y-27455761D01*
X65468476Y-27503380D01*
X65182761Y-27503380D01*
X65087523Y-27455761D01*
X65039904Y-27408142D01*
X66087523Y-27122428D02*
X66849428Y-27122428D01*
X66468476Y-27503380D02*
X66468476Y-26741476D01*
X28408428Y-70192571D02*
X27551285Y-70192571D01*
X27979857Y-70192571D02*
X27979857Y-68692571D01*
X27837000Y-68906857D01*
X27694142Y-69049714D01*
X27551285Y-69121142D01*
X28979857Y-68835428D02*
X29051285Y-68764000D01*
X29194142Y-68692571D01*
X29551285Y-68692571D01*
X29694142Y-68764000D01*
X29765571Y-68835428D01*
X29837000Y-68978285D01*
X29837000Y-69121142D01*
X29765571Y-69335428D01*
X28908428Y-70192571D01*
X29837000Y-70192571D01*
X30265571Y-68692571D02*
X30765571Y-70192571D01*
X31265571Y-68692571D01*
X28194142Y-72642571D02*
X28194142Y-71142571D01*
X28551285Y-71142571D01*
X28765571Y-71214000D01*
X28908428Y-71356857D01*
X28979857Y-71499714D01*
X29051285Y-71785428D01*
X29051285Y-71999714D01*
X28979857Y-72285428D01*
X28908428Y-72428285D01*
X28765571Y-72571142D01*
X28551285Y-72642571D01*
X28194142Y-72642571D01*
X30551285Y-72499714D02*
X30479857Y-72571142D01*
X30265571Y-72642571D01*
X30122714Y-72642571D01*
X29908428Y-72571142D01*
X29765571Y-72428285D01*
X29694142Y-72285428D01*
X29622714Y-71999714D01*
X29622714Y-71785428D01*
X29694142Y-71499714D01*
X29765571Y-71356857D01*
X29908428Y-71214000D01*
X30122714Y-71142571D01*
X30265571Y-71142571D01*
X30479857Y-71214000D01*
X30551285Y-71285428D01*
X19895428Y-35484857D02*
X21395428Y-35484857D01*
X21395428Y-36056285D01*
X21324000Y-36199142D01*
X21252571Y-36270571D01*
X21109714Y-36342000D01*
X20895428Y-36342000D01*
X20752571Y-36270571D01*
X20681142Y-36199142D01*
X20609714Y-36056285D01*
X20609714Y-35484857D01*
X21395428Y-36842000D02*
X19895428Y-37199142D01*
X20966857Y-37484857D01*
X19895428Y-37770571D01*
X21395428Y-38127714D01*
X19895428Y-38699142D02*
X21395428Y-38699142D01*
X20324000Y-39199142D01*
X21395428Y-39699142D01*
X19895428Y-39699142D01*
X20324000Y-45796000D02*
X20324000Y-46510285D01*
X19895428Y-45653142D02*
X21395428Y-46153142D01*
X19895428Y-46653142D01*
X19895428Y-47153142D02*
X21395428Y-47153142D01*
X21395428Y-47510285D01*
X21324000Y-47724571D01*
X21181142Y-47867428D01*
X21038285Y-47938857D01*
X20752571Y-48010285D01*
X20538285Y-48010285D01*
X20252571Y-47938857D01*
X20109714Y-47867428D01*
X19966857Y-47724571D01*
X19895428Y-47510285D01*
X19895428Y-47153142D01*
X20038285Y-49510285D02*
X19966857Y-49438857D01*
X19895428Y-49224571D01*
X19895428Y-49081714D01*
X19966857Y-48867428D01*
X20109714Y-48724571D01*
X20252571Y-48653142D01*
X20538285Y-48581714D01*
X20752571Y-48581714D01*
X21038285Y-48653142D01*
X21181142Y-48724571D01*
X21324000Y-48867428D01*
X21395428Y-49081714D01*
X21395428Y-49224571D01*
X21324000Y-49438857D01*
X21252571Y-49510285D01*
X21466857Y-51224571D02*
X19538285Y-49938857D01*
X19895428Y-52438857D02*
X19895428Y-51724571D01*
X21395428Y-51724571D01*
X19895428Y-52938857D02*
X21395428Y-52938857D01*
X21395428Y-53296000D01*
X21324000Y-53510285D01*
X21181142Y-53653142D01*
X21038285Y-53724571D01*
X20752571Y-53796000D01*
X20538285Y-53796000D01*
X20252571Y-53724571D01*
X20109714Y-53653142D01*
X19966857Y-53510285D01*
X19895428Y-53296000D01*
X19895428Y-52938857D01*
X19895428Y-55296000D02*
X20609714Y-54796000D01*
X19895428Y-54438857D02*
X21395428Y-54438857D01*
X21395428Y-55010285D01*
X21324000Y-55153142D01*
X21252571Y-55224571D01*
X21109714Y-55296000D01*
X20895428Y-55296000D01*
X20752571Y-55224571D01*
X20681142Y-55153142D01*
X20609714Y-55010285D01*
X20609714Y-54438857D01*
X83270714Y-41605142D02*
X83270714Y-40690857D01*
X83727857Y-41148000D02*
X82813571Y-41148000D01*
X83716761Y-45259476D02*
X83764380Y-45116619D01*
X83764380Y-44878523D01*
X83716761Y-44783285D01*
X83669142Y-44735666D01*
X83573904Y-44688047D01*
X83478666Y-44688047D01*
X83383428Y-44735666D01*
X83335809Y-44783285D01*
X83288190Y-44878523D01*
X83240571Y-45069000D01*
X83192952Y-45164238D01*
X83145333Y-45211857D01*
X83050095Y-45259476D01*
X82954857Y-45259476D01*
X82859619Y-45211857D01*
X82812000Y-45164238D01*
X82764380Y-45069000D01*
X82764380Y-44830904D01*
X82812000Y-44688047D01*
X83669142Y-43688047D02*
X83716761Y-43735666D01*
X83764380Y-43878523D01*
X83764380Y-43973761D01*
X83716761Y-44116619D01*
X83621523Y-44211857D01*
X83526285Y-44259476D01*
X83335809Y-44307095D01*
X83192952Y-44307095D01*
X83002476Y-44259476D01*
X82907238Y-44211857D01*
X82812000Y-44116619D01*
X82764380Y-43973761D01*
X82764380Y-43878523D01*
X82812000Y-43735666D01*
X82859619Y-43688047D01*
X83764380Y-42783285D02*
X83764380Y-43259476D01*
X82764380Y-43259476D01*
X83628761Y-48712285D02*
X83676380Y-48569428D01*
X83676380Y-48331333D01*
X83628761Y-48236095D01*
X83581142Y-48188476D01*
X83485904Y-48140857D01*
X83390666Y-48140857D01*
X83295428Y-48188476D01*
X83247809Y-48236095D01*
X83200190Y-48331333D01*
X83152571Y-48521809D01*
X83104952Y-48617047D01*
X83057333Y-48664666D01*
X82962095Y-48712285D01*
X82866857Y-48712285D01*
X82771619Y-48664666D01*
X82724000Y-48617047D01*
X82676380Y-48521809D01*
X82676380Y-48283714D01*
X82724000Y-48140857D01*
X83676380Y-47712285D02*
X82676380Y-47712285D01*
X82676380Y-47474190D01*
X82724000Y-47331333D01*
X82819238Y-47236095D01*
X82914476Y-47188476D01*
X83104952Y-47140857D01*
X83247809Y-47140857D01*
X83438285Y-47188476D01*
X83533523Y-47236095D01*
X83628761Y-47331333D01*
X83676380Y-47474190D01*
X83676380Y-47712285D01*
X83390666Y-46759904D02*
X83390666Y-46283714D01*
X83676380Y-46855142D02*
X82676380Y-46521809D01*
X83676380Y-46188476D01*
X85376380Y-47759904D02*
X84376380Y-47759904D01*
X84376380Y-47521809D01*
X84424000Y-47378952D01*
X84519238Y-47283714D01*
X84614476Y-47236095D01*
X84804952Y-47188476D01*
X84947809Y-47188476D01*
X85138285Y-47236095D01*
X85233523Y-47283714D01*
X85328761Y-47378952D01*
X85376380Y-47521809D01*
X85376380Y-47759904D01*
X83143714Y-50876142D02*
X83143714Y-49961857D01*
X74108571Y-51339000D02*
X74108571Y-50481857D01*
X75608571Y-50910428D02*
X74108571Y-50910428D01*
X75537142Y-49410428D02*
X75608571Y-49553285D01*
X75608571Y-49839000D01*
X75537142Y-49981857D01*
X75394285Y-50053285D01*
X74822857Y-50053285D01*
X74680000Y-49981857D01*
X74608571Y-49839000D01*
X74608571Y-49553285D01*
X74680000Y-49410428D01*
X74822857Y-49339000D01*
X74965714Y-49339000D01*
X75108571Y-50053285D01*
X75608571Y-48696142D02*
X74608571Y-48696142D01*
X74751428Y-48696142D02*
X74680000Y-48624714D01*
X74608571Y-48481857D01*
X74608571Y-48267571D01*
X74680000Y-48124714D01*
X74822857Y-48053285D01*
X75608571Y-48053285D01*
X74822857Y-48053285D02*
X74680000Y-47981857D01*
X74608571Y-47839000D01*
X74608571Y-47624714D01*
X74680000Y-47481857D01*
X74822857Y-47410428D01*
X75608571Y-47410428D01*
X74608571Y-46696142D02*
X76108571Y-46696142D01*
X74680000Y-46696142D02*
X74608571Y-46553285D01*
X74608571Y-46267571D01*
X74680000Y-46124714D01*
X74751428Y-46053285D01*
X74894285Y-45981857D01*
X75322857Y-45981857D01*
X75465714Y-46053285D01*
X75537142Y-46124714D01*
X75608571Y-46267571D01*
X75608571Y-46553285D01*
X75537142Y-46696142D01*
X74037142Y-44267571D02*
X75965714Y-45553285D01*
X75608571Y-43767571D02*
X74108571Y-43767571D01*
X74822857Y-43767571D02*
X74822857Y-42910428D01*
X75608571Y-42910428D02*
X74108571Y-42910428D01*
X74608571Y-41553285D02*
X75608571Y-41553285D01*
X74608571Y-42196142D02*
X75394285Y-42196142D01*
X75537142Y-42124714D01*
X75608571Y-41981857D01*
X75608571Y-41767571D01*
X75537142Y-41624714D01*
X75465714Y-41553285D01*
X75608571Y-40839000D02*
X74608571Y-40839000D01*
X74751428Y-40839000D02*
X74680000Y-40767571D01*
X74608571Y-40624714D01*
X74608571Y-40410428D01*
X74680000Y-40267571D01*
X74822857Y-40196142D01*
X75608571Y-40196142D01*
X74822857Y-40196142D02*
X74680000Y-40124714D01*
X74608571Y-39981857D01*
X74608571Y-39767571D01*
X74680000Y-39624714D01*
X74822857Y-39553285D01*
X75608571Y-39553285D01*
X75684771Y-35663000D02*
X74184771Y-35663000D01*
X74184771Y-35091571D01*
X74256200Y-34948714D01*
X74327628Y-34877285D01*
X74470485Y-34805857D01*
X74684771Y-34805857D01*
X74827628Y-34877285D01*
X74899057Y-34948714D01*
X74970485Y-35091571D01*
X74970485Y-35663000D01*
X75684771Y-34163000D02*
X74184771Y-34163000D01*
X75684771Y-32591571D02*
X74970485Y-33091571D01*
X75684771Y-33448714D02*
X74184771Y-33448714D01*
X74184771Y-32877285D01*
X74256200Y-32734428D01*
X74327628Y-32663000D01*
X74470485Y-32591571D01*
X74684771Y-32591571D01*
X74827628Y-32663000D01*
X74899057Y-32734428D01*
X74970485Y-32877285D01*
X74970485Y-33448714D01*
X83270714Y-32207142D02*
X83270714Y-31292857D01*
X83727857Y-31750000D02*
X82813571Y-31750000D01*
X83676380Y-34583666D02*
X83200190Y-34917000D01*
X83676380Y-35155095D02*
X82676380Y-35155095D01*
X82676380Y-34774142D01*
X82724000Y-34678904D01*
X82771619Y-34631285D01*
X82866857Y-34583666D01*
X83009714Y-34583666D01*
X83104952Y-34631285D01*
X83152571Y-34678904D01*
X83200190Y-34774142D01*
X83200190Y-35155095D01*
X82676380Y-34250333D02*
X83676380Y-33583666D01*
X82676380Y-33583666D02*
X83676380Y-34250333D01*
X85376380Y-34869380D02*
X84376380Y-34869380D01*
X84709714Y-34393190D02*
X85376380Y-34393190D01*
X84804952Y-34393190D02*
X84757333Y-34345571D01*
X84709714Y-34250333D01*
X84709714Y-34107476D01*
X84757333Y-34012238D01*
X84852571Y-33964619D01*
X85376380Y-33964619D01*
X83143714Y-37414142D02*
X83143714Y-36499857D01*
X29378285Y-52628857D02*
X29378285Y-53543142D01*
X30121142Y-45244000D02*
X30121142Y-45986857D01*
X29664000Y-45586857D01*
X29664000Y-45758285D01*
X29606857Y-45872571D01*
X29549714Y-45929714D01*
X29435428Y-45986857D01*
X29149714Y-45986857D01*
X29035428Y-45929714D01*
X28978285Y-45872571D01*
X28921142Y-45758285D01*
X28921142Y-45415428D01*
X28978285Y-45301142D01*
X29035428Y-45244000D01*
X29035428Y-46501142D02*
X28978285Y-46558285D01*
X28921142Y-46501142D01*
X28978285Y-46444000D01*
X29035428Y-46501142D01*
X28921142Y-46501142D01*
X30121142Y-46958285D02*
X30121142Y-47701142D01*
X29664000Y-47301142D01*
X29664000Y-47472571D01*
X29606857Y-47586857D01*
X29549714Y-47644000D01*
X29435428Y-47701142D01*
X29149714Y-47701142D01*
X29035428Y-47644000D01*
X28978285Y-47586857D01*
X28921142Y-47472571D01*
X28921142Y-47129714D01*
X28978285Y-47015428D01*
X29035428Y-46958285D01*
X29378285Y-48215428D02*
X29378285Y-49129714D01*
X28921142Y-48672571D02*
X29835428Y-48672571D01*
X28921142Y-49917428D02*
X30121142Y-49917428D01*
X28921142Y-50488857D02*
X30121142Y-50488857D01*
X28921142Y-51174571D01*
X30121142Y-51174571D01*
X30121142Y-42411714D02*
X28921142Y-42697428D01*
X29778285Y-42926000D01*
X28921142Y-43154571D01*
X30121142Y-43440285D01*
X29549714Y-40471714D02*
X29492571Y-40643142D01*
X29435428Y-40700285D01*
X29321142Y-40757428D01*
X29149714Y-40757428D01*
X29035428Y-40700285D01*
X28978285Y-40643142D01*
X28921142Y-40528857D01*
X28921142Y-40071714D01*
X30121142Y-40071714D01*
X30121142Y-40471714D01*
X30064000Y-40586000D01*
X30006857Y-40643142D01*
X29892571Y-40700285D01*
X29778285Y-40700285D01*
X29664000Y-40643142D01*
X29606857Y-40586000D01*
X29549714Y-40471714D01*
X29549714Y-40071714D01*
X28921142Y-38217428D02*
X29492571Y-37817428D01*
X28921142Y-37531714D02*
X30121142Y-37531714D01*
X30121142Y-37988857D01*
X30064000Y-38103142D01*
X30006857Y-38160285D01*
X29892571Y-38217428D01*
X29721142Y-38217428D01*
X29606857Y-38160285D01*
X29549714Y-38103142D01*
X29492571Y-37988857D01*
X29492571Y-37531714D01*
X30064000Y-35620285D02*
X30121142Y-35506000D01*
X30121142Y-35334571D01*
X30064000Y-35163142D01*
X29949714Y-35048857D01*
X29835428Y-34991714D01*
X29606857Y-34934571D01*
X29435428Y-34934571D01*
X29206857Y-34991714D01*
X29092571Y-35048857D01*
X28978285Y-35163142D01*
X28921142Y-35334571D01*
X28921142Y-35448857D01*
X28978285Y-35620285D01*
X29035428Y-35677428D01*
X29435428Y-35677428D01*
X29435428Y-35448857D01*
X28921142Y-30651571D02*
X28921142Y-29965857D01*
X28921142Y-30308714D02*
X30121142Y-30308714D01*
X29949714Y-30194428D01*
X29835428Y-30080142D01*
X29778285Y-29965857D01*
X30006857Y-31108714D02*
X30064000Y-31165857D01*
X30121142Y-31280142D01*
X30121142Y-31565857D01*
X30064000Y-31680142D01*
X30006857Y-31737285D01*
X29892571Y-31794428D01*
X29778285Y-31794428D01*
X29606857Y-31737285D01*
X28921142Y-31051571D01*
X28921142Y-31794428D01*
X29378285Y-32308714D02*
X29378285Y-33223000D01*
X28921142Y-32765857D02*
X29835428Y-32765857D01*
D14*
X39344600Y-51587400D02*
X39344600Y-73587400D01*
X39344600Y-51587400D02*
X56344600Y-51587400D01*
X56344600Y-51587400D02*
X56344600Y-73587400D01*
X56344600Y-73587400D02*
X39344600Y-73587400D01*
D15*
X48234600Y-59207400D02*
X48234600Y-65557400D01*
X48234600Y-65557400D02*
X49504600Y-64287400D01*
X48234600Y-65557400D02*
X46964600Y-64287400D01*
D12*
X26699000Y-64436000D02*
G75*
G03*
X26699000Y-64436000I-1680000J0D01*
G01*
X20919000Y-56876000D02*
X20919000Y-66996000D01*
X22419000Y-56876000D02*
X22419000Y-66996000D01*
X27320000Y-56876000D02*
X27320000Y-66996000D01*
X30280000Y-56876000D02*
X30280000Y-66996000D01*
X20359000Y-56876000D02*
X20359000Y-66996000D01*
X30280000Y-56876000D02*
X20359000Y-56876000D01*
X30280000Y-66996000D02*
X20359000Y-66996000D01*
X26088000Y-65711000D02*
X26042000Y-65664000D01*
X23780000Y-63402000D02*
X23745000Y-63367000D01*
X26294000Y-65506000D02*
X26258000Y-65471000D01*
X23996000Y-63209000D02*
X23950000Y-63162000D01*
X20859000Y-56636000D02*
X20119000Y-56636000D01*
X20119000Y-56636000D02*
X20119000Y-57136000D01*
X23338747Y-59464805D02*
G75*
G02*
X23484000Y-58752000I1680253J28805D01*
G01*
X24335958Y-57900574D02*
G75*
G02*
X25703000Y-57901000I683042J-1535426D01*
G01*
X26554426Y-58752958D02*
G75*
G02*
X26554000Y-60120000I-1535426J-683042D01*
G01*
X25702042Y-60971426D02*
G75*
G02*
X24335000Y-60971000I-683042J1535426D01*
G01*
X23484244Y-60119318D02*
G75*
G02*
X23339000Y-59436000I1534756J683318D01*
G01*
X38918000Y-54610000D02*
X38918000Y-54920000D01*
X35788000Y-51760000D02*
X37088000Y-51760000D01*
X35788000Y-54915000D02*
X38918000Y-54920000D01*
X35788000Y-69540000D02*
X38918000Y-69540000D01*
X38918000Y-69540000D02*
X38918000Y-72700000D01*
X35788000Y-72700000D02*
X38918000Y-72700000D01*
X76398000Y-51760000D02*
X79513000Y-51760000D01*
X76398000Y-54920000D02*
X79558000Y-54920000D01*
X76398000Y-54920000D02*
X76398000Y-51760000D01*
X76398000Y-69540000D02*
X79513000Y-69540000D01*
X76398000Y-72700000D02*
X79513000Y-72700000D01*
X76398000Y-72700000D02*
X76398000Y-69540000D01*
X35783000Y-72955000D02*
X79533000Y-72955000D01*
X35783000Y-51505000D02*
X35783000Y-72955000D01*
X79533000Y-51505000D02*
X35783000Y-51505000D01*
X79533000Y-72955000D02*
X79533000Y-51505000D01*
X72871064Y-46255000D02*
X72416936Y-46255000D01*
X72871064Y-47725000D02*
X72416936Y-47725000D01*
X72871064Y-48922000D02*
X72416936Y-48922000D01*
X72871064Y-50392000D02*
X72416936Y-50392000D01*
X37517336Y-49125200D02*
X37971464Y-49125200D01*
X37517336Y-50595200D02*
X37971464Y-50595200D01*
X37491936Y-45951510D02*
X37946064Y-45951510D01*
X37491936Y-47421510D02*
X37946064Y-47421510D01*
X37491936Y-39604140D02*
X37946064Y-39604140D01*
X37491936Y-41074140D02*
X37946064Y-41074140D01*
X37491936Y-42777825D02*
X37946064Y-42777825D01*
X37491936Y-44247825D02*
X37946064Y-44247825D01*
X80705000Y-38040000D02*
X80705000Y-39370000D01*
X79375000Y-38040000D02*
X80705000Y-38040000D01*
X78105000Y-38040000D02*
X78105000Y-40700000D01*
X78105000Y-40700000D02*
X78045000Y-40700000D01*
X78105000Y-38040000D02*
X78045000Y-38040000D01*
X78045000Y-38040000D02*
X78045000Y-40700000D01*
X23816000Y-44136000D02*
X23816000Y-46796000D01*
X23876000Y-44136000D02*
X23816000Y-44136000D01*
X23876000Y-46796000D02*
X23816000Y-46796000D01*
X23876000Y-44136000D02*
X23876000Y-46796000D01*
X25146000Y-44136000D02*
X26476000Y-44136000D01*
X26476000Y-44136000D02*
X26476000Y-45466000D01*
X47846348Y-52782800D02*
X48368852Y-52782800D01*
X47846348Y-54252800D02*
X48368852Y-54252800D01*
X37483148Y-30053085D02*
X38005652Y-30053085D01*
X37483148Y-31523085D02*
X38005652Y-31523085D01*
X37946064Y-34726770D02*
X37491936Y-34726770D01*
X37946064Y-33256770D02*
X37491936Y-33256770D01*
X65304936Y-46255000D02*
X65759064Y-46255000D01*
X65304936Y-47725000D02*
X65759064Y-47725000D01*
X65304936Y-48922000D02*
X65759064Y-48922000D01*
X65304936Y-50392000D02*
X65759064Y-50392000D01*
X37466536Y-26849400D02*
X37920664Y-26849400D01*
X37466536Y-28319400D02*
X37920664Y-28319400D01*
X37491936Y-36430455D02*
X37946064Y-36430455D01*
X37491936Y-37900455D02*
X37946064Y-37900455D01*
X82405000Y-40530000D02*
X76385000Y-40530000D01*
X76385000Y-40530000D02*
X76385000Y-50910000D01*
X76385000Y-50910000D02*
X82405000Y-50910000D01*
X82405000Y-50910000D02*
X82405000Y-40530000D01*
X81375000Y-40240000D02*
X77375000Y-40240000D01*
X76385000Y-41910000D02*
X77385000Y-41910000D01*
X77385000Y-41910000D02*
X77385000Y-49530000D01*
X77385000Y-49530000D02*
X76385000Y-49530000D01*
X77385000Y-41910000D02*
X77915000Y-42160000D01*
X77915000Y-42160000D02*
X77915000Y-49280000D01*
X77915000Y-49280000D02*
X77385000Y-49530000D01*
X76385000Y-42160000D02*
X77385000Y-42160000D01*
X76385000Y-49280000D02*
X77385000Y-49280000D01*
X82405000Y-41110000D02*
X81805000Y-41110000D01*
X81805000Y-41110000D02*
X81805000Y-42710000D01*
X81805000Y-42710000D02*
X82405000Y-42710000D01*
X82405000Y-43650000D02*
X81805000Y-43650000D01*
X81805000Y-43650000D02*
X81805000Y-45250000D01*
X81805000Y-45250000D02*
X82405000Y-45250000D01*
X82405000Y-46190000D02*
X81805000Y-46190000D01*
X81805000Y-46190000D02*
X81805000Y-47790000D01*
X81805000Y-47790000D02*
X82405000Y-47790000D01*
X82405000Y-48730000D02*
X81805000Y-48730000D01*
X81805000Y-48730000D02*
X81805000Y-50330000D01*
X81805000Y-50330000D02*
X82405000Y-50330000D01*
X28176000Y-46626000D02*
X22156000Y-46626000D01*
X22156000Y-46626000D02*
X22156000Y-54466000D01*
X22156000Y-54466000D02*
X28176000Y-54466000D01*
X28176000Y-54466000D02*
X28176000Y-46626000D01*
X27146000Y-46336000D02*
X23146000Y-46336000D01*
X22156000Y-48006000D02*
X23156000Y-48006000D01*
X23156000Y-48006000D02*
X23156000Y-53086000D01*
X23156000Y-53086000D02*
X22156000Y-53086000D01*
X23156000Y-48006000D02*
X23686000Y-48256000D01*
X23686000Y-48256000D02*
X23686000Y-52836000D01*
X23686000Y-52836000D02*
X23156000Y-53086000D01*
X22156000Y-48256000D02*
X23156000Y-48256000D01*
X22156000Y-52836000D02*
X23156000Y-52836000D01*
X28176000Y-47206000D02*
X27576000Y-47206000D01*
X27576000Y-47206000D02*
X27576000Y-48806000D01*
X27576000Y-48806000D02*
X28176000Y-48806000D01*
X28176000Y-49746000D02*
X27576000Y-49746000D01*
X27576000Y-49746000D02*
X27576000Y-51346000D01*
X27576000Y-51346000D02*
X28176000Y-51346000D01*
X28176000Y-52286000D02*
X27576000Y-52286000D01*
X27576000Y-52286000D02*
X27576000Y-53886000D01*
X27576000Y-53886000D02*
X28176000Y-53886000D01*
X82405000Y-30370000D02*
X76385000Y-30370000D01*
X76385000Y-30370000D02*
X76385000Y-38210000D01*
X76385000Y-38210000D02*
X82405000Y-38210000D01*
X82405000Y-38210000D02*
X82405000Y-30370000D01*
X81375000Y-30080000D02*
X77375000Y-30080000D01*
X76385000Y-31750000D02*
X77385000Y-31750000D01*
X77385000Y-31750000D02*
X77385000Y-36830000D01*
X77385000Y-36830000D02*
X76385000Y-36830000D01*
X77385000Y-31750000D02*
X77915000Y-32000000D01*
X77915000Y-32000000D02*
X77915000Y-36580000D01*
X77915000Y-36580000D02*
X77385000Y-36830000D01*
X76385000Y-32000000D02*
X77385000Y-32000000D01*
X76385000Y-36580000D02*
X77385000Y-36580000D01*
X82405000Y-30950000D02*
X81805000Y-30950000D01*
X81805000Y-30950000D02*
X81805000Y-32550000D01*
X81805000Y-32550000D02*
X82405000Y-32550000D01*
X82405000Y-33490000D02*
X81805000Y-33490000D01*
X81805000Y-33490000D02*
X81805000Y-35090000D01*
X81805000Y-35090000D02*
X82405000Y-35090000D01*
X82405000Y-36030000D02*
X81805000Y-36030000D01*
X81805000Y-36030000D02*
X81805000Y-37630000D01*
X81805000Y-37630000D02*
X82405000Y-37630000D01*
D16*
X60071000Y-49784000D02*
X60071000Y-49022000D01*
X44069000Y-49784000D02*
X60071000Y-49784000D01*
X44069000Y-49022000D02*
X44069000Y-49784000D01*
D12*
X70348000Y-46550000D02*
X70348000Y-49970000D01*
X67828000Y-46550000D02*
X67828000Y-49970000D01*
X70348000Y-46550000D02*
X70168000Y-46550000D01*
X68008000Y-46550000D02*
X67828000Y-46550000D01*
X70348000Y-49970000D02*
X70183000Y-49970000D01*
X67993000Y-49970000D02*
X67828000Y-49970000D01*
X70348000Y-46670000D02*
X70168000Y-46670000D01*
X68008000Y-46670000D02*
X67828000Y-46670000D01*
X70348000Y-46790000D02*
X70168000Y-46790000D01*
X68008000Y-46790000D02*
X67828000Y-46790000D01*
X25460000Y-58336000D02*
X24410000Y-58336000D01*
X24410000Y-59386000D02*
X24410000Y-58336000D01*
X33810000Y-64436000D02*
X33810000Y-73236000D01*
X33810000Y-73236000D02*
X24610000Y-73236000D01*
X31110000Y-58536000D02*
X33810000Y-58536000D01*
X33810000Y-58536000D02*
X33810000Y-60436000D01*
X24610000Y-73236000D02*
X24610000Y-58536000D01*
X24610000Y-58536000D02*
X27210000Y-58536000D01*
X75049399Y-31175000D02*
X75049399Y-28515000D01*
X67369399Y-31175000D02*
X75049399Y-31175000D01*
X67369399Y-28515000D02*
X75049399Y-28515000D01*
X67369399Y-31175000D02*
X67369399Y-28515000D01*
X66099399Y-31175000D02*
X64769399Y-31175000D01*
X64769399Y-31175000D02*
X64769399Y-29845000D01*
X28176000Y-31386000D02*
X22156000Y-31386000D01*
X22156000Y-31386000D02*
X22156000Y-44306000D01*
X22156000Y-44306000D02*
X28176000Y-44306000D01*
X28176000Y-44306000D02*
X28176000Y-31386000D01*
X27146000Y-31096000D02*
X23146000Y-31096000D01*
X22156000Y-32766000D02*
X23156000Y-32766000D01*
X23156000Y-32766000D02*
X23156000Y-42926000D01*
X23156000Y-42926000D02*
X22156000Y-42926000D01*
X23156000Y-32766000D02*
X23686000Y-33016000D01*
X23686000Y-33016000D02*
X23686000Y-42676000D01*
X23686000Y-42676000D02*
X23156000Y-42926000D01*
X22156000Y-33016000D02*
X23156000Y-33016000D01*
X22156000Y-42676000D02*
X23156000Y-42676000D01*
X28176000Y-31966000D02*
X27576000Y-31966000D01*
X27576000Y-31966000D02*
X27576000Y-33566000D01*
X27576000Y-33566000D02*
X28176000Y-33566000D01*
X28176000Y-34506000D02*
X27576000Y-34506000D01*
X27576000Y-34506000D02*
X27576000Y-36106000D01*
X27576000Y-36106000D02*
X28176000Y-36106000D01*
X28176000Y-37046000D02*
X27576000Y-37046000D01*
X27576000Y-37046000D02*
X27576000Y-38646000D01*
X27576000Y-38646000D02*
X28176000Y-38646000D01*
X28176000Y-39586000D02*
X27576000Y-39586000D01*
X27576000Y-39586000D02*
X27576000Y-41186000D01*
X27576000Y-41186000D02*
X28176000Y-41186000D01*
X28176000Y-42126000D02*
X27576000Y-42126000D01*
X27576000Y-42126000D02*
X27576000Y-43726000D01*
X27576000Y-43726000D02*
X28176000Y-43726000D01*
X71412000Y-43734000D02*
X67272000Y-43734000D01*
X67272000Y-40894000D02*
X67272000Y-40594000D01*
X67272000Y-40594000D02*
X71412000Y-40594000D01*
X71412000Y-43434000D02*
X71412000Y-43734000D01*
X71412000Y-40594000D02*
X71412000Y-40894000D01*
X67272000Y-43734000D02*
X67272000Y-43434000D01*
D13*
X47021904Y-71334380D02*
X47021904Y-72143904D01*
X47069523Y-72239142D01*
X47117142Y-72286761D01*
X47212380Y-72334380D01*
X47402857Y-72334380D01*
X47498095Y-72286761D01*
X47545714Y-72239142D01*
X47593333Y-72143904D01*
X47593333Y-71334380D01*
X48117142Y-72334380D02*
X48307619Y-72334380D01*
X48402857Y-72286761D01*
X48450476Y-72239142D01*
X48545714Y-72096285D01*
X48593333Y-71905809D01*
X48593333Y-71524857D01*
X48545714Y-71429619D01*
X48498095Y-71382000D01*
X48402857Y-71334380D01*
X48212380Y-71334380D01*
X48117142Y-71382000D01*
X48069523Y-71429619D01*
X48021904Y-71524857D01*
X48021904Y-71762952D01*
X48069523Y-71858190D01*
X48117142Y-71905809D01*
X48212380Y-71953428D01*
X48402857Y-71953428D01*
X48498095Y-71905809D01*
X48545714Y-71858190D01*
X48593333Y-71762952D01*
X49450476Y-71667714D02*
X49450476Y-72334380D01*
X49212380Y-71286761D02*
X48974285Y-72001047D01*
X49593333Y-72001047D01*
X39846523Y-70175428D02*
X40608428Y-70175428D01*
X40227476Y-70556380D02*
X40227476Y-69794476D01*
X42037000Y-69556380D02*
X42227476Y-69556380D01*
X42322714Y-69604000D01*
X42417952Y-69699238D01*
X42465571Y-69889714D01*
X42465571Y-70223047D01*
X42417952Y-70413523D01*
X42322714Y-70508761D01*
X42227476Y-70556380D01*
X42037000Y-70556380D01*
X41941761Y-70508761D01*
X41846523Y-70413523D01*
X41798904Y-70223047D01*
X41798904Y-69889714D01*
X41846523Y-69699238D01*
X41941761Y-69604000D01*
X42037000Y-69556380D01*
X42894142Y-69556380D02*
X42894142Y-70365904D01*
X42941761Y-70461142D01*
X42989380Y-70508761D01*
X43084619Y-70556380D01*
X43275095Y-70556380D01*
X43370333Y-70508761D01*
X43417952Y-70461142D01*
X43465571Y-70365904D01*
X43465571Y-69556380D01*
X43798904Y-69556380D02*
X44370333Y-69556380D01*
X44084619Y-70556380D02*
X44084619Y-69556380D01*
X21034476Y-67219580D02*
X21034476Y-67933866D01*
X20986857Y-68076723D01*
X20891619Y-68171961D01*
X20748761Y-68219580D01*
X20653523Y-68219580D01*
X21558285Y-68219580D02*
X21748761Y-68219580D01*
X21844000Y-68171961D01*
X21891619Y-68124342D01*
X21986857Y-67981485D01*
X22034476Y-67791009D01*
X22034476Y-67410057D01*
X21986857Y-67314819D01*
X21939238Y-67267200D01*
X21844000Y-67219580D01*
X21653523Y-67219580D01*
X21558285Y-67267200D01*
X21510666Y-67314819D01*
X21463047Y-67410057D01*
X21463047Y-67648152D01*
X21510666Y-67743390D01*
X21558285Y-67791009D01*
X21653523Y-67838628D01*
X21844000Y-67838628D01*
X21939238Y-67791009D01*
X21986857Y-67743390D01*
X22034476Y-67648152D01*
X22986857Y-68219580D02*
X22415428Y-68219580D01*
X22701142Y-68219580D02*
X22701142Y-67219580D01*
X22605904Y-67362438D01*
X22510666Y-67457676D01*
X22415428Y-67505295D01*
X77216095Y-61047380D02*
X77216095Y-61856904D01*
X77263714Y-61952142D01*
X77311333Y-61999761D01*
X77406571Y-62047380D01*
X77597047Y-62047380D01*
X77692285Y-61999761D01*
X77739904Y-61952142D01*
X77787523Y-61856904D01*
X77787523Y-61047380D01*
X78692285Y-61380714D02*
X78692285Y-62047380D01*
X78454190Y-60999761D02*
X78216095Y-61714047D01*
X78835142Y-61714047D01*
X39878190Y-56586428D02*
X40640095Y-56586428D01*
X40259142Y-56967380D02*
X40259142Y-56205476D01*
X41878190Y-56967380D02*
X41878190Y-55967380D01*
X42354380Y-56967380D02*
X42354380Y-55967380D01*
X42925809Y-56967380D01*
X42925809Y-55967380D01*
X74073000Y-55967380D02*
X74263476Y-55967380D01*
X74358714Y-56015000D01*
X74453952Y-56110238D01*
X74501571Y-56300714D01*
X74501571Y-56634047D01*
X74453952Y-56824523D01*
X74358714Y-56919761D01*
X74263476Y-56967380D01*
X74073000Y-56967380D01*
X73977761Y-56919761D01*
X73882523Y-56824523D01*
X73834904Y-56634047D01*
X73834904Y-56300714D01*
X73882523Y-56110238D01*
X73977761Y-56015000D01*
X74073000Y-55967380D01*
X74930142Y-55967380D02*
X74930142Y-56776904D01*
X74977761Y-56872142D01*
X75025380Y-56919761D01*
X75120619Y-56967380D01*
X75311095Y-56967380D01*
X75406333Y-56919761D01*
X75453952Y-56872142D01*
X75501571Y-56776904D01*
X75501571Y-55967380D01*
X75834904Y-55967380D02*
X76406333Y-55967380D01*
X76120619Y-56967380D02*
X76120619Y-55967380D01*
X77501571Y-56586428D02*
X78263476Y-56586428D01*
X77882523Y-56967380D02*
X77882523Y-56205476D01*
X72128142Y-45918380D02*
X71794809Y-45442190D01*
X71556714Y-45918380D02*
X71556714Y-44918380D01*
X71937666Y-44918380D01*
X72032904Y-44966000D01*
X72080523Y-45013619D01*
X72128142Y-45108857D01*
X72128142Y-45251714D01*
X72080523Y-45346952D01*
X72032904Y-45394571D01*
X71937666Y-45442190D01*
X71556714Y-45442190D01*
X72604333Y-45918380D02*
X72794809Y-45918380D01*
X72890047Y-45870761D01*
X72937666Y-45823142D01*
X73032904Y-45680285D01*
X73080523Y-45489809D01*
X73080523Y-45108857D01*
X73032904Y-45013619D01*
X72985285Y-44966000D01*
X72890047Y-44918380D01*
X72699571Y-44918380D01*
X72604333Y-44966000D01*
X72556714Y-45013619D01*
X72509095Y-45108857D01*
X72509095Y-45346952D01*
X72556714Y-45442190D01*
X72604333Y-45489809D01*
X72699571Y-45537428D01*
X72890047Y-45537428D01*
X72985285Y-45489809D01*
X73032904Y-45442190D01*
X73080523Y-45346952D01*
X73556714Y-45918380D02*
X73747190Y-45918380D01*
X73842428Y-45870761D01*
X73890047Y-45823142D01*
X73985285Y-45680285D01*
X74032904Y-45489809D01*
X74032904Y-45108857D01*
X73985285Y-45013619D01*
X73937666Y-44966000D01*
X73842428Y-44918380D01*
X73651952Y-44918380D01*
X73556714Y-44966000D01*
X73509095Y-45013619D01*
X73461476Y-45108857D01*
X73461476Y-45346952D01*
X73509095Y-45442190D01*
X73556714Y-45489809D01*
X73651952Y-45537428D01*
X73842428Y-45537428D01*
X73937666Y-45489809D01*
X73985285Y-45442190D01*
X74032904Y-45346952D01*
X72001142Y-52776380D02*
X71667809Y-52300190D01*
X71429714Y-52776380D02*
X71429714Y-51776380D01*
X71810666Y-51776380D01*
X71905904Y-51824000D01*
X71953523Y-51871619D01*
X72001142Y-51966857D01*
X72001142Y-52109714D01*
X71953523Y-52204952D01*
X71905904Y-52252571D01*
X71810666Y-52300190D01*
X71429714Y-52300190D01*
X72477333Y-52776380D02*
X72667809Y-52776380D01*
X72763047Y-52728761D01*
X72810666Y-52681142D01*
X72905904Y-52538285D01*
X72953523Y-52347809D01*
X72953523Y-51966857D01*
X72905904Y-51871619D01*
X72858285Y-51824000D01*
X72763047Y-51776380D01*
X72572571Y-51776380D01*
X72477333Y-51824000D01*
X72429714Y-51871619D01*
X72382095Y-51966857D01*
X72382095Y-52204952D01*
X72429714Y-52300190D01*
X72477333Y-52347809D01*
X72572571Y-52395428D01*
X72763047Y-52395428D01*
X72858285Y-52347809D01*
X72905904Y-52300190D01*
X72953523Y-52204952D01*
X73524952Y-52204952D02*
X73429714Y-52157333D01*
X73382095Y-52109714D01*
X73334476Y-52014476D01*
X73334476Y-51966857D01*
X73382095Y-51871619D01*
X73429714Y-51824000D01*
X73524952Y-51776380D01*
X73715428Y-51776380D01*
X73810666Y-51824000D01*
X73858285Y-51871619D01*
X73905904Y-51966857D01*
X73905904Y-52014476D01*
X73858285Y-52109714D01*
X73810666Y-52157333D01*
X73715428Y-52204952D01*
X73524952Y-52204952D01*
X73429714Y-52252571D01*
X73382095Y-52300190D01*
X73334476Y-52395428D01*
X73334476Y-52585904D01*
X73382095Y-52681142D01*
X73429714Y-52728761D01*
X73524952Y-52776380D01*
X73715428Y-52776380D01*
X73810666Y-52728761D01*
X73858285Y-52681142D01*
X73905904Y-52585904D01*
X73905904Y-52395428D01*
X73858285Y-52300190D01*
X73810666Y-52252571D01*
X73715428Y-52204952D01*
X40320933Y-50389780D02*
X39987600Y-49913590D01*
X39749505Y-50389780D02*
X39749505Y-49389780D01*
X40130457Y-49389780D01*
X40225695Y-49437400D01*
X40273314Y-49485019D01*
X40320933Y-49580257D01*
X40320933Y-49723114D01*
X40273314Y-49818352D01*
X40225695Y-49865971D01*
X40130457Y-49913590D01*
X39749505Y-49913590D01*
X40797124Y-50389780D02*
X40987600Y-50389780D01*
X41082838Y-50342161D01*
X41130457Y-50294542D01*
X41225695Y-50151685D01*
X41273314Y-49961209D01*
X41273314Y-49580257D01*
X41225695Y-49485019D01*
X41178076Y-49437400D01*
X41082838Y-49389780D01*
X40892362Y-49389780D01*
X40797124Y-49437400D01*
X40749505Y-49485019D01*
X40701886Y-49580257D01*
X40701886Y-49818352D01*
X40749505Y-49913590D01*
X40797124Y-49961209D01*
X40892362Y-50008828D01*
X41082838Y-50008828D01*
X41178076Y-49961209D01*
X41225695Y-49913590D01*
X41273314Y-49818352D01*
X42130457Y-49723114D02*
X42130457Y-50389780D01*
X41892362Y-49342161D02*
X41654267Y-50056447D01*
X42273314Y-50056447D01*
X40320933Y-47216090D02*
X39987600Y-46739900D01*
X39749505Y-47216090D02*
X39749505Y-46216090D01*
X40130457Y-46216090D01*
X40225695Y-46263710D01*
X40273314Y-46311329D01*
X40320933Y-46406567D01*
X40320933Y-46549424D01*
X40273314Y-46644662D01*
X40225695Y-46692281D01*
X40130457Y-46739900D01*
X39749505Y-46739900D01*
X40797124Y-47216090D02*
X40987600Y-47216090D01*
X41082838Y-47168471D01*
X41130457Y-47120852D01*
X41225695Y-46977995D01*
X41273314Y-46787519D01*
X41273314Y-46406567D01*
X41225695Y-46311329D01*
X41178076Y-46263710D01*
X41082838Y-46216090D01*
X40892362Y-46216090D01*
X40797124Y-46263710D01*
X40749505Y-46311329D01*
X40701886Y-46406567D01*
X40701886Y-46644662D01*
X40749505Y-46739900D01*
X40797124Y-46787519D01*
X40892362Y-46835138D01*
X41082838Y-46835138D01*
X41178076Y-46787519D01*
X41225695Y-46739900D01*
X41273314Y-46644662D01*
X41606648Y-46216090D02*
X42225695Y-46216090D01*
X41892362Y-46597043D01*
X42035219Y-46597043D01*
X42130457Y-46644662D01*
X42178076Y-46692281D01*
X42225695Y-46787519D01*
X42225695Y-47025614D01*
X42178076Y-47120852D01*
X42130457Y-47168471D01*
X42035219Y-47216090D01*
X41749505Y-47216090D01*
X41654267Y-47168471D01*
X41606648Y-47120852D01*
X40320933Y-40868720D02*
X39987600Y-40392530D01*
X39749505Y-40868720D02*
X39749505Y-39868720D01*
X40130457Y-39868720D01*
X40225695Y-39916340D01*
X40273314Y-39963959D01*
X40320933Y-40059197D01*
X40320933Y-40202054D01*
X40273314Y-40297292D01*
X40225695Y-40344911D01*
X40130457Y-40392530D01*
X39749505Y-40392530D01*
X40797124Y-40868720D02*
X40987600Y-40868720D01*
X41082838Y-40821101D01*
X41130457Y-40773482D01*
X41225695Y-40630625D01*
X41273314Y-40440149D01*
X41273314Y-40059197D01*
X41225695Y-39963959D01*
X41178076Y-39916340D01*
X41082838Y-39868720D01*
X40892362Y-39868720D01*
X40797124Y-39916340D01*
X40749505Y-39963959D01*
X40701886Y-40059197D01*
X40701886Y-40297292D01*
X40749505Y-40392530D01*
X40797124Y-40440149D01*
X40892362Y-40487768D01*
X41082838Y-40487768D01*
X41178076Y-40440149D01*
X41225695Y-40392530D01*
X41273314Y-40297292D01*
X41654267Y-39963959D02*
X41701886Y-39916340D01*
X41797124Y-39868720D01*
X42035219Y-39868720D01*
X42130457Y-39916340D01*
X42178076Y-39963959D01*
X42225695Y-40059197D01*
X42225695Y-40154435D01*
X42178076Y-40297292D01*
X41606648Y-40868720D01*
X42225695Y-40868720D01*
X40320933Y-44042405D02*
X39987600Y-43566215D01*
X39749505Y-44042405D02*
X39749505Y-43042405D01*
X40130457Y-43042405D01*
X40225695Y-43090025D01*
X40273314Y-43137644D01*
X40320933Y-43232882D01*
X40320933Y-43375739D01*
X40273314Y-43470977D01*
X40225695Y-43518596D01*
X40130457Y-43566215D01*
X39749505Y-43566215D01*
X40797124Y-44042405D02*
X40987600Y-44042405D01*
X41082838Y-43994786D01*
X41130457Y-43947167D01*
X41225695Y-43804310D01*
X41273314Y-43613834D01*
X41273314Y-43232882D01*
X41225695Y-43137644D01*
X41178076Y-43090025D01*
X41082838Y-43042405D01*
X40892362Y-43042405D01*
X40797124Y-43090025D01*
X40749505Y-43137644D01*
X40701886Y-43232882D01*
X40701886Y-43470977D01*
X40749505Y-43566215D01*
X40797124Y-43613834D01*
X40892362Y-43661453D01*
X41082838Y-43661453D01*
X41178076Y-43613834D01*
X41225695Y-43566215D01*
X41273314Y-43470977D01*
X42225695Y-44042405D02*
X41654267Y-44042405D01*
X41939981Y-44042405D02*
X41939981Y-43042405D01*
X41844743Y-43185263D01*
X41749505Y-43280501D01*
X41654267Y-43328120D01*
X47966333Y-55602142D02*
X47918714Y-55649761D01*
X47775857Y-55697380D01*
X47680619Y-55697380D01*
X47537761Y-55649761D01*
X47442523Y-55554523D01*
X47394904Y-55459285D01*
X47347285Y-55268809D01*
X47347285Y-55125952D01*
X47394904Y-54935476D01*
X47442523Y-54840238D01*
X47537761Y-54745000D01*
X47680619Y-54697380D01*
X47775857Y-54697380D01*
X47918714Y-54745000D01*
X47966333Y-54792619D01*
X48347285Y-54792619D02*
X48394904Y-54745000D01*
X48490142Y-54697380D01*
X48728238Y-54697380D01*
X48823476Y-54745000D01*
X48871095Y-54792619D01*
X48918714Y-54887857D01*
X48918714Y-54983095D01*
X48871095Y-55125952D01*
X48299666Y-55697380D01*
X48918714Y-55697380D01*
X40320933Y-31113477D02*
X40273314Y-31161096D01*
X40130457Y-31208715D01*
X40035219Y-31208715D01*
X39892361Y-31161096D01*
X39797123Y-31065858D01*
X39749504Y-30970620D01*
X39701885Y-30780144D01*
X39701885Y-30637287D01*
X39749504Y-30446811D01*
X39797123Y-30351573D01*
X39892361Y-30256335D01*
X40035219Y-30208715D01*
X40130457Y-30208715D01*
X40273314Y-30256335D01*
X40320933Y-30303954D01*
X41273314Y-31208715D02*
X40701885Y-31208715D01*
X40987600Y-31208715D02*
X40987600Y-30208715D01*
X40892361Y-30351573D01*
X40797123Y-30446811D01*
X40701885Y-30494430D01*
X40320933Y-34507650D02*
X39987600Y-34031460D01*
X39749505Y-34507650D02*
X39749505Y-33507650D01*
X40130457Y-33507650D01*
X40225695Y-33555270D01*
X40273314Y-33602889D01*
X40320933Y-33698127D01*
X40320933Y-33840984D01*
X40273314Y-33936222D01*
X40225695Y-33983841D01*
X40130457Y-34031460D01*
X39749505Y-34031460D01*
X41273314Y-34507650D02*
X40701886Y-34507650D01*
X40987600Y-34507650D02*
X40987600Y-33507650D01*
X40892362Y-33650508D01*
X40797124Y-33745746D01*
X40701886Y-33793365D01*
X41892362Y-33507650D02*
X41987600Y-33507650D01*
X42082838Y-33555270D01*
X42130457Y-33602889D01*
X42178076Y-33698127D01*
X42225695Y-33888603D01*
X42225695Y-34126698D01*
X42178076Y-34317174D01*
X42130457Y-34412412D01*
X42082838Y-34460031D01*
X41987600Y-34507650D01*
X41892362Y-34507650D01*
X41797124Y-34460031D01*
X41749505Y-34412412D01*
X41701886Y-34317174D01*
X41654267Y-34126698D01*
X41654267Y-33888603D01*
X41701886Y-33698127D01*
X41749505Y-33602889D01*
X41797124Y-33555270D01*
X41892362Y-33507650D01*
X65365333Y-45918380D02*
X65032000Y-45442190D01*
X64793904Y-45918380D02*
X64793904Y-44918380D01*
X65174857Y-44918380D01*
X65270095Y-44966000D01*
X65317714Y-45013619D01*
X65365333Y-45108857D01*
X65365333Y-45251714D01*
X65317714Y-45346952D01*
X65270095Y-45394571D01*
X65174857Y-45442190D01*
X64793904Y-45442190D01*
X65841523Y-45918380D02*
X66032000Y-45918380D01*
X66127238Y-45870761D01*
X66174857Y-45823142D01*
X66270095Y-45680285D01*
X66317714Y-45489809D01*
X66317714Y-45108857D01*
X66270095Y-45013619D01*
X66222476Y-44966000D01*
X66127238Y-44918380D01*
X65936761Y-44918380D01*
X65841523Y-44966000D01*
X65793904Y-45013619D01*
X65746285Y-45108857D01*
X65746285Y-45346952D01*
X65793904Y-45442190D01*
X65841523Y-45489809D01*
X65936761Y-45537428D01*
X66127238Y-45537428D01*
X66222476Y-45489809D01*
X66270095Y-45442190D01*
X66317714Y-45346952D01*
X65365333Y-52776380D02*
X65032000Y-52300190D01*
X64793904Y-52776380D02*
X64793904Y-51776380D01*
X65174857Y-51776380D01*
X65270095Y-51824000D01*
X65317714Y-51871619D01*
X65365333Y-51966857D01*
X65365333Y-52109714D01*
X65317714Y-52204952D01*
X65270095Y-52252571D01*
X65174857Y-52300190D01*
X64793904Y-52300190D01*
X65936761Y-52204952D02*
X65841523Y-52157333D01*
X65793904Y-52109714D01*
X65746285Y-52014476D01*
X65746285Y-51966857D01*
X65793904Y-51871619D01*
X65841523Y-51824000D01*
X65936761Y-51776380D01*
X66127238Y-51776380D01*
X66222476Y-51824000D01*
X66270095Y-51871619D01*
X66317714Y-51966857D01*
X66317714Y-52014476D01*
X66270095Y-52109714D01*
X66222476Y-52157333D01*
X66127238Y-52204952D01*
X65936761Y-52204952D01*
X65841523Y-52252571D01*
X65793904Y-52300190D01*
X65746285Y-52395428D01*
X65746285Y-52585904D01*
X65793904Y-52681142D01*
X65841523Y-52728761D01*
X65936761Y-52776380D01*
X66127238Y-52776380D01*
X66222476Y-52728761D01*
X66270095Y-52681142D01*
X66317714Y-52585904D01*
X66317714Y-52395428D01*
X66270095Y-52300190D01*
X66222476Y-52252571D01*
X66127238Y-52204952D01*
X40320933Y-28163780D02*
X39987600Y-27687590D01*
X39749504Y-28163780D02*
X39749504Y-27163780D01*
X40130457Y-27163780D01*
X40225695Y-27211400D01*
X40273314Y-27259019D01*
X40320933Y-27354257D01*
X40320933Y-27497114D01*
X40273314Y-27592352D01*
X40225695Y-27639971D01*
X40130457Y-27687590D01*
X39749504Y-27687590D01*
X40654266Y-27163780D02*
X41320933Y-27163780D01*
X40892361Y-28163780D01*
X40320933Y-37713085D02*
X39987600Y-37236895D01*
X39749504Y-37713085D02*
X39749504Y-36713085D01*
X40130457Y-36713085D01*
X40225695Y-36760705D01*
X40273314Y-36808324D01*
X40320933Y-36903562D01*
X40320933Y-37046419D01*
X40273314Y-37141657D01*
X40225695Y-37189276D01*
X40130457Y-37236895D01*
X39749504Y-37236895D01*
X40701885Y-36808324D02*
X40749504Y-36760705D01*
X40844742Y-36713085D01*
X41082838Y-36713085D01*
X41178076Y-36760705D01*
X41225695Y-36808324D01*
X41273314Y-36903562D01*
X41273314Y-36998800D01*
X41225695Y-37141657D01*
X40654266Y-37713085D01*
X41273314Y-37713085D01*
X81454666Y-51522380D02*
X81454666Y-52236666D01*
X81407047Y-52379523D01*
X81311809Y-52474761D01*
X81168952Y-52522380D01*
X81073714Y-52522380D01*
X82359428Y-51855714D02*
X82359428Y-52522380D01*
X82121333Y-51474761D02*
X81883238Y-52189047D01*
X82502285Y-52189047D01*
X24812666Y-29678380D02*
X24812666Y-30392666D01*
X24765047Y-30535523D01*
X24669809Y-30630761D01*
X24526952Y-30678380D01*
X24431714Y-30678380D01*
X25765047Y-29678380D02*
X25288857Y-29678380D01*
X25241238Y-30154571D01*
X25288857Y-30106952D01*
X25384095Y-30059333D01*
X25622190Y-30059333D01*
X25717428Y-30106952D01*
X25765047Y-30154571D01*
X25812666Y-30249809D01*
X25812666Y-30487904D01*
X25765047Y-30583142D01*
X25717428Y-30630761D01*
X25622190Y-30678380D01*
X25384095Y-30678380D01*
X25288857Y-30630761D01*
X25241238Y-30583142D01*
X78660666Y-28662380D02*
X78660666Y-29376666D01*
X78613047Y-29519523D01*
X78517809Y-29614761D01*
X78374952Y-29662380D01*
X78279714Y-29662380D01*
X79565428Y-28662380D02*
X79374952Y-28662380D01*
X79279714Y-28710000D01*
X79232095Y-28757619D01*
X79136857Y-28900476D01*
X79089238Y-29090952D01*
X79089238Y-29471904D01*
X79136857Y-29567142D01*
X79184476Y-29614761D01*
X79279714Y-29662380D01*
X79470190Y-29662380D01*
X79565428Y-29614761D01*
X79613047Y-29567142D01*
X79660666Y-29471904D01*
X79660666Y-29233809D01*
X79613047Y-29138571D01*
X79565428Y-29090952D01*
X79470190Y-29043333D01*
X79279714Y-29043333D01*
X79184476Y-29090952D01*
X79136857Y-29138571D01*
X79089238Y-29233809D01*
X60706095Y-31329380D02*
X60706095Y-32138904D01*
X60753714Y-32234142D01*
X60801333Y-32281761D01*
X60896571Y-32329380D01*
X61087047Y-32329380D01*
X61182285Y-32281761D01*
X61229904Y-32234142D01*
X61277523Y-32138904D01*
X61277523Y-31329380D01*
X61706095Y-31424619D02*
X61753714Y-31377000D01*
X61848952Y-31329380D01*
X62087047Y-31329380D01*
X62182285Y-31377000D01*
X62229904Y-31424619D01*
X62277523Y-31519857D01*
X62277523Y-31615095D01*
X62229904Y-31757952D01*
X61658476Y-32329380D01*
X62277523Y-32329380D01*
X68349904Y-45537380D02*
X68349904Y-44537380D01*
X68588000Y-44537380D01*
X68730857Y-44585000D01*
X68826095Y-44680238D01*
X68873714Y-44775476D01*
X68921333Y-44965952D01*
X68921333Y-45108809D01*
X68873714Y-45299285D01*
X68826095Y-45394523D01*
X68730857Y-45489761D01*
X68588000Y-45537380D01*
X68349904Y-45537380D01*
X69873714Y-45537380D02*
X69302285Y-45537380D01*
X69588000Y-45537380D02*
X69588000Y-44537380D01*
X69492761Y-44680238D01*
X69397523Y-44775476D01*
X69302285Y-44823095D01*
X34591666Y-56983380D02*
X34591666Y-57697666D01*
X34544047Y-57840523D01*
X34448809Y-57935761D01*
X34305952Y-57983380D01*
X34210714Y-57983380D01*
X35591666Y-57983380D02*
X35020238Y-57983380D01*
X35305952Y-57983380D02*
X35305952Y-56983380D01*
X35210714Y-57126238D01*
X35115476Y-57221476D01*
X35020238Y-57269095D01*
X69703065Y-31964380D02*
X69703065Y-32678666D01*
X69655446Y-32821523D01*
X69560208Y-32916761D01*
X69417351Y-32964380D01*
X69322113Y-32964380D01*
X70131637Y-32059619D02*
X70179256Y-32012000D01*
X70274494Y-31964380D01*
X70512589Y-31964380D01*
X70607827Y-32012000D01*
X70655446Y-32059619D01*
X70703065Y-32154857D01*
X70703065Y-32250095D01*
X70655446Y-32392952D01*
X70084018Y-32964380D01*
X70703065Y-32964380D01*
X25066666Y-55332380D02*
X25066666Y-56046666D01*
X25019047Y-56189523D01*
X24923809Y-56284761D01*
X24780952Y-56332380D01*
X24685714Y-56332380D01*
X25447619Y-55332380D02*
X26066666Y-55332380D01*
X25733333Y-55713333D01*
X25876190Y-55713333D01*
X25971428Y-55760952D01*
X26019047Y-55808571D01*
X26066666Y-55903809D01*
X26066666Y-56141904D01*
X26019047Y-56237142D01*
X25971428Y-56284761D01*
X25876190Y-56332380D01*
X25590476Y-56332380D01*
X25495238Y-56284761D01*
X25447619Y-56237142D01*
X63436666Y-42568761D02*
X63579523Y-42616380D01*
X63817619Y-42616380D01*
X63912857Y-42568761D01*
X63960476Y-42521142D01*
X64008095Y-42425904D01*
X64008095Y-42330666D01*
X63960476Y-42235428D01*
X63912857Y-42187809D01*
X63817619Y-42140190D01*
X63627142Y-42092571D01*
X63531904Y-42044952D01*
X63484285Y-41997333D01*
X63436666Y-41902095D01*
X63436666Y-41806857D01*
X63484285Y-41711619D01*
X63531904Y-41664000D01*
X63627142Y-41616380D01*
X63865238Y-41616380D01*
X64008095Y-41664000D01*
X64341428Y-41616380D02*
X64579523Y-42616380D01*
X64770000Y-41902095D01*
X64960476Y-42616380D01*
X65198571Y-41616380D01*
X66103333Y-42616380D02*
X65531904Y-42616380D01*
X65817619Y-42616380D02*
X65817619Y-41616380D01*
X65722380Y-41759238D01*
X65627142Y-41854476D01*
X65531904Y-41902095D01*
%LPC*%
G36*
G01*
X41490599Y-71382400D02*
X42798601Y-71382400D01*
G75*
G02*
X42849600Y-71433399I0J-50999D01*
G01*
X42849600Y-72741401D01*
G75*
G02*
X42798601Y-72792400I-50999J0D01*
G01*
X41490599Y-72792400D01*
G75*
G02*
X41439600Y-72741401I0J50999D01*
G01*
X41439600Y-71433399D01*
G75*
G02*
X41490599Y-71382400I50999J0D01*
G01*
G37*
G36*
G01*
X40090599Y-71382400D02*
X41398601Y-71382400D01*
G75*
G02*
X41449600Y-71433399I0J-50999D01*
G01*
X41449600Y-72741401D01*
G75*
G02*
X41398601Y-72792400I-50999J0D01*
G01*
X40090599Y-72792400D01*
G75*
G02*
X40039600Y-72741401I0J50999D01*
G01*
X40039600Y-71433399D01*
G75*
G02*
X40090599Y-71382400I50999J0D01*
G01*
G37*
G36*
G01*
X53160599Y-71382400D02*
X54468601Y-71382400D01*
G75*
G02*
X54519600Y-71433399I0J-50999D01*
G01*
X54519600Y-72741401D01*
G75*
G02*
X54468601Y-72792400I-50999J0D01*
G01*
X53160599Y-72792400D01*
G75*
G02*
X53109600Y-72741401I0J50999D01*
G01*
X53109600Y-71433399D01*
G75*
G02*
X53160599Y-71382400I50999J0D01*
G01*
G37*
G36*
G01*
X54560599Y-71382400D02*
X55868601Y-71382400D01*
G75*
G02*
X55919600Y-71433399I0J-50999D01*
G01*
X55919600Y-72741401D01*
G75*
G02*
X55868601Y-72792400I-50999J0D01*
G01*
X54560599Y-72792400D01*
G75*
G02*
X54509600Y-72741401I0J50999D01*
G01*
X54509600Y-71433399D01*
G75*
G02*
X54560599Y-71382400I50999J0D01*
G01*
G37*
G36*
G01*
X53160599Y-52382400D02*
X54468601Y-52382400D01*
G75*
G02*
X54519600Y-52433399I0J-50999D01*
G01*
X54519600Y-53741401D01*
G75*
G02*
X54468601Y-53792400I-50999J0D01*
G01*
X53160599Y-53792400D01*
G75*
G02*
X53109600Y-53741401I0J50999D01*
G01*
X53109600Y-52433399D01*
G75*
G02*
X53160599Y-52382400I50999J0D01*
G01*
G37*
G36*
G01*
X54560599Y-52382400D02*
X55868601Y-52382400D01*
G75*
G02*
X55919600Y-52433399I0J-50999D01*
G01*
X55919600Y-53741401D01*
G75*
G02*
X55868601Y-53792400I-50999J0D01*
G01*
X54560599Y-53792400D01*
G75*
G02*
X54509600Y-53741401I0J50999D01*
G01*
X54509600Y-52433399D01*
G75*
G02*
X54560599Y-52382400I50999J0D01*
G01*
G37*
G36*
G01*
X41490599Y-52382400D02*
X42798601Y-52382400D01*
G75*
G02*
X42849600Y-52433399I0J-50999D01*
G01*
X42849600Y-53741401D01*
G75*
G02*
X42798601Y-53792400I-50999J0D01*
G01*
X41490599Y-53792400D01*
G75*
G02*
X41439600Y-53741401I0J50999D01*
G01*
X41439600Y-52433399D01*
G75*
G02*
X41490599Y-52382400I50999J0D01*
G01*
G37*
G36*
G01*
X40090599Y-52382400D02*
X41398601Y-52382400D01*
G75*
G02*
X41449600Y-52433399I0J-50999D01*
G01*
X41449600Y-53741401D01*
G75*
G02*
X41398601Y-53792400I-50999J0D01*
G01*
X40090599Y-53792400D01*
G75*
G02*
X40039600Y-53741401I0J50999D01*
G01*
X40039600Y-52433399D01*
G75*
G02*
X40090599Y-52382400I50999J0D01*
G01*
G37*
D17*
X25019000Y-64436000D03*
G36*
G01*
X23719000Y-58085000D02*
X26319000Y-58085000D01*
G75*
G02*
X26370000Y-58136000I0J-51000D01*
G01*
X26370000Y-60736000D01*
G75*
G02*
X26319000Y-60787000I-51000J0D01*
G01*
X23719000Y-60787000D01*
G75*
G02*
X23668000Y-60736000I0J51000D01*
G01*
X23668000Y-58136000D01*
G75*
G02*
X23719000Y-58085000I51000J0D01*
G01*
G37*
G36*
G01*
X36017000Y-54610000D02*
X36017000Y-52070000D01*
G75*
G02*
X36068000Y-52019000I51000J0D01*
G01*
X38608000Y-52019000D01*
G75*
G02*
X38659000Y-52070000I0J-51000D01*
G01*
X38659000Y-54610000D01*
G75*
G02*
X38608000Y-54661000I-51000J0D01*
G01*
X36068000Y-54661000D01*
G75*
G02*
X36017000Y-54610000I0J51000D01*
G01*
G37*
D18*
X37338000Y-71120000D03*
X77978000Y-53340000D03*
X77978000Y-71120000D03*
G36*
G01*
X72295000Y-46513875D02*
X72295000Y-47466125D01*
G75*
G02*
X72020125Y-47741000I-274875J0D01*
G01*
X71442875Y-47741000D01*
G75*
G02*
X71168000Y-47466125I0J274875D01*
G01*
X71168000Y-46513875D01*
G75*
G02*
X71442875Y-46239000I274875J0D01*
G01*
X72020125Y-46239000D01*
G75*
G02*
X72295000Y-46513875I0J-274875D01*
G01*
G37*
G36*
G01*
X74120000Y-46513875D02*
X74120000Y-47466125D01*
G75*
G02*
X73845125Y-47741000I-274875J0D01*
G01*
X73267875Y-47741000D01*
G75*
G02*
X72993000Y-47466125I0J274875D01*
G01*
X72993000Y-46513875D01*
G75*
G02*
X73267875Y-46239000I274875J0D01*
G01*
X73845125Y-46239000D01*
G75*
G02*
X74120000Y-46513875I0J-274875D01*
G01*
G37*
G36*
G01*
X72295000Y-49180875D02*
X72295000Y-50133125D01*
G75*
G02*
X72020125Y-50408000I-274875J0D01*
G01*
X71442875Y-50408000D01*
G75*
G02*
X71168000Y-50133125I0J274875D01*
G01*
X71168000Y-49180875D01*
G75*
G02*
X71442875Y-48906000I274875J0D01*
G01*
X72020125Y-48906000D01*
G75*
G02*
X72295000Y-49180875I0J-274875D01*
G01*
G37*
G36*
G01*
X74120000Y-49180875D02*
X74120000Y-50133125D01*
G75*
G02*
X73845125Y-50408000I-274875J0D01*
G01*
X73267875Y-50408000D01*
G75*
G02*
X72993000Y-50133125I0J274875D01*
G01*
X72993000Y-49180875D01*
G75*
G02*
X73267875Y-48906000I274875J0D01*
G01*
X73845125Y-48906000D01*
G75*
G02*
X74120000Y-49180875I0J-274875D01*
G01*
G37*
G36*
G01*
X38093400Y-50336325D02*
X38093400Y-49384075D01*
G75*
G02*
X38368275Y-49109200I274875J0D01*
G01*
X38945525Y-49109200D01*
G75*
G02*
X39220400Y-49384075I0J-274875D01*
G01*
X39220400Y-50336325D01*
G75*
G02*
X38945525Y-50611200I-274875J0D01*
G01*
X38368275Y-50611200D01*
G75*
G02*
X38093400Y-50336325I0J274875D01*
G01*
G37*
G36*
G01*
X36268400Y-50336325D02*
X36268400Y-49384075D01*
G75*
G02*
X36543275Y-49109200I274875J0D01*
G01*
X37120525Y-49109200D01*
G75*
G02*
X37395400Y-49384075I0J-274875D01*
G01*
X37395400Y-50336325D01*
G75*
G02*
X37120525Y-50611200I-274875J0D01*
G01*
X36543275Y-50611200D01*
G75*
G02*
X36268400Y-50336325I0J274875D01*
G01*
G37*
G36*
G01*
X38068000Y-47162635D02*
X38068000Y-46210385D01*
G75*
G02*
X38342875Y-45935510I274875J0D01*
G01*
X38920125Y-45935510D01*
G75*
G02*
X39195000Y-46210385I0J-274875D01*
G01*
X39195000Y-47162635D01*
G75*
G02*
X38920125Y-47437510I-274875J0D01*
G01*
X38342875Y-47437510D01*
G75*
G02*
X38068000Y-47162635I0J274875D01*
G01*
G37*
G36*
G01*
X36243000Y-47162635D02*
X36243000Y-46210385D01*
G75*
G02*
X36517875Y-45935510I274875J0D01*
G01*
X37095125Y-45935510D01*
G75*
G02*
X37370000Y-46210385I0J-274875D01*
G01*
X37370000Y-47162635D01*
G75*
G02*
X37095125Y-47437510I-274875J0D01*
G01*
X36517875Y-47437510D01*
G75*
G02*
X36243000Y-47162635I0J274875D01*
G01*
G37*
G36*
G01*
X38068000Y-40815265D02*
X38068000Y-39863015D01*
G75*
G02*
X38342875Y-39588140I274875J0D01*
G01*
X38920125Y-39588140D01*
G75*
G02*
X39195000Y-39863015I0J-274875D01*
G01*
X39195000Y-40815265D01*
G75*
G02*
X38920125Y-41090140I-274875J0D01*
G01*
X38342875Y-41090140D01*
G75*
G02*
X38068000Y-40815265I0J274875D01*
G01*
G37*
G36*
G01*
X36243000Y-40815265D02*
X36243000Y-39863015D01*
G75*
G02*
X36517875Y-39588140I274875J0D01*
G01*
X37095125Y-39588140D01*
G75*
G02*
X37370000Y-39863015I0J-274875D01*
G01*
X37370000Y-40815265D01*
G75*
G02*
X37095125Y-41090140I-274875J0D01*
G01*
X36517875Y-41090140D01*
G75*
G02*
X36243000Y-40815265I0J274875D01*
G01*
G37*
G36*
G01*
X38068000Y-43988950D02*
X38068000Y-43036700D01*
G75*
G02*
X38342875Y-42761825I274875J0D01*
G01*
X38920125Y-42761825D01*
G75*
G02*
X39195000Y-43036700I0J-274875D01*
G01*
X39195000Y-43988950D01*
G75*
G02*
X38920125Y-44263825I-274875J0D01*
G01*
X38342875Y-44263825D01*
G75*
G02*
X38068000Y-43988950I0J274875D01*
G01*
G37*
G36*
G01*
X36243000Y-43988950D02*
X36243000Y-43036700D01*
G75*
G02*
X36517875Y-42761825I274875J0D01*
G01*
X37095125Y-42761825D01*
G75*
G02*
X37370000Y-43036700I0J-274875D01*
G01*
X37370000Y-43988950D01*
G75*
G02*
X37095125Y-44263825I-274875J0D01*
G01*
X36517875Y-44263825D01*
G75*
G02*
X36243000Y-43988950I0J274875D01*
G01*
G37*
D19*
X79375000Y-39370000D03*
X25146000Y-45466000D03*
G36*
G01*
X48506600Y-54018300D02*
X48506600Y-53017300D01*
G75*
G02*
X48782100Y-52741800I275500J0D01*
G01*
X49333100Y-52741800D01*
G75*
G02*
X49608600Y-53017300I0J-275500D01*
G01*
X49608600Y-54018300D01*
G75*
G02*
X49333100Y-54293800I-275500J0D01*
G01*
X48782100Y-54293800D01*
G75*
G02*
X48506600Y-54018300I0J275500D01*
G01*
G37*
G36*
G01*
X46606600Y-54018300D02*
X46606600Y-53017300D01*
G75*
G02*
X46882100Y-52741800I275500J0D01*
G01*
X47433100Y-52741800D01*
G75*
G02*
X47708600Y-53017300I0J-275500D01*
G01*
X47708600Y-54018300D01*
G75*
G02*
X47433100Y-54293800I-275500J0D01*
G01*
X46882100Y-54293800D01*
G75*
G02*
X46606600Y-54018300I0J275500D01*
G01*
G37*
G36*
G01*
X38143400Y-31288585D02*
X38143400Y-30287585D01*
G75*
G02*
X38418900Y-30012085I275500J0D01*
G01*
X38969900Y-30012085D01*
G75*
G02*
X39245400Y-30287585I0J-275500D01*
G01*
X39245400Y-31288585D01*
G75*
G02*
X38969900Y-31564085I-275500J0D01*
G01*
X38418900Y-31564085D01*
G75*
G02*
X38143400Y-31288585I0J275500D01*
G01*
G37*
G36*
G01*
X36243400Y-31288585D02*
X36243400Y-30287585D01*
G75*
G02*
X36518900Y-30012085I275500J0D01*
G01*
X37069900Y-30012085D01*
G75*
G02*
X37345400Y-30287585I0J-275500D01*
G01*
X37345400Y-31288585D01*
G75*
G02*
X37069900Y-31564085I-275500J0D01*
G01*
X36518900Y-31564085D01*
G75*
G02*
X36243400Y-31288585I0J275500D01*
G01*
G37*
G36*
G01*
X37370000Y-33515645D02*
X37370000Y-34467895D01*
G75*
G02*
X37095125Y-34742770I-274875J0D01*
G01*
X36517875Y-34742770D01*
G75*
G02*
X36243000Y-34467895I0J274875D01*
G01*
X36243000Y-33515645D01*
G75*
G02*
X36517875Y-33240770I274875J0D01*
G01*
X37095125Y-33240770D01*
G75*
G02*
X37370000Y-33515645I0J-274875D01*
G01*
G37*
G36*
G01*
X39195000Y-33515645D02*
X39195000Y-34467895D01*
G75*
G02*
X38920125Y-34742770I-274875J0D01*
G01*
X38342875Y-34742770D01*
G75*
G02*
X38068000Y-34467895I0J274875D01*
G01*
X38068000Y-33515645D01*
G75*
G02*
X38342875Y-33240770I274875J0D01*
G01*
X38920125Y-33240770D01*
G75*
G02*
X39195000Y-33515645I0J-274875D01*
G01*
G37*
G36*
G01*
X65881000Y-47466125D02*
X65881000Y-46513875D01*
G75*
G02*
X66155875Y-46239000I274875J0D01*
G01*
X66733125Y-46239000D01*
G75*
G02*
X67008000Y-46513875I0J-274875D01*
G01*
X67008000Y-47466125D01*
G75*
G02*
X66733125Y-47741000I-274875J0D01*
G01*
X66155875Y-47741000D01*
G75*
G02*
X65881000Y-47466125I0J274875D01*
G01*
G37*
G36*
G01*
X64056000Y-47466125D02*
X64056000Y-46513875D01*
G75*
G02*
X64330875Y-46239000I274875J0D01*
G01*
X64908125Y-46239000D01*
G75*
G02*
X65183000Y-46513875I0J-274875D01*
G01*
X65183000Y-47466125D01*
G75*
G02*
X64908125Y-47741000I-274875J0D01*
G01*
X64330875Y-47741000D01*
G75*
G02*
X64056000Y-47466125I0J274875D01*
G01*
G37*
G36*
G01*
X65881000Y-50133125D02*
X65881000Y-49180875D01*
G75*
G02*
X66155875Y-48906000I274875J0D01*
G01*
X66733125Y-48906000D01*
G75*
G02*
X67008000Y-49180875I0J-274875D01*
G01*
X67008000Y-50133125D01*
G75*
G02*
X66733125Y-50408000I-274875J0D01*
G01*
X66155875Y-50408000D01*
G75*
G02*
X65881000Y-50133125I0J274875D01*
G01*
G37*
G36*
G01*
X64056000Y-50133125D02*
X64056000Y-49180875D01*
G75*
G02*
X64330875Y-48906000I274875J0D01*
G01*
X64908125Y-48906000D01*
G75*
G02*
X65183000Y-49180875I0J-274875D01*
G01*
X65183000Y-50133125D01*
G75*
G02*
X64908125Y-50408000I-274875J0D01*
G01*
X64330875Y-50408000D01*
G75*
G02*
X64056000Y-50133125I0J274875D01*
G01*
G37*
G36*
G01*
X38042600Y-28060525D02*
X38042600Y-27108275D01*
G75*
G02*
X38317475Y-26833400I274875J0D01*
G01*
X38894725Y-26833400D01*
G75*
G02*
X39169600Y-27108275I0J-274875D01*
G01*
X39169600Y-28060525D01*
G75*
G02*
X38894725Y-28335400I-274875J0D01*
G01*
X38317475Y-28335400D01*
G75*
G02*
X38042600Y-28060525I0J274875D01*
G01*
G37*
G36*
G01*
X36217600Y-28060525D02*
X36217600Y-27108275D01*
G75*
G02*
X36492475Y-26833400I274875J0D01*
G01*
X37069725Y-26833400D01*
G75*
G02*
X37344600Y-27108275I0J-274875D01*
G01*
X37344600Y-28060525D01*
G75*
G02*
X37069725Y-28335400I-274875J0D01*
G01*
X36492475Y-28335400D01*
G75*
G02*
X36217600Y-28060525I0J274875D01*
G01*
G37*
G36*
G01*
X38068000Y-37641580D02*
X38068000Y-36689330D01*
G75*
G02*
X38342875Y-36414455I274875J0D01*
G01*
X38920125Y-36414455D01*
G75*
G02*
X39195000Y-36689330I0J-274875D01*
G01*
X39195000Y-37641580D01*
G75*
G02*
X38920125Y-37916455I-274875J0D01*
G01*
X38342875Y-37916455D01*
G75*
G02*
X38068000Y-37641580I0J274875D01*
G01*
G37*
G36*
G01*
X36243000Y-37641580D02*
X36243000Y-36689330D01*
G75*
G02*
X36517875Y-36414455I274875J0D01*
G01*
X37095125Y-36414455D01*
G75*
G02*
X37370000Y-36689330I0J-274875D01*
G01*
X37370000Y-37641580D01*
G75*
G02*
X37095125Y-37916455I-274875J0D01*
G01*
X36517875Y-37916455D01*
G75*
G02*
X36243000Y-37641580I0J274875D01*
G01*
G37*
X79375000Y-49530000D03*
X79375000Y-46990000D03*
X79375000Y-44450000D03*
G36*
G01*
X78488654Y-40989000D02*
X80261346Y-40989000D01*
G75*
G02*
X80526000Y-41253654I0J-264654D01*
G01*
X80526000Y-42566346D01*
G75*
G02*
X80261346Y-42831000I-264654J0D01*
G01*
X78488654Y-42831000D01*
G75*
G02*
X78224000Y-42566346I0J264654D01*
G01*
X78224000Y-41253654D01*
G75*
G02*
X78488654Y-40989000I264654J0D01*
G01*
G37*
X25146000Y-53086000D03*
X25146000Y-50546000D03*
G36*
G01*
X24259654Y-47085000D02*
X26032346Y-47085000D01*
G75*
G02*
X26297000Y-47349654I0J-264654D01*
G01*
X26297000Y-48662346D01*
G75*
G02*
X26032346Y-48927000I-264654J0D01*
G01*
X24259654Y-48927000D01*
G75*
G02*
X23995000Y-48662346I0J264654D01*
G01*
X23995000Y-47349654D01*
G75*
G02*
X24259654Y-47085000I264654J0D01*
G01*
G37*
X79375000Y-36830000D03*
X79375000Y-34290000D03*
G36*
G01*
X78488654Y-30829000D02*
X80261346Y-30829000D01*
G75*
G02*
X80526000Y-31093654I0J-264654D01*
G01*
X80526000Y-32406346D01*
G75*
G02*
X80261346Y-32671000I-264654J0D01*
G01*
X78488654Y-32671000D01*
G75*
G02*
X78224000Y-32406346I0J264654D01*
G01*
X78224000Y-31093654D01*
G75*
G02*
X78488654Y-30829000I264654J0D01*
G01*
G37*
G36*
G01*
X43084000Y-34713000D02*
X43084000Y-33613000D01*
G75*
G02*
X43135000Y-33562000I51000J0D01*
G01*
X45635000Y-33562000D01*
G75*
G02*
X45686000Y-33613000I0J-51000D01*
G01*
X45686000Y-34713000D01*
G75*
G02*
X45635000Y-34764000I-51000J0D01*
G01*
X43135000Y-34764000D01*
G75*
G02*
X43084000Y-34713000I0J51000D01*
G01*
G37*
G36*
G01*
X43084000Y-36713000D02*
X43084000Y-35613000D01*
G75*
G02*
X43135000Y-35562000I51000J0D01*
G01*
X45635000Y-35562000D01*
G75*
G02*
X45686000Y-35613000I0J-51000D01*
G01*
X45686000Y-36713000D01*
G75*
G02*
X45635000Y-36764000I-51000J0D01*
G01*
X43135000Y-36764000D01*
G75*
G02*
X43084000Y-36713000I0J51000D01*
G01*
G37*
G36*
G01*
X43084000Y-38713000D02*
X43084000Y-37613000D01*
G75*
G02*
X43135000Y-37562000I51000J0D01*
G01*
X45635000Y-37562000D01*
G75*
G02*
X45686000Y-37613000I0J-51000D01*
G01*
X45686000Y-38713000D01*
G75*
G02*
X45635000Y-38764000I-51000J0D01*
G01*
X43135000Y-38764000D01*
G75*
G02*
X43084000Y-38713000I0J51000D01*
G01*
G37*
G36*
G01*
X43084000Y-40713000D02*
X43084000Y-39613000D01*
G75*
G02*
X43135000Y-39562000I51000J0D01*
G01*
X45635000Y-39562000D01*
G75*
G02*
X45686000Y-39613000I0J-51000D01*
G01*
X45686000Y-40713000D01*
G75*
G02*
X45635000Y-40764000I-51000J0D01*
G01*
X43135000Y-40764000D01*
G75*
G02*
X43084000Y-40713000I0J51000D01*
G01*
G37*
G36*
G01*
X43084000Y-42713000D02*
X43084000Y-41613000D01*
G75*
G02*
X43135000Y-41562000I51000J0D01*
G01*
X45635000Y-41562000D01*
G75*
G02*
X45686000Y-41613000I0J-51000D01*
G01*
X45686000Y-42713000D01*
G75*
G02*
X45635000Y-42764000I-51000J0D01*
G01*
X43135000Y-42764000D01*
G75*
G02*
X43084000Y-42713000I0J51000D01*
G01*
G37*
G36*
G01*
X43084000Y-44713000D02*
X43084000Y-43613000D01*
G75*
G02*
X43135000Y-43562000I51000J0D01*
G01*
X45635000Y-43562000D01*
G75*
G02*
X45686000Y-43613000I0J-51000D01*
G01*
X45686000Y-44713000D01*
G75*
G02*
X45635000Y-44764000I-51000J0D01*
G01*
X43135000Y-44764000D01*
G75*
G02*
X43084000Y-44713000I0J51000D01*
G01*
G37*
G36*
G01*
X43084000Y-46713000D02*
X43084000Y-45613000D01*
G75*
G02*
X43135000Y-45562000I51000J0D01*
G01*
X45635000Y-45562000D01*
G75*
G02*
X45686000Y-45613000I0J-51000D01*
G01*
X45686000Y-46713000D01*
G75*
G02*
X45635000Y-46764000I-51000J0D01*
G01*
X43135000Y-46764000D01*
G75*
G02*
X43084000Y-46713000I0J51000D01*
G01*
G37*
G36*
G01*
X43084000Y-48713000D02*
X43084000Y-47613000D01*
G75*
G02*
X43135000Y-47562000I51000J0D01*
G01*
X45635000Y-47562000D01*
G75*
G02*
X45686000Y-47613000I0J-51000D01*
G01*
X45686000Y-48713000D01*
G75*
G02*
X45635000Y-48764000I-51000J0D01*
G01*
X43135000Y-48764000D01*
G75*
G02*
X43084000Y-48713000I0J51000D01*
G01*
G37*
G36*
G01*
X58484000Y-48713000D02*
X58484000Y-47613000D01*
G75*
G02*
X58535000Y-47562000I51000J0D01*
G01*
X61035000Y-47562000D01*
G75*
G02*
X61086000Y-47613000I0J-51000D01*
G01*
X61086000Y-48713000D01*
G75*
G02*
X61035000Y-48764000I-51000J0D01*
G01*
X58535000Y-48764000D01*
G75*
G02*
X58484000Y-48713000I0J51000D01*
G01*
G37*
G36*
G01*
X58484000Y-46713000D02*
X58484000Y-45613000D01*
G75*
G02*
X58535000Y-45562000I51000J0D01*
G01*
X61035000Y-45562000D01*
G75*
G02*
X61086000Y-45613000I0J-51000D01*
G01*
X61086000Y-46713000D01*
G75*
G02*
X61035000Y-46764000I-51000J0D01*
G01*
X58535000Y-46764000D01*
G75*
G02*
X58484000Y-46713000I0J51000D01*
G01*
G37*
G36*
G01*
X58484000Y-44713000D02*
X58484000Y-43613000D01*
G75*
G02*
X58535000Y-43562000I51000J0D01*
G01*
X61035000Y-43562000D01*
G75*
G02*
X61086000Y-43613000I0J-51000D01*
G01*
X61086000Y-44713000D01*
G75*
G02*
X61035000Y-44764000I-51000J0D01*
G01*
X58535000Y-44764000D01*
G75*
G02*
X58484000Y-44713000I0J51000D01*
G01*
G37*
G36*
G01*
X58484000Y-42713000D02*
X58484000Y-41613000D01*
G75*
G02*
X58535000Y-41562000I51000J0D01*
G01*
X61035000Y-41562000D01*
G75*
G02*
X61086000Y-41613000I0J-51000D01*
G01*
X61086000Y-42713000D01*
G75*
G02*
X61035000Y-42764000I-51000J0D01*
G01*
X58535000Y-42764000D01*
G75*
G02*
X58484000Y-42713000I0J51000D01*
G01*
G37*
G36*
G01*
X58484000Y-40713000D02*
X58484000Y-39613000D01*
G75*
G02*
X58535000Y-39562000I51000J0D01*
G01*
X61035000Y-39562000D01*
G75*
G02*
X61086000Y-39613000I0J-51000D01*
G01*
X61086000Y-40713000D01*
G75*
G02*
X61035000Y-40764000I-51000J0D01*
G01*
X58535000Y-40764000D01*
G75*
G02*
X58484000Y-40713000I0J51000D01*
G01*
G37*
G36*
G01*
X58484000Y-38713000D02*
X58484000Y-37613000D01*
G75*
G02*
X58535000Y-37562000I51000J0D01*
G01*
X61035000Y-37562000D01*
G75*
G02*
X61086000Y-37613000I0J-51000D01*
G01*
X61086000Y-38713000D01*
G75*
G02*
X61035000Y-38764000I-51000J0D01*
G01*
X58535000Y-38764000D01*
G75*
G02*
X58484000Y-38713000I0J51000D01*
G01*
G37*
G36*
G01*
X58484000Y-36713000D02*
X58484000Y-35613000D01*
G75*
G02*
X58535000Y-35562000I51000J0D01*
G01*
X61035000Y-35562000D01*
G75*
G02*
X61086000Y-35613000I0J-51000D01*
G01*
X61086000Y-36713000D01*
G75*
G02*
X61035000Y-36764000I-51000J0D01*
G01*
X58535000Y-36764000D01*
G75*
G02*
X58484000Y-36713000I0J51000D01*
G01*
G37*
G36*
G01*
X58484000Y-34713000D02*
X58484000Y-33613000D01*
G75*
G02*
X58535000Y-33562000I51000J0D01*
G01*
X61035000Y-33562000D01*
G75*
G02*
X61086000Y-33613000I0J-51000D01*
G01*
X61086000Y-34713000D01*
G75*
G02*
X61035000Y-34764000I-51000J0D01*
G01*
X58535000Y-34764000D01*
G75*
G02*
X58484000Y-34713000I0J51000D01*
G01*
G37*
G36*
G01*
X47625000Y-51164000D02*
X46525000Y-51164000D01*
G75*
G02*
X46474000Y-51113000I0J51000D01*
G01*
X46474000Y-48613000D01*
G75*
G02*
X46525000Y-48562000I51000J0D01*
G01*
X47625000Y-48562000D01*
G75*
G02*
X47676000Y-48613000I0J-51000D01*
G01*
X47676000Y-51113000D01*
G75*
G02*
X47625000Y-51164000I-51000J0D01*
G01*
G37*
G36*
G01*
X49625000Y-51164000D02*
X48525000Y-51164000D01*
G75*
G02*
X48474000Y-51113000I0J51000D01*
G01*
X48474000Y-48613000D01*
G75*
G02*
X48525000Y-48562000I51000J0D01*
G01*
X49625000Y-48562000D01*
G75*
G02*
X49676000Y-48613000I0J-51000D01*
G01*
X49676000Y-51113000D01*
G75*
G02*
X49625000Y-51164000I-51000J0D01*
G01*
G37*
G36*
G01*
X51625000Y-51164000D02*
X50525000Y-51164000D01*
G75*
G02*
X50474000Y-51113000I0J51000D01*
G01*
X50474000Y-48613000D01*
G75*
G02*
X50525000Y-48562000I51000J0D01*
G01*
X51625000Y-48562000D01*
G75*
G02*
X51676000Y-48613000I0J-51000D01*
G01*
X51676000Y-51113000D01*
G75*
G02*
X51625000Y-51164000I-51000J0D01*
G01*
G37*
G36*
G01*
X53625000Y-51164000D02*
X52525000Y-51164000D01*
G75*
G02*
X52474000Y-51113000I0J51000D01*
G01*
X52474000Y-48613000D01*
G75*
G02*
X52525000Y-48562000I51000J0D01*
G01*
X53625000Y-48562000D01*
G75*
G02*
X53676000Y-48613000I0J-51000D01*
G01*
X53676000Y-51113000D01*
G75*
G02*
X53625000Y-51164000I-51000J0D01*
G01*
G37*
G36*
G01*
X55625000Y-51164000D02*
X54525000Y-51164000D01*
G75*
G02*
X54474000Y-51113000I0J51000D01*
G01*
X54474000Y-48613000D01*
G75*
G02*
X54525000Y-48562000I51000J0D01*
G01*
X55625000Y-48562000D01*
G75*
G02*
X55676000Y-48613000I0J-51000D01*
G01*
X55676000Y-51113000D01*
G75*
G02*
X55625000Y-51164000I-51000J0D01*
G01*
G37*
G36*
G01*
X57625000Y-51164000D02*
X56525000Y-51164000D01*
G75*
G02*
X56474000Y-51113000I0J51000D01*
G01*
X56474000Y-48613000D01*
G75*
G02*
X56525000Y-48562000I51000J0D01*
G01*
X57625000Y-48562000D01*
G75*
G02*
X57676000Y-48613000I0J-51000D01*
G01*
X57676000Y-51113000D01*
G75*
G02*
X57625000Y-51164000I-51000J0D01*
G01*
G37*
D20*
X23010726Y-27027274D03*
X21844000Y-26544000D03*
X20677274Y-27027274D03*
X20194000Y-28194000D03*
X20677274Y-29360726D03*
X21844000Y-29844000D03*
X23010726Y-29360726D03*
X23494000Y-28194000D03*
D21*
X21844000Y-28194000D03*
D20*
X84097726Y-27027274D03*
X82931000Y-26544000D03*
X81764274Y-27027274D03*
X81281000Y-28194000D03*
X81764274Y-29360726D03*
X82931000Y-29844000D03*
X84097726Y-29360726D03*
X84581000Y-28194000D03*
D21*
X82931000Y-28194000D03*
X82931000Y-70866000D03*
D20*
X84581000Y-70866000D03*
X84097726Y-72032726D03*
X82931000Y-72516000D03*
X81764274Y-72032726D03*
X81281000Y-70866000D03*
X81764274Y-69699274D03*
X82931000Y-69216000D03*
X84097726Y-69699274D03*
D21*
X21844000Y-70866000D03*
D20*
X23494000Y-70866000D03*
X23010726Y-72032726D03*
X21844000Y-72516000D03*
X20677274Y-72032726D03*
X20194000Y-70866000D03*
X20677274Y-69699274D03*
X21844000Y-69216000D03*
X23010726Y-69699274D03*
D22*
X69088000Y-49530000D03*
G36*
G01*
X68188000Y-46039000D02*
X69988000Y-46039000D01*
G75*
G02*
X70039000Y-46090000I0J-51000D01*
G01*
X70039000Y-47890000D01*
G75*
G02*
X69988000Y-47941000I-51000J0D01*
G01*
X68188000Y-47941000D01*
G75*
G02*
X68137000Y-47890000I0J51000D01*
G01*
X68137000Y-46090000D01*
G75*
G02*
X68188000Y-46039000I51000J0D01*
G01*
G37*
G36*
G01*
X34810500Y-64237000D02*
X33009500Y-64237000D01*
G75*
G02*
X32109000Y-63336500I0J900500D01*
G01*
X32109000Y-61535500D01*
G75*
G02*
X33009500Y-60635000I900500J0D01*
G01*
X34810500Y-60635000D01*
G75*
G02*
X35711000Y-61535500I0J-900500D01*
G01*
X35711000Y-63336500D01*
G75*
G02*
X34810500Y-64237000I-900500J0D01*
G01*
G37*
G36*
G01*
X30235500Y-66987000D02*
X28184500Y-66987000D01*
G75*
G02*
X27409000Y-66211500I0J775500D01*
G01*
X27409000Y-64660500D01*
G75*
G02*
X28184500Y-63885000I775500J0D01*
G01*
X30235500Y-63885000D01*
G75*
G02*
X31011000Y-64660500I0J-775500D01*
G01*
X31011000Y-66211500D01*
G75*
G02*
X30235500Y-66987000I-775500J0D01*
G01*
G37*
G36*
G01*
X30960000Y-61237000D02*
X27460000Y-61237000D01*
G75*
G02*
X27409000Y-61186000I0J51000D01*
G01*
X27409000Y-57686000D01*
G75*
G02*
X27460000Y-57635000I51000J0D01*
G01*
X30960000Y-57635000D01*
G75*
G02*
X31011000Y-57686000I0J-51000D01*
G01*
X31011000Y-61186000D01*
G75*
G02*
X30960000Y-61237000I-51000J0D01*
G01*
G37*
D23*
X73719399Y-29845000D03*
X71179399Y-29845000D03*
X68639399Y-29845000D03*
G36*
G01*
X66949399Y-30746000D02*
X65249399Y-30746000D01*
G75*
G02*
X65198399Y-30695000I0J51000D01*
G01*
X65198399Y-28995000D01*
G75*
G02*
X65249399Y-28944000I51000J0D01*
G01*
X66949399Y-28944000D01*
G75*
G02*
X67000399Y-28995000I0J-51000D01*
G01*
X67000399Y-30695000D01*
G75*
G02*
X66949399Y-30746000I-51000J0D01*
G01*
G37*
D19*
X25146000Y-42926000D03*
X25146000Y-40386000D03*
X25146000Y-37846000D03*
X25146000Y-35306000D03*
G36*
G01*
X24259654Y-31845000D02*
X26032346Y-31845000D01*
G75*
G02*
X26297000Y-32109654I0J-264654D01*
G01*
X26297000Y-33422346D01*
G75*
G02*
X26032346Y-33687000I-264654J0D01*
G01*
X24259654Y-33687000D01*
G75*
G02*
X23995000Y-33422346I0J264654D01*
G01*
X23995000Y-32109654D01*
G75*
G02*
X24259654Y-31845000I264654J0D01*
G01*
G37*
G36*
G01*
X71893000Y-41338500D02*
X71893000Y-42989500D01*
G75*
G02*
X71667500Y-43215000I-225500J0D01*
G01*
X71216500Y-43215000D01*
G75*
G02*
X70991000Y-42989500I0J225500D01*
G01*
X70991000Y-41338500D01*
G75*
G02*
X71216500Y-41113000I225500J0D01*
G01*
X71667500Y-41113000D01*
G75*
G02*
X71893000Y-41338500I0J-225500D01*
G01*
G37*
G36*
G01*
X67693000Y-41338500D02*
X67693000Y-42989500D01*
G75*
G02*
X67467500Y-43215000I-225500J0D01*
G01*
X67016500Y-43215000D01*
G75*
G02*
X66791000Y-42989500I0J225500D01*
G01*
X66791000Y-41338500D01*
G75*
G02*
X67016500Y-41113000I225500J0D01*
G01*
X67467500Y-41113000D01*
G75*
G02*
X67693000Y-41338500I0J-225500D01*
G01*
G37*
M02*
