G04 #@! TF.GenerationSoftware,KiCad,Pcbnew,(5.1.9)-1*
G04 #@! TF.CreationDate,2021-06-01T19:36:45+03:00*
G04 #@! TF.ProjectId,ESP-RGBW-3S,4553502d-5247-4425-972d-33532e6b6963,0.4*
G04 #@! TF.SameCoordinates,Original*
G04 #@! TF.FileFunction,Paste,Bot*
G04 #@! TF.FilePolarity,Positive*
%FSLAX46Y46*%
G04 Gerber Fmt 4.6, Leading zero omitted, Abs format (unit mm)*
G04 Created by KiCad (PCBNEW (5.1.9)-1) date 2021-06-01 19:36:45*
%MOMM*%
%LPD*%
G01*
G04 APERTURE LIST*
%ADD10R,0.900000X0.800000*%
G04 APERTURE END LIST*
D10*
X29099000Y-28221000D03*
X31099000Y-29171000D03*
X31099000Y-27271000D03*
G36*
G01*
X72768400Y-39243252D02*
X72768400Y-38343248D01*
G75*
G02*
X73018398Y-38093250I249998J0D01*
G01*
X73543402Y-38093250D01*
G75*
G02*
X73793400Y-38343248I0J-249998D01*
G01*
X73793400Y-39243252D01*
G75*
G02*
X73543402Y-39493250I-249998J0D01*
G01*
X73018398Y-39493250D01*
G75*
G02*
X72768400Y-39243252I0J249998D01*
G01*
G37*
G36*
G01*
X74593400Y-39243252D02*
X74593400Y-38343248D01*
G75*
G02*
X74843398Y-38093250I249998J0D01*
G01*
X75368402Y-38093250D01*
G75*
G02*
X75618400Y-38343248I0J-249998D01*
G01*
X75618400Y-39243252D01*
G75*
G02*
X75368402Y-39493250I-249998J0D01*
G01*
X74843398Y-39493250D01*
G75*
G02*
X74593400Y-39243252I0J249998D01*
G01*
G37*
G36*
G01*
X69132400Y-39243252D02*
X69132400Y-38343248D01*
G75*
G02*
X69382398Y-38093250I249998J0D01*
G01*
X69907402Y-38093250D01*
G75*
G02*
X70157400Y-38343248I0J-249998D01*
G01*
X70157400Y-39243252D01*
G75*
G02*
X69907402Y-39493250I-249998J0D01*
G01*
X69382398Y-39493250D01*
G75*
G02*
X69132400Y-39243252I0J249998D01*
G01*
G37*
G36*
G01*
X67307400Y-39243252D02*
X67307400Y-38343248D01*
G75*
G02*
X67557398Y-38093250I249998J0D01*
G01*
X68082402Y-38093250D01*
G75*
G02*
X68332400Y-38343248I0J-249998D01*
G01*
X68332400Y-39243252D01*
G75*
G02*
X68082402Y-39493250I-249998J0D01*
G01*
X67557398Y-39493250D01*
G75*
G02*
X67307400Y-39243252I0J249998D01*
G01*
G37*
G36*
G01*
X69132400Y-36075002D02*
X69132400Y-35174998D01*
G75*
G02*
X69382398Y-34925000I249998J0D01*
G01*
X69907402Y-34925000D01*
G75*
G02*
X70157400Y-35174998I0J-249998D01*
G01*
X70157400Y-36075002D01*
G75*
G02*
X69907402Y-36325000I-249998J0D01*
G01*
X69382398Y-36325000D01*
G75*
G02*
X69132400Y-36075002I0J249998D01*
G01*
G37*
G36*
G01*
X67307400Y-36075002D02*
X67307400Y-35174998D01*
G75*
G02*
X67557398Y-34925000I249998J0D01*
G01*
X68082402Y-34925000D01*
G75*
G02*
X68332400Y-35174998I0J-249998D01*
G01*
X68332400Y-36075002D01*
G75*
G02*
X68082402Y-36325000I-249998J0D01*
G01*
X67557398Y-36325000D01*
G75*
G02*
X67307400Y-36075002I0J249998D01*
G01*
G37*
X32147000Y-34825000D03*
X34147000Y-35775000D03*
X34147000Y-33875000D03*
X32147000Y-47498000D03*
X34147000Y-48448000D03*
X34147000Y-46548000D03*
X32147000Y-41148000D03*
X34147000Y-42098000D03*
X34147000Y-40198000D03*
G36*
G01*
X35287000Y-28570998D02*
X35287000Y-29471002D01*
G75*
G02*
X35037002Y-29721000I-249998J0D01*
G01*
X34511998Y-29721000D01*
G75*
G02*
X34262000Y-29471002I0J249998D01*
G01*
X34262000Y-28570998D01*
G75*
G02*
X34511998Y-28321000I249998J0D01*
G01*
X35037002Y-28321000D01*
G75*
G02*
X35287000Y-28570998I0J-249998D01*
G01*
G37*
G36*
G01*
X37112000Y-28570998D02*
X37112000Y-29471002D01*
G75*
G02*
X36862002Y-29721000I-249998J0D01*
G01*
X36336998Y-29721000D01*
G75*
G02*
X36087000Y-29471002I0J249998D01*
G01*
X36087000Y-28570998D01*
G75*
G02*
X36336998Y-28321000I249998J0D01*
G01*
X36862002Y-28321000D01*
G75*
G02*
X37112000Y-28570998I0J-249998D01*
G01*
G37*
G36*
G01*
X37827000Y-35174998D02*
X37827000Y-36075002D01*
G75*
G02*
X37577002Y-36325000I-249998J0D01*
G01*
X37051998Y-36325000D01*
G75*
G02*
X36802000Y-36075002I0J249998D01*
G01*
X36802000Y-35174998D01*
G75*
G02*
X37051998Y-34925000I249998J0D01*
G01*
X37577002Y-34925000D01*
G75*
G02*
X37827000Y-35174998I0J-249998D01*
G01*
G37*
G36*
G01*
X39652000Y-35174998D02*
X39652000Y-36075002D01*
G75*
G02*
X39402002Y-36325000I-249998J0D01*
G01*
X38876998Y-36325000D01*
G75*
G02*
X38627000Y-36075002I0J249998D01*
G01*
X38627000Y-35174998D01*
G75*
G02*
X38876998Y-34925000I249998J0D01*
G01*
X39402002Y-34925000D01*
G75*
G02*
X39652000Y-35174998I0J-249998D01*
G01*
G37*
G36*
G01*
X37827000Y-41497998D02*
X37827000Y-42398002D01*
G75*
G02*
X37577002Y-42648000I-249998J0D01*
G01*
X37051998Y-42648000D01*
G75*
G02*
X36802000Y-42398002I0J249998D01*
G01*
X36802000Y-41497998D01*
G75*
G02*
X37051998Y-41248000I249998J0D01*
G01*
X37577002Y-41248000D01*
G75*
G02*
X37827000Y-41497998I0J-249998D01*
G01*
G37*
G36*
G01*
X39652000Y-41497998D02*
X39652000Y-42398002D01*
G75*
G02*
X39402002Y-42648000I-249998J0D01*
G01*
X38876998Y-42648000D01*
G75*
G02*
X38627000Y-42398002I0J249998D01*
G01*
X38627000Y-41497998D01*
G75*
G02*
X38876998Y-41248000I249998J0D01*
G01*
X39402002Y-41248000D01*
G75*
G02*
X39652000Y-41497998I0J-249998D01*
G01*
G37*
G36*
G01*
X37827000Y-47847998D02*
X37827000Y-48748002D01*
G75*
G02*
X37577002Y-48998000I-249998J0D01*
G01*
X37051998Y-48998000D01*
G75*
G02*
X36802000Y-48748002I0J249998D01*
G01*
X36802000Y-47847998D01*
G75*
G02*
X37051998Y-47598000I249998J0D01*
G01*
X37577002Y-47598000D01*
G75*
G02*
X37827000Y-47847998I0J-249998D01*
G01*
G37*
G36*
G01*
X39652000Y-47847998D02*
X39652000Y-48748002D01*
G75*
G02*
X39402002Y-48998000I-249998J0D01*
G01*
X38876998Y-48998000D01*
G75*
G02*
X38627000Y-48748002I0J249998D01*
G01*
X38627000Y-47847998D01*
G75*
G02*
X38876998Y-47598000I249998J0D01*
G01*
X39402002Y-47598000D01*
G75*
G02*
X39652000Y-47847998I0J-249998D01*
G01*
G37*
G36*
G01*
X43161000Y-47847998D02*
X43161000Y-48748002D01*
G75*
G02*
X42911002Y-48998000I-249998J0D01*
G01*
X42385998Y-48998000D01*
G75*
G02*
X42136000Y-48748002I0J249998D01*
G01*
X42136000Y-47847998D01*
G75*
G02*
X42385998Y-47598000I249998J0D01*
G01*
X42911002Y-47598000D01*
G75*
G02*
X43161000Y-47847998I0J-249998D01*
G01*
G37*
G36*
G01*
X44986000Y-47847998D02*
X44986000Y-48748002D01*
G75*
G02*
X44736002Y-48998000I-249998J0D01*
G01*
X44210998Y-48998000D01*
G75*
G02*
X43961000Y-48748002I0J249998D01*
G01*
X43961000Y-47847998D01*
G75*
G02*
X44210998Y-47598000I249998J0D01*
G01*
X44736002Y-47598000D01*
G75*
G02*
X44986000Y-47847998I0J-249998D01*
G01*
G37*
G36*
G01*
X43161000Y-41497998D02*
X43161000Y-42398002D01*
G75*
G02*
X42911002Y-42648000I-249998J0D01*
G01*
X42385998Y-42648000D01*
G75*
G02*
X42136000Y-42398002I0J249998D01*
G01*
X42136000Y-41497998D01*
G75*
G02*
X42385998Y-41248000I249998J0D01*
G01*
X42911002Y-41248000D01*
G75*
G02*
X43161000Y-41497998I0J-249998D01*
G01*
G37*
G36*
G01*
X44986000Y-41497998D02*
X44986000Y-42398002D01*
G75*
G02*
X44736002Y-42648000I-249998J0D01*
G01*
X44210998Y-42648000D01*
G75*
G02*
X43961000Y-42398002I0J249998D01*
G01*
X43961000Y-41497998D01*
G75*
G02*
X44210998Y-41248000I249998J0D01*
G01*
X44736002Y-41248000D01*
G75*
G02*
X44986000Y-41497998I0J-249998D01*
G01*
G37*
G36*
G01*
X43161000Y-35174998D02*
X43161000Y-36075002D01*
G75*
G02*
X42911002Y-36325000I-249998J0D01*
G01*
X42385998Y-36325000D01*
G75*
G02*
X42136000Y-36075002I0J249998D01*
G01*
X42136000Y-35174998D01*
G75*
G02*
X42385998Y-34925000I249998J0D01*
G01*
X42911002Y-34925000D01*
G75*
G02*
X43161000Y-35174998I0J-249998D01*
G01*
G37*
G36*
G01*
X44986000Y-35174998D02*
X44986000Y-36075002D01*
G75*
G02*
X44736002Y-36325000I-249998J0D01*
G01*
X44210998Y-36325000D01*
G75*
G02*
X43961000Y-36075002I0J249998D01*
G01*
X43961000Y-35174998D01*
G75*
G02*
X44210998Y-34925000I249998J0D01*
G01*
X44736002Y-34925000D01*
G75*
G02*
X44986000Y-35174998I0J-249998D01*
G01*
G37*
G36*
G01*
X40240000Y-28570998D02*
X40240000Y-29471002D01*
G75*
G02*
X39990002Y-29721000I-249998J0D01*
G01*
X39464998Y-29721000D01*
G75*
G02*
X39215000Y-29471002I0J249998D01*
G01*
X39215000Y-28570998D01*
G75*
G02*
X39464998Y-28321000I249998J0D01*
G01*
X39990002Y-28321000D01*
G75*
G02*
X40240000Y-28570998I0J-249998D01*
G01*
G37*
G36*
G01*
X42065000Y-28570998D02*
X42065000Y-29471002D01*
G75*
G02*
X41815002Y-29721000I-249998J0D01*
G01*
X41289998Y-29721000D01*
G75*
G02*
X41040000Y-29471002I0J249998D01*
G01*
X41040000Y-28570998D01*
G75*
G02*
X41289998Y-28321000I249998J0D01*
G01*
X41815002Y-28321000D01*
G75*
G02*
X42065000Y-28570998I0J-249998D01*
G01*
G37*
G36*
G01*
X62871400Y-38343248D02*
X62871400Y-39243252D01*
G75*
G02*
X62621402Y-39493250I-249998J0D01*
G01*
X62096398Y-39493250D01*
G75*
G02*
X61846400Y-39243252I0J249998D01*
G01*
X61846400Y-38343248D01*
G75*
G02*
X62096398Y-38093250I249998J0D01*
G01*
X62621402Y-38093250D01*
G75*
G02*
X62871400Y-38343248I0J-249998D01*
G01*
G37*
G36*
G01*
X64696400Y-38343248D02*
X64696400Y-39243252D01*
G75*
G02*
X64446402Y-39493250I-249998J0D01*
G01*
X63921398Y-39493250D01*
G75*
G02*
X63671400Y-39243252I0J249998D01*
G01*
X63671400Y-38343248D01*
G75*
G02*
X63921398Y-38093250I249998J0D01*
G01*
X64446402Y-38093250D01*
G75*
G02*
X64696400Y-38343248I0J-249998D01*
G01*
G37*
G36*
G01*
X62871400Y-41511498D02*
X62871400Y-42411502D01*
G75*
G02*
X62621402Y-42661500I-249998J0D01*
G01*
X62096398Y-42661500D01*
G75*
G02*
X61846400Y-42411502I0J249998D01*
G01*
X61846400Y-41511498D01*
G75*
G02*
X62096398Y-41261500I249998J0D01*
G01*
X62621402Y-41261500D01*
G75*
G02*
X62871400Y-41511498I0J-249998D01*
G01*
G37*
G36*
G01*
X64696400Y-41511498D02*
X64696400Y-42411502D01*
G75*
G02*
X64446402Y-42661500I-249998J0D01*
G01*
X63921398Y-42661500D01*
G75*
G02*
X63671400Y-42411502I0J249998D01*
G01*
X63671400Y-41511498D01*
G75*
G02*
X63921398Y-41261500I249998J0D01*
G01*
X64446402Y-41261500D01*
G75*
G02*
X64696400Y-41511498I0J-249998D01*
G01*
G37*
G36*
G01*
X62871400Y-44679748D02*
X62871400Y-45579752D01*
G75*
G02*
X62621402Y-45829750I-249998J0D01*
G01*
X62096398Y-45829750D01*
G75*
G02*
X61846400Y-45579752I0J249998D01*
G01*
X61846400Y-44679748D01*
G75*
G02*
X62096398Y-44429750I249998J0D01*
G01*
X62621402Y-44429750D01*
G75*
G02*
X62871400Y-44679748I0J-249998D01*
G01*
G37*
G36*
G01*
X64696400Y-44679748D02*
X64696400Y-45579752D01*
G75*
G02*
X64446402Y-45829750I-249998J0D01*
G01*
X63921398Y-45829750D01*
G75*
G02*
X63671400Y-45579752I0J249998D01*
G01*
X63671400Y-44679748D01*
G75*
G02*
X63921398Y-44429750I249998J0D01*
G01*
X64446402Y-44429750D01*
G75*
G02*
X64696400Y-44679748I0J-249998D01*
G01*
G37*
G36*
G01*
X62871400Y-47847998D02*
X62871400Y-48748002D01*
G75*
G02*
X62621402Y-48998000I-249998J0D01*
G01*
X62096398Y-48998000D01*
G75*
G02*
X61846400Y-48748002I0J249998D01*
G01*
X61846400Y-47847998D01*
G75*
G02*
X62096398Y-47598000I249998J0D01*
G01*
X62621402Y-47598000D01*
G75*
G02*
X62871400Y-47847998I0J-249998D01*
G01*
G37*
G36*
G01*
X64696400Y-47847998D02*
X64696400Y-48748002D01*
G75*
G02*
X64446402Y-48998000I-249998J0D01*
G01*
X63921398Y-48998000D01*
G75*
G02*
X63671400Y-48748002I0J249998D01*
G01*
X63671400Y-47847998D01*
G75*
G02*
X63921398Y-47598000I249998J0D01*
G01*
X64446402Y-47598000D01*
G75*
G02*
X64696400Y-47847998I0J-249998D01*
G01*
G37*
G36*
G01*
X62871400Y-35174998D02*
X62871400Y-36075002D01*
G75*
G02*
X62621402Y-36325000I-249998J0D01*
G01*
X62096398Y-36325000D01*
G75*
G02*
X61846400Y-36075002I0J249998D01*
G01*
X61846400Y-35174998D01*
G75*
G02*
X62096398Y-34925000I249998J0D01*
G01*
X62621402Y-34925000D01*
G75*
G02*
X62871400Y-35174998I0J-249998D01*
G01*
G37*
G36*
G01*
X64696400Y-35174998D02*
X64696400Y-36075002D01*
G75*
G02*
X64446402Y-36325000I-249998J0D01*
G01*
X63921398Y-36325000D01*
G75*
G02*
X63671400Y-36075002I0J249998D01*
G01*
X63671400Y-35174998D01*
G75*
G02*
X63921398Y-34925000I249998J0D01*
G01*
X64446402Y-34925000D01*
G75*
G02*
X64696400Y-35174998I0J-249998D01*
G01*
G37*
M02*
