M48
; DRILL file {KiCad (5.1.9)-1} date 06/01/21 19:36:48
; FORMAT={-:-/ absolute / metric / decimal}
; #@! TF.CreationDate,2021-06-01T19:36:48+03:00
; #@! TF.GenerationSoftware,Kicad,Pcbnew,(5.1.9)-1
; #@! TF.FileFunction,Plated,1,2,PTH
FMAT,2
METRIC
T1C0.400
T2C0.600
T3C0.800
T4C0.900
T5C1.000
T6C1.200
T7C1.300
T8C2.200
%
G90
G05
T1
X20.194Y-28.194
X20.194Y-70.866
X20.677Y-27.027
X20.677Y-29.361
X20.677Y-69.699
X20.677Y-72.033
X21.844Y-26.544
X21.844Y-29.844
X21.844Y-69.216
X21.844Y-72.516
X23.011Y-27.027
X23.011Y-29.361
X23.011Y-69.699
X23.011Y-72.033
X23.494Y-28.194
X23.494Y-70.866
X81.281Y-28.194
X81.281Y-70.866
X81.764Y-27.027
X81.764Y-29.361
X81.764Y-69.699
X81.764Y-72.033
X82.931Y-26.544
X82.931Y-29.844
X82.931Y-69.216
X82.931Y-72.516
X84.098Y-27.027
X84.098Y-29.361
X84.098Y-69.699
X84.098Y-72.033
X84.581Y-28.194
X84.581Y-70.866
T2
X33.274Y-50.546
X43.434Y-29.718
X47.6Y-46.076
X47.625Y-35.941
X48.26Y-41.021
X55.116Y-34.288
X57.277Y-38.227
X57.277Y-40.132
X57.277Y-42.164
X57.277Y-44.196
X60.706Y-51.054
X64.16Y-32.766
X73.812Y-34.188
X75.311Y-46.99
X75.387Y-41.885
T3
X40.745Y-53.087
X40.745Y-72.087
X42.145Y-53.087
X42.145Y-72.087
X53.815Y-53.087
X53.815Y-72.087
X55.215Y-53.087
X55.215Y-72.087
T4
X69.088Y-46.99
X69.088Y-49.53
T5
X37.338Y-53.34
X37.338Y-71.12
X66.099Y-29.845
X68.639Y-29.845
X71.179Y-29.845
X73.719Y-29.845
X77.978Y-53.34
X77.978Y-71.12
T6
X25.146Y-32.766
X25.146Y-35.306
X25.146Y-37.846
X25.146Y-40.386
X25.146Y-42.926
X25.146Y-45.466
X25.146Y-48.006
X25.146Y-50.546
X25.146Y-53.086
X79.375Y-31.75
X79.375Y-34.29
X79.375Y-36.83
X79.375Y-39.37
X79.375Y-41.91
X79.375Y-44.45
X79.375Y-46.99
X79.375Y-49.53
T7
X25.019Y-59.436
X25.019Y-64.436
T8
X21.844Y-28.194
X21.844Y-70.866
X82.931Y-28.194
X82.931Y-70.866
T5
X28.21Y-59.436G85X30.21Y-59.436
G05
X28.21Y-65.436G85X30.21Y-65.436
G05
X33.91Y-63.436G85X33.91Y-61.436
G05
T0
M30
