G04 #@! TF.GenerationSoftware,KiCad,Pcbnew,(5.1.9)-1*
G04 #@! TF.CreationDate,2021-06-01T19:36:45+03:00*
G04 #@! TF.ProjectId,ESP-RGBW-3S,4553502d-5247-4425-972d-33532e6b6963,0.4*
G04 #@! TF.SameCoordinates,Original*
G04 #@! TF.FileFunction,Copper,L1,Top*
G04 #@! TF.FilePolarity,Positive*
%FSLAX46Y46*%
G04 Gerber Fmt 4.6, Leading zero omitted, Abs format (unit mm)*
G04 Created by KiCad (PCBNEW (5.1.9)-1) date 2021-06-01 19:36:45*
%MOMM*%
%LPD*%
G01*
G04 APERTURE LIST*
G04 #@! TA.AperFunction,ComponentPad*
%ADD10R,1.308000X1.308000*%
G04 #@! TD*
G04 #@! TA.AperFunction,ComponentPad*
%ADD11C,2.600000*%
G04 #@! TD*
G04 #@! TA.AperFunction,ComponentPad*
%ADD12R,2.600000X2.600000*%
G04 #@! TD*
G04 #@! TA.AperFunction,ComponentPad*
%ADD13R,2.540000X2.540000*%
G04 #@! TD*
G04 #@! TA.AperFunction,ComponentPad*
%ADD14C,2.540000*%
G04 #@! TD*
G04 #@! TA.AperFunction,ComponentPad*
%ADD15O,2.200000X1.740000*%
G04 #@! TD*
G04 #@! TA.AperFunction,SMDPad,CuDef*
%ADD16R,2.500000X1.100000*%
G04 #@! TD*
G04 #@! TA.AperFunction,SMDPad,CuDef*
%ADD17R,1.100000X2.500000*%
G04 #@! TD*
G04 #@! TA.AperFunction,ComponentPad*
%ADD18C,0.700000*%
G04 #@! TD*
G04 #@! TA.AperFunction,ComponentPad*
%ADD19C,4.400000*%
G04 #@! TD*
G04 #@! TA.AperFunction,ComponentPad*
%ADD20C,1.800000*%
G04 #@! TD*
G04 #@! TA.AperFunction,ComponentPad*
%ADD21R,1.800000X1.800000*%
G04 #@! TD*
G04 #@! TA.AperFunction,ComponentPad*
%ADD22R,3.500000X3.500000*%
G04 #@! TD*
G04 #@! TA.AperFunction,ComponentPad*
%ADD23O,1.700000X1.700000*%
G04 #@! TD*
G04 #@! TA.AperFunction,ComponentPad*
%ADD24R,1.700000X1.700000*%
G04 #@! TD*
G04 #@! TA.AperFunction,ViaPad*
%ADD25C,1.200000*%
G04 #@! TD*
G04 #@! TA.AperFunction,Conductor*
%ADD26C,0.500000*%
G04 #@! TD*
G04 #@! TA.AperFunction,Conductor*
%ADD27C,1.000000*%
G04 #@! TD*
G04 #@! TA.AperFunction,Conductor*
%ADD28C,2.000000*%
G04 #@! TD*
G04 #@! TA.AperFunction,Conductor*
%ADD29C,0.254000*%
G04 #@! TD*
G04 #@! TA.AperFunction,Conductor*
%ADD30C,0.100000*%
G04 #@! TD*
G04 APERTURE END LIST*
D10*
X42144600Y-72087400D03*
X40744600Y-72087400D03*
X53814600Y-72087400D03*
X55214600Y-72087400D03*
X53814600Y-53087400D03*
X55214600Y-53087400D03*
X42144600Y-53087400D03*
X40744600Y-53087400D03*
D11*
X25019000Y-64436000D03*
D12*
X25019000Y-59436000D03*
D13*
X37338000Y-53340000D03*
D14*
X37338000Y-71120000D03*
X77978000Y-53340000D03*
X77978000Y-71120000D03*
G04 #@! TA.AperFunction,SMDPad,CuDef*
G36*
G01*
X72244000Y-46539998D02*
X72244000Y-47440002D01*
G75*
G02*
X71994002Y-47690000I-249998J0D01*
G01*
X71468998Y-47690000D01*
G75*
G02*
X71219000Y-47440002I0J249998D01*
G01*
X71219000Y-46539998D01*
G75*
G02*
X71468998Y-46290000I249998J0D01*
G01*
X71994002Y-46290000D01*
G75*
G02*
X72244000Y-46539998I0J-249998D01*
G01*
G37*
G04 #@! TD.AperFunction*
G04 #@! TA.AperFunction,SMDPad,CuDef*
G36*
G01*
X74069000Y-46539998D02*
X74069000Y-47440002D01*
G75*
G02*
X73819002Y-47690000I-249998J0D01*
G01*
X73293998Y-47690000D01*
G75*
G02*
X73044000Y-47440002I0J249998D01*
G01*
X73044000Y-46539998D01*
G75*
G02*
X73293998Y-46290000I249998J0D01*
G01*
X73819002Y-46290000D01*
G75*
G02*
X74069000Y-46539998I0J-249998D01*
G01*
G37*
G04 #@! TD.AperFunction*
G04 #@! TA.AperFunction,SMDPad,CuDef*
G36*
G01*
X72244000Y-49206998D02*
X72244000Y-50107002D01*
G75*
G02*
X71994002Y-50357000I-249998J0D01*
G01*
X71468998Y-50357000D01*
G75*
G02*
X71219000Y-50107002I0J249998D01*
G01*
X71219000Y-49206998D01*
G75*
G02*
X71468998Y-48957000I249998J0D01*
G01*
X71994002Y-48957000D01*
G75*
G02*
X72244000Y-49206998I0J-249998D01*
G01*
G37*
G04 #@! TD.AperFunction*
G04 #@! TA.AperFunction,SMDPad,CuDef*
G36*
G01*
X74069000Y-49206998D02*
X74069000Y-50107002D01*
G75*
G02*
X73819002Y-50357000I-249998J0D01*
G01*
X73293998Y-50357000D01*
G75*
G02*
X73044000Y-50107002I0J249998D01*
G01*
X73044000Y-49206998D01*
G75*
G02*
X73293998Y-48957000I249998J0D01*
G01*
X73819002Y-48957000D01*
G75*
G02*
X74069000Y-49206998I0J-249998D01*
G01*
G37*
G04 #@! TD.AperFunction*
G04 #@! TA.AperFunction,SMDPad,CuDef*
G36*
G01*
X38144400Y-50310202D02*
X38144400Y-49410198D01*
G75*
G02*
X38394398Y-49160200I249998J0D01*
G01*
X38919402Y-49160200D01*
G75*
G02*
X39169400Y-49410198I0J-249998D01*
G01*
X39169400Y-50310202D01*
G75*
G02*
X38919402Y-50560200I-249998J0D01*
G01*
X38394398Y-50560200D01*
G75*
G02*
X38144400Y-50310202I0J249998D01*
G01*
G37*
G04 #@! TD.AperFunction*
G04 #@! TA.AperFunction,SMDPad,CuDef*
G36*
G01*
X36319400Y-50310202D02*
X36319400Y-49410198D01*
G75*
G02*
X36569398Y-49160200I249998J0D01*
G01*
X37094402Y-49160200D01*
G75*
G02*
X37344400Y-49410198I0J-249998D01*
G01*
X37344400Y-50310202D01*
G75*
G02*
X37094402Y-50560200I-249998J0D01*
G01*
X36569398Y-50560200D01*
G75*
G02*
X36319400Y-50310202I0J249998D01*
G01*
G37*
G04 #@! TD.AperFunction*
G04 #@! TA.AperFunction,SMDPad,CuDef*
G36*
G01*
X38119000Y-47136512D02*
X38119000Y-46236508D01*
G75*
G02*
X38368998Y-45986510I249998J0D01*
G01*
X38894002Y-45986510D01*
G75*
G02*
X39144000Y-46236508I0J-249998D01*
G01*
X39144000Y-47136512D01*
G75*
G02*
X38894002Y-47386510I-249998J0D01*
G01*
X38368998Y-47386510D01*
G75*
G02*
X38119000Y-47136512I0J249998D01*
G01*
G37*
G04 #@! TD.AperFunction*
G04 #@! TA.AperFunction,SMDPad,CuDef*
G36*
G01*
X36294000Y-47136512D02*
X36294000Y-46236508D01*
G75*
G02*
X36543998Y-45986510I249998J0D01*
G01*
X37069002Y-45986510D01*
G75*
G02*
X37319000Y-46236508I0J-249998D01*
G01*
X37319000Y-47136512D01*
G75*
G02*
X37069002Y-47386510I-249998J0D01*
G01*
X36543998Y-47386510D01*
G75*
G02*
X36294000Y-47136512I0J249998D01*
G01*
G37*
G04 #@! TD.AperFunction*
G04 #@! TA.AperFunction,SMDPad,CuDef*
G36*
G01*
X38119000Y-40789142D02*
X38119000Y-39889138D01*
G75*
G02*
X38368998Y-39639140I249998J0D01*
G01*
X38894002Y-39639140D01*
G75*
G02*
X39144000Y-39889138I0J-249998D01*
G01*
X39144000Y-40789142D01*
G75*
G02*
X38894002Y-41039140I-249998J0D01*
G01*
X38368998Y-41039140D01*
G75*
G02*
X38119000Y-40789142I0J249998D01*
G01*
G37*
G04 #@! TD.AperFunction*
G04 #@! TA.AperFunction,SMDPad,CuDef*
G36*
G01*
X36294000Y-40789142D02*
X36294000Y-39889138D01*
G75*
G02*
X36543998Y-39639140I249998J0D01*
G01*
X37069002Y-39639140D01*
G75*
G02*
X37319000Y-39889138I0J-249998D01*
G01*
X37319000Y-40789142D01*
G75*
G02*
X37069002Y-41039140I-249998J0D01*
G01*
X36543998Y-41039140D01*
G75*
G02*
X36294000Y-40789142I0J249998D01*
G01*
G37*
G04 #@! TD.AperFunction*
G04 #@! TA.AperFunction,SMDPad,CuDef*
G36*
G01*
X38119000Y-43962827D02*
X38119000Y-43062823D01*
G75*
G02*
X38368998Y-42812825I249998J0D01*
G01*
X38894002Y-42812825D01*
G75*
G02*
X39144000Y-43062823I0J-249998D01*
G01*
X39144000Y-43962827D01*
G75*
G02*
X38894002Y-44212825I-249998J0D01*
G01*
X38368998Y-44212825D01*
G75*
G02*
X38119000Y-43962827I0J249998D01*
G01*
G37*
G04 #@! TD.AperFunction*
G04 #@! TA.AperFunction,SMDPad,CuDef*
G36*
G01*
X36294000Y-43962827D02*
X36294000Y-43062823D01*
G75*
G02*
X36543998Y-42812825I249998J0D01*
G01*
X37069002Y-42812825D01*
G75*
G02*
X37319000Y-43062823I0J-249998D01*
G01*
X37319000Y-43962827D01*
G75*
G02*
X37069002Y-44212825I-249998J0D01*
G01*
X36543998Y-44212825D01*
G75*
G02*
X36294000Y-43962827I0J249998D01*
G01*
G37*
G04 #@! TD.AperFunction*
D15*
X79375000Y-39370000D03*
X25146000Y-45466000D03*
G04 #@! TA.AperFunction,SMDPad,CuDef*
G36*
G01*
X48557600Y-53992800D02*
X48557600Y-53042800D01*
G75*
G02*
X48807600Y-52792800I250000J0D01*
G01*
X49307600Y-52792800D01*
G75*
G02*
X49557600Y-53042800I0J-250000D01*
G01*
X49557600Y-53992800D01*
G75*
G02*
X49307600Y-54242800I-250000J0D01*
G01*
X48807600Y-54242800D01*
G75*
G02*
X48557600Y-53992800I0J250000D01*
G01*
G37*
G04 #@! TD.AperFunction*
G04 #@! TA.AperFunction,SMDPad,CuDef*
G36*
G01*
X46657600Y-53992800D02*
X46657600Y-53042800D01*
G75*
G02*
X46907600Y-52792800I250000J0D01*
G01*
X47407600Y-52792800D01*
G75*
G02*
X47657600Y-53042800I0J-250000D01*
G01*
X47657600Y-53992800D01*
G75*
G02*
X47407600Y-54242800I-250000J0D01*
G01*
X46907600Y-54242800D01*
G75*
G02*
X46657600Y-53992800I0J250000D01*
G01*
G37*
G04 #@! TD.AperFunction*
G04 #@! TA.AperFunction,SMDPad,CuDef*
G36*
G01*
X38194400Y-31263085D02*
X38194400Y-30313085D01*
G75*
G02*
X38444400Y-30063085I250000J0D01*
G01*
X38944400Y-30063085D01*
G75*
G02*
X39194400Y-30313085I0J-250000D01*
G01*
X39194400Y-31263085D01*
G75*
G02*
X38944400Y-31513085I-250000J0D01*
G01*
X38444400Y-31513085D01*
G75*
G02*
X38194400Y-31263085I0J250000D01*
G01*
G37*
G04 #@! TD.AperFunction*
G04 #@! TA.AperFunction,SMDPad,CuDef*
G36*
G01*
X36294400Y-31263085D02*
X36294400Y-30313085D01*
G75*
G02*
X36544400Y-30063085I250000J0D01*
G01*
X37044400Y-30063085D01*
G75*
G02*
X37294400Y-30313085I0J-250000D01*
G01*
X37294400Y-31263085D01*
G75*
G02*
X37044400Y-31513085I-250000J0D01*
G01*
X36544400Y-31513085D01*
G75*
G02*
X36294400Y-31263085I0J250000D01*
G01*
G37*
G04 #@! TD.AperFunction*
G04 #@! TA.AperFunction,SMDPad,CuDef*
G36*
G01*
X37319000Y-33541768D02*
X37319000Y-34441772D01*
G75*
G02*
X37069002Y-34691770I-249998J0D01*
G01*
X36543998Y-34691770D01*
G75*
G02*
X36294000Y-34441772I0J249998D01*
G01*
X36294000Y-33541768D01*
G75*
G02*
X36543998Y-33291770I249998J0D01*
G01*
X37069002Y-33291770D01*
G75*
G02*
X37319000Y-33541768I0J-249998D01*
G01*
G37*
G04 #@! TD.AperFunction*
G04 #@! TA.AperFunction,SMDPad,CuDef*
G36*
G01*
X39144000Y-33541768D02*
X39144000Y-34441772D01*
G75*
G02*
X38894002Y-34691770I-249998J0D01*
G01*
X38368998Y-34691770D01*
G75*
G02*
X38119000Y-34441772I0J249998D01*
G01*
X38119000Y-33541768D01*
G75*
G02*
X38368998Y-33291770I249998J0D01*
G01*
X38894002Y-33291770D01*
G75*
G02*
X39144000Y-33541768I0J-249998D01*
G01*
G37*
G04 #@! TD.AperFunction*
G04 #@! TA.AperFunction,SMDPad,CuDef*
G36*
G01*
X65932000Y-47440002D02*
X65932000Y-46539998D01*
G75*
G02*
X66181998Y-46290000I249998J0D01*
G01*
X66707002Y-46290000D01*
G75*
G02*
X66957000Y-46539998I0J-249998D01*
G01*
X66957000Y-47440002D01*
G75*
G02*
X66707002Y-47690000I-249998J0D01*
G01*
X66181998Y-47690000D01*
G75*
G02*
X65932000Y-47440002I0J249998D01*
G01*
G37*
G04 #@! TD.AperFunction*
G04 #@! TA.AperFunction,SMDPad,CuDef*
G36*
G01*
X64107000Y-47440002D02*
X64107000Y-46539998D01*
G75*
G02*
X64356998Y-46290000I249998J0D01*
G01*
X64882002Y-46290000D01*
G75*
G02*
X65132000Y-46539998I0J-249998D01*
G01*
X65132000Y-47440002D01*
G75*
G02*
X64882002Y-47690000I-249998J0D01*
G01*
X64356998Y-47690000D01*
G75*
G02*
X64107000Y-47440002I0J249998D01*
G01*
G37*
G04 #@! TD.AperFunction*
G04 #@! TA.AperFunction,SMDPad,CuDef*
G36*
G01*
X65932000Y-50107002D02*
X65932000Y-49206998D01*
G75*
G02*
X66181998Y-48957000I249998J0D01*
G01*
X66707002Y-48957000D01*
G75*
G02*
X66957000Y-49206998I0J-249998D01*
G01*
X66957000Y-50107002D01*
G75*
G02*
X66707002Y-50357000I-249998J0D01*
G01*
X66181998Y-50357000D01*
G75*
G02*
X65932000Y-50107002I0J249998D01*
G01*
G37*
G04 #@! TD.AperFunction*
G04 #@! TA.AperFunction,SMDPad,CuDef*
G36*
G01*
X64107000Y-50107002D02*
X64107000Y-49206998D01*
G75*
G02*
X64356998Y-48957000I249998J0D01*
G01*
X64882002Y-48957000D01*
G75*
G02*
X65132000Y-49206998I0J-249998D01*
G01*
X65132000Y-50107002D01*
G75*
G02*
X64882002Y-50357000I-249998J0D01*
G01*
X64356998Y-50357000D01*
G75*
G02*
X64107000Y-50107002I0J249998D01*
G01*
G37*
G04 #@! TD.AperFunction*
G04 #@! TA.AperFunction,SMDPad,CuDef*
G36*
G01*
X38093600Y-28034402D02*
X38093600Y-27134398D01*
G75*
G02*
X38343598Y-26884400I249998J0D01*
G01*
X38868602Y-26884400D01*
G75*
G02*
X39118600Y-27134398I0J-249998D01*
G01*
X39118600Y-28034402D01*
G75*
G02*
X38868602Y-28284400I-249998J0D01*
G01*
X38343598Y-28284400D01*
G75*
G02*
X38093600Y-28034402I0J249998D01*
G01*
G37*
G04 #@! TD.AperFunction*
G04 #@! TA.AperFunction,SMDPad,CuDef*
G36*
G01*
X36268600Y-28034402D02*
X36268600Y-27134398D01*
G75*
G02*
X36518598Y-26884400I249998J0D01*
G01*
X37043602Y-26884400D01*
G75*
G02*
X37293600Y-27134398I0J-249998D01*
G01*
X37293600Y-28034402D01*
G75*
G02*
X37043602Y-28284400I-249998J0D01*
G01*
X36518598Y-28284400D01*
G75*
G02*
X36268600Y-28034402I0J249998D01*
G01*
G37*
G04 #@! TD.AperFunction*
G04 #@! TA.AperFunction,SMDPad,CuDef*
G36*
G01*
X38119000Y-37615457D02*
X38119000Y-36715453D01*
G75*
G02*
X38368998Y-36465455I249998J0D01*
G01*
X38894002Y-36465455D01*
G75*
G02*
X39144000Y-36715453I0J-249998D01*
G01*
X39144000Y-37615457D01*
G75*
G02*
X38894002Y-37865455I-249998J0D01*
G01*
X38368998Y-37865455D01*
G75*
G02*
X38119000Y-37615457I0J249998D01*
G01*
G37*
G04 #@! TD.AperFunction*
G04 #@! TA.AperFunction,SMDPad,CuDef*
G36*
G01*
X36294000Y-37615457D02*
X36294000Y-36715453D01*
G75*
G02*
X36543998Y-36465455I249998J0D01*
G01*
X37069002Y-36465455D01*
G75*
G02*
X37319000Y-36715453I0J-249998D01*
G01*
X37319000Y-37615457D01*
G75*
G02*
X37069002Y-37865455I-249998J0D01*
G01*
X36543998Y-37865455D01*
G75*
G02*
X36294000Y-37615457I0J249998D01*
G01*
G37*
G04 #@! TD.AperFunction*
X79375000Y-49530000D03*
X79375000Y-46990000D03*
X79375000Y-44450000D03*
G04 #@! TA.AperFunction,ComponentPad*
G36*
G01*
X78524999Y-41040000D02*
X80225001Y-41040000D01*
G75*
G02*
X80475000Y-41289999I0J-249999D01*
G01*
X80475000Y-42530001D01*
G75*
G02*
X80225001Y-42780000I-249999J0D01*
G01*
X78524999Y-42780000D01*
G75*
G02*
X78275000Y-42530001I0J249999D01*
G01*
X78275000Y-41289999D01*
G75*
G02*
X78524999Y-41040000I249999J0D01*
G01*
G37*
G04 #@! TD.AperFunction*
X25146000Y-53086000D03*
X25146000Y-50546000D03*
G04 #@! TA.AperFunction,ComponentPad*
G36*
G01*
X24295999Y-47136000D02*
X25996001Y-47136000D01*
G75*
G02*
X26246000Y-47385999I0J-249999D01*
G01*
X26246000Y-48626001D01*
G75*
G02*
X25996001Y-48876000I-249999J0D01*
G01*
X24295999Y-48876000D01*
G75*
G02*
X24046000Y-48626001I0J249999D01*
G01*
X24046000Y-47385999D01*
G75*
G02*
X24295999Y-47136000I249999J0D01*
G01*
G37*
G04 #@! TD.AperFunction*
X79375000Y-36830000D03*
X79375000Y-34290000D03*
G04 #@! TA.AperFunction,ComponentPad*
G36*
G01*
X78524999Y-30880000D02*
X80225001Y-30880000D01*
G75*
G02*
X80475000Y-31129999I0J-249999D01*
G01*
X80475000Y-32370001D01*
G75*
G02*
X80225001Y-32620000I-249999J0D01*
G01*
X78524999Y-32620000D01*
G75*
G02*
X78275000Y-32370001I0J249999D01*
G01*
X78275000Y-31129999D01*
G75*
G02*
X78524999Y-30880000I249999J0D01*
G01*
G37*
G04 #@! TD.AperFunction*
D16*
X44385000Y-34163000D03*
X44385000Y-36163000D03*
X44385000Y-38163000D03*
X44385000Y-40163000D03*
X44385000Y-42163000D03*
X44385000Y-44163000D03*
X44385000Y-46163000D03*
X44385000Y-48163000D03*
X59785000Y-48163000D03*
X59785000Y-46163000D03*
X59785000Y-44163000D03*
X59785000Y-42163000D03*
X59785000Y-40163000D03*
X59785000Y-38163000D03*
X59785000Y-36163000D03*
X59785000Y-34163000D03*
D17*
X47075000Y-49863000D03*
X49075000Y-49863000D03*
X51075000Y-49863000D03*
X53075000Y-49863000D03*
X55075000Y-49863000D03*
X57075000Y-49863000D03*
D18*
X23010726Y-27027274D03*
X21844000Y-26544000D03*
X20677274Y-27027274D03*
X20194000Y-28194000D03*
X20677274Y-29360726D03*
X21844000Y-29844000D03*
X23010726Y-29360726D03*
X23494000Y-28194000D03*
D19*
X21844000Y-28194000D03*
D18*
X84097726Y-27027274D03*
X82931000Y-26544000D03*
X81764274Y-27027274D03*
X81281000Y-28194000D03*
X81764274Y-29360726D03*
X82931000Y-29844000D03*
X84097726Y-29360726D03*
X84581000Y-28194000D03*
D19*
X82931000Y-28194000D03*
X82931000Y-70866000D03*
D18*
X84581000Y-70866000D03*
X84097726Y-72032726D03*
X82931000Y-72516000D03*
X81764274Y-72032726D03*
X81281000Y-70866000D03*
X81764274Y-69699274D03*
X82931000Y-69216000D03*
X84097726Y-69699274D03*
D19*
X21844000Y-70866000D03*
D18*
X23494000Y-70866000D03*
X23010726Y-72032726D03*
X21844000Y-72516000D03*
X20677274Y-72032726D03*
X20194000Y-70866000D03*
X20677274Y-69699274D03*
X21844000Y-69216000D03*
X23010726Y-69699274D03*
D20*
X69088000Y-49530000D03*
D21*
X69088000Y-46990000D03*
G04 #@! TA.AperFunction,ComponentPad*
G36*
G01*
X34785000Y-64186000D02*
X33035000Y-64186000D01*
G75*
G02*
X32160000Y-63311000I0J875000D01*
G01*
X32160000Y-61561000D01*
G75*
G02*
X33035000Y-60686000I875000J0D01*
G01*
X34785000Y-60686000D01*
G75*
G02*
X35660000Y-61561000I0J-875000D01*
G01*
X35660000Y-63311000D01*
G75*
G02*
X34785000Y-64186000I-875000J0D01*
G01*
G37*
G04 #@! TD.AperFunction*
G04 #@! TA.AperFunction,ComponentPad*
G36*
G01*
X30210000Y-66936000D02*
X28210000Y-66936000D01*
G75*
G02*
X27460000Y-66186000I0J750000D01*
G01*
X27460000Y-64686000D01*
G75*
G02*
X28210000Y-63936000I750000J0D01*
G01*
X30210000Y-63936000D01*
G75*
G02*
X30960000Y-64686000I0J-750000D01*
G01*
X30960000Y-66186000D01*
G75*
G02*
X30210000Y-66936000I-750000J0D01*
G01*
G37*
G04 #@! TD.AperFunction*
D22*
X29210000Y-59436000D03*
D23*
X73719399Y-29845000D03*
X71179399Y-29845000D03*
X68639399Y-29845000D03*
D24*
X66099399Y-29845000D03*
D15*
X25146000Y-42926000D03*
X25146000Y-40386000D03*
X25146000Y-37846000D03*
X25146000Y-35306000D03*
G04 #@! TA.AperFunction,ComponentPad*
G36*
G01*
X24295999Y-31896000D02*
X25996001Y-31896000D01*
G75*
G02*
X26246000Y-32145999I0J-249999D01*
G01*
X26246000Y-33386001D01*
G75*
G02*
X25996001Y-33636000I-249999J0D01*
G01*
X24295999Y-33636000D01*
G75*
G02*
X24046000Y-33386001I0J249999D01*
G01*
X24046000Y-32145999D01*
G75*
G02*
X24295999Y-31896000I249999J0D01*
G01*
G37*
G04 #@! TD.AperFunction*
G04 #@! TA.AperFunction,SMDPad,CuDef*
G36*
G01*
X71842000Y-41364000D02*
X71842000Y-42964000D01*
G75*
G02*
X71642000Y-43164000I-200000J0D01*
G01*
X71242000Y-43164000D01*
G75*
G02*
X71042000Y-42964000I0J200000D01*
G01*
X71042000Y-41364000D01*
G75*
G02*
X71242000Y-41164000I200000J0D01*
G01*
X71642000Y-41164000D01*
G75*
G02*
X71842000Y-41364000I0J-200000D01*
G01*
G37*
G04 #@! TD.AperFunction*
G04 #@! TA.AperFunction,SMDPad,CuDef*
G36*
G01*
X67642000Y-41364000D02*
X67642000Y-42964000D01*
G75*
G02*
X67442000Y-43164000I-200000J0D01*
G01*
X67042000Y-43164000D01*
G75*
G02*
X66842000Y-42964000I0J200000D01*
G01*
X66842000Y-41364000D01*
G75*
G02*
X67042000Y-41164000I200000J0D01*
G01*
X67442000Y-41164000D01*
G75*
G02*
X67642000Y-41364000I0J-200000D01*
G01*
G37*
G04 #@! TD.AperFunction*
D25*
X73812400Y-34188400D03*
X33274000Y-50546000D03*
X60706000Y-51054000D03*
X64160400Y-32766000D03*
X75387200Y-41884600D03*
X75311000Y-46990000D03*
X57277000Y-38227000D03*
X57277000Y-40132000D03*
X55115898Y-34287898D03*
X57277000Y-44196000D03*
X57277000Y-42164000D03*
X47599600Y-46075600D03*
X47625000Y-35941000D03*
X48260000Y-41021000D03*
X43434000Y-29718000D03*
D26*
X34541058Y-28196942D02*
X34541058Y-30381342D01*
X35128200Y-27609800D02*
X34541058Y-28196942D01*
X36349300Y-27609800D02*
X35128200Y-27609800D01*
X36806500Y-27152600D02*
X36349300Y-27609800D01*
X36769000Y-30417971D02*
X36554571Y-30632400D01*
X34616915Y-30788085D02*
X34541058Y-30863942D01*
X34541058Y-30863942D02*
X34541058Y-33683342D01*
X36794400Y-30788085D02*
X34616915Y-30788085D01*
X34541058Y-30381342D02*
X34541058Y-30863942D01*
D27*
X36736870Y-34061400D02*
X36806500Y-33991770D01*
X27178000Y-50546000D02*
X25400000Y-50546000D01*
X28956000Y-48768000D02*
X27178000Y-50546000D01*
X28956000Y-35052000D02*
X28956000Y-48768000D01*
X30016230Y-33991770D02*
X28956000Y-35052000D01*
X36806500Y-33991770D02*
X30016230Y-33991770D01*
D28*
X80475000Y-31750000D02*
X79375000Y-31750000D01*
X82423000Y-41275000D02*
X82423000Y-33698000D01*
X82423000Y-33698000D02*
X80475000Y-31750000D01*
X81153000Y-53340000D02*
X82423000Y-52070000D01*
X77978000Y-53340000D02*
X81153000Y-53340000D01*
X82423000Y-52070000D02*
X82423000Y-41275000D01*
X74168000Y-56642000D02*
X68961000Y-56642000D01*
X77978000Y-53340000D02*
X74676000Y-56642000D01*
X74676000Y-56642000D02*
X74168000Y-56642000D01*
D26*
X68961000Y-56642000D02*
X67437000Y-56642000D01*
X45055000Y-48133000D02*
X45085000Y-48163000D01*
X40894000Y-56388000D02*
X41148000Y-56642000D01*
D28*
X23114000Y-48006000D02*
X25146000Y-48006000D01*
X41148000Y-56642000D02*
X35306000Y-56642000D01*
X35306000Y-56642000D02*
X34849999Y-56185999D01*
X34849999Y-56185999D02*
X23673999Y-56185999D01*
X23673999Y-56185999D02*
X21590000Y-54102000D01*
X21590000Y-54102000D02*
X21590000Y-49530000D01*
X21590000Y-49530000D02*
X23114000Y-48006000D01*
X79375000Y-30607000D02*
X79375000Y-31750000D01*
X66040000Y-29845000D02*
X66040000Y-28194000D01*
X66040000Y-28194000D02*
X67056000Y-27178000D01*
X67056000Y-27178000D02*
X75946000Y-27178000D01*
X75946000Y-27178000D02*
X79375000Y-30607000D01*
X81788000Y-41910000D02*
X82423000Y-41275000D01*
X79375000Y-41910000D02*
X81788000Y-41910000D01*
D26*
X35280600Y-55755398D02*
X34849999Y-56185999D01*
D28*
X42265600Y-56642000D02*
X41148000Y-56642000D01*
D26*
X35707145Y-37165455D02*
X36806500Y-37165455D01*
X35280600Y-37592000D02*
X35707145Y-37165455D01*
X34624001Y-50389799D02*
X35280600Y-49733200D01*
X34624001Y-55960001D02*
X34624001Y-50389799D01*
X34849999Y-56185999D02*
X34624001Y-55960001D01*
X35302060Y-40339140D02*
X35280600Y-40360600D01*
X36806500Y-40339140D02*
X35302060Y-40339140D01*
X35280600Y-40360600D02*
X35280600Y-37592000D01*
X35354175Y-43512825D02*
X35280600Y-43586400D01*
X36806500Y-43512825D02*
X35354175Y-43512825D01*
X35280600Y-43586400D02*
X35280600Y-40360600D01*
X35281910Y-46686510D02*
X35280600Y-46685200D01*
X36806500Y-46686510D02*
X35281910Y-46686510D01*
X35280600Y-46685200D02*
X35280600Y-43586400D01*
X35280600Y-49733200D02*
X35280600Y-46685200D01*
X35407600Y-49860200D02*
X35280600Y-49733200D01*
X36831900Y-49860200D02*
X35407600Y-49860200D01*
D28*
X44754800Y-56642000D02*
X42265600Y-56642000D01*
X45415200Y-56642000D02*
X44754800Y-56642000D01*
X68961000Y-56642000D02*
X45415200Y-56642000D01*
D26*
X44454600Y-48793400D02*
X44221400Y-48793400D01*
X44851800Y-48396200D02*
X44454600Y-48793400D01*
X44851800Y-48163000D02*
X44851800Y-48396200D01*
D27*
X44399200Y-51155600D02*
X45415200Y-52171600D01*
X44399200Y-48848800D02*
X44399200Y-51155600D01*
D26*
X45085000Y-48163000D02*
X44399200Y-48848800D01*
X47157600Y-53517800D02*
X45542200Y-53517800D01*
D27*
X45415200Y-53644800D02*
X45415200Y-56642000D01*
D26*
X45542200Y-53517800D02*
X45415200Y-53644800D01*
D27*
X45415200Y-52171600D02*
X45415200Y-53644800D01*
D28*
X40744600Y-72087400D02*
X42144600Y-72087400D01*
X41400990Y-72134990D02*
X41402000Y-72134990D01*
X41353400Y-72087400D02*
X41400990Y-72134990D01*
X41399800Y-72087400D02*
X41402000Y-72085200D01*
X40744600Y-72087400D02*
X41399800Y-72087400D01*
X41402000Y-72085200D02*
X41353400Y-72087400D01*
X41478200Y-56972200D02*
X41148000Y-56642000D01*
X41478200Y-72009000D02*
X41478200Y-56972200D01*
X41402000Y-72085200D02*
X41478200Y-72009000D01*
D26*
X69088000Y-56515000D02*
X68961000Y-56642000D01*
X69088000Y-49530000D02*
X69088000Y-56515000D01*
D27*
X37338000Y-53340000D02*
X38735000Y-53340000D01*
X38987600Y-53087400D02*
X42144600Y-53087400D01*
X38735000Y-53340000D02*
X38987600Y-53087400D01*
D26*
X70104000Y-31369000D02*
X68580000Y-29845000D01*
X63449202Y-36195002D02*
X69214998Y-36195002D01*
X70104000Y-35306000D02*
X70104000Y-31369000D01*
X69214998Y-36195002D02*
X70104000Y-35306000D01*
X61417200Y-34163000D02*
X63449202Y-36195002D01*
X59085000Y-34163000D02*
X61417200Y-34163000D01*
X71120000Y-31877000D02*
X71120000Y-29845000D01*
X75362000Y-31877000D02*
X71120000Y-31877000D01*
X77775000Y-34290000D02*
X75362000Y-31877000D01*
X79375000Y-34290000D02*
X77775000Y-34290000D01*
X71170800Y-33401000D02*
X71120000Y-33350200D01*
X71120000Y-31877000D02*
X71120000Y-33350200D01*
X61461400Y-36163000D02*
X59085000Y-36163000D01*
X62493412Y-37195012D02*
X61461400Y-36163000D01*
X69738988Y-37195012D02*
X62493412Y-37195012D01*
X71120000Y-35814000D02*
X69738988Y-37195012D01*
X71120000Y-33350200D02*
X71120000Y-35814000D01*
X59021000Y-38227000D02*
X59085000Y-38163000D01*
X57277000Y-38227000D02*
X59021000Y-38227000D01*
X73556500Y-46990000D02*
X75311000Y-46990000D01*
X78105000Y-44450000D02*
X79375000Y-44450000D01*
X76835000Y-43180000D02*
X78105000Y-44450000D01*
X59117022Y-38195022D02*
X74517022Y-38195022D01*
X76835000Y-40513000D02*
X76835000Y-43180000D01*
X74517022Y-38195022D02*
X76835000Y-40513000D01*
X59085000Y-38163000D02*
X59117022Y-38195022D01*
X59054000Y-40132000D02*
X59085000Y-40163000D01*
X57277000Y-40132000D02*
X59054000Y-40132000D01*
X77089000Y-46990000D02*
X79375000Y-46990000D01*
X77089000Y-47879000D02*
X77089000Y-46990000D01*
X75311000Y-49657000D02*
X77089000Y-47879000D01*
X73556500Y-49657000D02*
X75311000Y-49657000D01*
X77089000Y-46228000D02*
X77089000Y-46990000D01*
X73914000Y-43053000D02*
X77089000Y-46228000D01*
X73914000Y-41402000D02*
X73914000Y-43053000D01*
X72675000Y-40163000D02*
X73914000Y-41402000D01*
X59085000Y-40163000D02*
X72675000Y-40163000D01*
X45212000Y-34290000D02*
X45085000Y-34163000D01*
X45085000Y-34163000D02*
X54991000Y-34163000D01*
X54991000Y-34163000D02*
X55115898Y-34287898D01*
X41287200Y-38163000D02*
X45085000Y-38163000D01*
X38631500Y-37165455D02*
X39705455Y-37165455D01*
X40703000Y-38163000D02*
X41287200Y-38163000D01*
X39705455Y-37165455D02*
X40703000Y-38163000D01*
X57277000Y-44196000D02*
X59052000Y-44196000D01*
X59052000Y-44196000D02*
X59085000Y-44163000D01*
X64236600Y-46990000D02*
X64507000Y-46990000D01*
X61409600Y-44163000D02*
X64236600Y-46990000D01*
X59085000Y-44163000D02*
X61409600Y-44163000D01*
X67241000Y-42163000D02*
X67242000Y-42164000D01*
X59085000Y-42163000D02*
X67241000Y-42163000D01*
X57277000Y-42164000D02*
X59084000Y-42164000D01*
X59084000Y-42164000D02*
X59085000Y-42163000D01*
X61428400Y-46163000D02*
X59085000Y-46163000D01*
X62738000Y-47472600D02*
X61428400Y-46163000D01*
X62738000Y-49276000D02*
X62738000Y-47472600D01*
X64507000Y-49657000D02*
X63119000Y-49657000D01*
X63119000Y-49657000D02*
X62738000Y-49276000D01*
D27*
X41776400Y-36163000D02*
X45085000Y-36163000D01*
X39605170Y-33991770D02*
X41776400Y-36163000D01*
X38631500Y-33991770D02*
X39605170Y-33991770D01*
D26*
X47512200Y-46163000D02*
X47599600Y-46075600D01*
X45085000Y-46163000D02*
X47512200Y-46163000D01*
X42457600Y-46163000D02*
X45085000Y-46163000D01*
X41173400Y-47447200D02*
X42457600Y-46163000D01*
X39674800Y-49860200D02*
X41173400Y-48361600D01*
X41173400Y-48361600D02*
X41173400Y-47447200D01*
X38656900Y-49860200D02*
X39674800Y-49860200D01*
X47625000Y-38073002D02*
X47625000Y-35941000D01*
X45535002Y-40163000D02*
X47625000Y-38073002D01*
X45085000Y-40163000D02*
X45535002Y-40163000D01*
X45076084Y-40154084D02*
X45085000Y-40163000D01*
X44908860Y-40339140D02*
X45085000Y-40163000D01*
X38631500Y-40339140D02*
X44908860Y-40339140D01*
X38631500Y-46624826D02*
X38947774Y-46624826D01*
X42578000Y-44163000D02*
X45085000Y-44163000D01*
X38631500Y-46686510D02*
X39571890Y-46686510D01*
X42095400Y-44163000D02*
X42578000Y-44163000D01*
X39571890Y-46686510D02*
X42095400Y-44163000D01*
X45966528Y-44163000D02*
X48260000Y-41869528D01*
X48260000Y-41869528D02*
X48260000Y-41021000D01*
X45085000Y-44163000D02*
X45966528Y-44163000D01*
X41377600Y-42163000D02*
X45085000Y-42163000D01*
X40027775Y-43512825D02*
X41377600Y-42163000D01*
X38631500Y-43512825D02*
X40027775Y-43512825D01*
X45848000Y-42163000D02*
X45085000Y-42163000D01*
X46909998Y-40372998D02*
X46909998Y-41101002D01*
X47611998Y-39670998D02*
X46909998Y-40372998D01*
X52404002Y-39670998D02*
X47611998Y-39670998D01*
X46909998Y-41101002D02*
X45848000Y-42163000D01*
X57023000Y-35052000D02*
X52404002Y-39670998D01*
X57023000Y-33528000D02*
X57023000Y-35052000D01*
X56357999Y-32862999D02*
X57023000Y-33528000D01*
X43434000Y-32385000D02*
X43911999Y-32862999D01*
X43911999Y-32862999D02*
X56357999Y-32862999D01*
X43434000Y-29718000D02*
X43434000Y-32385000D01*
X66444500Y-46990000D02*
X69088000Y-46990000D01*
D29*
X39878000Y-28067000D02*
X39880440Y-28091776D01*
X39887667Y-28115601D01*
X39899403Y-28137557D01*
X39915197Y-28156803D01*
X39934443Y-28172597D01*
X39956399Y-28184333D01*
X39980224Y-28191560D01*
X40005000Y-28194000D01*
X44069000Y-28194000D01*
X44069000Y-28656971D01*
X44018992Y-28623557D01*
X43794236Y-28530460D01*
X43555637Y-28483000D01*
X43312363Y-28483000D01*
X43073764Y-28530460D01*
X42849008Y-28623557D01*
X42646733Y-28758713D01*
X42474713Y-28930733D01*
X42339557Y-29133008D01*
X42246460Y-29357764D01*
X42199000Y-29596363D01*
X42199000Y-29839637D01*
X42246460Y-30078236D01*
X42339557Y-30302992D01*
X42474713Y-30505267D01*
X42549000Y-30579554D01*
X42549001Y-32341521D01*
X42544719Y-32385000D01*
X42561805Y-32558490D01*
X42612412Y-32725313D01*
X42694590Y-32879059D01*
X42777468Y-32980046D01*
X42777471Y-32980049D01*
X42805184Y-33013817D01*
X42838952Y-33041530D01*
X42845268Y-33047846D01*
X42780506Y-33082463D01*
X42683815Y-33161815D01*
X42604463Y-33258506D01*
X42545498Y-33368820D01*
X42509188Y-33488518D01*
X42496928Y-33613000D01*
X42496928Y-34713000D01*
X42509188Y-34837482D01*
X42545498Y-34957180D01*
X42583353Y-35028000D01*
X42246532Y-35028000D01*
X40447166Y-33228635D01*
X40411619Y-33185321D01*
X40238793Y-33043486D01*
X40041617Y-32938094D01*
X39827669Y-32873193D01*
X39660922Y-32856770D01*
X39660921Y-32856770D01*
X39605170Y-32851279D01*
X39549419Y-32856770D01*
X39452461Y-32856770D01*
X39387387Y-32803365D01*
X39233852Y-32721298D01*
X39067256Y-32670762D01*
X38894002Y-32653698D01*
X38368998Y-32653698D01*
X38195744Y-32670762D01*
X38029148Y-32721298D01*
X37875613Y-32803365D01*
X37741038Y-32913808D01*
X37719000Y-32940661D01*
X37696962Y-32913808D01*
X37562387Y-32803365D01*
X37408852Y-32721298D01*
X37242256Y-32670762D01*
X37069002Y-32653698D01*
X36543998Y-32653698D01*
X36370744Y-32670762D01*
X36204148Y-32721298D01*
X36050613Y-32803365D01*
X35985539Y-32856770D01*
X35426058Y-32856770D01*
X35426058Y-31673085D01*
X35761424Y-31673085D01*
X35805995Y-31756471D01*
X35916438Y-31891047D01*
X36051014Y-32001490D01*
X36204550Y-32083557D01*
X36371146Y-32134093D01*
X36544400Y-32151157D01*
X37044400Y-32151157D01*
X37217654Y-32134093D01*
X37384250Y-32083557D01*
X37537786Y-32001490D01*
X37672362Y-31891047D01*
X37677742Y-31884491D01*
X37743215Y-31964270D01*
X37839906Y-32043622D01*
X37950220Y-32102587D01*
X38069918Y-32138897D01*
X38194400Y-32151157D01*
X38408650Y-32148085D01*
X38567400Y-31989335D01*
X38567400Y-30915085D01*
X38821400Y-30915085D01*
X38821400Y-31989335D01*
X38980150Y-32148085D01*
X39194400Y-32151157D01*
X39318882Y-32138897D01*
X39438580Y-32102587D01*
X39548894Y-32043622D01*
X39645585Y-31964270D01*
X39724937Y-31867579D01*
X39783902Y-31757265D01*
X39820212Y-31637567D01*
X39832472Y-31513085D01*
X39829400Y-31073835D01*
X39670650Y-30915085D01*
X38821400Y-30915085D01*
X38567400Y-30915085D01*
X38547400Y-30915085D01*
X38547400Y-30661085D01*
X38567400Y-30661085D01*
X38567400Y-29586835D01*
X38821400Y-29586835D01*
X38821400Y-30661085D01*
X39670650Y-30661085D01*
X39829400Y-30502335D01*
X39832472Y-30063085D01*
X39820212Y-29938603D01*
X39783902Y-29818905D01*
X39724937Y-29708591D01*
X39645585Y-29611900D01*
X39548894Y-29532548D01*
X39438580Y-29473583D01*
X39318882Y-29437273D01*
X39194400Y-29425013D01*
X38980150Y-29428085D01*
X38821400Y-29586835D01*
X38567400Y-29586835D01*
X38408650Y-29428085D01*
X38194400Y-29425013D01*
X38069918Y-29437273D01*
X37950220Y-29473583D01*
X37839906Y-29532548D01*
X37743215Y-29611900D01*
X37677742Y-29691679D01*
X37672362Y-29685123D01*
X37537786Y-29574680D01*
X37384250Y-29492613D01*
X37217654Y-29442077D01*
X37044400Y-29425013D01*
X36544400Y-29425013D01*
X36371146Y-29442077D01*
X36204550Y-29492613D01*
X36051014Y-29574680D01*
X35916438Y-29685123D01*
X35805995Y-29819699D01*
X35761424Y-29903085D01*
X35426058Y-29903085D01*
X35426058Y-28563520D01*
X35494778Y-28494800D01*
X35762563Y-28494800D01*
X35780195Y-28527787D01*
X35890638Y-28662362D01*
X36025213Y-28772805D01*
X36178748Y-28854872D01*
X36345344Y-28905408D01*
X36518598Y-28922472D01*
X37043602Y-28922472D01*
X37216856Y-28905408D01*
X37383452Y-28854872D01*
X37536987Y-28772805D01*
X37618237Y-28706124D01*
X37642415Y-28735585D01*
X37739106Y-28814937D01*
X37849420Y-28873902D01*
X37969118Y-28910212D01*
X38093600Y-28922472D01*
X38320350Y-28919400D01*
X38479100Y-28760650D01*
X38479100Y-27711400D01*
X38733100Y-27711400D01*
X38733100Y-28760650D01*
X38891850Y-28919400D01*
X39118600Y-28922472D01*
X39243082Y-28910212D01*
X39362780Y-28873902D01*
X39473094Y-28814937D01*
X39569785Y-28735585D01*
X39649137Y-28638894D01*
X39708102Y-28528580D01*
X39744412Y-28408882D01*
X39756672Y-28284400D01*
X39753600Y-27870150D01*
X39594850Y-27711400D01*
X38733100Y-27711400D01*
X38479100Y-27711400D01*
X38459100Y-27711400D01*
X38459100Y-27457400D01*
X38479100Y-27457400D01*
X38479100Y-26408150D01*
X38733100Y-26408150D01*
X38733100Y-27457400D01*
X39594850Y-27457400D01*
X39753600Y-27298650D01*
X39756672Y-26884400D01*
X39744412Y-26759918D01*
X39708102Y-26640220D01*
X39649137Y-26529906D01*
X39569785Y-26433215D01*
X39473094Y-26353863D01*
X39362780Y-26294898D01*
X39243082Y-26258588D01*
X39118600Y-26246328D01*
X38891850Y-26249400D01*
X38733100Y-26408150D01*
X38479100Y-26408150D01*
X38320350Y-26249400D01*
X38093600Y-26246328D01*
X37969118Y-26258588D01*
X37849420Y-26294898D01*
X37739106Y-26353863D01*
X37642415Y-26433215D01*
X37618237Y-26462676D01*
X37536987Y-26395995D01*
X37383452Y-26313928D01*
X37216856Y-26263392D01*
X37043602Y-26246328D01*
X36518598Y-26246328D01*
X36345344Y-26263392D01*
X36178748Y-26313928D01*
X36025213Y-26395995D01*
X35890638Y-26506438D01*
X35780195Y-26641013D01*
X35735409Y-26724800D01*
X35171665Y-26724800D01*
X35128199Y-26720519D01*
X35084733Y-26724800D01*
X35084723Y-26724800D01*
X34954710Y-26737605D01*
X34787887Y-26788211D01*
X34634141Y-26870389D01*
X34499383Y-26980983D01*
X34471668Y-27014754D01*
X33946014Y-27540408D01*
X33912241Y-27568125D01*
X33801647Y-27702884D01*
X33719469Y-27856630D01*
X33668863Y-28023453D01*
X33656058Y-28153466D01*
X33656058Y-28153473D01*
X33651777Y-28196942D01*
X33656058Y-28240411D01*
X33656059Y-30337856D01*
X33656058Y-30337866D01*
X33656058Y-30820473D01*
X33651777Y-30863942D01*
X33656058Y-30907411D01*
X33656059Y-32856770D01*
X30071982Y-32856770D01*
X30016230Y-32851279D01*
X29960478Y-32856770D01*
X29893294Y-32863387D01*
X29793731Y-32873193D01*
X29579783Y-32938094D01*
X29382607Y-33043486D01*
X29253086Y-33149781D01*
X29253085Y-33149782D01*
X29209781Y-33185321D01*
X29174243Y-33228624D01*
X28192864Y-34210005D01*
X28149551Y-34245551D01*
X28007716Y-34418377D01*
X27918638Y-34585032D01*
X27902324Y-34615554D01*
X27837423Y-34829502D01*
X27815509Y-35052000D01*
X27821000Y-35107751D01*
X27821001Y-48297866D01*
X26707869Y-49411000D01*
X26402214Y-49411000D01*
X26489387Y-49364405D01*
X26623962Y-49253962D01*
X26734405Y-49119387D01*
X26816472Y-48965851D01*
X26867008Y-48799255D01*
X26884072Y-48626001D01*
X26884072Y-47385999D01*
X26867008Y-47212745D01*
X26816472Y-47046149D01*
X26734405Y-46892613D01*
X26623962Y-46758038D01*
X26489387Y-46647595D01*
X26380686Y-46589493D01*
X26536536Y-46436494D01*
X26703571Y-46191437D01*
X26819588Y-45918502D01*
X26837302Y-45826031D01*
X26716246Y-45593000D01*
X25273000Y-45593000D01*
X25273000Y-45613000D01*
X25019000Y-45613000D01*
X25019000Y-45593000D01*
X23575754Y-45593000D01*
X23454698Y-45826031D01*
X23472412Y-45918502D01*
X23588429Y-46191437D01*
X23710822Y-46371000D01*
X23194319Y-46371000D01*
X23113999Y-46363089D01*
X23033680Y-46371000D01*
X23033678Y-46371000D01*
X22793484Y-46394657D01*
X22485285Y-46488148D01*
X22201248Y-46639969D01*
X21952286Y-46844286D01*
X21901079Y-46906682D01*
X20490682Y-48317080D01*
X20428287Y-48368286D01*
X20263001Y-48569689D01*
X20223970Y-48617248D01*
X20072148Y-48901286D01*
X19978658Y-49209484D01*
X19947089Y-49530000D01*
X19955001Y-49610329D01*
X19955000Y-54021680D01*
X19947089Y-54102000D01*
X19955000Y-54182319D01*
X19955000Y-54182321D01*
X19978657Y-54422515D01*
X20072148Y-54730714D01*
X20223969Y-55014751D01*
X20428286Y-55263714D01*
X20490686Y-55314924D01*
X22461082Y-57285322D01*
X22512285Y-57347713D01*
X22761247Y-57552030D01*
X23009670Y-57684815D01*
X23045284Y-57703851D01*
X23210950Y-57754105D01*
X23188463Y-57781506D01*
X23129498Y-57891820D01*
X23093188Y-58011518D01*
X23080928Y-58136000D01*
X23080928Y-60736000D01*
X23093188Y-60860482D01*
X23129498Y-60980180D01*
X23188463Y-61090494D01*
X23267815Y-61187185D01*
X23364506Y-61266537D01*
X23474820Y-61325502D01*
X23594518Y-61361812D01*
X23719000Y-61374072D01*
X26319000Y-61374072D01*
X26443482Y-61361812D01*
X26563180Y-61325502D01*
X26673494Y-61266537D01*
X26770185Y-61187185D01*
X26821928Y-61124136D01*
X26821928Y-61186000D01*
X26834188Y-61310482D01*
X26870498Y-61430180D01*
X26929463Y-61540494D01*
X27008815Y-61637185D01*
X27105506Y-61716537D01*
X27215820Y-61775502D01*
X27335518Y-61811812D01*
X27460000Y-61824072D01*
X30960000Y-61824072D01*
X31084482Y-61811812D01*
X31204180Y-61775502D01*
X31314494Y-61716537D01*
X31411185Y-61637185D01*
X31490537Y-61540494D01*
X31524438Y-61477071D01*
X31525000Y-61654250D01*
X31683750Y-61813000D01*
X33287000Y-61813000D01*
X33287000Y-60209750D01*
X34533000Y-60209750D01*
X34533000Y-61813000D01*
X36136250Y-61813000D01*
X36295000Y-61654250D01*
X36298072Y-60686000D01*
X36285812Y-60561518D01*
X36249502Y-60441820D01*
X36190537Y-60331506D01*
X36111185Y-60234815D01*
X36014494Y-60155463D01*
X35904180Y-60096498D01*
X35784482Y-60060188D01*
X35660000Y-60047928D01*
X34691750Y-60051000D01*
X34533000Y-60209750D01*
X33287000Y-60209750D01*
X33128250Y-60051000D01*
X32160000Y-60047928D01*
X32035518Y-60060188D01*
X31915820Y-60096498D01*
X31805506Y-60155463D01*
X31708815Y-60234815D01*
X31629463Y-60331506D01*
X31598072Y-60390233D01*
X31598072Y-57820999D01*
X34165348Y-57820999D01*
X34393248Y-58008031D01*
X34677285Y-58159852D01*
X34831384Y-58206597D01*
X34985483Y-58253343D01*
X35306000Y-58284911D01*
X35386322Y-58277000D01*
X39843201Y-58277000D01*
X39843200Y-70715301D01*
X39831848Y-70721369D01*
X39582886Y-70925686D01*
X39378569Y-71174648D01*
X39226748Y-71458685D01*
X39203781Y-71534398D01*
X39250723Y-71195606D01*
X39228721Y-70820999D01*
X39134059Y-70457883D01*
X39076193Y-70318182D01*
X38814709Y-70170793D01*
X37865502Y-71120000D01*
X38814709Y-72069207D01*
X39076193Y-71921818D01*
X39156144Y-71691434D01*
X39133257Y-71766884D01*
X39101689Y-72087400D01*
X39133257Y-72407916D01*
X39226748Y-72716115D01*
X39378488Y-73000000D01*
X37678126Y-73000000D01*
X38000117Y-72916059D01*
X38139818Y-72858193D01*
X38287207Y-72596709D01*
X37338000Y-71647502D01*
X36388793Y-72596709D01*
X36536182Y-72858193D01*
X36890693Y-72981221D01*
X37026225Y-73000000D01*
X23719295Y-73000000D01*
X24046088Y-72673207D01*
X24356344Y-72208876D01*
X24570052Y-71692939D01*
X24679000Y-71145223D01*
X24679000Y-71044394D01*
X35425277Y-71044394D01*
X35447279Y-71419001D01*
X35541941Y-71782117D01*
X35599807Y-71921818D01*
X35861291Y-72069207D01*
X36810498Y-71120000D01*
X35861291Y-70170793D01*
X35599807Y-70318182D01*
X35476779Y-70672693D01*
X35425277Y-71044394D01*
X24679000Y-71044394D01*
X24679000Y-70586777D01*
X24570052Y-70039061D01*
X24406119Y-69643291D01*
X36388793Y-69643291D01*
X37338000Y-70592498D01*
X38287207Y-69643291D01*
X38139818Y-69381807D01*
X37785307Y-69258779D01*
X37413606Y-69207277D01*
X37038999Y-69229279D01*
X36675883Y-69323941D01*
X36536182Y-69381807D01*
X36388793Y-69643291D01*
X24406119Y-69643291D01*
X24356344Y-69523124D01*
X24046088Y-69058793D01*
X23651207Y-68663912D01*
X23186876Y-68353656D01*
X22670939Y-68139948D01*
X22123223Y-68031000D01*
X21564777Y-68031000D01*
X21017061Y-68139948D01*
X20501124Y-68353656D01*
X20036793Y-68663912D01*
X19710000Y-68990705D01*
X19710000Y-66936000D01*
X26821928Y-66936000D01*
X26834188Y-67060482D01*
X26870498Y-67180180D01*
X26929463Y-67290494D01*
X27008815Y-67387185D01*
X27105506Y-67466537D01*
X27215820Y-67525502D01*
X27335518Y-67561812D01*
X27460000Y-67574072D01*
X28428250Y-67571000D01*
X28587000Y-67412250D01*
X28587000Y-66059000D01*
X29833000Y-66059000D01*
X29833000Y-67412250D01*
X29991750Y-67571000D01*
X30960000Y-67574072D01*
X31084482Y-67561812D01*
X31204180Y-67525502D01*
X31314494Y-67466537D01*
X31411185Y-67387185D01*
X31490537Y-67290494D01*
X31549502Y-67180180D01*
X31585812Y-67060482D01*
X31598072Y-66936000D01*
X31595000Y-66217750D01*
X31436250Y-66059000D01*
X29833000Y-66059000D01*
X28587000Y-66059000D01*
X26983750Y-66059000D01*
X26825000Y-66217750D01*
X26821928Y-66936000D01*
X19710000Y-66936000D01*
X19710000Y-66059804D01*
X24276252Y-66059804D01*
X24440404Y-66292280D01*
X24813664Y-66369491D01*
X25194814Y-66372398D01*
X25569209Y-66300892D01*
X25597596Y-66292280D01*
X25761748Y-66059804D01*
X25019000Y-65317055D01*
X24276252Y-66059804D01*
X19710000Y-66059804D01*
X19710000Y-64611814D01*
X23082602Y-64611814D01*
X23154108Y-64986209D01*
X23162720Y-65014596D01*
X23395196Y-65178748D01*
X24137945Y-64436000D01*
X25900055Y-64436000D01*
X26642804Y-65178748D01*
X26875280Y-65014596D01*
X26928425Y-64757675D01*
X26983750Y-64813000D01*
X28587000Y-64813000D01*
X28587000Y-63459750D01*
X29833000Y-63459750D01*
X29833000Y-64813000D01*
X31436250Y-64813000D01*
X31595000Y-64654250D01*
X31595756Y-64477434D01*
X31629463Y-64540494D01*
X31708815Y-64637185D01*
X31805506Y-64716537D01*
X31915820Y-64775502D01*
X32035518Y-64811812D01*
X32160000Y-64824072D01*
X33128250Y-64821000D01*
X33287000Y-64662250D01*
X33287000Y-63059000D01*
X34533000Y-63059000D01*
X34533000Y-64662250D01*
X34691750Y-64821000D01*
X35660000Y-64824072D01*
X35784482Y-64811812D01*
X35904180Y-64775502D01*
X36014494Y-64716537D01*
X36111185Y-64637185D01*
X36190537Y-64540494D01*
X36249502Y-64430180D01*
X36285812Y-64310482D01*
X36298072Y-64186000D01*
X36295000Y-63217750D01*
X36136250Y-63059000D01*
X34533000Y-63059000D01*
X33287000Y-63059000D01*
X31683750Y-63059000D01*
X31525000Y-63217750D01*
X31523649Y-63643454D01*
X31490537Y-63581506D01*
X31411185Y-63484815D01*
X31314494Y-63405463D01*
X31204180Y-63346498D01*
X31084482Y-63310188D01*
X30960000Y-63297928D01*
X29991750Y-63301000D01*
X29833000Y-63459750D01*
X28587000Y-63459750D01*
X28428250Y-63301000D01*
X27460000Y-63297928D01*
X27335518Y-63310188D01*
X27215820Y-63346498D01*
X27105506Y-63405463D01*
X27008815Y-63484815D01*
X26929463Y-63581506D01*
X26870498Y-63691820D01*
X26834188Y-63811518D01*
X26832634Y-63827292D01*
X26642804Y-63693252D01*
X25900055Y-64436000D01*
X24137945Y-64436000D01*
X23395196Y-63693252D01*
X23162720Y-63857404D01*
X23085509Y-64230664D01*
X23082602Y-64611814D01*
X19710000Y-64611814D01*
X19710000Y-62812196D01*
X24276252Y-62812196D01*
X25019000Y-63554945D01*
X25761748Y-62812196D01*
X25597596Y-62579720D01*
X25224336Y-62502509D01*
X24843186Y-62499602D01*
X24468791Y-62571108D01*
X24440404Y-62579720D01*
X24276252Y-62812196D01*
X19710000Y-62812196D01*
X19710000Y-35306000D01*
X23403718Y-35306000D01*
X23432776Y-35601032D01*
X23518834Y-35884725D01*
X23658583Y-36146179D01*
X23846655Y-36375345D01*
X24075821Y-36563417D01*
X24099362Y-36576000D01*
X24075821Y-36588583D01*
X23846655Y-36776655D01*
X23658583Y-37005821D01*
X23518834Y-37267275D01*
X23432776Y-37550968D01*
X23403718Y-37846000D01*
X23432776Y-38141032D01*
X23518834Y-38424725D01*
X23658583Y-38686179D01*
X23846655Y-38915345D01*
X24075821Y-39103417D01*
X24099362Y-39116000D01*
X24075821Y-39128583D01*
X23846655Y-39316655D01*
X23658583Y-39545821D01*
X23518834Y-39807275D01*
X23432776Y-40090968D01*
X23403718Y-40386000D01*
X23432776Y-40681032D01*
X23518834Y-40964725D01*
X23658583Y-41226179D01*
X23846655Y-41455345D01*
X24075821Y-41643417D01*
X24099362Y-41656000D01*
X24075821Y-41668583D01*
X23846655Y-41856655D01*
X23658583Y-42085821D01*
X23518834Y-42347275D01*
X23432776Y-42630968D01*
X23403718Y-42926000D01*
X23432776Y-43221032D01*
X23518834Y-43504725D01*
X23658583Y-43766179D01*
X23846655Y-43995345D01*
X24075821Y-44183417D01*
X24103669Y-44198302D01*
X23967097Y-44287744D01*
X23755464Y-44495506D01*
X23588429Y-44740563D01*
X23472412Y-45013498D01*
X23454698Y-45105969D01*
X23575754Y-45339000D01*
X25019000Y-45339000D01*
X25019000Y-45319000D01*
X25273000Y-45319000D01*
X25273000Y-45339000D01*
X26716246Y-45339000D01*
X26837302Y-45105969D01*
X26819588Y-45013498D01*
X26703571Y-44740563D01*
X26536536Y-44495506D01*
X26324903Y-44287744D01*
X26188331Y-44198302D01*
X26216179Y-44183417D01*
X26445345Y-43995345D01*
X26633417Y-43766179D01*
X26773166Y-43504725D01*
X26859224Y-43221032D01*
X26888282Y-42926000D01*
X26859224Y-42630968D01*
X26773166Y-42347275D01*
X26633417Y-42085821D01*
X26445345Y-41856655D01*
X26216179Y-41668583D01*
X26192638Y-41656000D01*
X26216179Y-41643417D01*
X26445345Y-41455345D01*
X26633417Y-41226179D01*
X26773166Y-40964725D01*
X26859224Y-40681032D01*
X26888282Y-40386000D01*
X26859224Y-40090968D01*
X26773166Y-39807275D01*
X26633417Y-39545821D01*
X26445345Y-39316655D01*
X26216179Y-39128583D01*
X26192638Y-39116000D01*
X26216179Y-39103417D01*
X26445345Y-38915345D01*
X26633417Y-38686179D01*
X26773166Y-38424725D01*
X26859224Y-38141032D01*
X26888282Y-37846000D01*
X26859224Y-37550968D01*
X26773166Y-37267275D01*
X26633417Y-37005821D01*
X26445345Y-36776655D01*
X26216179Y-36588583D01*
X26192638Y-36576000D01*
X26216179Y-36563417D01*
X26445345Y-36375345D01*
X26633417Y-36146179D01*
X26773166Y-35884725D01*
X26859224Y-35601032D01*
X26888282Y-35306000D01*
X26859224Y-35010968D01*
X26773166Y-34727275D01*
X26633417Y-34465821D01*
X26445345Y-34236655D01*
X26379886Y-34182934D01*
X26489387Y-34124405D01*
X26623962Y-34013962D01*
X26734405Y-33879387D01*
X26816472Y-33725851D01*
X26867008Y-33559255D01*
X26884072Y-33386001D01*
X26884072Y-32145999D01*
X26867008Y-31972745D01*
X26816472Y-31806149D01*
X26734405Y-31652613D01*
X26623962Y-31518038D01*
X26489387Y-31407595D01*
X26335851Y-31325528D01*
X26169255Y-31274992D01*
X25996001Y-31257928D01*
X24295999Y-31257928D01*
X24122745Y-31274992D01*
X23956149Y-31325528D01*
X23802613Y-31407595D01*
X23668038Y-31518038D01*
X23557595Y-31652613D01*
X23475528Y-31806149D01*
X23424992Y-31972745D01*
X23407928Y-32145999D01*
X23407928Y-33386001D01*
X23424992Y-33559255D01*
X23475528Y-33725851D01*
X23557595Y-33879387D01*
X23668038Y-34013962D01*
X23802613Y-34124405D01*
X23912114Y-34182934D01*
X23846655Y-34236655D01*
X23658583Y-34465821D01*
X23518834Y-34727275D01*
X23432776Y-35010968D01*
X23403718Y-35306000D01*
X19710000Y-35306000D01*
X19710000Y-30069295D01*
X20036793Y-30396088D01*
X20501124Y-30706344D01*
X21017061Y-30920052D01*
X21564777Y-31029000D01*
X22123223Y-31029000D01*
X22670939Y-30920052D01*
X23186876Y-30706344D01*
X23651207Y-30396088D01*
X24046088Y-30001207D01*
X24356344Y-29536876D01*
X24570052Y-29020939D01*
X24679000Y-28473223D01*
X24679000Y-27914777D01*
X24570052Y-27367061D01*
X24356344Y-26851124D01*
X24046088Y-26386793D01*
X23719295Y-26060000D01*
X39878000Y-26060000D01*
X39878000Y-28067000D01*
G04 #@! TA.AperFunction,Conductor*
D30*
G36*
X39878000Y-28067000D02*
G01*
X39880440Y-28091776D01*
X39887667Y-28115601D01*
X39899403Y-28137557D01*
X39915197Y-28156803D01*
X39934443Y-28172597D01*
X39956399Y-28184333D01*
X39980224Y-28191560D01*
X40005000Y-28194000D01*
X44069000Y-28194000D01*
X44069000Y-28656971D01*
X44018992Y-28623557D01*
X43794236Y-28530460D01*
X43555637Y-28483000D01*
X43312363Y-28483000D01*
X43073764Y-28530460D01*
X42849008Y-28623557D01*
X42646733Y-28758713D01*
X42474713Y-28930733D01*
X42339557Y-29133008D01*
X42246460Y-29357764D01*
X42199000Y-29596363D01*
X42199000Y-29839637D01*
X42246460Y-30078236D01*
X42339557Y-30302992D01*
X42474713Y-30505267D01*
X42549000Y-30579554D01*
X42549001Y-32341521D01*
X42544719Y-32385000D01*
X42561805Y-32558490D01*
X42612412Y-32725313D01*
X42694590Y-32879059D01*
X42777468Y-32980046D01*
X42777471Y-32980049D01*
X42805184Y-33013817D01*
X42838952Y-33041530D01*
X42845268Y-33047846D01*
X42780506Y-33082463D01*
X42683815Y-33161815D01*
X42604463Y-33258506D01*
X42545498Y-33368820D01*
X42509188Y-33488518D01*
X42496928Y-33613000D01*
X42496928Y-34713000D01*
X42509188Y-34837482D01*
X42545498Y-34957180D01*
X42583353Y-35028000D01*
X42246532Y-35028000D01*
X40447166Y-33228635D01*
X40411619Y-33185321D01*
X40238793Y-33043486D01*
X40041617Y-32938094D01*
X39827669Y-32873193D01*
X39660922Y-32856770D01*
X39660921Y-32856770D01*
X39605170Y-32851279D01*
X39549419Y-32856770D01*
X39452461Y-32856770D01*
X39387387Y-32803365D01*
X39233852Y-32721298D01*
X39067256Y-32670762D01*
X38894002Y-32653698D01*
X38368998Y-32653698D01*
X38195744Y-32670762D01*
X38029148Y-32721298D01*
X37875613Y-32803365D01*
X37741038Y-32913808D01*
X37719000Y-32940661D01*
X37696962Y-32913808D01*
X37562387Y-32803365D01*
X37408852Y-32721298D01*
X37242256Y-32670762D01*
X37069002Y-32653698D01*
X36543998Y-32653698D01*
X36370744Y-32670762D01*
X36204148Y-32721298D01*
X36050613Y-32803365D01*
X35985539Y-32856770D01*
X35426058Y-32856770D01*
X35426058Y-31673085D01*
X35761424Y-31673085D01*
X35805995Y-31756471D01*
X35916438Y-31891047D01*
X36051014Y-32001490D01*
X36204550Y-32083557D01*
X36371146Y-32134093D01*
X36544400Y-32151157D01*
X37044400Y-32151157D01*
X37217654Y-32134093D01*
X37384250Y-32083557D01*
X37537786Y-32001490D01*
X37672362Y-31891047D01*
X37677742Y-31884491D01*
X37743215Y-31964270D01*
X37839906Y-32043622D01*
X37950220Y-32102587D01*
X38069918Y-32138897D01*
X38194400Y-32151157D01*
X38408650Y-32148085D01*
X38567400Y-31989335D01*
X38567400Y-30915085D01*
X38821400Y-30915085D01*
X38821400Y-31989335D01*
X38980150Y-32148085D01*
X39194400Y-32151157D01*
X39318882Y-32138897D01*
X39438580Y-32102587D01*
X39548894Y-32043622D01*
X39645585Y-31964270D01*
X39724937Y-31867579D01*
X39783902Y-31757265D01*
X39820212Y-31637567D01*
X39832472Y-31513085D01*
X39829400Y-31073835D01*
X39670650Y-30915085D01*
X38821400Y-30915085D01*
X38567400Y-30915085D01*
X38547400Y-30915085D01*
X38547400Y-30661085D01*
X38567400Y-30661085D01*
X38567400Y-29586835D01*
X38821400Y-29586835D01*
X38821400Y-30661085D01*
X39670650Y-30661085D01*
X39829400Y-30502335D01*
X39832472Y-30063085D01*
X39820212Y-29938603D01*
X39783902Y-29818905D01*
X39724937Y-29708591D01*
X39645585Y-29611900D01*
X39548894Y-29532548D01*
X39438580Y-29473583D01*
X39318882Y-29437273D01*
X39194400Y-29425013D01*
X38980150Y-29428085D01*
X38821400Y-29586835D01*
X38567400Y-29586835D01*
X38408650Y-29428085D01*
X38194400Y-29425013D01*
X38069918Y-29437273D01*
X37950220Y-29473583D01*
X37839906Y-29532548D01*
X37743215Y-29611900D01*
X37677742Y-29691679D01*
X37672362Y-29685123D01*
X37537786Y-29574680D01*
X37384250Y-29492613D01*
X37217654Y-29442077D01*
X37044400Y-29425013D01*
X36544400Y-29425013D01*
X36371146Y-29442077D01*
X36204550Y-29492613D01*
X36051014Y-29574680D01*
X35916438Y-29685123D01*
X35805995Y-29819699D01*
X35761424Y-29903085D01*
X35426058Y-29903085D01*
X35426058Y-28563520D01*
X35494778Y-28494800D01*
X35762563Y-28494800D01*
X35780195Y-28527787D01*
X35890638Y-28662362D01*
X36025213Y-28772805D01*
X36178748Y-28854872D01*
X36345344Y-28905408D01*
X36518598Y-28922472D01*
X37043602Y-28922472D01*
X37216856Y-28905408D01*
X37383452Y-28854872D01*
X37536987Y-28772805D01*
X37618237Y-28706124D01*
X37642415Y-28735585D01*
X37739106Y-28814937D01*
X37849420Y-28873902D01*
X37969118Y-28910212D01*
X38093600Y-28922472D01*
X38320350Y-28919400D01*
X38479100Y-28760650D01*
X38479100Y-27711400D01*
X38733100Y-27711400D01*
X38733100Y-28760650D01*
X38891850Y-28919400D01*
X39118600Y-28922472D01*
X39243082Y-28910212D01*
X39362780Y-28873902D01*
X39473094Y-28814937D01*
X39569785Y-28735585D01*
X39649137Y-28638894D01*
X39708102Y-28528580D01*
X39744412Y-28408882D01*
X39756672Y-28284400D01*
X39753600Y-27870150D01*
X39594850Y-27711400D01*
X38733100Y-27711400D01*
X38479100Y-27711400D01*
X38459100Y-27711400D01*
X38459100Y-27457400D01*
X38479100Y-27457400D01*
X38479100Y-26408150D01*
X38733100Y-26408150D01*
X38733100Y-27457400D01*
X39594850Y-27457400D01*
X39753600Y-27298650D01*
X39756672Y-26884400D01*
X39744412Y-26759918D01*
X39708102Y-26640220D01*
X39649137Y-26529906D01*
X39569785Y-26433215D01*
X39473094Y-26353863D01*
X39362780Y-26294898D01*
X39243082Y-26258588D01*
X39118600Y-26246328D01*
X38891850Y-26249400D01*
X38733100Y-26408150D01*
X38479100Y-26408150D01*
X38320350Y-26249400D01*
X38093600Y-26246328D01*
X37969118Y-26258588D01*
X37849420Y-26294898D01*
X37739106Y-26353863D01*
X37642415Y-26433215D01*
X37618237Y-26462676D01*
X37536987Y-26395995D01*
X37383452Y-26313928D01*
X37216856Y-26263392D01*
X37043602Y-26246328D01*
X36518598Y-26246328D01*
X36345344Y-26263392D01*
X36178748Y-26313928D01*
X36025213Y-26395995D01*
X35890638Y-26506438D01*
X35780195Y-26641013D01*
X35735409Y-26724800D01*
X35171665Y-26724800D01*
X35128199Y-26720519D01*
X35084733Y-26724800D01*
X35084723Y-26724800D01*
X34954710Y-26737605D01*
X34787887Y-26788211D01*
X34634141Y-26870389D01*
X34499383Y-26980983D01*
X34471668Y-27014754D01*
X33946014Y-27540408D01*
X33912241Y-27568125D01*
X33801647Y-27702884D01*
X33719469Y-27856630D01*
X33668863Y-28023453D01*
X33656058Y-28153466D01*
X33656058Y-28153473D01*
X33651777Y-28196942D01*
X33656058Y-28240411D01*
X33656059Y-30337856D01*
X33656058Y-30337866D01*
X33656058Y-30820473D01*
X33651777Y-30863942D01*
X33656058Y-30907411D01*
X33656059Y-32856770D01*
X30071982Y-32856770D01*
X30016230Y-32851279D01*
X29960478Y-32856770D01*
X29893294Y-32863387D01*
X29793731Y-32873193D01*
X29579783Y-32938094D01*
X29382607Y-33043486D01*
X29253086Y-33149781D01*
X29253085Y-33149782D01*
X29209781Y-33185321D01*
X29174243Y-33228624D01*
X28192864Y-34210005D01*
X28149551Y-34245551D01*
X28007716Y-34418377D01*
X27918638Y-34585032D01*
X27902324Y-34615554D01*
X27837423Y-34829502D01*
X27815509Y-35052000D01*
X27821000Y-35107751D01*
X27821001Y-48297866D01*
X26707869Y-49411000D01*
X26402214Y-49411000D01*
X26489387Y-49364405D01*
X26623962Y-49253962D01*
X26734405Y-49119387D01*
X26816472Y-48965851D01*
X26867008Y-48799255D01*
X26884072Y-48626001D01*
X26884072Y-47385999D01*
X26867008Y-47212745D01*
X26816472Y-47046149D01*
X26734405Y-46892613D01*
X26623962Y-46758038D01*
X26489387Y-46647595D01*
X26380686Y-46589493D01*
X26536536Y-46436494D01*
X26703571Y-46191437D01*
X26819588Y-45918502D01*
X26837302Y-45826031D01*
X26716246Y-45593000D01*
X25273000Y-45593000D01*
X25273000Y-45613000D01*
X25019000Y-45613000D01*
X25019000Y-45593000D01*
X23575754Y-45593000D01*
X23454698Y-45826031D01*
X23472412Y-45918502D01*
X23588429Y-46191437D01*
X23710822Y-46371000D01*
X23194319Y-46371000D01*
X23113999Y-46363089D01*
X23033680Y-46371000D01*
X23033678Y-46371000D01*
X22793484Y-46394657D01*
X22485285Y-46488148D01*
X22201248Y-46639969D01*
X21952286Y-46844286D01*
X21901079Y-46906682D01*
X20490682Y-48317080D01*
X20428287Y-48368286D01*
X20263001Y-48569689D01*
X20223970Y-48617248D01*
X20072148Y-48901286D01*
X19978658Y-49209484D01*
X19947089Y-49530000D01*
X19955001Y-49610329D01*
X19955000Y-54021680D01*
X19947089Y-54102000D01*
X19955000Y-54182319D01*
X19955000Y-54182321D01*
X19978657Y-54422515D01*
X20072148Y-54730714D01*
X20223969Y-55014751D01*
X20428286Y-55263714D01*
X20490686Y-55314924D01*
X22461082Y-57285322D01*
X22512285Y-57347713D01*
X22761247Y-57552030D01*
X23009670Y-57684815D01*
X23045284Y-57703851D01*
X23210950Y-57754105D01*
X23188463Y-57781506D01*
X23129498Y-57891820D01*
X23093188Y-58011518D01*
X23080928Y-58136000D01*
X23080928Y-60736000D01*
X23093188Y-60860482D01*
X23129498Y-60980180D01*
X23188463Y-61090494D01*
X23267815Y-61187185D01*
X23364506Y-61266537D01*
X23474820Y-61325502D01*
X23594518Y-61361812D01*
X23719000Y-61374072D01*
X26319000Y-61374072D01*
X26443482Y-61361812D01*
X26563180Y-61325502D01*
X26673494Y-61266537D01*
X26770185Y-61187185D01*
X26821928Y-61124136D01*
X26821928Y-61186000D01*
X26834188Y-61310482D01*
X26870498Y-61430180D01*
X26929463Y-61540494D01*
X27008815Y-61637185D01*
X27105506Y-61716537D01*
X27215820Y-61775502D01*
X27335518Y-61811812D01*
X27460000Y-61824072D01*
X30960000Y-61824072D01*
X31084482Y-61811812D01*
X31204180Y-61775502D01*
X31314494Y-61716537D01*
X31411185Y-61637185D01*
X31490537Y-61540494D01*
X31524438Y-61477071D01*
X31525000Y-61654250D01*
X31683750Y-61813000D01*
X33287000Y-61813000D01*
X33287000Y-60209750D01*
X34533000Y-60209750D01*
X34533000Y-61813000D01*
X36136250Y-61813000D01*
X36295000Y-61654250D01*
X36298072Y-60686000D01*
X36285812Y-60561518D01*
X36249502Y-60441820D01*
X36190537Y-60331506D01*
X36111185Y-60234815D01*
X36014494Y-60155463D01*
X35904180Y-60096498D01*
X35784482Y-60060188D01*
X35660000Y-60047928D01*
X34691750Y-60051000D01*
X34533000Y-60209750D01*
X33287000Y-60209750D01*
X33128250Y-60051000D01*
X32160000Y-60047928D01*
X32035518Y-60060188D01*
X31915820Y-60096498D01*
X31805506Y-60155463D01*
X31708815Y-60234815D01*
X31629463Y-60331506D01*
X31598072Y-60390233D01*
X31598072Y-57820999D01*
X34165348Y-57820999D01*
X34393248Y-58008031D01*
X34677285Y-58159852D01*
X34831384Y-58206597D01*
X34985483Y-58253343D01*
X35306000Y-58284911D01*
X35386322Y-58277000D01*
X39843201Y-58277000D01*
X39843200Y-70715301D01*
X39831848Y-70721369D01*
X39582886Y-70925686D01*
X39378569Y-71174648D01*
X39226748Y-71458685D01*
X39203781Y-71534398D01*
X39250723Y-71195606D01*
X39228721Y-70820999D01*
X39134059Y-70457883D01*
X39076193Y-70318182D01*
X38814709Y-70170793D01*
X37865502Y-71120000D01*
X38814709Y-72069207D01*
X39076193Y-71921818D01*
X39156144Y-71691434D01*
X39133257Y-71766884D01*
X39101689Y-72087400D01*
X39133257Y-72407916D01*
X39226748Y-72716115D01*
X39378488Y-73000000D01*
X37678126Y-73000000D01*
X38000117Y-72916059D01*
X38139818Y-72858193D01*
X38287207Y-72596709D01*
X37338000Y-71647502D01*
X36388793Y-72596709D01*
X36536182Y-72858193D01*
X36890693Y-72981221D01*
X37026225Y-73000000D01*
X23719295Y-73000000D01*
X24046088Y-72673207D01*
X24356344Y-72208876D01*
X24570052Y-71692939D01*
X24679000Y-71145223D01*
X24679000Y-71044394D01*
X35425277Y-71044394D01*
X35447279Y-71419001D01*
X35541941Y-71782117D01*
X35599807Y-71921818D01*
X35861291Y-72069207D01*
X36810498Y-71120000D01*
X35861291Y-70170793D01*
X35599807Y-70318182D01*
X35476779Y-70672693D01*
X35425277Y-71044394D01*
X24679000Y-71044394D01*
X24679000Y-70586777D01*
X24570052Y-70039061D01*
X24406119Y-69643291D01*
X36388793Y-69643291D01*
X37338000Y-70592498D01*
X38287207Y-69643291D01*
X38139818Y-69381807D01*
X37785307Y-69258779D01*
X37413606Y-69207277D01*
X37038999Y-69229279D01*
X36675883Y-69323941D01*
X36536182Y-69381807D01*
X36388793Y-69643291D01*
X24406119Y-69643291D01*
X24356344Y-69523124D01*
X24046088Y-69058793D01*
X23651207Y-68663912D01*
X23186876Y-68353656D01*
X22670939Y-68139948D01*
X22123223Y-68031000D01*
X21564777Y-68031000D01*
X21017061Y-68139948D01*
X20501124Y-68353656D01*
X20036793Y-68663912D01*
X19710000Y-68990705D01*
X19710000Y-66936000D01*
X26821928Y-66936000D01*
X26834188Y-67060482D01*
X26870498Y-67180180D01*
X26929463Y-67290494D01*
X27008815Y-67387185D01*
X27105506Y-67466537D01*
X27215820Y-67525502D01*
X27335518Y-67561812D01*
X27460000Y-67574072D01*
X28428250Y-67571000D01*
X28587000Y-67412250D01*
X28587000Y-66059000D01*
X29833000Y-66059000D01*
X29833000Y-67412250D01*
X29991750Y-67571000D01*
X30960000Y-67574072D01*
X31084482Y-67561812D01*
X31204180Y-67525502D01*
X31314494Y-67466537D01*
X31411185Y-67387185D01*
X31490537Y-67290494D01*
X31549502Y-67180180D01*
X31585812Y-67060482D01*
X31598072Y-66936000D01*
X31595000Y-66217750D01*
X31436250Y-66059000D01*
X29833000Y-66059000D01*
X28587000Y-66059000D01*
X26983750Y-66059000D01*
X26825000Y-66217750D01*
X26821928Y-66936000D01*
X19710000Y-66936000D01*
X19710000Y-66059804D01*
X24276252Y-66059804D01*
X24440404Y-66292280D01*
X24813664Y-66369491D01*
X25194814Y-66372398D01*
X25569209Y-66300892D01*
X25597596Y-66292280D01*
X25761748Y-66059804D01*
X25019000Y-65317055D01*
X24276252Y-66059804D01*
X19710000Y-66059804D01*
X19710000Y-64611814D01*
X23082602Y-64611814D01*
X23154108Y-64986209D01*
X23162720Y-65014596D01*
X23395196Y-65178748D01*
X24137945Y-64436000D01*
X25900055Y-64436000D01*
X26642804Y-65178748D01*
X26875280Y-65014596D01*
X26928425Y-64757675D01*
X26983750Y-64813000D01*
X28587000Y-64813000D01*
X28587000Y-63459750D01*
X29833000Y-63459750D01*
X29833000Y-64813000D01*
X31436250Y-64813000D01*
X31595000Y-64654250D01*
X31595756Y-64477434D01*
X31629463Y-64540494D01*
X31708815Y-64637185D01*
X31805506Y-64716537D01*
X31915820Y-64775502D01*
X32035518Y-64811812D01*
X32160000Y-64824072D01*
X33128250Y-64821000D01*
X33287000Y-64662250D01*
X33287000Y-63059000D01*
X34533000Y-63059000D01*
X34533000Y-64662250D01*
X34691750Y-64821000D01*
X35660000Y-64824072D01*
X35784482Y-64811812D01*
X35904180Y-64775502D01*
X36014494Y-64716537D01*
X36111185Y-64637185D01*
X36190537Y-64540494D01*
X36249502Y-64430180D01*
X36285812Y-64310482D01*
X36298072Y-64186000D01*
X36295000Y-63217750D01*
X36136250Y-63059000D01*
X34533000Y-63059000D01*
X33287000Y-63059000D01*
X31683750Y-63059000D01*
X31525000Y-63217750D01*
X31523649Y-63643454D01*
X31490537Y-63581506D01*
X31411185Y-63484815D01*
X31314494Y-63405463D01*
X31204180Y-63346498D01*
X31084482Y-63310188D01*
X30960000Y-63297928D01*
X29991750Y-63301000D01*
X29833000Y-63459750D01*
X28587000Y-63459750D01*
X28428250Y-63301000D01*
X27460000Y-63297928D01*
X27335518Y-63310188D01*
X27215820Y-63346498D01*
X27105506Y-63405463D01*
X27008815Y-63484815D01*
X26929463Y-63581506D01*
X26870498Y-63691820D01*
X26834188Y-63811518D01*
X26832634Y-63827292D01*
X26642804Y-63693252D01*
X25900055Y-64436000D01*
X24137945Y-64436000D01*
X23395196Y-63693252D01*
X23162720Y-63857404D01*
X23085509Y-64230664D01*
X23082602Y-64611814D01*
X19710000Y-64611814D01*
X19710000Y-62812196D01*
X24276252Y-62812196D01*
X25019000Y-63554945D01*
X25761748Y-62812196D01*
X25597596Y-62579720D01*
X25224336Y-62502509D01*
X24843186Y-62499602D01*
X24468791Y-62571108D01*
X24440404Y-62579720D01*
X24276252Y-62812196D01*
X19710000Y-62812196D01*
X19710000Y-35306000D01*
X23403718Y-35306000D01*
X23432776Y-35601032D01*
X23518834Y-35884725D01*
X23658583Y-36146179D01*
X23846655Y-36375345D01*
X24075821Y-36563417D01*
X24099362Y-36576000D01*
X24075821Y-36588583D01*
X23846655Y-36776655D01*
X23658583Y-37005821D01*
X23518834Y-37267275D01*
X23432776Y-37550968D01*
X23403718Y-37846000D01*
X23432776Y-38141032D01*
X23518834Y-38424725D01*
X23658583Y-38686179D01*
X23846655Y-38915345D01*
X24075821Y-39103417D01*
X24099362Y-39116000D01*
X24075821Y-39128583D01*
X23846655Y-39316655D01*
X23658583Y-39545821D01*
X23518834Y-39807275D01*
X23432776Y-40090968D01*
X23403718Y-40386000D01*
X23432776Y-40681032D01*
X23518834Y-40964725D01*
X23658583Y-41226179D01*
X23846655Y-41455345D01*
X24075821Y-41643417D01*
X24099362Y-41656000D01*
X24075821Y-41668583D01*
X23846655Y-41856655D01*
X23658583Y-42085821D01*
X23518834Y-42347275D01*
X23432776Y-42630968D01*
X23403718Y-42926000D01*
X23432776Y-43221032D01*
X23518834Y-43504725D01*
X23658583Y-43766179D01*
X23846655Y-43995345D01*
X24075821Y-44183417D01*
X24103669Y-44198302D01*
X23967097Y-44287744D01*
X23755464Y-44495506D01*
X23588429Y-44740563D01*
X23472412Y-45013498D01*
X23454698Y-45105969D01*
X23575754Y-45339000D01*
X25019000Y-45339000D01*
X25019000Y-45319000D01*
X25273000Y-45319000D01*
X25273000Y-45339000D01*
X26716246Y-45339000D01*
X26837302Y-45105969D01*
X26819588Y-45013498D01*
X26703571Y-44740563D01*
X26536536Y-44495506D01*
X26324903Y-44287744D01*
X26188331Y-44198302D01*
X26216179Y-44183417D01*
X26445345Y-43995345D01*
X26633417Y-43766179D01*
X26773166Y-43504725D01*
X26859224Y-43221032D01*
X26888282Y-42926000D01*
X26859224Y-42630968D01*
X26773166Y-42347275D01*
X26633417Y-42085821D01*
X26445345Y-41856655D01*
X26216179Y-41668583D01*
X26192638Y-41656000D01*
X26216179Y-41643417D01*
X26445345Y-41455345D01*
X26633417Y-41226179D01*
X26773166Y-40964725D01*
X26859224Y-40681032D01*
X26888282Y-40386000D01*
X26859224Y-40090968D01*
X26773166Y-39807275D01*
X26633417Y-39545821D01*
X26445345Y-39316655D01*
X26216179Y-39128583D01*
X26192638Y-39116000D01*
X26216179Y-39103417D01*
X26445345Y-38915345D01*
X26633417Y-38686179D01*
X26773166Y-38424725D01*
X26859224Y-38141032D01*
X26888282Y-37846000D01*
X26859224Y-37550968D01*
X26773166Y-37267275D01*
X26633417Y-37005821D01*
X26445345Y-36776655D01*
X26216179Y-36588583D01*
X26192638Y-36576000D01*
X26216179Y-36563417D01*
X26445345Y-36375345D01*
X26633417Y-36146179D01*
X26773166Y-35884725D01*
X26859224Y-35601032D01*
X26888282Y-35306000D01*
X26859224Y-35010968D01*
X26773166Y-34727275D01*
X26633417Y-34465821D01*
X26445345Y-34236655D01*
X26379886Y-34182934D01*
X26489387Y-34124405D01*
X26623962Y-34013962D01*
X26734405Y-33879387D01*
X26816472Y-33725851D01*
X26867008Y-33559255D01*
X26884072Y-33386001D01*
X26884072Y-32145999D01*
X26867008Y-31972745D01*
X26816472Y-31806149D01*
X26734405Y-31652613D01*
X26623962Y-31518038D01*
X26489387Y-31407595D01*
X26335851Y-31325528D01*
X26169255Y-31274992D01*
X25996001Y-31257928D01*
X24295999Y-31257928D01*
X24122745Y-31274992D01*
X23956149Y-31325528D01*
X23802613Y-31407595D01*
X23668038Y-31518038D01*
X23557595Y-31652613D01*
X23475528Y-31806149D01*
X23424992Y-31972745D01*
X23407928Y-32145999D01*
X23407928Y-33386001D01*
X23424992Y-33559255D01*
X23475528Y-33725851D01*
X23557595Y-33879387D01*
X23668038Y-34013962D01*
X23802613Y-34124405D01*
X23912114Y-34182934D01*
X23846655Y-34236655D01*
X23658583Y-34465821D01*
X23518834Y-34727275D01*
X23432776Y-35010968D01*
X23403718Y-35306000D01*
X19710000Y-35306000D01*
X19710000Y-30069295D01*
X20036793Y-30396088D01*
X20501124Y-30706344D01*
X21017061Y-30920052D01*
X21564777Y-31029000D01*
X22123223Y-31029000D01*
X22670939Y-30920052D01*
X23186876Y-30706344D01*
X23651207Y-30396088D01*
X24046088Y-30001207D01*
X24356344Y-29536876D01*
X24570052Y-29020939D01*
X24679000Y-28473223D01*
X24679000Y-27914777D01*
X24570052Y-27367061D01*
X24356344Y-26851124D01*
X24046088Y-26386793D01*
X23719295Y-26060000D01*
X39878000Y-26060000D01*
X39878000Y-28067000D01*
G37*
G04 #@! TD.AperFunction*
D29*
X85065001Y-68990706D02*
X84738207Y-68663912D01*
X84273876Y-68353656D01*
X83757939Y-68139948D01*
X83210223Y-68031000D01*
X82651777Y-68031000D01*
X82104061Y-68139948D01*
X81588124Y-68353656D01*
X81123793Y-68663912D01*
X80728912Y-69058793D01*
X80418656Y-69523124D01*
X80204948Y-70039061D01*
X80096000Y-70586777D01*
X80096000Y-71145223D01*
X80204948Y-71692939D01*
X80418656Y-72208876D01*
X80728912Y-72673207D01*
X81055705Y-73000000D01*
X78318126Y-73000000D01*
X78640117Y-72916059D01*
X78779818Y-72858193D01*
X78927207Y-72596709D01*
X77978000Y-71647502D01*
X77028793Y-72596709D01*
X77176182Y-72858193D01*
X77530693Y-72981221D01*
X77666225Y-73000000D01*
X56450394Y-73000000D01*
X56458102Y-72985580D01*
X56494412Y-72865882D01*
X56506672Y-72741400D01*
X56503600Y-72373150D01*
X56344850Y-72214400D01*
X55341600Y-72214400D01*
X55341600Y-72234400D01*
X55087600Y-72234400D01*
X55087600Y-72214400D01*
X53941600Y-72214400D01*
X53941600Y-72234400D01*
X53687600Y-72234400D01*
X53687600Y-72214400D01*
X52684350Y-72214400D01*
X52525600Y-72373150D01*
X52522528Y-72741400D01*
X52534788Y-72865882D01*
X52571098Y-72985580D01*
X52578806Y-73000000D01*
X43510712Y-73000000D01*
X43662452Y-72716115D01*
X43755943Y-72407916D01*
X43787511Y-72087400D01*
X43755943Y-71766884D01*
X43662452Y-71458685D01*
X43648937Y-71433400D01*
X52522528Y-71433400D01*
X52525600Y-71801650D01*
X52684350Y-71960400D01*
X53687600Y-71960400D01*
X53687600Y-71433400D01*
X53922528Y-71433400D01*
X53925600Y-71801650D01*
X53941600Y-71817650D01*
X53941600Y-71960400D01*
X55087600Y-71960400D01*
X55087600Y-71817650D01*
X55103600Y-71801650D01*
X55106672Y-71433400D01*
X55094412Y-71308918D01*
X55087600Y-71286462D01*
X55087600Y-70957150D01*
X55341600Y-70957150D01*
X55341600Y-71960400D01*
X56344850Y-71960400D01*
X56503600Y-71801650D01*
X56506672Y-71433400D01*
X56494412Y-71308918D01*
X56458102Y-71189220D01*
X56399137Y-71078906D01*
X56370814Y-71044394D01*
X76065277Y-71044394D01*
X76087279Y-71419001D01*
X76181941Y-71782117D01*
X76239807Y-71921818D01*
X76501291Y-72069207D01*
X77450498Y-71120000D01*
X78505502Y-71120000D01*
X79454709Y-72069207D01*
X79716193Y-71921818D01*
X79839221Y-71567307D01*
X79890723Y-71195606D01*
X79868721Y-70820999D01*
X79774059Y-70457883D01*
X79716193Y-70318182D01*
X79454709Y-70170793D01*
X78505502Y-71120000D01*
X77450498Y-71120000D01*
X76501291Y-70170793D01*
X76239807Y-70318182D01*
X76116779Y-70672693D01*
X76065277Y-71044394D01*
X56370814Y-71044394D01*
X56319785Y-70982215D01*
X56223094Y-70902863D01*
X56112780Y-70843898D01*
X55993082Y-70807588D01*
X55868600Y-70795328D01*
X55500350Y-70798400D01*
X55341600Y-70957150D01*
X55087600Y-70957150D01*
X54928850Y-70798400D01*
X54560600Y-70795328D01*
X54514600Y-70799858D01*
X54468600Y-70795328D01*
X54100350Y-70798400D01*
X53941600Y-70957150D01*
X53941600Y-71286462D01*
X53934788Y-71308918D01*
X53922528Y-71433400D01*
X53687600Y-71433400D01*
X53687600Y-70957150D01*
X53528850Y-70798400D01*
X53160600Y-70795328D01*
X53036118Y-70807588D01*
X52916420Y-70843898D01*
X52806106Y-70902863D01*
X52709415Y-70982215D01*
X52630063Y-71078906D01*
X52571098Y-71189220D01*
X52534788Y-71308918D01*
X52522528Y-71433400D01*
X43648937Y-71433400D01*
X43510631Y-71174648D01*
X43306314Y-70925686D01*
X43113200Y-70767202D01*
X43113200Y-69643291D01*
X77028793Y-69643291D01*
X77978000Y-70592498D01*
X78927207Y-69643291D01*
X78779818Y-69381807D01*
X78425307Y-69258779D01*
X78053606Y-69207277D01*
X77678999Y-69229279D01*
X77315883Y-69323941D01*
X77176182Y-69381807D01*
X77028793Y-69643291D01*
X43113200Y-69643291D01*
X43113200Y-58277000D01*
X74595681Y-58277000D01*
X74676000Y-58284911D01*
X74756319Y-58277000D01*
X74756322Y-58277000D01*
X74996516Y-58253343D01*
X75304715Y-58159852D01*
X75588752Y-58008031D01*
X75837714Y-57803714D01*
X75888925Y-57741313D01*
X78439770Y-55190469D01*
X78533668Y-55171791D01*
X78880356Y-55028189D01*
X78959959Y-54975000D01*
X81072681Y-54975000D01*
X81153000Y-54982911D01*
X81233319Y-54975000D01*
X81233322Y-54975000D01*
X81473516Y-54951343D01*
X81781715Y-54857852D01*
X82065752Y-54706031D01*
X82314714Y-54501714D01*
X82365924Y-54439314D01*
X83522319Y-53282919D01*
X83584714Y-53231714D01*
X83789031Y-52982752D01*
X83940852Y-52698715D01*
X84034343Y-52390516D01*
X84058000Y-52150322D01*
X84058000Y-52150320D01*
X84065911Y-52070001D01*
X84058000Y-51989681D01*
X84058000Y-41355321D01*
X84065911Y-41275000D01*
X84058000Y-41194678D01*
X84058000Y-33778319D01*
X84065911Y-33697999D01*
X84052246Y-33559255D01*
X84034343Y-33377484D01*
X83940852Y-33069285D01*
X83789031Y-32785248D01*
X83584714Y-32536286D01*
X83522318Y-32485080D01*
X81853508Y-30816269D01*
X82104061Y-30920052D01*
X82651777Y-31029000D01*
X83210223Y-31029000D01*
X83757939Y-30920052D01*
X84273876Y-30706344D01*
X84738207Y-30396088D01*
X85065000Y-30069295D01*
X85065001Y-68990706D01*
G04 #@! TA.AperFunction,Conductor*
D30*
G36*
X85065001Y-68990706D02*
G01*
X84738207Y-68663912D01*
X84273876Y-68353656D01*
X83757939Y-68139948D01*
X83210223Y-68031000D01*
X82651777Y-68031000D01*
X82104061Y-68139948D01*
X81588124Y-68353656D01*
X81123793Y-68663912D01*
X80728912Y-69058793D01*
X80418656Y-69523124D01*
X80204948Y-70039061D01*
X80096000Y-70586777D01*
X80096000Y-71145223D01*
X80204948Y-71692939D01*
X80418656Y-72208876D01*
X80728912Y-72673207D01*
X81055705Y-73000000D01*
X78318126Y-73000000D01*
X78640117Y-72916059D01*
X78779818Y-72858193D01*
X78927207Y-72596709D01*
X77978000Y-71647502D01*
X77028793Y-72596709D01*
X77176182Y-72858193D01*
X77530693Y-72981221D01*
X77666225Y-73000000D01*
X56450394Y-73000000D01*
X56458102Y-72985580D01*
X56494412Y-72865882D01*
X56506672Y-72741400D01*
X56503600Y-72373150D01*
X56344850Y-72214400D01*
X55341600Y-72214400D01*
X55341600Y-72234400D01*
X55087600Y-72234400D01*
X55087600Y-72214400D01*
X53941600Y-72214400D01*
X53941600Y-72234400D01*
X53687600Y-72234400D01*
X53687600Y-72214400D01*
X52684350Y-72214400D01*
X52525600Y-72373150D01*
X52522528Y-72741400D01*
X52534788Y-72865882D01*
X52571098Y-72985580D01*
X52578806Y-73000000D01*
X43510712Y-73000000D01*
X43662452Y-72716115D01*
X43755943Y-72407916D01*
X43787511Y-72087400D01*
X43755943Y-71766884D01*
X43662452Y-71458685D01*
X43648937Y-71433400D01*
X52522528Y-71433400D01*
X52525600Y-71801650D01*
X52684350Y-71960400D01*
X53687600Y-71960400D01*
X53687600Y-71433400D01*
X53922528Y-71433400D01*
X53925600Y-71801650D01*
X53941600Y-71817650D01*
X53941600Y-71960400D01*
X55087600Y-71960400D01*
X55087600Y-71817650D01*
X55103600Y-71801650D01*
X55106672Y-71433400D01*
X55094412Y-71308918D01*
X55087600Y-71286462D01*
X55087600Y-70957150D01*
X55341600Y-70957150D01*
X55341600Y-71960400D01*
X56344850Y-71960400D01*
X56503600Y-71801650D01*
X56506672Y-71433400D01*
X56494412Y-71308918D01*
X56458102Y-71189220D01*
X56399137Y-71078906D01*
X56370814Y-71044394D01*
X76065277Y-71044394D01*
X76087279Y-71419001D01*
X76181941Y-71782117D01*
X76239807Y-71921818D01*
X76501291Y-72069207D01*
X77450498Y-71120000D01*
X78505502Y-71120000D01*
X79454709Y-72069207D01*
X79716193Y-71921818D01*
X79839221Y-71567307D01*
X79890723Y-71195606D01*
X79868721Y-70820999D01*
X79774059Y-70457883D01*
X79716193Y-70318182D01*
X79454709Y-70170793D01*
X78505502Y-71120000D01*
X77450498Y-71120000D01*
X76501291Y-70170793D01*
X76239807Y-70318182D01*
X76116779Y-70672693D01*
X76065277Y-71044394D01*
X56370814Y-71044394D01*
X56319785Y-70982215D01*
X56223094Y-70902863D01*
X56112780Y-70843898D01*
X55993082Y-70807588D01*
X55868600Y-70795328D01*
X55500350Y-70798400D01*
X55341600Y-70957150D01*
X55087600Y-70957150D01*
X54928850Y-70798400D01*
X54560600Y-70795328D01*
X54514600Y-70799858D01*
X54468600Y-70795328D01*
X54100350Y-70798400D01*
X53941600Y-70957150D01*
X53941600Y-71286462D01*
X53934788Y-71308918D01*
X53922528Y-71433400D01*
X53687600Y-71433400D01*
X53687600Y-70957150D01*
X53528850Y-70798400D01*
X53160600Y-70795328D01*
X53036118Y-70807588D01*
X52916420Y-70843898D01*
X52806106Y-70902863D01*
X52709415Y-70982215D01*
X52630063Y-71078906D01*
X52571098Y-71189220D01*
X52534788Y-71308918D01*
X52522528Y-71433400D01*
X43648937Y-71433400D01*
X43510631Y-71174648D01*
X43306314Y-70925686D01*
X43113200Y-70767202D01*
X43113200Y-69643291D01*
X77028793Y-69643291D01*
X77978000Y-70592498D01*
X78927207Y-69643291D01*
X78779818Y-69381807D01*
X78425307Y-69258779D01*
X78053606Y-69207277D01*
X77678999Y-69229279D01*
X77315883Y-69323941D01*
X77176182Y-69381807D01*
X77028793Y-69643291D01*
X43113200Y-69643291D01*
X43113200Y-58277000D01*
X74595681Y-58277000D01*
X74676000Y-58284911D01*
X74756319Y-58277000D01*
X74756322Y-58277000D01*
X74996516Y-58253343D01*
X75304715Y-58159852D01*
X75588752Y-58008031D01*
X75837714Y-57803714D01*
X75888925Y-57741313D01*
X78439770Y-55190469D01*
X78533668Y-55171791D01*
X78880356Y-55028189D01*
X78959959Y-54975000D01*
X81072681Y-54975000D01*
X81153000Y-54982911D01*
X81233319Y-54975000D01*
X81233322Y-54975000D01*
X81473516Y-54951343D01*
X81781715Y-54857852D01*
X82065752Y-54706031D01*
X82314714Y-54501714D01*
X82365924Y-54439314D01*
X83522319Y-53282919D01*
X83584714Y-53231714D01*
X83789031Y-52982752D01*
X83940852Y-52698715D01*
X84034343Y-52390516D01*
X84058000Y-52150322D01*
X84058000Y-52150320D01*
X84065911Y-52070001D01*
X84058000Y-51989681D01*
X84058000Y-41355321D01*
X84065911Y-41275000D01*
X84058000Y-41194678D01*
X84058000Y-33778319D01*
X84065911Y-33697999D01*
X84052246Y-33559255D01*
X84034343Y-33377484D01*
X83940852Y-33069285D01*
X83789031Y-32785248D01*
X83584714Y-32536286D01*
X83522318Y-32485080D01*
X81853508Y-30816269D01*
X82104061Y-30920052D01*
X82651777Y-31029000D01*
X83210223Y-31029000D01*
X83757939Y-30920052D01*
X84273876Y-30706344D01*
X84738207Y-30396088D01*
X85065000Y-30069295D01*
X85065001Y-68990706D01*
G37*
G04 #@! TD.AperFunction*
D29*
X57909188Y-34837482D02*
X57945498Y-34957180D01*
X58004463Y-35067494D01*
X58082842Y-35163000D01*
X58004463Y-35258506D01*
X57945498Y-35368820D01*
X57909188Y-35488518D01*
X57896928Y-35613000D01*
X57896928Y-36713000D01*
X57909188Y-36837482D01*
X57945498Y-36957180D01*
X58004463Y-37067494D01*
X58082842Y-37163000D01*
X58020763Y-37238644D01*
X57861992Y-37132557D01*
X57637236Y-37039460D01*
X57398637Y-36992000D01*
X57155363Y-36992000D01*
X56916764Y-37039460D01*
X56692008Y-37132557D01*
X56489733Y-37267713D01*
X56317713Y-37439733D01*
X56182557Y-37642008D01*
X56089460Y-37866764D01*
X56042000Y-38105363D01*
X56042000Y-38348637D01*
X56089460Y-38587236D01*
X56182557Y-38811992D01*
X56317713Y-39014267D01*
X56482946Y-39179500D01*
X56317713Y-39344733D01*
X56182557Y-39547008D01*
X56089460Y-39771764D01*
X56042000Y-40010363D01*
X56042000Y-40253637D01*
X56089460Y-40492236D01*
X56182557Y-40716992D01*
X56317713Y-40919267D01*
X56489733Y-41091287D01*
X56574610Y-41148000D01*
X56489733Y-41204713D01*
X56317713Y-41376733D01*
X56182557Y-41579008D01*
X56089460Y-41803764D01*
X56042000Y-42042363D01*
X56042000Y-42285637D01*
X56089460Y-42524236D01*
X56182557Y-42748992D01*
X56317713Y-42951267D01*
X56489733Y-43123287D01*
X56574610Y-43180000D01*
X56489733Y-43236713D01*
X56317713Y-43408733D01*
X56182557Y-43611008D01*
X56089460Y-43835764D01*
X56042000Y-44074363D01*
X56042000Y-44317637D01*
X56089460Y-44556236D01*
X56182557Y-44780992D01*
X56317713Y-44983267D01*
X56489733Y-45155287D01*
X56692008Y-45290443D01*
X56916764Y-45383540D01*
X57155363Y-45431000D01*
X57398637Y-45431000D01*
X57637236Y-45383540D01*
X57861992Y-45290443D01*
X58064267Y-45155287D01*
X58070993Y-45148561D01*
X58082842Y-45163000D01*
X58004463Y-45258506D01*
X57945498Y-45368820D01*
X57909188Y-45488518D01*
X57896928Y-45613000D01*
X57896928Y-46713000D01*
X57909188Y-46837482D01*
X57945498Y-46957180D01*
X58004463Y-47067494D01*
X58083815Y-47164185D01*
X58180506Y-47243537D01*
X58290820Y-47302502D01*
X58410518Y-47338812D01*
X58535000Y-47351072D01*
X61035000Y-47351072D01*
X61159482Y-47338812D01*
X61279180Y-47302502D01*
X61303385Y-47289564D01*
X61853001Y-47839180D01*
X61853000Y-49232531D01*
X61848719Y-49276000D01*
X61853000Y-49319469D01*
X61853000Y-49319476D01*
X61865805Y-49449489D01*
X61916411Y-49616312D01*
X61998589Y-49770058D01*
X62109183Y-49904817D01*
X62142956Y-49932534D01*
X62462466Y-50252044D01*
X62490183Y-50285817D01*
X62624941Y-50396411D01*
X62778687Y-50478589D01*
X62945510Y-50529195D01*
X63075523Y-50542000D01*
X63075533Y-50542000D01*
X63118999Y-50546281D01*
X63162465Y-50542000D01*
X63587386Y-50542000D01*
X63618595Y-50600387D01*
X63729038Y-50734962D01*
X63863613Y-50845405D01*
X64017148Y-50927472D01*
X64183744Y-50978008D01*
X64356998Y-50995072D01*
X64882002Y-50995072D01*
X65055256Y-50978008D01*
X65221852Y-50927472D01*
X65375387Y-50845405D01*
X65456637Y-50778724D01*
X65480815Y-50808185D01*
X65577506Y-50887537D01*
X65687820Y-50946502D01*
X65807518Y-50982812D01*
X65932000Y-50995072D01*
X66158750Y-50992000D01*
X66317500Y-50833250D01*
X66317500Y-49784000D01*
X66297500Y-49784000D01*
X66297500Y-49530000D01*
X66317500Y-49530000D01*
X66317500Y-49510000D01*
X66571500Y-49510000D01*
X66571500Y-49530000D01*
X66591500Y-49530000D01*
X66591500Y-49784000D01*
X66571500Y-49784000D01*
X66571500Y-50833250D01*
X66730250Y-50992000D01*
X66957000Y-50995072D01*
X67081482Y-50982812D01*
X67201180Y-50946502D01*
X67311494Y-50887537D01*
X67408185Y-50808185D01*
X67487537Y-50711494D01*
X67546502Y-50601180D01*
X67582812Y-50481482D01*
X67595072Y-50357000D01*
X67592000Y-49942750D01*
X67433252Y-49784002D01*
X67573452Y-49784002D01*
X67611989Y-49977743D01*
X67727701Y-50257095D01*
X67895688Y-50508505D01*
X68109495Y-50722312D01*
X68203000Y-50784790D01*
X68203001Y-55007000D01*
X46550200Y-55007000D01*
X46550200Y-54803891D01*
X46567750Y-54813272D01*
X46734346Y-54863808D01*
X46907600Y-54880872D01*
X47407600Y-54880872D01*
X47580854Y-54863808D01*
X47747450Y-54813272D01*
X47900986Y-54731205D01*
X48035562Y-54620762D01*
X48040942Y-54614206D01*
X48106415Y-54693985D01*
X48203106Y-54773337D01*
X48313420Y-54832302D01*
X48433118Y-54868612D01*
X48557600Y-54880872D01*
X48771850Y-54877800D01*
X48930600Y-54719050D01*
X48930600Y-53644800D01*
X49184600Y-53644800D01*
X49184600Y-54719050D01*
X49343350Y-54877800D01*
X49557600Y-54880872D01*
X49682082Y-54868612D01*
X49801780Y-54832302D01*
X49912094Y-54773337D01*
X50008785Y-54693985D01*
X50088137Y-54597294D01*
X50147102Y-54486980D01*
X50183412Y-54367282D01*
X50195672Y-54242800D01*
X50192600Y-53803550D01*
X50130450Y-53741400D01*
X52522528Y-53741400D01*
X52534788Y-53865882D01*
X52571098Y-53985580D01*
X52630063Y-54095894D01*
X52709415Y-54192585D01*
X52806106Y-54271937D01*
X52916420Y-54330902D01*
X53036118Y-54367212D01*
X53160600Y-54379472D01*
X53528850Y-54376400D01*
X53687600Y-54217650D01*
X53687600Y-53741400D01*
X53922528Y-53741400D01*
X53934788Y-53865882D01*
X53941600Y-53888338D01*
X53941600Y-54217650D01*
X54100350Y-54376400D01*
X54468600Y-54379472D01*
X54514600Y-54374942D01*
X54560600Y-54379472D01*
X54928850Y-54376400D01*
X55087600Y-54217650D01*
X55087600Y-53888338D01*
X55094412Y-53865882D01*
X55106672Y-53741400D01*
X55103600Y-53373150D01*
X55087600Y-53357150D01*
X55087600Y-53214400D01*
X55341600Y-53214400D01*
X55341600Y-54217650D01*
X55500350Y-54376400D01*
X55868600Y-54379472D01*
X55993082Y-54367212D01*
X56112780Y-54330902D01*
X56223094Y-54271937D01*
X56319785Y-54192585D01*
X56399137Y-54095894D01*
X56458102Y-53985580D01*
X56494412Y-53865882D01*
X56506672Y-53741400D01*
X56503600Y-53373150D01*
X56344850Y-53214400D01*
X55341600Y-53214400D01*
X55087600Y-53214400D01*
X53941600Y-53214400D01*
X53941600Y-53357150D01*
X53925600Y-53373150D01*
X53922528Y-53741400D01*
X53687600Y-53741400D01*
X53687600Y-53214400D01*
X52684350Y-53214400D01*
X52525600Y-53373150D01*
X52522528Y-53741400D01*
X50130450Y-53741400D01*
X50033850Y-53644800D01*
X49184600Y-53644800D01*
X48930600Y-53644800D01*
X48910600Y-53644800D01*
X48910600Y-53390800D01*
X48930600Y-53390800D01*
X48930600Y-52316550D01*
X49184600Y-52316550D01*
X49184600Y-53390800D01*
X50033850Y-53390800D01*
X50192600Y-53232050D01*
X50195672Y-52792800D01*
X50183412Y-52668318D01*
X50147102Y-52548620D01*
X50088137Y-52438306D01*
X50084111Y-52433400D01*
X52522528Y-52433400D01*
X52525600Y-52801650D01*
X52684350Y-52960400D01*
X53687600Y-52960400D01*
X53687600Y-52433400D01*
X53922528Y-52433400D01*
X53925600Y-52801650D01*
X53941600Y-52817650D01*
X53941600Y-52960400D01*
X55087600Y-52960400D01*
X55087600Y-52817650D01*
X55103600Y-52801650D01*
X55106672Y-52433400D01*
X55094412Y-52308918D01*
X55087600Y-52286462D01*
X55087600Y-51957150D01*
X55341600Y-51957150D01*
X55341600Y-52960400D01*
X56344850Y-52960400D01*
X56503600Y-52801650D01*
X56506672Y-52433400D01*
X56494412Y-52308918D01*
X56458102Y-52189220D01*
X56399137Y-52078906D01*
X56319785Y-51982215D01*
X56223094Y-51902863D01*
X56112780Y-51843898D01*
X55993082Y-51807588D01*
X55868600Y-51795328D01*
X55500350Y-51798400D01*
X55341600Y-51957150D01*
X55087600Y-51957150D01*
X54928850Y-51798400D01*
X54560600Y-51795328D01*
X54514600Y-51799858D01*
X54468600Y-51795328D01*
X54100350Y-51798400D01*
X53941600Y-51957150D01*
X53941600Y-52286462D01*
X53934788Y-52308918D01*
X53922528Y-52433400D01*
X53687600Y-52433400D01*
X53687600Y-51957150D01*
X53528850Y-51798400D01*
X53160600Y-51795328D01*
X53036118Y-51807588D01*
X52916420Y-51843898D01*
X52806106Y-51902863D01*
X52709415Y-51982215D01*
X52630063Y-52078906D01*
X52571098Y-52189220D01*
X52534788Y-52308918D01*
X52522528Y-52433400D01*
X50084111Y-52433400D01*
X50008785Y-52341615D01*
X49912094Y-52262263D01*
X49801780Y-52203298D01*
X49682082Y-52166988D01*
X49557600Y-52154728D01*
X49343350Y-52157800D01*
X49184600Y-52316550D01*
X48930600Y-52316550D01*
X48771850Y-52157800D01*
X48557600Y-52154728D01*
X48433118Y-52166988D01*
X48313420Y-52203298D01*
X48203106Y-52262263D01*
X48106415Y-52341615D01*
X48040942Y-52421394D01*
X48035562Y-52414838D01*
X47900986Y-52304395D01*
X47747450Y-52222328D01*
X47580854Y-52171792D01*
X47407600Y-52154728D01*
X46907600Y-52154728D01*
X46734346Y-52171792D01*
X46567750Y-52222328D01*
X46550200Y-52231709D01*
X46550200Y-52227351D01*
X46555691Y-52171600D01*
X46545685Y-52070001D01*
X46533777Y-51949101D01*
X46472125Y-51745864D01*
X46525000Y-51751072D01*
X47625000Y-51751072D01*
X47749482Y-51738812D01*
X47869180Y-51702502D01*
X47979494Y-51643537D01*
X48075000Y-51565158D01*
X48170506Y-51643537D01*
X48280820Y-51702502D01*
X48400518Y-51738812D01*
X48525000Y-51751072D01*
X49625000Y-51751072D01*
X49749482Y-51738812D01*
X49869180Y-51702502D01*
X49979494Y-51643537D01*
X50075000Y-51565158D01*
X50170506Y-51643537D01*
X50280820Y-51702502D01*
X50400518Y-51738812D01*
X50525000Y-51751072D01*
X51625000Y-51751072D01*
X51749482Y-51738812D01*
X51869180Y-51702502D01*
X51979494Y-51643537D01*
X52075000Y-51565158D01*
X52170506Y-51643537D01*
X52280820Y-51702502D01*
X52400518Y-51738812D01*
X52525000Y-51751072D01*
X53625000Y-51751072D01*
X53749482Y-51738812D01*
X53869180Y-51702502D01*
X53979494Y-51643537D01*
X54075000Y-51565158D01*
X54170506Y-51643537D01*
X54280820Y-51702502D01*
X54400518Y-51738812D01*
X54525000Y-51751072D01*
X55625000Y-51751072D01*
X55749482Y-51738812D01*
X55869180Y-51702502D01*
X55979494Y-51643537D01*
X56075000Y-51565158D01*
X56170506Y-51643537D01*
X56280820Y-51702502D01*
X56400518Y-51738812D01*
X56525000Y-51751072D01*
X57625000Y-51751072D01*
X57749482Y-51738812D01*
X57869180Y-51702502D01*
X57979494Y-51643537D01*
X58076185Y-51564185D01*
X58155537Y-51467494D01*
X58214502Y-51357180D01*
X58250812Y-51237482D01*
X58263072Y-51113000D01*
X58263072Y-48613000D01*
X58250812Y-48488518D01*
X58214502Y-48368820D01*
X58155537Y-48258506D01*
X58076185Y-48161815D01*
X57979494Y-48082463D01*
X57869180Y-48023498D01*
X57749482Y-47987188D01*
X57625000Y-47974928D01*
X56525000Y-47974928D01*
X56400518Y-47987188D01*
X56280820Y-48023498D01*
X56170506Y-48082463D01*
X56075000Y-48160842D01*
X55979494Y-48082463D01*
X55869180Y-48023498D01*
X55749482Y-47987188D01*
X55625000Y-47974928D01*
X54525000Y-47974928D01*
X54400518Y-47987188D01*
X54280820Y-48023498D01*
X54170506Y-48082463D01*
X54075000Y-48160842D01*
X53979494Y-48082463D01*
X53869180Y-48023498D01*
X53749482Y-47987188D01*
X53625000Y-47974928D01*
X52525000Y-47974928D01*
X52400518Y-47987188D01*
X52280820Y-48023498D01*
X52170506Y-48082463D01*
X52075000Y-48160842D01*
X51979494Y-48082463D01*
X51869180Y-48023498D01*
X51749482Y-47987188D01*
X51625000Y-47974928D01*
X50525000Y-47974928D01*
X50400518Y-47987188D01*
X50280820Y-48023498D01*
X50170506Y-48082463D01*
X50075000Y-48160842D01*
X49979494Y-48082463D01*
X49869180Y-48023498D01*
X49749482Y-47987188D01*
X49625000Y-47974928D01*
X48525000Y-47974928D01*
X48400518Y-47987188D01*
X48280820Y-48023498D01*
X48170506Y-48082463D01*
X48075000Y-48160842D01*
X47979494Y-48082463D01*
X47869180Y-48023498D01*
X47749482Y-47987188D01*
X47625000Y-47974928D01*
X46525000Y-47974928D01*
X46400518Y-47987188D01*
X46280820Y-48023498D01*
X46273072Y-48027639D01*
X46273072Y-47613000D01*
X46260812Y-47488518D01*
X46224502Y-47368820D01*
X46165537Y-47258506D01*
X46087158Y-47163000D01*
X46165537Y-47067494D01*
X46175957Y-47048000D01*
X46831958Y-47048000D01*
X47014608Y-47170043D01*
X47239364Y-47263140D01*
X47477963Y-47310600D01*
X47721237Y-47310600D01*
X47959836Y-47263140D01*
X48184592Y-47170043D01*
X48386867Y-47034887D01*
X48558887Y-46862867D01*
X48694043Y-46660592D01*
X48787140Y-46435836D01*
X48834600Y-46197237D01*
X48834600Y-45953963D01*
X48787140Y-45715364D01*
X48694043Y-45490608D01*
X48558887Y-45288333D01*
X48386867Y-45116313D01*
X48184592Y-44981157D01*
X47959836Y-44888060D01*
X47721237Y-44840600D01*
X47477963Y-44840600D01*
X47239364Y-44888060D01*
X47014608Y-44981157D01*
X46812333Y-45116313D01*
X46650646Y-45278000D01*
X46175957Y-45278000D01*
X46165537Y-45258506D01*
X46087158Y-45163000D01*
X46165537Y-45067494D01*
X46191081Y-45019705D01*
X46306841Y-44984589D01*
X46460587Y-44902411D01*
X46595345Y-44791817D01*
X46623062Y-44758044D01*
X48855050Y-42526057D01*
X48888817Y-42498345D01*
X48928699Y-42449750D01*
X48999410Y-42363588D01*
X48999411Y-42363587D01*
X49081589Y-42209841D01*
X49132195Y-42043018D01*
X49145000Y-41913005D01*
X49145000Y-41912995D01*
X49148326Y-41879228D01*
X49219287Y-41808267D01*
X49354443Y-41605992D01*
X49447540Y-41381236D01*
X49495000Y-41142637D01*
X49495000Y-40899363D01*
X49447540Y-40660764D01*
X49404144Y-40555998D01*
X52360533Y-40555998D01*
X52404002Y-40560279D01*
X52447471Y-40555998D01*
X52447479Y-40555998D01*
X52577492Y-40543193D01*
X52744315Y-40492587D01*
X52898061Y-40410409D01*
X53032819Y-40299815D01*
X53060536Y-40266042D01*
X57618049Y-35708530D01*
X57651817Y-35680817D01*
X57680134Y-35646314D01*
X57762411Y-35546059D01*
X57844589Y-35392314D01*
X57895195Y-35225490D01*
X57899658Y-35180175D01*
X57908000Y-35095477D01*
X57908000Y-35095469D01*
X57912281Y-35052000D01*
X57908000Y-35008531D01*
X57908000Y-34825420D01*
X57909188Y-34837482D01*
G04 #@! TA.AperFunction,Conductor*
D30*
G36*
X57909188Y-34837482D02*
G01*
X57945498Y-34957180D01*
X58004463Y-35067494D01*
X58082842Y-35163000D01*
X58004463Y-35258506D01*
X57945498Y-35368820D01*
X57909188Y-35488518D01*
X57896928Y-35613000D01*
X57896928Y-36713000D01*
X57909188Y-36837482D01*
X57945498Y-36957180D01*
X58004463Y-37067494D01*
X58082842Y-37163000D01*
X58020763Y-37238644D01*
X57861992Y-37132557D01*
X57637236Y-37039460D01*
X57398637Y-36992000D01*
X57155363Y-36992000D01*
X56916764Y-37039460D01*
X56692008Y-37132557D01*
X56489733Y-37267713D01*
X56317713Y-37439733D01*
X56182557Y-37642008D01*
X56089460Y-37866764D01*
X56042000Y-38105363D01*
X56042000Y-38348637D01*
X56089460Y-38587236D01*
X56182557Y-38811992D01*
X56317713Y-39014267D01*
X56482946Y-39179500D01*
X56317713Y-39344733D01*
X56182557Y-39547008D01*
X56089460Y-39771764D01*
X56042000Y-40010363D01*
X56042000Y-40253637D01*
X56089460Y-40492236D01*
X56182557Y-40716992D01*
X56317713Y-40919267D01*
X56489733Y-41091287D01*
X56574610Y-41148000D01*
X56489733Y-41204713D01*
X56317713Y-41376733D01*
X56182557Y-41579008D01*
X56089460Y-41803764D01*
X56042000Y-42042363D01*
X56042000Y-42285637D01*
X56089460Y-42524236D01*
X56182557Y-42748992D01*
X56317713Y-42951267D01*
X56489733Y-43123287D01*
X56574610Y-43180000D01*
X56489733Y-43236713D01*
X56317713Y-43408733D01*
X56182557Y-43611008D01*
X56089460Y-43835764D01*
X56042000Y-44074363D01*
X56042000Y-44317637D01*
X56089460Y-44556236D01*
X56182557Y-44780992D01*
X56317713Y-44983267D01*
X56489733Y-45155287D01*
X56692008Y-45290443D01*
X56916764Y-45383540D01*
X57155363Y-45431000D01*
X57398637Y-45431000D01*
X57637236Y-45383540D01*
X57861992Y-45290443D01*
X58064267Y-45155287D01*
X58070993Y-45148561D01*
X58082842Y-45163000D01*
X58004463Y-45258506D01*
X57945498Y-45368820D01*
X57909188Y-45488518D01*
X57896928Y-45613000D01*
X57896928Y-46713000D01*
X57909188Y-46837482D01*
X57945498Y-46957180D01*
X58004463Y-47067494D01*
X58083815Y-47164185D01*
X58180506Y-47243537D01*
X58290820Y-47302502D01*
X58410518Y-47338812D01*
X58535000Y-47351072D01*
X61035000Y-47351072D01*
X61159482Y-47338812D01*
X61279180Y-47302502D01*
X61303385Y-47289564D01*
X61853001Y-47839180D01*
X61853000Y-49232531D01*
X61848719Y-49276000D01*
X61853000Y-49319469D01*
X61853000Y-49319476D01*
X61865805Y-49449489D01*
X61916411Y-49616312D01*
X61998589Y-49770058D01*
X62109183Y-49904817D01*
X62142956Y-49932534D01*
X62462466Y-50252044D01*
X62490183Y-50285817D01*
X62624941Y-50396411D01*
X62778687Y-50478589D01*
X62945510Y-50529195D01*
X63075523Y-50542000D01*
X63075533Y-50542000D01*
X63118999Y-50546281D01*
X63162465Y-50542000D01*
X63587386Y-50542000D01*
X63618595Y-50600387D01*
X63729038Y-50734962D01*
X63863613Y-50845405D01*
X64017148Y-50927472D01*
X64183744Y-50978008D01*
X64356998Y-50995072D01*
X64882002Y-50995072D01*
X65055256Y-50978008D01*
X65221852Y-50927472D01*
X65375387Y-50845405D01*
X65456637Y-50778724D01*
X65480815Y-50808185D01*
X65577506Y-50887537D01*
X65687820Y-50946502D01*
X65807518Y-50982812D01*
X65932000Y-50995072D01*
X66158750Y-50992000D01*
X66317500Y-50833250D01*
X66317500Y-49784000D01*
X66297500Y-49784000D01*
X66297500Y-49530000D01*
X66317500Y-49530000D01*
X66317500Y-49510000D01*
X66571500Y-49510000D01*
X66571500Y-49530000D01*
X66591500Y-49530000D01*
X66591500Y-49784000D01*
X66571500Y-49784000D01*
X66571500Y-50833250D01*
X66730250Y-50992000D01*
X66957000Y-50995072D01*
X67081482Y-50982812D01*
X67201180Y-50946502D01*
X67311494Y-50887537D01*
X67408185Y-50808185D01*
X67487537Y-50711494D01*
X67546502Y-50601180D01*
X67582812Y-50481482D01*
X67595072Y-50357000D01*
X67592000Y-49942750D01*
X67433252Y-49784002D01*
X67573452Y-49784002D01*
X67611989Y-49977743D01*
X67727701Y-50257095D01*
X67895688Y-50508505D01*
X68109495Y-50722312D01*
X68203000Y-50784790D01*
X68203001Y-55007000D01*
X46550200Y-55007000D01*
X46550200Y-54803891D01*
X46567750Y-54813272D01*
X46734346Y-54863808D01*
X46907600Y-54880872D01*
X47407600Y-54880872D01*
X47580854Y-54863808D01*
X47747450Y-54813272D01*
X47900986Y-54731205D01*
X48035562Y-54620762D01*
X48040942Y-54614206D01*
X48106415Y-54693985D01*
X48203106Y-54773337D01*
X48313420Y-54832302D01*
X48433118Y-54868612D01*
X48557600Y-54880872D01*
X48771850Y-54877800D01*
X48930600Y-54719050D01*
X48930600Y-53644800D01*
X49184600Y-53644800D01*
X49184600Y-54719050D01*
X49343350Y-54877800D01*
X49557600Y-54880872D01*
X49682082Y-54868612D01*
X49801780Y-54832302D01*
X49912094Y-54773337D01*
X50008785Y-54693985D01*
X50088137Y-54597294D01*
X50147102Y-54486980D01*
X50183412Y-54367282D01*
X50195672Y-54242800D01*
X50192600Y-53803550D01*
X50130450Y-53741400D01*
X52522528Y-53741400D01*
X52534788Y-53865882D01*
X52571098Y-53985580D01*
X52630063Y-54095894D01*
X52709415Y-54192585D01*
X52806106Y-54271937D01*
X52916420Y-54330902D01*
X53036118Y-54367212D01*
X53160600Y-54379472D01*
X53528850Y-54376400D01*
X53687600Y-54217650D01*
X53687600Y-53741400D01*
X53922528Y-53741400D01*
X53934788Y-53865882D01*
X53941600Y-53888338D01*
X53941600Y-54217650D01*
X54100350Y-54376400D01*
X54468600Y-54379472D01*
X54514600Y-54374942D01*
X54560600Y-54379472D01*
X54928850Y-54376400D01*
X55087600Y-54217650D01*
X55087600Y-53888338D01*
X55094412Y-53865882D01*
X55106672Y-53741400D01*
X55103600Y-53373150D01*
X55087600Y-53357150D01*
X55087600Y-53214400D01*
X55341600Y-53214400D01*
X55341600Y-54217650D01*
X55500350Y-54376400D01*
X55868600Y-54379472D01*
X55993082Y-54367212D01*
X56112780Y-54330902D01*
X56223094Y-54271937D01*
X56319785Y-54192585D01*
X56399137Y-54095894D01*
X56458102Y-53985580D01*
X56494412Y-53865882D01*
X56506672Y-53741400D01*
X56503600Y-53373150D01*
X56344850Y-53214400D01*
X55341600Y-53214400D01*
X55087600Y-53214400D01*
X53941600Y-53214400D01*
X53941600Y-53357150D01*
X53925600Y-53373150D01*
X53922528Y-53741400D01*
X53687600Y-53741400D01*
X53687600Y-53214400D01*
X52684350Y-53214400D01*
X52525600Y-53373150D01*
X52522528Y-53741400D01*
X50130450Y-53741400D01*
X50033850Y-53644800D01*
X49184600Y-53644800D01*
X48930600Y-53644800D01*
X48910600Y-53644800D01*
X48910600Y-53390800D01*
X48930600Y-53390800D01*
X48930600Y-52316550D01*
X49184600Y-52316550D01*
X49184600Y-53390800D01*
X50033850Y-53390800D01*
X50192600Y-53232050D01*
X50195672Y-52792800D01*
X50183412Y-52668318D01*
X50147102Y-52548620D01*
X50088137Y-52438306D01*
X50084111Y-52433400D01*
X52522528Y-52433400D01*
X52525600Y-52801650D01*
X52684350Y-52960400D01*
X53687600Y-52960400D01*
X53687600Y-52433400D01*
X53922528Y-52433400D01*
X53925600Y-52801650D01*
X53941600Y-52817650D01*
X53941600Y-52960400D01*
X55087600Y-52960400D01*
X55087600Y-52817650D01*
X55103600Y-52801650D01*
X55106672Y-52433400D01*
X55094412Y-52308918D01*
X55087600Y-52286462D01*
X55087600Y-51957150D01*
X55341600Y-51957150D01*
X55341600Y-52960400D01*
X56344850Y-52960400D01*
X56503600Y-52801650D01*
X56506672Y-52433400D01*
X56494412Y-52308918D01*
X56458102Y-52189220D01*
X56399137Y-52078906D01*
X56319785Y-51982215D01*
X56223094Y-51902863D01*
X56112780Y-51843898D01*
X55993082Y-51807588D01*
X55868600Y-51795328D01*
X55500350Y-51798400D01*
X55341600Y-51957150D01*
X55087600Y-51957150D01*
X54928850Y-51798400D01*
X54560600Y-51795328D01*
X54514600Y-51799858D01*
X54468600Y-51795328D01*
X54100350Y-51798400D01*
X53941600Y-51957150D01*
X53941600Y-52286462D01*
X53934788Y-52308918D01*
X53922528Y-52433400D01*
X53687600Y-52433400D01*
X53687600Y-51957150D01*
X53528850Y-51798400D01*
X53160600Y-51795328D01*
X53036118Y-51807588D01*
X52916420Y-51843898D01*
X52806106Y-51902863D01*
X52709415Y-51982215D01*
X52630063Y-52078906D01*
X52571098Y-52189220D01*
X52534788Y-52308918D01*
X52522528Y-52433400D01*
X50084111Y-52433400D01*
X50008785Y-52341615D01*
X49912094Y-52262263D01*
X49801780Y-52203298D01*
X49682082Y-52166988D01*
X49557600Y-52154728D01*
X49343350Y-52157800D01*
X49184600Y-52316550D01*
X48930600Y-52316550D01*
X48771850Y-52157800D01*
X48557600Y-52154728D01*
X48433118Y-52166988D01*
X48313420Y-52203298D01*
X48203106Y-52262263D01*
X48106415Y-52341615D01*
X48040942Y-52421394D01*
X48035562Y-52414838D01*
X47900986Y-52304395D01*
X47747450Y-52222328D01*
X47580854Y-52171792D01*
X47407600Y-52154728D01*
X46907600Y-52154728D01*
X46734346Y-52171792D01*
X46567750Y-52222328D01*
X46550200Y-52231709D01*
X46550200Y-52227351D01*
X46555691Y-52171600D01*
X46545685Y-52070001D01*
X46533777Y-51949101D01*
X46472125Y-51745864D01*
X46525000Y-51751072D01*
X47625000Y-51751072D01*
X47749482Y-51738812D01*
X47869180Y-51702502D01*
X47979494Y-51643537D01*
X48075000Y-51565158D01*
X48170506Y-51643537D01*
X48280820Y-51702502D01*
X48400518Y-51738812D01*
X48525000Y-51751072D01*
X49625000Y-51751072D01*
X49749482Y-51738812D01*
X49869180Y-51702502D01*
X49979494Y-51643537D01*
X50075000Y-51565158D01*
X50170506Y-51643537D01*
X50280820Y-51702502D01*
X50400518Y-51738812D01*
X50525000Y-51751072D01*
X51625000Y-51751072D01*
X51749482Y-51738812D01*
X51869180Y-51702502D01*
X51979494Y-51643537D01*
X52075000Y-51565158D01*
X52170506Y-51643537D01*
X52280820Y-51702502D01*
X52400518Y-51738812D01*
X52525000Y-51751072D01*
X53625000Y-51751072D01*
X53749482Y-51738812D01*
X53869180Y-51702502D01*
X53979494Y-51643537D01*
X54075000Y-51565158D01*
X54170506Y-51643537D01*
X54280820Y-51702502D01*
X54400518Y-51738812D01*
X54525000Y-51751072D01*
X55625000Y-51751072D01*
X55749482Y-51738812D01*
X55869180Y-51702502D01*
X55979494Y-51643537D01*
X56075000Y-51565158D01*
X56170506Y-51643537D01*
X56280820Y-51702502D01*
X56400518Y-51738812D01*
X56525000Y-51751072D01*
X57625000Y-51751072D01*
X57749482Y-51738812D01*
X57869180Y-51702502D01*
X57979494Y-51643537D01*
X58076185Y-51564185D01*
X58155537Y-51467494D01*
X58214502Y-51357180D01*
X58250812Y-51237482D01*
X58263072Y-51113000D01*
X58263072Y-48613000D01*
X58250812Y-48488518D01*
X58214502Y-48368820D01*
X58155537Y-48258506D01*
X58076185Y-48161815D01*
X57979494Y-48082463D01*
X57869180Y-48023498D01*
X57749482Y-47987188D01*
X57625000Y-47974928D01*
X56525000Y-47974928D01*
X56400518Y-47987188D01*
X56280820Y-48023498D01*
X56170506Y-48082463D01*
X56075000Y-48160842D01*
X55979494Y-48082463D01*
X55869180Y-48023498D01*
X55749482Y-47987188D01*
X55625000Y-47974928D01*
X54525000Y-47974928D01*
X54400518Y-47987188D01*
X54280820Y-48023498D01*
X54170506Y-48082463D01*
X54075000Y-48160842D01*
X53979494Y-48082463D01*
X53869180Y-48023498D01*
X53749482Y-47987188D01*
X53625000Y-47974928D01*
X52525000Y-47974928D01*
X52400518Y-47987188D01*
X52280820Y-48023498D01*
X52170506Y-48082463D01*
X52075000Y-48160842D01*
X51979494Y-48082463D01*
X51869180Y-48023498D01*
X51749482Y-47987188D01*
X51625000Y-47974928D01*
X50525000Y-47974928D01*
X50400518Y-47987188D01*
X50280820Y-48023498D01*
X50170506Y-48082463D01*
X50075000Y-48160842D01*
X49979494Y-48082463D01*
X49869180Y-48023498D01*
X49749482Y-47987188D01*
X49625000Y-47974928D01*
X48525000Y-47974928D01*
X48400518Y-47987188D01*
X48280820Y-48023498D01*
X48170506Y-48082463D01*
X48075000Y-48160842D01*
X47979494Y-48082463D01*
X47869180Y-48023498D01*
X47749482Y-47987188D01*
X47625000Y-47974928D01*
X46525000Y-47974928D01*
X46400518Y-47987188D01*
X46280820Y-48023498D01*
X46273072Y-48027639D01*
X46273072Y-47613000D01*
X46260812Y-47488518D01*
X46224502Y-47368820D01*
X46165537Y-47258506D01*
X46087158Y-47163000D01*
X46165537Y-47067494D01*
X46175957Y-47048000D01*
X46831958Y-47048000D01*
X47014608Y-47170043D01*
X47239364Y-47263140D01*
X47477963Y-47310600D01*
X47721237Y-47310600D01*
X47959836Y-47263140D01*
X48184592Y-47170043D01*
X48386867Y-47034887D01*
X48558887Y-46862867D01*
X48694043Y-46660592D01*
X48787140Y-46435836D01*
X48834600Y-46197237D01*
X48834600Y-45953963D01*
X48787140Y-45715364D01*
X48694043Y-45490608D01*
X48558887Y-45288333D01*
X48386867Y-45116313D01*
X48184592Y-44981157D01*
X47959836Y-44888060D01*
X47721237Y-44840600D01*
X47477963Y-44840600D01*
X47239364Y-44888060D01*
X47014608Y-44981157D01*
X46812333Y-45116313D01*
X46650646Y-45278000D01*
X46175957Y-45278000D01*
X46165537Y-45258506D01*
X46087158Y-45163000D01*
X46165537Y-45067494D01*
X46191081Y-45019705D01*
X46306841Y-44984589D01*
X46460587Y-44902411D01*
X46595345Y-44791817D01*
X46623062Y-44758044D01*
X48855050Y-42526057D01*
X48888817Y-42498345D01*
X48928699Y-42449750D01*
X48999410Y-42363588D01*
X48999411Y-42363587D01*
X49081589Y-42209841D01*
X49132195Y-42043018D01*
X49145000Y-41913005D01*
X49145000Y-41912995D01*
X49148326Y-41879228D01*
X49219287Y-41808267D01*
X49354443Y-41605992D01*
X49447540Y-41381236D01*
X49495000Y-41142637D01*
X49495000Y-40899363D01*
X49447540Y-40660764D01*
X49404144Y-40555998D01*
X52360533Y-40555998D01*
X52404002Y-40560279D01*
X52447471Y-40555998D01*
X52447479Y-40555998D01*
X52577492Y-40543193D01*
X52744315Y-40492587D01*
X52898061Y-40410409D01*
X53032819Y-40299815D01*
X53060536Y-40266042D01*
X57618049Y-35708530D01*
X57651817Y-35680817D01*
X57680134Y-35646314D01*
X57762411Y-35546059D01*
X57844589Y-35392314D01*
X57895195Y-35225490D01*
X57899658Y-35180175D01*
X57908000Y-35095477D01*
X57908000Y-35095469D01*
X57912281Y-35052000D01*
X57908000Y-35008531D01*
X57908000Y-34825420D01*
X57909188Y-34837482D01*
G37*
G04 #@! TD.AperFunction*
D29*
X70403928Y-41164000D02*
X70407000Y-41878250D01*
X70565750Y-42037000D01*
X71315000Y-42037000D01*
X71315000Y-42017000D01*
X71569000Y-42017000D01*
X71569000Y-42037000D01*
X72318250Y-42037000D01*
X72477000Y-41878250D01*
X72479834Y-41219412D01*
X73029000Y-41768579D01*
X73029001Y-43009521D01*
X73024719Y-43053000D01*
X73041805Y-43226490D01*
X73092412Y-43393313D01*
X73174590Y-43547059D01*
X73257468Y-43648046D01*
X73257471Y-43648049D01*
X73285184Y-43681817D01*
X73318951Y-43709529D01*
X75364421Y-45755000D01*
X75189363Y-45755000D01*
X74950764Y-45802460D01*
X74726008Y-45895557D01*
X74537052Y-46021813D01*
X74446962Y-45912038D01*
X74312387Y-45801595D01*
X74158852Y-45719528D01*
X73992256Y-45668992D01*
X73819002Y-45651928D01*
X73293998Y-45651928D01*
X73120744Y-45668992D01*
X72954148Y-45719528D01*
X72800613Y-45801595D01*
X72719363Y-45868276D01*
X72695185Y-45838815D01*
X72598494Y-45759463D01*
X72488180Y-45700498D01*
X72368482Y-45664188D01*
X72244000Y-45651928D01*
X72017250Y-45655000D01*
X71858500Y-45813750D01*
X71858500Y-46863000D01*
X71878500Y-46863000D01*
X71878500Y-47117000D01*
X71858500Y-47117000D01*
X71858500Y-48166250D01*
X72015750Y-48323500D01*
X71858500Y-48480750D01*
X71858500Y-49530000D01*
X71878500Y-49530000D01*
X71878500Y-49784000D01*
X71858500Y-49784000D01*
X71858500Y-50833250D01*
X72017250Y-50992000D01*
X72244000Y-50995072D01*
X72368482Y-50982812D01*
X72488180Y-50946502D01*
X72598494Y-50887537D01*
X72695185Y-50808185D01*
X72719363Y-50778724D01*
X72800613Y-50845405D01*
X72954148Y-50927472D01*
X73120744Y-50978008D01*
X73293998Y-50995072D01*
X73819002Y-50995072D01*
X73992256Y-50978008D01*
X74158852Y-50927472D01*
X74312387Y-50845405D01*
X74446962Y-50734962D01*
X74557405Y-50600387D01*
X74588614Y-50542000D01*
X75267531Y-50542000D01*
X75311000Y-50546281D01*
X75354469Y-50542000D01*
X75354477Y-50542000D01*
X75484490Y-50529195D01*
X75651313Y-50478589D01*
X75805059Y-50396411D01*
X75939817Y-50285817D01*
X75967534Y-50252044D01*
X76329547Y-49890031D01*
X77683698Y-49890031D01*
X77701412Y-49982502D01*
X77817429Y-50255437D01*
X77984464Y-50500494D01*
X78196097Y-50708256D01*
X78444196Y-50870738D01*
X78719227Y-50981696D01*
X79010620Y-51036866D01*
X79248000Y-50880586D01*
X79248000Y-49657000D01*
X77804754Y-49657000D01*
X77683698Y-49890031D01*
X76329547Y-49890031D01*
X77684050Y-48535529D01*
X77717817Y-48507817D01*
X77773740Y-48439676D01*
X77828411Y-48373059D01*
X77859010Y-48315812D01*
X77910589Y-48219313D01*
X77961195Y-48052490D01*
X77972857Y-47934085D01*
X78075655Y-48059345D01*
X78304821Y-48247417D01*
X78332669Y-48262302D01*
X78196097Y-48351744D01*
X77984464Y-48559506D01*
X77817429Y-48804563D01*
X77701412Y-49077498D01*
X77683698Y-49169969D01*
X77804754Y-49403000D01*
X79248000Y-49403000D01*
X79248000Y-49383000D01*
X79502000Y-49383000D01*
X79502000Y-49403000D01*
X79522000Y-49403000D01*
X79522000Y-49657000D01*
X79502000Y-49657000D01*
X79502000Y-50880586D01*
X79739380Y-51036866D01*
X80030773Y-50981696D01*
X80305804Y-50870738D01*
X80553903Y-50708256D01*
X80765536Y-50500494D01*
X80788000Y-50467537D01*
X80788000Y-51392761D01*
X80475762Y-51705000D01*
X78959959Y-51705000D01*
X78880356Y-51651811D01*
X78533668Y-51508209D01*
X78165626Y-51435000D01*
X77790374Y-51435000D01*
X77422332Y-51508209D01*
X77075644Y-51651811D01*
X76763634Y-51860290D01*
X76498290Y-52125634D01*
X76289811Y-52437644D01*
X76146209Y-52784332D01*
X76127531Y-52878230D01*
X73998762Y-55007000D01*
X69973000Y-55007000D01*
X69973000Y-50784790D01*
X70066505Y-50722312D01*
X70280312Y-50508505D01*
X70448299Y-50257095D01*
X70564011Y-49977743D01*
X70602548Y-49784002D01*
X70742748Y-49784002D01*
X70584000Y-49942750D01*
X70580928Y-50357000D01*
X70593188Y-50481482D01*
X70629498Y-50601180D01*
X70688463Y-50711494D01*
X70767815Y-50808185D01*
X70864506Y-50887537D01*
X70974820Y-50946502D01*
X71094518Y-50982812D01*
X71219000Y-50995072D01*
X71445750Y-50992000D01*
X71604500Y-50833250D01*
X71604500Y-49784000D01*
X71584500Y-49784000D01*
X71584500Y-49530000D01*
X71604500Y-49530000D01*
X71604500Y-48480750D01*
X71447250Y-48323500D01*
X71604500Y-48166250D01*
X71604500Y-47117000D01*
X71584500Y-47117000D01*
X71584500Y-46863000D01*
X71604500Y-46863000D01*
X71604500Y-45813750D01*
X71445750Y-45655000D01*
X71219000Y-45651928D01*
X71094518Y-45664188D01*
X70974820Y-45700498D01*
X70864506Y-45759463D01*
X70767815Y-45838815D01*
X70688463Y-45935506D01*
X70629498Y-46045820D01*
X70623627Y-46065174D01*
X70613812Y-45965518D01*
X70577502Y-45845820D01*
X70518537Y-45735506D01*
X70439185Y-45638815D01*
X70342494Y-45559463D01*
X70232180Y-45500498D01*
X70112482Y-45464188D01*
X69988000Y-45451928D01*
X68188000Y-45451928D01*
X68063518Y-45464188D01*
X67943820Y-45500498D01*
X67833506Y-45559463D01*
X67736815Y-45638815D01*
X67657463Y-45735506D01*
X67598498Y-45845820D01*
X67562188Y-45965518D01*
X67549928Y-46090000D01*
X67549928Y-46105000D01*
X67476614Y-46105000D01*
X67445405Y-46046613D01*
X67334962Y-45912038D01*
X67200387Y-45801595D01*
X67046852Y-45719528D01*
X66880256Y-45668992D01*
X66707002Y-45651928D01*
X66181998Y-45651928D01*
X66008744Y-45668992D01*
X65842148Y-45719528D01*
X65688613Y-45801595D01*
X65554038Y-45912038D01*
X65532000Y-45938891D01*
X65509962Y-45912038D01*
X65375387Y-45801595D01*
X65221852Y-45719528D01*
X65055256Y-45668992D01*
X64882002Y-45651928D01*
X64356998Y-45651928D01*
X64183744Y-45668992D01*
X64171028Y-45672849D01*
X62066132Y-43567954D01*
X62038417Y-43534183D01*
X61903659Y-43423589D01*
X61749913Y-43341411D01*
X61583090Y-43290805D01*
X61582785Y-43290775D01*
X61565537Y-43258506D01*
X61487158Y-43163000D01*
X61565537Y-43067494D01*
X61575957Y-43048000D01*
X66212201Y-43048000D01*
X66220031Y-43127500D01*
X66267722Y-43284716D01*
X66345169Y-43429608D01*
X66449394Y-43556606D01*
X66576392Y-43660831D01*
X66721284Y-43738278D01*
X66878500Y-43785969D01*
X67042000Y-43802072D01*
X67442000Y-43802072D01*
X67605500Y-43785969D01*
X67762716Y-43738278D01*
X67907608Y-43660831D01*
X68034606Y-43556606D01*
X68138831Y-43429608D01*
X68216278Y-43284716D01*
X68252896Y-43164000D01*
X70403928Y-43164000D01*
X70416188Y-43288482D01*
X70452498Y-43408180D01*
X70511463Y-43518494D01*
X70590815Y-43615185D01*
X70687506Y-43694537D01*
X70797820Y-43753502D01*
X70917518Y-43789812D01*
X71042000Y-43802072D01*
X71156250Y-43799000D01*
X71315000Y-43640250D01*
X71315000Y-42291000D01*
X71569000Y-42291000D01*
X71569000Y-43640250D01*
X71727750Y-43799000D01*
X71842000Y-43802072D01*
X71966482Y-43789812D01*
X72086180Y-43753502D01*
X72196494Y-43694537D01*
X72293185Y-43615185D01*
X72372537Y-43518494D01*
X72431502Y-43408180D01*
X72467812Y-43288482D01*
X72480072Y-43164000D01*
X72477000Y-42449750D01*
X72318250Y-42291000D01*
X71569000Y-42291000D01*
X71315000Y-42291000D01*
X70565750Y-42291000D01*
X70407000Y-42449750D01*
X70403928Y-43164000D01*
X68252896Y-43164000D01*
X68263969Y-43127500D01*
X68280072Y-42964000D01*
X68280072Y-41364000D01*
X68263969Y-41200500D01*
X68217709Y-41048000D01*
X70415353Y-41048000D01*
X70403928Y-41164000D01*
G04 #@! TA.AperFunction,Conductor*
D30*
G36*
X70403928Y-41164000D02*
G01*
X70407000Y-41878250D01*
X70565750Y-42037000D01*
X71315000Y-42037000D01*
X71315000Y-42017000D01*
X71569000Y-42017000D01*
X71569000Y-42037000D01*
X72318250Y-42037000D01*
X72477000Y-41878250D01*
X72479834Y-41219412D01*
X73029000Y-41768579D01*
X73029001Y-43009521D01*
X73024719Y-43053000D01*
X73041805Y-43226490D01*
X73092412Y-43393313D01*
X73174590Y-43547059D01*
X73257468Y-43648046D01*
X73257471Y-43648049D01*
X73285184Y-43681817D01*
X73318951Y-43709529D01*
X75364421Y-45755000D01*
X75189363Y-45755000D01*
X74950764Y-45802460D01*
X74726008Y-45895557D01*
X74537052Y-46021813D01*
X74446962Y-45912038D01*
X74312387Y-45801595D01*
X74158852Y-45719528D01*
X73992256Y-45668992D01*
X73819002Y-45651928D01*
X73293998Y-45651928D01*
X73120744Y-45668992D01*
X72954148Y-45719528D01*
X72800613Y-45801595D01*
X72719363Y-45868276D01*
X72695185Y-45838815D01*
X72598494Y-45759463D01*
X72488180Y-45700498D01*
X72368482Y-45664188D01*
X72244000Y-45651928D01*
X72017250Y-45655000D01*
X71858500Y-45813750D01*
X71858500Y-46863000D01*
X71878500Y-46863000D01*
X71878500Y-47117000D01*
X71858500Y-47117000D01*
X71858500Y-48166250D01*
X72015750Y-48323500D01*
X71858500Y-48480750D01*
X71858500Y-49530000D01*
X71878500Y-49530000D01*
X71878500Y-49784000D01*
X71858500Y-49784000D01*
X71858500Y-50833250D01*
X72017250Y-50992000D01*
X72244000Y-50995072D01*
X72368482Y-50982812D01*
X72488180Y-50946502D01*
X72598494Y-50887537D01*
X72695185Y-50808185D01*
X72719363Y-50778724D01*
X72800613Y-50845405D01*
X72954148Y-50927472D01*
X73120744Y-50978008D01*
X73293998Y-50995072D01*
X73819002Y-50995072D01*
X73992256Y-50978008D01*
X74158852Y-50927472D01*
X74312387Y-50845405D01*
X74446962Y-50734962D01*
X74557405Y-50600387D01*
X74588614Y-50542000D01*
X75267531Y-50542000D01*
X75311000Y-50546281D01*
X75354469Y-50542000D01*
X75354477Y-50542000D01*
X75484490Y-50529195D01*
X75651313Y-50478589D01*
X75805059Y-50396411D01*
X75939817Y-50285817D01*
X75967534Y-50252044D01*
X76329547Y-49890031D01*
X77683698Y-49890031D01*
X77701412Y-49982502D01*
X77817429Y-50255437D01*
X77984464Y-50500494D01*
X78196097Y-50708256D01*
X78444196Y-50870738D01*
X78719227Y-50981696D01*
X79010620Y-51036866D01*
X79248000Y-50880586D01*
X79248000Y-49657000D01*
X77804754Y-49657000D01*
X77683698Y-49890031D01*
X76329547Y-49890031D01*
X77684050Y-48535529D01*
X77717817Y-48507817D01*
X77773740Y-48439676D01*
X77828411Y-48373059D01*
X77859010Y-48315812D01*
X77910589Y-48219313D01*
X77961195Y-48052490D01*
X77972857Y-47934085D01*
X78075655Y-48059345D01*
X78304821Y-48247417D01*
X78332669Y-48262302D01*
X78196097Y-48351744D01*
X77984464Y-48559506D01*
X77817429Y-48804563D01*
X77701412Y-49077498D01*
X77683698Y-49169969D01*
X77804754Y-49403000D01*
X79248000Y-49403000D01*
X79248000Y-49383000D01*
X79502000Y-49383000D01*
X79502000Y-49403000D01*
X79522000Y-49403000D01*
X79522000Y-49657000D01*
X79502000Y-49657000D01*
X79502000Y-50880586D01*
X79739380Y-51036866D01*
X80030773Y-50981696D01*
X80305804Y-50870738D01*
X80553903Y-50708256D01*
X80765536Y-50500494D01*
X80788000Y-50467537D01*
X80788000Y-51392761D01*
X80475762Y-51705000D01*
X78959959Y-51705000D01*
X78880356Y-51651811D01*
X78533668Y-51508209D01*
X78165626Y-51435000D01*
X77790374Y-51435000D01*
X77422332Y-51508209D01*
X77075644Y-51651811D01*
X76763634Y-51860290D01*
X76498290Y-52125634D01*
X76289811Y-52437644D01*
X76146209Y-52784332D01*
X76127531Y-52878230D01*
X73998762Y-55007000D01*
X69973000Y-55007000D01*
X69973000Y-50784790D01*
X70066505Y-50722312D01*
X70280312Y-50508505D01*
X70448299Y-50257095D01*
X70564011Y-49977743D01*
X70602548Y-49784002D01*
X70742748Y-49784002D01*
X70584000Y-49942750D01*
X70580928Y-50357000D01*
X70593188Y-50481482D01*
X70629498Y-50601180D01*
X70688463Y-50711494D01*
X70767815Y-50808185D01*
X70864506Y-50887537D01*
X70974820Y-50946502D01*
X71094518Y-50982812D01*
X71219000Y-50995072D01*
X71445750Y-50992000D01*
X71604500Y-50833250D01*
X71604500Y-49784000D01*
X71584500Y-49784000D01*
X71584500Y-49530000D01*
X71604500Y-49530000D01*
X71604500Y-48480750D01*
X71447250Y-48323500D01*
X71604500Y-48166250D01*
X71604500Y-47117000D01*
X71584500Y-47117000D01*
X71584500Y-46863000D01*
X71604500Y-46863000D01*
X71604500Y-45813750D01*
X71445750Y-45655000D01*
X71219000Y-45651928D01*
X71094518Y-45664188D01*
X70974820Y-45700498D01*
X70864506Y-45759463D01*
X70767815Y-45838815D01*
X70688463Y-45935506D01*
X70629498Y-46045820D01*
X70623627Y-46065174D01*
X70613812Y-45965518D01*
X70577502Y-45845820D01*
X70518537Y-45735506D01*
X70439185Y-45638815D01*
X70342494Y-45559463D01*
X70232180Y-45500498D01*
X70112482Y-45464188D01*
X69988000Y-45451928D01*
X68188000Y-45451928D01*
X68063518Y-45464188D01*
X67943820Y-45500498D01*
X67833506Y-45559463D01*
X67736815Y-45638815D01*
X67657463Y-45735506D01*
X67598498Y-45845820D01*
X67562188Y-45965518D01*
X67549928Y-46090000D01*
X67549928Y-46105000D01*
X67476614Y-46105000D01*
X67445405Y-46046613D01*
X67334962Y-45912038D01*
X67200387Y-45801595D01*
X67046852Y-45719528D01*
X66880256Y-45668992D01*
X66707002Y-45651928D01*
X66181998Y-45651928D01*
X66008744Y-45668992D01*
X65842148Y-45719528D01*
X65688613Y-45801595D01*
X65554038Y-45912038D01*
X65532000Y-45938891D01*
X65509962Y-45912038D01*
X65375387Y-45801595D01*
X65221852Y-45719528D01*
X65055256Y-45668992D01*
X64882002Y-45651928D01*
X64356998Y-45651928D01*
X64183744Y-45668992D01*
X64171028Y-45672849D01*
X62066132Y-43567954D01*
X62038417Y-43534183D01*
X61903659Y-43423589D01*
X61749913Y-43341411D01*
X61583090Y-43290805D01*
X61582785Y-43290775D01*
X61565537Y-43258506D01*
X61487158Y-43163000D01*
X61565537Y-43067494D01*
X61575957Y-43048000D01*
X66212201Y-43048000D01*
X66220031Y-43127500D01*
X66267722Y-43284716D01*
X66345169Y-43429608D01*
X66449394Y-43556606D01*
X66576392Y-43660831D01*
X66721284Y-43738278D01*
X66878500Y-43785969D01*
X67042000Y-43802072D01*
X67442000Y-43802072D01*
X67605500Y-43785969D01*
X67762716Y-43738278D01*
X67907608Y-43660831D01*
X68034606Y-43556606D01*
X68138831Y-43429608D01*
X68216278Y-43284716D01*
X68252896Y-43164000D01*
X70403928Y-43164000D01*
X70416188Y-43288482D01*
X70452498Y-43408180D01*
X70511463Y-43518494D01*
X70590815Y-43615185D01*
X70687506Y-43694537D01*
X70797820Y-43753502D01*
X70917518Y-43789812D01*
X71042000Y-43802072D01*
X71156250Y-43799000D01*
X71315000Y-43640250D01*
X71315000Y-42291000D01*
X71569000Y-42291000D01*
X71569000Y-43640250D01*
X71727750Y-43799000D01*
X71842000Y-43802072D01*
X71966482Y-43789812D01*
X72086180Y-43753502D01*
X72196494Y-43694537D01*
X72293185Y-43615185D01*
X72372537Y-43518494D01*
X72431502Y-43408180D01*
X72467812Y-43288482D01*
X72480072Y-43164000D01*
X72477000Y-42449750D01*
X72318250Y-42291000D01*
X71569000Y-42291000D01*
X71315000Y-42291000D01*
X70565750Y-42291000D01*
X70407000Y-42449750D01*
X70403928Y-43164000D01*
X68252896Y-43164000D01*
X68263969Y-43127500D01*
X68280072Y-42964000D01*
X68280072Y-41364000D01*
X68263969Y-41200500D01*
X68217709Y-41048000D01*
X70415353Y-41048000D01*
X70403928Y-41164000D01*
G37*
G04 #@! TD.AperFunction*
D29*
X37741038Y-35069732D02*
X37875613Y-35180175D01*
X38029148Y-35262242D01*
X38195744Y-35312778D01*
X38368998Y-35329842D01*
X38894002Y-35329842D01*
X39067256Y-35312778D01*
X39233852Y-35262242D01*
X39257741Y-35249473D01*
X40934409Y-36926141D01*
X40969951Y-36969449D01*
X41142777Y-37111284D01*
X41310264Y-37200807D01*
X41339953Y-37216676D01*
X41542109Y-37278000D01*
X41069579Y-37278000D01*
X40361989Y-36570411D01*
X40334272Y-36536638D01*
X40199514Y-36426044D01*
X40045768Y-36343866D01*
X39878945Y-36293260D01*
X39748932Y-36280455D01*
X39748924Y-36280455D01*
X39705455Y-36276174D01*
X39663532Y-36280303D01*
X39632405Y-36222068D01*
X39521962Y-36087493D01*
X39387387Y-35977050D01*
X39233852Y-35894983D01*
X39067256Y-35844447D01*
X38894002Y-35827383D01*
X38368998Y-35827383D01*
X38195744Y-35844447D01*
X38029148Y-35894983D01*
X37875613Y-35977050D01*
X37741038Y-36087493D01*
X37719000Y-36114346D01*
X37696962Y-36087493D01*
X37562387Y-35977050D01*
X37408852Y-35894983D01*
X37242256Y-35844447D01*
X37069002Y-35827383D01*
X36543998Y-35827383D01*
X36370744Y-35844447D01*
X36204148Y-35894983D01*
X36050613Y-35977050D01*
X35916038Y-36087493D01*
X35805595Y-36222068D01*
X35774386Y-36280455D01*
X35750614Y-36280455D01*
X35707145Y-36276174D01*
X35663676Y-36280455D01*
X35663668Y-36280455D01*
X35533655Y-36293260D01*
X35366832Y-36343866D01*
X35213086Y-36426044D01*
X35078328Y-36536638D01*
X35050611Y-36570411D01*
X34685552Y-36935470D01*
X34651784Y-36963183D01*
X34624071Y-36996951D01*
X34624068Y-36996954D01*
X34541190Y-37097941D01*
X34459012Y-37251687D01*
X34408405Y-37418510D01*
X34391319Y-37592000D01*
X34395601Y-37635479D01*
X34395600Y-40317131D01*
X34391319Y-40360600D01*
X34395600Y-40404069D01*
X34395600Y-40404076D01*
X34395601Y-40404086D01*
X34395600Y-43542931D01*
X34391319Y-43586400D01*
X34395600Y-43629869D01*
X34395600Y-43629876D01*
X34395601Y-43629886D01*
X34395600Y-46641731D01*
X34391319Y-46685200D01*
X34395600Y-46728669D01*
X34395600Y-46728676D01*
X34395601Y-46728686D01*
X34395600Y-49366621D01*
X34028952Y-49733270D01*
X33995185Y-49760982D01*
X33967472Y-49794750D01*
X33967469Y-49794753D01*
X33884591Y-49895740D01*
X33802413Y-50049486D01*
X33751806Y-50216309D01*
X33734720Y-50389799D01*
X33739002Y-50433278D01*
X33739001Y-54550999D01*
X25731510Y-54550999D01*
X25801773Y-54537696D01*
X26076804Y-54426738D01*
X26324903Y-54264256D01*
X26536536Y-54056494D01*
X26703571Y-53811437D01*
X26819588Y-53538502D01*
X26837302Y-53446031D01*
X26716246Y-53213000D01*
X25273000Y-53213000D01*
X25273000Y-53233000D01*
X25019000Y-53233000D01*
X25019000Y-53213000D01*
X23575754Y-53213000D01*
X23454698Y-53446031D01*
X23472412Y-53538502D01*
X23571242Y-53771003D01*
X23225000Y-53424762D01*
X23225000Y-50207238D01*
X23580691Y-49851547D01*
X23518834Y-49967275D01*
X23432776Y-50250968D01*
X23403718Y-50546000D01*
X23432776Y-50841032D01*
X23518834Y-51124725D01*
X23658583Y-51386179D01*
X23846655Y-51615345D01*
X24075821Y-51803417D01*
X24103669Y-51818302D01*
X23967097Y-51907744D01*
X23755464Y-52115506D01*
X23588429Y-52360563D01*
X23472412Y-52633498D01*
X23454698Y-52725969D01*
X23575754Y-52959000D01*
X25019000Y-52959000D01*
X25019000Y-52939000D01*
X25273000Y-52939000D01*
X25273000Y-52959000D01*
X26716246Y-52959000D01*
X26837302Y-52725969D01*
X26819588Y-52633498D01*
X26703571Y-52360563D01*
X26536536Y-52115506D01*
X26324903Y-51907744D01*
X26188331Y-51818302D01*
X26216179Y-51803417D01*
X26365344Y-51681000D01*
X27122249Y-51681000D01*
X27178000Y-51686491D01*
X27233751Y-51681000D01*
X27233752Y-51681000D01*
X27400499Y-51664577D01*
X27614447Y-51599676D01*
X27811623Y-51494284D01*
X27984449Y-51352449D01*
X28019995Y-51309136D01*
X29719146Y-49609987D01*
X29762449Y-49574449D01*
X29798928Y-49530000D01*
X29904284Y-49401623D01*
X30009676Y-49204447D01*
X30074577Y-48990499D01*
X30096491Y-48768000D01*
X30091000Y-48712248D01*
X30091000Y-35522132D01*
X30486362Y-35126770D01*
X35985539Y-35126770D01*
X36050613Y-35180175D01*
X36204148Y-35262242D01*
X36370744Y-35312778D01*
X36543998Y-35329842D01*
X37069002Y-35329842D01*
X37242256Y-35312778D01*
X37408852Y-35262242D01*
X37562387Y-35180175D01*
X37696962Y-35069732D01*
X37719000Y-35042879D01*
X37741038Y-35069732D01*
G04 #@! TA.AperFunction,Conductor*
D30*
G36*
X37741038Y-35069732D02*
G01*
X37875613Y-35180175D01*
X38029148Y-35262242D01*
X38195744Y-35312778D01*
X38368998Y-35329842D01*
X38894002Y-35329842D01*
X39067256Y-35312778D01*
X39233852Y-35262242D01*
X39257741Y-35249473D01*
X40934409Y-36926141D01*
X40969951Y-36969449D01*
X41142777Y-37111284D01*
X41310264Y-37200807D01*
X41339953Y-37216676D01*
X41542109Y-37278000D01*
X41069579Y-37278000D01*
X40361989Y-36570411D01*
X40334272Y-36536638D01*
X40199514Y-36426044D01*
X40045768Y-36343866D01*
X39878945Y-36293260D01*
X39748932Y-36280455D01*
X39748924Y-36280455D01*
X39705455Y-36276174D01*
X39663532Y-36280303D01*
X39632405Y-36222068D01*
X39521962Y-36087493D01*
X39387387Y-35977050D01*
X39233852Y-35894983D01*
X39067256Y-35844447D01*
X38894002Y-35827383D01*
X38368998Y-35827383D01*
X38195744Y-35844447D01*
X38029148Y-35894983D01*
X37875613Y-35977050D01*
X37741038Y-36087493D01*
X37719000Y-36114346D01*
X37696962Y-36087493D01*
X37562387Y-35977050D01*
X37408852Y-35894983D01*
X37242256Y-35844447D01*
X37069002Y-35827383D01*
X36543998Y-35827383D01*
X36370744Y-35844447D01*
X36204148Y-35894983D01*
X36050613Y-35977050D01*
X35916038Y-36087493D01*
X35805595Y-36222068D01*
X35774386Y-36280455D01*
X35750614Y-36280455D01*
X35707145Y-36276174D01*
X35663676Y-36280455D01*
X35663668Y-36280455D01*
X35533655Y-36293260D01*
X35366832Y-36343866D01*
X35213086Y-36426044D01*
X35078328Y-36536638D01*
X35050611Y-36570411D01*
X34685552Y-36935470D01*
X34651784Y-36963183D01*
X34624071Y-36996951D01*
X34624068Y-36996954D01*
X34541190Y-37097941D01*
X34459012Y-37251687D01*
X34408405Y-37418510D01*
X34391319Y-37592000D01*
X34395601Y-37635479D01*
X34395600Y-40317131D01*
X34391319Y-40360600D01*
X34395600Y-40404069D01*
X34395600Y-40404076D01*
X34395601Y-40404086D01*
X34395600Y-43542931D01*
X34391319Y-43586400D01*
X34395600Y-43629869D01*
X34395600Y-43629876D01*
X34395601Y-43629886D01*
X34395600Y-46641731D01*
X34391319Y-46685200D01*
X34395600Y-46728669D01*
X34395600Y-46728676D01*
X34395601Y-46728686D01*
X34395600Y-49366621D01*
X34028952Y-49733270D01*
X33995185Y-49760982D01*
X33967472Y-49794750D01*
X33967469Y-49794753D01*
X33884591Y-49895740D01*
X33802413Y-50049486D01*
X33751806Y-50216309D01*
X33734720Y-50389799D01*
X33739002Y-50433278D01*
X33739001Y-54550999D01*
X25731510Y-54550999D01*
X25801773Y-54537696D01*
X26076804Y-54426738D01*
X26324903Y-54264256D01*
X26536536Y-54056494D01*
X26703571Y-53811437D01*
X26819588Y-53538502D01*
X26837302Y-53446031D01*
X26716246Y-53213000D01*
X25273000Y-53213000D01*
X25273000Y-53233000D01*
X25019000Y-53233000D01*
X25019000Y-53213000D01*
X23575754Y-53213000D01*
X23454698Y-53446031D01*
X23472412Y-53538502D01*
X23571242Y-53771003D01*
X23225000Y-53424762D01*
X23225000Y-50207238D01*
X23580691Y-49851547D01*
X23518834Y-49967275D01*
X23432776Y-50250968D01*
X23403718Y-50546000D01*
X23432776Y-50841032D01*
X23518834Y-51124725D01*
X23658583Y-51386179D01*
X23846655Y-51615345D01*
X24075821Y-51803417D01*
X24103669Y-51818302D01*
X23967097Y-51907744D01*
X23755464Y-52115506D01*
X23588429Y-52360563D01*
X23472412Y-52633498D01*
X23454698Y-52725969D01*
X23575754Y-52959000D01*
X25019000Y-52959000D01*
X25019000Y-52939000D01*
X25273000Y-52939000D01*
X25273000Y-52959000D01*
X26716246Y-52959000D01*
X26837302Y-52725969D01*
X26819588Y-52633498D01*
X26703571Y-52360563D01*
X26536536Y-52115506D01*
X26324903Y-51907744D01*
X26188331Y-51818302D01*
X26216179Y-51803417D01*
X26365344Y-51681000D01*
X27122249Y-51681000D01*
X27178000Y-51686491D01*
X27233751Y-51681000D01*
X27233752Y-51681000D01*
X27400499Y-51664577D01*
X27614447Y-51599676D01*
X27811623Y-51494284D01*
X27984449Y-51352449D01*
X28019995Y-51309136D01*
X29719146Y-49609987D01*
X29762449Y-49574449D01*
X29798928Y-49530000D01*
X29904284Y-49401623D01*
X30009676Y-49204447D01*
X30074577Y-48990499D01*
X30096491Y-48768000D01*
X30091000Y-48712248D01*
X30091000Y-35522132D01*
X30486362Y-35126770D01*
X35985539Y-35126770D01*
X36050613Y-35180175D01*
X36204148Y-35262242D01*
X36370744Y-35312778D01*
X36543998Y-35329842D01*
X37069002Y-35329842D01*
X37242256Y-35312778D01*
X37408852Y-35262242D01*
X37562387Y-35180175D01*
X37696962Y-35069732D01*
X37719000Y-35042879D01*
X37741038Y-35069732D01*
G37*
G04 #@! TD.AperFunction*
D29*
X75950000Y-40879579D02*
X75950001Y-43136521D01*
X75945719Y-43180000D01*
X75962805Y-43353490D01*
X76013412Y-43520313D01*
X76095590Y-43674059D01*
X76178468Y-43775046D01*
X76178471Y-43775049D01*
X76206184Y-43808817D01*
X76239951Y-43836529D01*
X77448470Y-45045049D01*
X77476183Y-45078817D01*
X77509951Y-45106530D01*
X77509953Y-45106532D01*
X77569361Y-45155287D01*
X77610941Y-45189411D01*
X77764687Y-45271589D01*
X77908007Y-45315065D01*
X78075655Y-45519345D01*
X78304821Y-45707417D01*
X78328362Y-45720000D01*
X78304821Y-45732583D01*
X78075655Y-45920655D01*
X77961689Y-46059523D01*
X77961195Y-46054510D01*
X77910589Y-45887687D01*
X77828411Y-45733941D01*
X77775108Y-45668992D01*
X77745532Y-45632953D01*
X77745530Y-45632951D01*
X77717817Y-45599183D01*
X77684050Y-45571471D01*
X74799000Y-42686422D01*
X74799000Y-41445469D01*
X74803281Y-41402000D01*
X74799000Y-41358531D01*
X74799000Y-41358523D01*
X74786195Y-41228510D01*
X74775904Y-41194586D01*
X74735589Y-41061686D01*
X74653411Y-40907941D01*
X74570532Y-40806953D01*
X74570530Y-40806951D01*
X74542817Y-40773183D01*
X74509050Y-40745471D01*
X73331532Y-39567954D01*
X73303817Y-39534183D01*
X73169059Y-39423589D01*
X73015313Y-39341411D01*
X72848490Y-39290805D01*
X72718477Y-39278000D01*
X72718469Y-39278000D01*
X72675000Y-39273719D01*
X72631531Y-39278000D01*
X61575957Y-39278000D01*
X61565537Y-39258506D01*
X61487158Y-39163000D01*
X61555256Y-39080022D01*
X74150444Y-39080022D01*
X75950000Y-40879579D01*
G04 #@! TA.AperFunction,Conductor*
D30*
G36*
X75950000Y-40879579D02*
G01*
X75950001Y-43136521D01*
X75945719Y-43180000D01*
X75962805Y-43353490D01*
X76013412Y-43520313D01*
X76095590Y-43674059D01*
X76178468Y-43775046D01*
X76178471Y-43775049D01*
X76206184Y-43808817D01*
X76239951Y-43836529D01*
X77448470Y-45045049D01*
X77476183Y-45078817D01*
X77509951Y-45106530D01*
X77509953Y-45106532D01*
X77569361Y-45155287D01*
X77610941Y-45189411D01*
X77764687Y-45271589D01*
X77908007Y-45315065D01*
X78075655Y-45519345D01*
X78304821Y-45707417D01*
X78328362Y-45720000D01*
X78304821Y-45732583D01*
X78075655Y-45920655D01*
X77961689Y-46059523D01*
X77961195Y-46054510D01*
X77910589Y-45887687D01*
X77828411Y-45733941D01*
X77775108Y-45668992D01*
X77745532Y-45632953D01*
X77745530Y-45632951D01*
X77717817Y-45599183D01*
X77684050Y-45571471D01*
X74799000Y-42686422D01*
X74799000Y-41445469D01*
X74803281Y-41402000D01*
X74799000Y-41358531D01*
X74799000Y-41358523D01*
X74786195Y-41228510D01*
X74775904Y-41194586D01*
X74735589Y-41061686D01*
X74653411Y-40907941D01*
X74570532Y-40806953D01*
X74570530Y-40806951D01*
X74542817Y-40773183D01*
X74509050Y-40745471D01*
X73331532Y-39567954D01*
X73303817Y-39534183D01*
X73169059Y-39423589D01*
X73015313Y-39341411D01*
X72848490Y-39290805D01*
X72718477Y-39278000D01*
X72718469Y-39278000D01*
X72675000Y-39273719D01*
X72631531Y-39278000D01*
X61575957Y-39278000D01*
X61565537Y-39258506D01*
X61487158Y-39163000D01*
X61555256Y-39080022D01*
X74150444Y-39080022D01*
X75950000Y-40879579D01*
G37*
G04 #@! TD.AperFunction*
D29*
X77118470Y-34885049D02*
X77146183Y-34918817D01*
X77179951Y-34946530D01*
X77179953Y-34946532D01*
X77235858Y-34992412D01*
X77280941Y-35029411D01*
X77434687Y-35111589D01*
X77601510Y-35162195D01*
X77731523Y-35175000D01*
X77731533Y-35175000D01*
X77774999Y-35179281D01*
X77818465Y-35175000D01*
X77924367Y-35175000D01*
X78075655Y-35359345D01*
X78304821Y-35547417D01*
X78332669Y-35562302D01*
X78196097Y-35651744D01*
X77984464Y-35859506D01*
X77817429Y-36104563D01*
X77701412Y-36377498D01*
X77683698Y-36469969D01*
X77804754Y-36703000D01*
X79248000Y-36703000D01*
X79248000Y-36683000D01*
X79502000Y-36683000D01*
X79502000Y-36703000D01*
X79522000Y-36703000D01*
X79522000Y-36957000D01*
X79502000Y-36957000D01*
X79502000Y-39243000D01*
X79522000Y-39243000D01*
X79522000Y-39497000D01*
X79502000Y-39497000D01*
X79502000Y-39517000D01*
X79248000Y-39517000D01*
X79248000Y-39497000D01*
X77804754Y-39497000D01*
X77683698Y-39730031D01*
X77701412Y-39822502D01*
X77817429Y-40095437D01*
X77984464Y-40340494D01*
X78140314Y-40493493D01*
X78031613Y-40551595D01*
X77897038Y-40662038D01*
X77786595Y-40796613D01*
X77720000Y-40921203D01*
X77720000Y-40556469D01*
X77724281Y-40513000D01*
X77720000Y-40469528D01*
X77720000Y-40469523D01*
X77707195Y-40339510D01*
X77695154Y-40299815D01*
X77664725Y-40199508D01*
X77656589Y-40172687D01*
X77574411Y-40018941D01*
X77550258Y-39989511D01*
X77491532Y-39917953D01*
X77491530Y-39917951D01*
X77463817Y-39884183D01*
X77430050Y-39856471D01*
X75173554Y-37599976D01*
X75145839Y-37566205D01*
X75011081Y-37455611D01*
X74857335Y-37373433D01*
X74690512Y-37322827D01*
X74560499Y-37310022D01*
X74560491Y-37310022D01*
X74517022Y-37305741D01*
X74473553Y-37310022D01*
X70875556Y-37310022D01*
X70995547Y-37190031D01*
X77683698Y-37190031D01*
X77701412Y-37282502D01*
X77817429Y-37555437D01*
X77984464Y-37800494D01*
X78196097Y-38008256D01*
X78336184Y-38100000D01*
X78196097Y-38191744D01*
X77984464Y-38399506D01*
X77817429Y-38644563D01*
X77701412Y-38917498D01*
X77683698Y-39009969D01*
X77804754Y-39243000D01*
X79248000Y-39243000D01*
X79248000Y-36957000D01*
X77804754Y-36957000D01*
X77683698Y-37190031D01*
X70995547Y-37190031D01*
X71715049Y-36470530D01*
X71748817Y-36442817D01*
X71802424Y-36377498D01*
X71859411Y-36308059D01*
X71876454Y-36276174D01*
X71941589Y-36154313D01*
X71992195Y-35987490D01*
X72005000Y-35857477D01*
X72005000Y-35857469D01*
X72009281Y-35814000D01*
X72005000Y-35770531D01*
X72005000Y-33699737D01*
X72042994Y-33574490D01*
X72060081Y-33400999D01*
X72042994Y-33227510D01*
X72005000Y-33102263D01*
X72005000Y-32762000D01*
X74995422Y-32762000D01*
X77118470Y-34885049D01*
G04 #@! TA.AperFunction,Conductor*
D30*
G36*
X77118470Y-34885049D02*
G01*
X77146183Y-34918817D01*
X77179951Y-34946530D01*
X77179953Y-34946532D01*
X77235858Y-34992412D01*
X77280941Y-35029411D01*
X77434687Y-35111589D01*
X77601510Y-35162195D01*
X77731523Y-35175000D01*
X77731533Y-35175000D01*
X77774999Y-35179281D01*
X77818465Y-35175000D01*
X77924367Y-35175000D01*
X78075655Y-35359345D01*
X78304821Y-35547417D01*
X78332669Y-35562302D01*
X78196097Y-35651744D01*
X77984464Y-35859506D01*
X77817429Y-36104563D01*
X77701412Y-36377498D01*
X77683698Y-36469969D01*
X77804754Y-36703000D01*
X79248000Y-36703000D01*
X79248000Y-36683000D01*
X79502000Y-36683000D01*
X79502000Y-36703000D01*
X79522000Y-36703000D01*
X79522000Y-36957000D01*
X79502000Y-36957000D01*
X79502000Y-39243000D01*
X79522000Y-39243000D01*
X79522000Y-39497000D01*
X79502000Y-39497000D01*
X79502000Y-39517000D01*
X79248000Y-39517000D01*
X79248000Y-39497000D01*
X77804754Y-39497000D01*
X77683698Y-39730031D01*
X77701412Y-39822502D01*
X77817429Y-40095437D01*
X77984464Y-40340494D01*
X78140314Y-40493493D01*
X78031613Y-40551595D01*
X77897038Y-40662038D01*
X77786595Y-40796613D01*
X77720000Y-40921203D01*
X77720000Y-40556469D01*
X77724281Y-40513000D01*
X77720000Y-40469528D01*
X77720000Y-40469523D01*
X77707195Y-40339510D01*
X77695154Y-40299815D01*
X77664725Y-40199508D01*
X77656589Y-40172687D01*
X77574411Y-40018941D01*
X77550258Y-39989511D01*
X77491532Y-39917953D01*
X77491530Y-39917951D01*
X77463817Y-39884183D01*
X77430050Y-39856471D01*
X75173554Y-37599976D01*
X75145839Y-37566205D01*
X75011081Y-37455611D01*
X74857335Y-37373433D01*
X74690512Y-37322827D01*
X74560499Y-37310022D01*
X74560491Y-37310022D01*
X74517022Y-37305741D01*
X74473553Y-37310022D01*
X70875556Y-37310022D01*
X70995547Y-37190031D01*
X77683698Y-37190031D01*
X77701412Y-37282502D01*
X77817429Y-37555437D01*
X77984464Y-37800494D01*
X78196097Y-38008256D01*
X78336184Y-38100000D01*
X78196097Y-38191744D01*
X77984464Y-38399506D01*
X77817429Y-38644563D01*
X77701412Y-38917498D01*
X77683698Y-39009969D01*
X77804754Y-39243000D01*
X79248000Y-39243000D01*
X79248000Y-36957000D01*
X77804754Y-36957000D01*
X77683698Y-37190031D01*
X70995547Y-37190031D01*
X71715049Y-36470530D01*
X71748817Y-36442817D01*
X71802424Y-36377498D01*
X71859411Y-36308059D01*
X71876454Y-36276174D01*
X71941589Y-36154313D01*
X71992195Y-35987490D01*
X72005000Y-35857477D01*
X72005000Y-35857469D01*
X72009281Y-35814000D01*
X72005000Y-35770531D01*
X72005000Y-33699737D01*
X72042994Y-33574490D01*
X72060081Y-33400999D01*
X72042994Y-33227510D01*
X72005000Y-33102263D01*
X72005000Y-32762000D01*
X74995422Y-32762000D01*
X77118470Y-34885049D01*
G37*
G04 #@! TD.AperFunction*
D29*
X67692767Y-30998475D02*
X67935988Y-31160990D01*
X68206241Y-31272932D01*
X68493139Y-31330000D01*
X68785659Y-31330000D01*
X68808815Y-31325394D01*
X69219001Y-31735580D01*
X69219000Y-34939421D01*
X68848420Y-35310002D01*
X63815781Y-35310002D01*
X62073734Y-33567956D01*
X62046017Y-33534183D01*
X61911259Y-33423589D01*
X61757513Y-33341411D01*
X61590690Y-33290805D01*
X61582363Y-33289985D01*
X61565537Y-33258506D01*
X61486185Y-33161815D01*
X61389494Y-33082463D01*
X61279180Y-33023498D01*
X61159482Y-32987188D01*
X61035000Y-32974928D01*
X58535000Y-32974928D01*
X58410518Y-32987188D01*
X58290820Y-33023498D01*
X58180506Y-33082463D01*
X58083815Y-33161815D01*
X58004463Y-33258506D01*
X57945498Y-33368820D01*
X57909188Y-33488518D01*
X57908790Y-33492556D01*
X57908000Y-33484533D01*
X57908000Y-33484523D01*
X57895195Y-33354510D01*
X57844589Y-33187687D01*
X57762411Y-33033941D01*
X57732884Y-32997962D01*
X57679532Y-32932953D01*
X57679530Y-32932951D01*
X57651817Y-32899183D01*
X57618050Y-32871471D01*
X57014531Y-32267953D01*
X56986816Y-32234182D01*
X56859143Y-32129403D01*
X65278096Y-32123063D01*
X65302776Y-32120623D01*
X65326601Y-32113396D01*
X65348557Y-32101660D01*
X65367803Y-32085866D01*
X65383597Y-32066620D01*
X65395333Y-32044664D01*
X65402560Y-32020839D01*
X65405000Y-31996063D01*
X65405000Y-31359493D01*
X65411285Y-31362852D01*
X65719484Y-31456343D01*
X66040000Y-31487911D01*
X66360515Y-31456343D01*
X66668714Y-31362852D01*
X66724428Y-31333072D01*
X66949399Y-31333072D01*
X67073881Y-31320812D01*
X67193579Y-31284502D01*
X67303893Y-31225537D01*
X67400584Y-31146185D01*
X67479936Y-31049494D01*
X67538901Y-30939180D01*
X67560912Y-30866620D01*
X67692767Y-30998475D01*
G04 #@! TA.AperFunction,Conductor*
D30*
G36*
X67692767Y-30998475D02*
G01*
X67935988Y-31160990D01*
X68206241Y-31272932D01*
X68493139Y-31330000D01*
X68785659Y-31330000D01*
X68808815Y-31325394D01*
X69219001Y-31735580D01*
X69219000Y-34939421D01*
X68848420Y-35310002D01*
X63815781Y-35310002D01*
X62073734Y-33567956D01*
X62046017Y-33534183D01*
X61911259Y-33423589D01*
X61757513Y-33341411D01*
X61590690Y-33290805D01*
X61582363Y-33289985D01*
X61565537Y-33258506D01*
X61486185Y-33161815D01*
X61389494Y-33082463D01*
X61279180Y-33023498D01*
X61159482Y-32987188D01*
X61035000Y-32974928D01*
X58535000Y-32974928D01*
X58410518Y-32987188D01*
X58290820Y-33023498D01*
X58180506Y-33082463D01*
X58083815Y-33161815D01*
X58004463Y-33258506D01*
X57945498Y-33368820D01*
X57909188Y-33488518D01*
X57908790Y-33492556D01*
X57908000Y-33484533D01*
X57908000Y-33484523D01*
X57895195Y-33354510D01*
X57844589Y-33187687D01*
X57762411Y-33033941D01*
X57732884Y-32997962D01*
X57679532Y-32932953D01*
X57679530Y-32932951D01*
X57651817Y-32899183D01*
X57618050Y-32871471D01*
X57014531Y-32267953D01*
X56986816Y-32234182D01*
X56859143Y-32129403D01*
X65278096Y-32123063D01*
X65302776Y-32120623D01*
X65326601Y-32113396D01*
X65348557Y-32101660D01*
X65367803Y-32085866D01*
X65383597Y-32066620D01*
X65395333Y-32044664D01*
X65402560Y-32020839D01*
X65405000Y-31996063D01*
X65405000Y-31359493D01*
X65411285Y-31362852D01*
X65719484Y-31456343D01*
X66040000Y-31487911D01*
X66360515Y-31456343D01*
X66668714Y-31362852D01*
X66724428Y-31333072D01*
X66949399Y-31333072D01*
X67073881Y-31320812D01*
X67193579Y-31284502D01*
X67303893Y-31225537D01*
X67400584Y-31146185D01*
X67479936Y-31049494D01*
X67538901Y-30939180D01*
X67560912Y-30866620D01*
X67692767Y-30998475D01*
G37*
G04 #@! TD.AperFunction*
D29*
X77636928Y-31181167D02*
X77636928Y-32370001D01*
X77653992Y-32543255D01*
X77704528Y-32709851D01*
X77786595Y-32863387D01*
X77897038Y-32997962D01*
X78031613Y-33108405D01*
X78141114Y-33166934D01*
X78075655Y-33220655D01*
X78022276Y-33285697D01*
X76018534Y-31281956D01*
X75990817Y-31248183D01*
X75856059Y-31137589D01*
X75702313Y-31055411D01*
X75535490Y-31004805D01*
X75405477Y-30992000D01*
X75405469Y-30992000D01*
X75362000Y-30987719D01*
X75318531Y-30992000D01*
X74653422Y-30992000D01*
X74719668Y-30942588D01*
X74914577Y-30726355D01*
X75063556Y-30476252D01*
X75160880Y-30201891D01*
X75040213Y-29972000D01*
X73846399Y-29972000D01*
X73846399Y-29992000D01*
X73592399Y-29992000D01*
X73592399Y-29972000D01*
X73572399Y-29972000D01*
X73572399Y-29718000D01*
X76173762Y-29718000D01*
X77636928Y-31181167D01*
G04 #@! TA.AperFunction,Conductor*
D30*
G36*
X77636928Y-31181167D02*
G01*
X77636928Y-32370001D01*
X77653992Y-32543255D01*
X77704528Y-32709851D01*
X77786595Y-32863387D01*
X77897038Y-32997962D01*
X78031613Y-33108405D01*
X78141114Y-33166934D01*
X78075655Y-33220655D01*
X78022276Y-33285697D01*
X76018534Y-31281956D01*
X75990817Y-31248183D01*
X75856059Y-31137589D01*
X75702313Y-31055411D01*
X75535490Y-31004805D01*
X75405477Y-30992000D01*
X75405469Y-30992000D01*
X75362000Y-30987719D01*
X75318531Y-30992000D01*
X74653422Y-30992000D01*
X74719668Y-30942588D01*
X74914577Y-30726355D01*
X75063556Y-30476252D01*
X75160880Y-30201891D01*
X75040213Y-29972000D01*
X73846399Y-29972000D01*
X73846399Y-29992000D01*
X73592399Y-29992000D01*
X73592399Y-29972000D01*
X73572399Y-29972000D01*
X73572399Y-29718000D01*
X76173762Y-29718000D01*
X77636928Y-31181167D01*
G37*
G04 #@! TD.AperFunction*
M02*
