G04 #@! TF.GenerationSoftware,KiCad,Pcbnew,(5.1.9)-1*
G04 #@! TF.CreationDate,2021-06-01T19:36:45+03:00*
G04 #@! TF.ProjectId,ESP-RGBW-3S,4553502d-5247-4425-972d-33532e6b6963,0.4*
G04 #@! TF.SameCoordinates,Original*
G04 #@! TF.FileFunction,Soldermask,Bot*
G04 #@! TF.FilePolarity,Negative*
%FSLAX46Y46*%
G04 Gerber Fmt 4.6, Leading zero omitted, Abs format (unit mm)*
G04 Created by KiCad (PCBNEW (5.1.9)-1) date 2021-06-01 19:36:45*
%MOMM*%
%LPD*%
G01*
G04 APERTURE LIST*
%ADD10C,2.702000*%
%ADD11C,2.642000*%
%ADD12O,2.302000X1.842000*%
%ADD13C,0.802000*%
%ADD14C,4.502000*%
%ADD15C,1.902000*%
%ADD16O,1.802000X1.802000*%
%ADD17C,0.100000*%
G04 APERTURE END LIST*
G36*
G01*
X41490599Y-71382400D02*
X42798601Y-71382400D01*
G75*
G02*
X42849600Y-71433399I0J-50999D01*
G01*
X42849600Y-72741401D01*
G75*
G02*
X42798601Y-72792400I-50999J0D01*
G01*
X41490599Y-72792400D01*
G75*
G02*
X41439600Y-72741401I0J50999D01*
G01*
X41439600Y-71433399D01*
G75*
G02*
X41490599Y-71382400I50999J0D01*
G01*
G37*
G36*
G01*
X40090599Y-71382400D02*
X41398601Y-71382400D01*
G75*
G02*
X41449600Y-71433399I0J-50999D01*
G01*
X41449600Y-72741401D01*
G75*
G02*
X41398601Y-72792400I-50999J0D01*
G01*
X40090599Y-72792400D01*
G75*
G02*
X40039600Y-72741401I0J50999D01*
G01*
X40039600Y-71433399D01*
G75*
G02*
X40090599Y-71382400I50999J0D01*
G01*
G37*
G36*
G01*
X53160599Y-71382400D02*
X54468601Y-71382400D01*
G75*
G02*
X54519600Y-71433399I0J-50999D01*
G01*
X54519600Y-72741401D01*
G75*
G02*
X54468601Y-72792400I-50999J0D01*
G01*
X53160599Y-72792400D01*
G75*
G02*
X53109600Y-72741401I0J50999D01*
G01*
X53109600Y-71433399D01*
G75*
G02*
X53160599Y-71382400I50999J0D01*
G01*
G37*
G36*
G01*
X54560599Y-71382400D02*
X55868601Y-71382400D01*
G75*
G02*
X55919600Y-71433399I0J-50999D01*
G01*
X55919600Y-72741401D01*
G75*
G02*
X55868601Y-72792400I-50999J0D01*
G01*
X54560599Y-72792400D01*
G75*
G02*
X54509600Y-72741401I0J50999D01*
G01*
X54509600Y-71433399D01*
G75*
G02*
X54560599Y-71382400I50999J0D01*
G01*
G37*
G36*
G01*
X53160599Y-52382400D02*
X54468601Y-52382400D01*
G75*
G02*
X54519600Y-52433399I0J-50999D01*
G01*
X54519600Y-53741401D01*
G75*
G02*
X54468601Y-53792400I-50999J0D01*
G01*
X53160599Y-53792400D01*
G75*
G02*
X53109600Y-53741401I0J50999D01*
G01*
X53109600Y-52433399D01*
G75*
G02*
X53160599Y-52382400I50999J0D01*
G01*
G37*
G36*
G01*
X54560599Y-52382400D02*
X55868601Y-52382400D01*
G75*
G02*
X55919600Y-52433399I0J-50999D01*
G01*
X55919600Y-53741401D01*
G75*
G02*
X55868601Y-53792400I-50999J0D01*
G01*
X54560599Y-53792400D01*
G75*
G02*
X54509600Y-53741401I0J50999D01*
G01*
X54509600Y-52433399D01*
G75*
G02*
X54560599Y-52382400I50999J0D01*
G01*
G37*
G36*
G01*
X41490599Y-52382400D02*
X42798601Y-52382400D01*
G75*
G02*
X42849600Y-52433399I0J-50999D01*
G01*
X42849600Y-53741401D01*
G75*
G02*
X42798601Y-53792400I-50999J0D01*
G01*
X41490599Y-53792400D01*
G75*
G02*
X41439600Y-53741401I0J50999D01*
G01*
X41439600Y-52433399D01*
G75*
G02*
X41490599Y-52382400I50999J0D01*
G01*
G37*
G36*
G01*
X40090599Y-52382400D02*
X41398601Y-52382400D01*
G75*
G02*
X41449600Y-52433399I0J-50999D01*
G01*
X41449600Y-53741401D01*
G75*
G02*
X41398601Y-53792400I-50999J0D01*
G01*
X40090599Y-53792400D01*
G75*
G02*
X40039600Y-53741401I0J50999D01*
G01*
X40039600Y-52433399D01*
G75*
G02*
X40090599Y-52382400I50999J0D01*
G01*
G37*
G36*
G01*
X29600000Y-27821000D02*
X29600000Y-28621000D01*
G75*
G02*
X29549000Y-28672000I-51000J0D01*
G01*
X28649000Y-28672000D01*
G75*
G02*
X28598000Y-28621000I0J51000D01*
G01*
X28598000Y-27821000D01*
G75*
G02*
X28649000Y-27770000I51000J0D01*
G01*
X29549000Y-27770000D01*
G75*
G02*
X29600000Y-27821000I0J-51000D01*
G01*
G37*
G36*
G01*
X31600000Y-28771000D02*
X31600000Y-29571000D01*
G75*
G02*
X31549000Y-29622000I-51000J0D01*
G01*
X30649000Y-29622000D01*
G75*
G02*
X30598000Y-29571000I0J51000D01*
G01*
X30598000Y-28771000D01*
G75*
G02*
X30649000Y-28720000I51000J0D01*
G01*
X31549000Y-28720000D01*
G75*
G02*
X31600000Y-28771000I0J-51000D01*
G01*
G37*
G36*
G01*
X31600000Y-26871000D02*
X31600000Y-27671000D01*
G75*
G02*
X31549000Y-27722000I-51000J0D01*
G01*
X30649000Y-27722000D01*
G75*
G02*
X30598000Y-27671000I0J51000D01*
G01*
X30598000Y-26871000D01*
G75*
G02*
X30649000Y-26820000I51000J0D01*
G01*
X31549000Y-26820000D01*
G75*
G02*
X31600000Y-26871000I0J-51000D01*
G01*
G37*
D10*
X25019000Y-64436000D03*
G36*
G01*
X23719000Y-58085000D02*
X26319000Y-58085000D01*
G75*
G02*
X26370000Y-58136000I0J-51000D01*
G01*
X26370000Y-60736000D01*
G75*
G02*
X26319000Y-60787000I-51000J0D01*
G01*
X23719000Y-60787000D01*
G75*
G02*
X23668000Y-60736000I0J51000D01*
G01*
X23668000Y-58136000D01*
G75*
G02*
X23719000Y-58085000I51000J0D01*
G01*
G37*
G36*
G01*
X36017000Y-54610000D02*
X36017000Y-52070000D01*
G75*
G02*
X36068000Y-52019000I51000J0D01*
G01*
X38608000Y-52019000D01*
G75*
G02*
X38659000Y-52070000I0J-51000D01*
G01*
X38659000Y-54610000D01*
G75*
G02*
X38608000Y-54661000I-51000J0D01*
G01*
X36068000Y-54661000D01*
G75*
G02*
X36017000Y-54610000I0J51000D01*
G01*
G37*
D11*
X37338000Y-71120000D03*
X77978000Y-53340000D03*
X77978000Y-71120000D03*
G36*
G01*
X72717400Y-39269375D02*
X72717400Y-38317125D01*
G75*
G02*
X72992275Y-38042250I274875J0D01*
G01*
X73569525Y-38042250D01*
G75*
G02*
X73844400Y-38317125I0J-274875D01*
G01*
X73844400Y-39269375D01*
G75*
G02*
X73569525Y-39544250I-274875J0D01*
G01*
X72992275Y-39544250D01*
G75*
G02*
X72717400Y-39269375I0J274875D01*
G01*
G37*
G36*
G01*
X74542400Y-39269375D02*
X74542400Y-38317125D01*
G75*
G02*
X74817275Y-38042250I274875J0D01*
G01*
X75394525Y-38042250D01*
G75*
G02*
X75669400Y-38317125I0J-274875D01*
G01*
X75669400Y-39269375D01*
G75*
G02*
X75394525Y-39544250I-274875J0D01*
G01*
X74817275Y-39544250D01*
G75*
G02*
X74542400Y-39269375I0J274875D01*
G01*
G37*
G36*
G01*
X69081400Y-39269375D02*
X69081400Y-38317125D01*
G75*
G02*
X69356275Y-38042250I274875J0D01*
G01*
X69933525Y-38042250D01*
G75*
G02*
X70208400Y-38317125I0J-274875D01*
G01*
X70208400Y-39269375D01*
G75*
G02*
X69933525Y-39544250I-274875J0D01*
G01*
X69356275Y-39544250D01*
G75*
G02*
X69081400Y-39269375I0J274875D01*
G01*
G37*
G36*
G01*
X67256400Y-39269375D02*
X67256400Y-38317125D01*
G75*
G02*
X67531275Y-38042250I274875J0D01*
G01*
X68108525Y-38042250D01*
G75*
G02*
X68383400Y-38317125I0J-274875D01*
G01*
X68383400Y-39269375D01*
G75*
G02*
X68108525Y-39544250I-274875J0D01*
G01*
X67531275Y-39544250D01*
G75*
G02*
X67256400Y-39269375I0J274875D01*
G01*
G37*
G36*
G01*
X69081400Y-36101125D02*
X69081400Y-35148875D01*
G75*
G02*
X69356275Y-34874000I274875J0D01*
G01*
X69933525Y-34874000D01*
G75*
G02*
X70208400Y-35148875I0J-274875D01*
G01*
X70208400Y-36101125D01*
G75*
G02*
X69933525Y-36376000I-274875J0D01*
G01*
X69356275Y-36376000D01*
G75*
G02*
X69081400Y-36101125I0J274875D01*
G01*
G37*
G36*
G01*
X67256400Y-36101125D02*
X67256400Y-35148875D01*
G75*
G02*
X67531275Y-34874000I274875J0D01*
G01*
X68108525Y-34874000D01*
G75*
G02*
X68383400Y-35148875I0J-274875D01*
G01*
X68383400Y-36101125D01*
G75*
G02*
X68108525Y-36376000I-274875J0D01*
G01*
X67531275Y-36376000D01*
G75*
G02*
X67256400Y-36101125I0J274875D01*
G01*
G37*
D12*
X79375000Y-39370000D03*
X25146000Y-45466000D03*
G36*
G01*
X32648000Y-34425000D02*
X32648000Y-35225000D01*
G75*
G02*
X32597000Y-35276000I-51000J0D01*
G01*
X31697000Y-35276000D01*
G75*
G02*
X31646000Y-35225000I0J51000D01*
G01*
X31646000Y-34425000D01*
G75*
G02*
X31697000Y-34374000I51000J0D01*
G01*
X32597000Y-34374000D01*
G75*
G02*
X32648000Y-34425000I0J-51000D01*
G01*
G37*
G36*
G01*
X34648000Y-35375000D02*
X34648000Y-36175000D01*
G75*
G02*
X34597000Y-36226000I-51000J0D01*
G01*
X33697000Y-36226000D01*
G75*
G02*
X33646000Y-36175000I0J51000D01*
G01*
X33646000Y-35375000D01*
G75*
G02*
X33697000Y-35324000I51000J0D01*
G01*
X34597000Y-35324000D01*
G75*
G02*
X34648000Y-35375000I0J-51000D01*
G01*
G37*
G36*
G01*
X34648000Y-33475000D02*
X34648000Y-34275000D01*
G75*
G02*
X34597000Y-34326000I-51000J0D01*
G01*
X33697000Y-34326000D01*
G75*
G02*
X33646000Y-34275000I0J51000D01*
G01*
X33646000Y-33475000D01*
G75*
G02*
X33697000Y-33424000I51000J0D01*
G01*
X34597000Y-33424000D01*
G75*
G02*
X34648000Y-33475000I0J-51000D01*
G01*
G37*
G36*
G01*
X32648000Y-47098000D02*
X32648000Y-47898000D01*
G75*
G02*
X32597000Y-47949000I-51000J0D01*
G01*
X31697000Y-47949000D01*
G75*
G02*
X31646000Y-47898000I0J51000D01*
G01*
X31646000Y-47098000D01*
G75*
G02*
X31697000Y-47047000I51000J0D01*
G01*
X32597000Y-47047000D01*
G75*
G02*
X32648000Y-47098000I0J-51000D01*
G01*
G37*
G36*
G01*
X34648000Y-48048000D02*
X34648000Y-48848000D01*
G75*
G02*
X34597000Y-48899000I-51000J0D01*
G01*
X33697000Y-48899000D01*
G75*
G02*
X33646000Y-48848000I0J51000D01*
G01*
X33646000Y-48048000D01*
G75*
G02*
X33697000Y-47997000I51000J0D01*
G01*
X34597000Y-47997000D01*
G75*
G02*
X34648000Y-48048000I0J-51000D01*
G01*
G37*
G36*
G01*
X34648000Y-46148000D02*
X34648000Y-46948000D01*
G75*
G02*
X34597000Y-46999000I-51000J0D01*
G01*
X33697000Y-46999000D01*
G75*
G02*
X33646000Y-46948000I0J51000D01*
G01*
X33646000Y-46148000D01*
G75*
G02*
X33697000Y-46097000I51000J0D01*
G01*
X34597000Y-46097000D01*
G75*
G02*
X34648000Y-46148000I0J-51000D01*
G01*
G37*
G36*
G01*
X32648000Y-40748000D02*
X32648000Y-41548000D01*
G75*
G02*
X32597000Y-41599000I-51000J0D01*
G01*
X31697000Y-41599000D01*
G75*
G02*
X31646000Y-41548000I0J51000D01*
G01*
X31646000Y-40748000D01*
G75*
G02*
X31697000Y-40697000I51000J0D01*
G01*
X32597000Y-40697000D01*
G75*
G02*
X32648000Y-40748000I0J-51000D01*
G01*
G37*
G36*
G01*
X34648000Y-41698000D02*
X34648000Y-42498000D01*
G75*
G02*
X34597000Y-42549000I-51000J0D01*
G01*
X33697000Y-42549000D01*
G75*
G02*
X33646000Y-42498000I0J51000D01*
G01*
X33646000Y-41698000D01*
G75*
G02*
X33697000Y-41647000I51000J0D01*
G01*
X34597000Y-41647000D01*
G75*
G02*
X34648000Y-41698000I0J-51000D01*
G01*
G37*
G36*
G01*
X34648000Y-39798000D02*
X34648000Y-40598000D01*
G75*
G02*
X34597000Y-40649000I-51000J0D01*
G01*
X33697000Y-40649000D01*
G75*
G02*
X33646000Y-40598000I0J51000D01*
G01*
X33646000Y-39798000D01*
G75*
G02*
X33697000Y-39747000I51000J0D01*
G01*
X34597000Y-39747000D01*
G75*
G02*
X34648000Y-39798000I0J-51000D01*
G01*
G37*
G36*
G01*
X35338000Y-28544875D02*
X35338000Y-29497125D01*
G75*
G02*
X35063125Y-29772000I-274875J0D01*
G01*
X34485875Y-29772000D01*
G75*
G02*
X34211000Y-29497125I0J274875D01*
G01*
X34211000Y-28544875D01*
G75*
G02*
X34485875Y-28270000I274875J0D01*
G01*
X35063125Y-28270000D01*
G75*
G02*
X35338000Y-28544875I0J-274875D01*
G01*
G37*
G36*
G01*
X37163000Y-28544875D02*
X37163000Y-29497125D01*
G75*
G02*
X36888125Y-29772000I-274875J0D01*
G01*
X36310875Y-29772000D01*
G75*
G02*
X36036000Y-29497125I0J274875D01*
G01*
X36036000Y-28544875D01*
G75*
G02*
X36310875Y-28270000I274875J0D01*
G01*
X36888125Y-28270000D01*
G75*
G02*
X37163000Y-28544875I0J-274875D01*
G01*
G37*
G36*
G01*
X37878000Y-35148875D02*
X37878000Y-36101125D01*
G75*
G02*
X37603125Y-36376000I-274875J0D01*
G01*
X37025875Y-36376000D01*
G75*
G02*
X36751000Y-36101125I0J274875D01*
G01*
X36751000Y-35148875D01*
G75*
G02*
X37025875Y-34874000I274875J0D01*
G01*
X37603125Y-34874000D01*
G75*
G02*
X37878000Y-35148875I0J-274875D01*
G01*
G37*
G36*
G01*
X39703000Y-35148875D02*
X39703000Y-36101125D01*
G75*
G02*
X39428125Y-36376000I-274875J0D01*
G01*
X38850875Y-36376000D01*
G75*
G02*
X38576000Y-36101125I0J274875D01*
G01*
X38576000Y-35148875D01*
G75*
G02*
X38850875Y-34874000I274875J0D01*
G01*
X39428125Y-34874000D01*
G75*
G02*
X39703000Y-35148875I0J-274875D01*
G01*
G37*
G36*
G01*
X37878000Y-41471875D02*
X37878000Y-42424125D01*
G75*
G02*
X37603125Y-42699000I-274875J0D01*
G01*
X37025875Y-42699000D01*
G75*
G02*
X36751000Y-42424125I0J274875D01*
G01*
X36751000Y-41471875D01*
G75*
G02*
X37025875Y-41197000I274875J0D01*
G01*
X37603125Y-41197000D01*
G75*
G02*
X37878000Y-41471875I0J-274875D01*
G01*
G37*
G36*
G01*
X39703000Y-41471875D02*
X39703000Y-42424125D01*
G75*
G02*
X39428125Y-42699000I-274875J0D01*
G01*
X38850875Y-42699000D01*
G75*
G02*
X38576000Y-42424125I0J274875D01*
G01*
X38576000Y-41471875D01*
G75*
G02*
X38850875Y-41197000I274875J0D01*
G01*
X39428125Y-41197000D01*
G75*
G02*
X39703000Y-41471875I0J-274875D01*
G01*
G37*
G36*
G01*
X37878000Y-47821875D02*
X37878000Y-48774125D01*
G75*
G02*
X37603125Y-49049000I-274875J0D01*
G01*
X37025875Y-49049000D01*
G75*
G02*
X36751000Y-48774125I0J274875D01*
G01*
X36751000Y-47821875D01*
G75*
G02*
X37025875Y-47547000I274875J0D01*
G01*
X37603125Y-47547000D01*
G75*
G02*
X37878000Y-47821875I0J-274875D01*
G01*
G37*
G36*
G01*
X39703000Y-47821875D02*
X39703000Y-48774125D01*
G75*
G02*
X39428125Y-49049000I-274875J0D01*
G01*
X38850875Y-49049000D01*
G75*
G02*
X38576000Y-48774125I0J274875D01*
G01*
X38576000Y-47821875D01*
G75*
G02*
X38850875Y-47547000I274875J0D01*
G01*
X39428125Y-47547000D01*
G75*
G02*
X39703000Y-47821875I0J-274875D01*
G01*
G37*
G36*
G01*
X43212000Y-47821875D02*
X43212000Y-48774125D01*
G75*
G02*
X42937125Y-49049000I-274875J0D01*
G01*
X42359875Y-49049000D01*
G75*
G02*
X42085000Y-48774125I0J274875D01*
G01*
X42085000Y-47821875D01*
G75*
G02*
X42359875Y-47547000I274875J0D01*
G01*
X42937125Y-47547000D01*
G75*
G02*
X43212000Y-47821875I0J-274875D01*
G01*
G37*
G36*
G01*
X45037000Y-47821875D02*
X45037000Y-48774125D01*
G75*
G02*
X44762125Y-49049000I-274875J0D01*
G01*
X44184875Y-49049000D01*
G75*
G02*
X43910000Y-48774125I0J274875D01*
G01*
X43910000Y-47821875D01*
G75*
G02*
X44184875Y-47547000I274875J0D01*
G01*
X44762125Y-47547000D01*
G75*
G02*
X45037000Y-47821875I0J-274875D01*
G01*
G37*
G36*
G01*
X43212000Y-41471875D02*
X43212000Y-42424125D01*
G75*
G02*
X42937125Y-42699000I-274875J0D01*
G01*
X42359875Y-42699000D01*
G75*
G02*
X42085000Y-42424125I0J274875D01*
G01*
X42085000Y-41471875D01*
G75*
G02*
X42359875Y-41197000I274875J0D01*
G01*
X42937125Y-41197000D01*
G75*
G02*
X43212000Y-41471875I0J-274875D01*
G01*
G37*
G36*
G01*
X45037000Y-41471875D02*
X45037000Y-42424125D01*
G75*
G02*
X44762125Y-42699000I-274875J0D01*
G01*
X44184875Y-42699000D01*
G75*
G02*
X43910000Y-42424125I0J274875D01*
G01*
X43910000Y-41471875D01*
G75*
G02*
X44184875Y-41197000I274875J0D01*
G01*
X44762125Y-41197000D01*
G75*
G02*
X45037000Y-41471875I0J-274875D01*
G01*
G37*
G36*
G01*
X43212000Y-35148875D02*
X43212000Y-36101125D01*
G75*
G02*
X42937125Y-36376000I-274875J0D01*
G01*
X42359875Y-36376000D01*
G75*
G02*
X42085000Y-36101125I0J274875D01*
G01*
X42085000Y-35148875D01*
G75*
G02*
X42359875Y-34874000I274875J0D01*
G01*
X42937125Y-34874000D01*
G75*
G02*
X43212000Y-35148875I0J-274875D01*
G01*
G37*
G36*
G01*
X45037000Y-35148875D02*
X45037000Y-36101125D01*
G75*
G02*
X44762125Y-36376000I-274875J0D01*
G01*
X44184875Y-36376000D01*
G75*
G02*
X43910000Y-36101125I0J274875D01*
G01*
X43910000Y-35148875D01*
G75*
G02*
X44184875Y-34874000I274875J0D01*
G01*
X44762125Y-34874000D01*
G75*
G02*
X45037000Y-35148875I0J-274875D01*
G01*
G37*
G36*
G01*
X40291000Y-28544875D02*
X40291000Y-29497125D01*
G75*
G02*
X40016125Y-29772000I-274875J0D01*
G01*
X39438875Y-29772000D01*
G75*
G02*
X39164000Y-29497125I0J274875D01*
G01*
X39164000Y-28544875D01*
G75*
G02*
X39438875Y-28270000I274875J0D01*
G01*
X40016125Y-28270000D01*
G75*
G02*
X40291000Y-28544875I0J-274875D01*
G01*
G37*
G36*
G01*
X42116000Y-28544875D02*
X42116000Y-29497125D01*
G75*
G02*
X41841125Y-29772000I-274875J0D01*
G01*
X41263875Y-29772000D01*
G75*
G02*
X40989000Y-29497125I0J274875D01*
G01*
X40989000Y-28544875D01*
G75*
G02*
X41263875Y-28270000I274875J0D01*
G01*
X41841125Y-28270000D01*
G75*
G02*
X42116000Y-28544875I0J-274875D01*
G01*
G37*
G36*
G01*
X62922400Y-38317125D02*
X62922400Y-39269375D01*
G75*
G02*
X62647525Y-39544250I-274875J0D01*
G01*
X62070275Y-39544250D01*
G75*
G02*
X61795400Y-39269375I0J274875D01*
G01*
X61795400Y-38317125D01*
G75*
G02*
X62070275Y-38042250I274875J0D01*
G01*
X62647525Y-38042250D01*
G75*
G02*
X62922400Y-38317125I0J-274875D01*
G01*
G37*
G36*
G01*
X64747400Y-38317125D02*
X64747400Y-39269375D01*
G75*
G02*
X64472525Y-39544250I-274875J0D01*
G01*
X63895275Y-39544250D01*
G75*
G02*
X63620400Y-39269375I0J274875D01*
G01*
X63620400Y-38317125D01*
G75*
G02*
X63895275Y-38042250I274875J0D01*
G01*
X64472525Y-38042250D01*
G75*
G02*
X64747400Y-38317125I0J-274875D01*
G01*
G37*
G36*
G01*
X62922400Y-41485375D02*
X62922400Y-42437625D01*
G75*
G02*
X62647525Y-42712500I-274875J0D01*
G01*
X62070275Y-42712500D01*
G75*
G02*
X61795400Y-42437625I0J274875D01*
G01*
X61795400Y-41485375D01*
G75*
G02*
X62070275Y-41210500I274875J0D01*
G01*
X62647525Y-41210500D01*
G75*
G02*
X62922400Y-41485375I0J-274875D01*
G01*
G37*
G36*
G01*
X64747400Y-41485375D02*
X64747400Y-42437625D01*
G75*
G02*
X64472525Y-42712500I-274875J0D01*
G01*
X63895275Y-42712500D01*
G75*
G02*
X63620400Y-42437625I0J274875D01*
G01*
X63620400Y-41485375D01*
G75*
G02*
X63895275Y-41210500I274875J0D01*
G01*
X64472525Y-41210500D01*
G75*
G02*
X64747400Y-41485375I0J-274875D01*
G01*
G37*
G36*
G01*
X62922400Y-44653625D02*
X62922400Y-45605875D01*
G75*
G02*
X62647525Y-45880750I-274875J0D01*
G01*
X62070275Y-45880750D01*
G75*
G02*
X61795400Y-45605875I0J274875D01*
G01*
X61795400Y-44653625D01*
G75*
G02*
X62070275Y-44378750I274875J0D01*
G01*
X62647525Y-44378750D01*
G75*
G02*
X62922400Y-44653625I0J-274875D01*
G01*
G37*
G36*
G01*
X64747400Y-44653625D02*
X64747400Y-45605875D01*
G75*
G02*
X64472525Y-45880750I-274875J0D01*
G01*
X63895275Y-45880750D01*
G75*
G02*
X63620400Y-45605875I0J274875D01*
G01*
X63620400Y-44653625D01*
G75*
G02*
X63895275Y-44378750I274875J0D01*
G01*
X64472525Y-44378750D01*
G75*
G02*
X64747400Y-44653625I0J-274875D01*
G01*
G37*
G36*
G01*
X62922400Y-47821875D02*
X62922400Y-48774125D01*
G75*
G02*
X62647525Y-49049000I-274875J0D01*
G01*
X62070275Y-49049000D01*
G75*
G02*
X61795400Y-48774125I0J274875D01*
G01*
X61795400Y-47821875D01*
G75*
G02*
X62070275Y-47547000I274875J0D01*
G01*
X62647525Y-47547000D01*
G75*
G02*
X62922400Y-47821875I0J-274875D01*
G01*
G37*
G36*
G01*
X64747400Y-47821875D02*
X64747400Y-48774125D01*
G75*
G02*
X64472525Y-49049000I-274875J0D01*
G01*
X63895275Y-49049000D01*
G75*
G02*
X63620400Y-48774125I0J274875D01*
G01*
X63620400Y-47821875D01*
G75*
G02*
X63895275Y-47547000I274875J0D01*
G01*
X64472525Y-47547000D01*
G75*
G02*
X64747400Y-47821875I0J-274875D01*
G01*
G37*
G36*
G01*
X62922400Y-35148875D02*
X62922400Y-36101125D01*
G75*
G02*
X62647525Y-36376000I-274875J0D01*
G01*
X62070275Y-36376000D01*
G75*
G02*
X61795400Y-36101125I0J274875D01*
G01*
X61795400Y-35148875D01*
G75*
G02*
X62070275Y-34874000I274875J0D01*
G01*
X62647525Y-34874000D01*
G75*
G02*
X62922400Y-35148875I0J-274875D01*
G01*
G37*
G36*
G01*
X64747400Y-35148875D02*
X64747400Y-36101125D01*
G75*
G02*
X64472525Y-36376000I-274875J0D01*
G01*
X63895275Y-36376000D01*
G75*
G02*
X63620400Y-36101125I0J274875D01*
G01*
X63620400Y-35148875D01*
G75*
G02*
X63895275Y-34874000I274875J0D01*
G01*
X64472525Y-34874000D01*
G75*
G02*
X64747400Y-35148875I0J-274875D01*
G01*
G37*
X79375000Y-49530000D03*
X79375000Y-46990000D03*
X79375000Y-44450000D03*
G36*
G01*
X78488654Y-40989000D02*
X80261346Y-40989000D01*
G75*
G02*
X80526000Y-41253654I0J-264654D01*
G01*
X80526000Y-42566346D01*
G75*
G02*
X80261346Y-42831000I-264654J0D01*
G01*
X78488654Y-42831000D01*
G75*
G02*
X78224000Y-42566346I0J264654D01*
G01*
X78224000Y-41253654D01*
G75*
G02*
X78488654Y-40989000I264654J0D01*
G01*
G37*
X25146000Y-53086000D03*
X25146000Y-50546000D03*
G36*
G01*
X24259654Y-47085000D02*
X26032346Y-47085000D01*
G75*
G02*
X26297000Y-47349654I0J-264654D01*
G01*
X26297000Y-48662346D01*
G75*
G02*
X26032346Y-48927000I-264654J0D01*
G01*
X24259654Y-48927000D01*
G75*
G02*
X23995000Y-48662346I0J264654D01*
G01*
X23995000Y-47349654D01*
G75*
G02*
X24259654Y-47085000I264654J0D01*
G01*
G37*
X79375000Y-36830000D03*
X79375000Y-34290000D03*
G36*
G01*
X78488654Y-30829000D02*
X80261346Y-30829000D01*
G75*
G02*
X80526000Y-31093654I0J-264654D01*
G01*
X80526000Y-32406346D01*
G75*
G02*
X80261346Y-32671000I-264654J0D01*
G01*
X78488654Y-32671000D01*
G75*
G02*
X78224000Y-32406346I0J264654D01*
G01*
X78224000Y-31093654D01*
G75*
G02*
X78488654Y-30829000I264654J0D01*
G01*
G37*
D13*
X23010726Y-27027274D03*
X21844000Y-26544000D03*
X20677274Y-27027274D03*
X20194000Y-28194000D03*
X20677274Y-29360726D03*
X21844000Y-29844000D03*
X23010726Y-29360726D03*
X23494000Y-28194000D03*
D14*
X21844000Y-28194000D03*
D13*
X84097726Y-27027274D03*
X82931000Y-26544000D03*
X81764274Y-27027274D03*
X81281000Y-28194000D03*
X81764274Y-29360726D03*
X82931000Y-29844000D03*
X84097726Y-29360726D03*
X84581000Y-28194000D03*
D14*
X82931000Y-28194000D03*
X82931000Y-70866000D03*
D13*
X84581000Y-70866000D03*
X84097726Y-72032726D03*
X82931000Y-72516000D03*
X81764274Y-72032726D03*
X81281000Y-70866000D03*
X81764274Y-69699274D03*
X82931000Y-69216000D03*
X84097726Y-69699274D03*
D14*
X21844000Y-70866000D03*
D13*
X23494000Y-70866000D03*
X23010726Y-72032726D03*
X21844000Y-72516000D03*
X20677274Y-72032726D03*
X20194000Y-70866000D03*
X20677274Y-69699274D03*
X21844000Y-69216000D03*
X23010726Y-69699274D03*
D15*
X69088000Y-49530000D03*
G36*
G01*
X68188000Y-46039000D02*
X69988000Y-46039000D01*
G75*
G02*
X70039000Y-46090000I0J-51000D01*
G01*
X70039000Y-47890000D01*
G75*
G02*
X69988000Y-47941000I-51000J0D01*
G01*
X68188000Y-47941000D01*
G75*
G02*
X68137000Y-47890000I0J51000D01*
G01*
X68137000Y-46090000D01*
G75*
G02*
X68188000Y-46039000I51000J0D01*
G01*
G37*
G36*
G01*
X34810500Y-64237000D02*
X33009500Y-64237000D01*
G75*
G02*
X32109000Y-63336500I0J900500D01*
G01*
X32109000Y-61535500D01*
G75*
G02*
X33009500Y-60635000I900500J0D01*
G01*
X34810500Y-60635000D01*
G75*
G02*
X35711000Y-61535500I0J-900500D01*
G01*
X35711000Y-63336500D01*
G75*
G02*
X34810500Y-64237000I-900500J0D01*
G01*
G37*
G36*
G01*
X30235500Y-66987000D02*
X28184500Y-66987000D01*
G75*
G02*
X27409000Y-66211500I0J775500D01*
G01*
X27409000Y-64660500D01*
G75*
G02*
X28184500Y-63885000I775500J0D01*
G01*
X30235500Y-63885000D01*
G75*
G02*
X31011000Y-64660500I0J-775500D01*
G01*
X31011000Y-66211500D01*
G75*
G02*
X30235500Y-66987000I-775500J0D01*
G01*
G37*
G36*
G01*
X30960000Y-61237000D02*
X27460000Y-61237000D01*
G75*
G02*
X27409000Y-61186000I0J51000D01*
G01*
X27409000Y-57686000D01*
G75*
G02*
X27460000Y-57635000I51000J0D01*
G01*
X30960000Y-57635000D01*
G75*
G02*
X31011000Y-57686000I0J-51000D01*
G01*
X31011000Y-61186000D01*
G75*
G02*
X30960000Y-61237000I-51000J0D01*
G01*
G37*
D16*
X73719399Y-29845000D03*
X71179399Y-29845000D03*
X68639399Y-29845000D03*
G36*
G01*
X66949399Y-30746000D02*
X65249399Y-30746000D01*
G75*
G02*
X65198399Y-30695000I0J51000D01*
G01*
X65198399Y-28995000D01*
G75*
G02*
X65249399Y-28944000I51000J0D01*
G01*
X66949399Y-28944000D01*
G75*
G02*
X67000399Y-28995000I0J-51000D01*
G01*
X67000399Y-30695000D01*
G75*
G02*
X66949399Y-30746000I-51000J0D01*
G01*
G37*
D12*
X25146000Y-42926000D03*
X25146000Y-40386000D03*
X25146000Y-37846000D03*
X25146000Y-35306000D03*
G36*
G01*
X24259654Y-31845000D02*
X26032346Y-31845000D01*
G75*
G02*
X26297000Y-32109654I0J-264654D01*
G01*
X26297000Y-33422346D01*
G75*
G02*
X26032346Y-33687000I-264654J0D01*
G01*
X24259654Y-33687000D01*
G75*
G02*
X23995000Y-33422346I0J264654D01*
G01*
X23995000Y-32109654D01*
G75*
G02*
X24259654Y-31845000I264654J0D01*
G01*
G37*
D17*
G36*
X31012165Y-66209874D02*
G01*
X31013000Y-66211500D01*
X31013000Y-66267860D01*
X31012990Y-66268056D01*
X30998697Y-66413175D01*
X30998621Y-66413560D01*
X30958080Y-66547206D01*
X30957930Y-66547568D01*
X30892100Y-66670727D01*
X30891882Y-66671053D01*
X30803286Y-66779009D01*
X30803009Y-66779286D01*
X30695053Y-66867882D01*
X30694727Y-66868100D01*
X30571568Y-66933930D01*
X30571206Y-66934080D01*
X30437560Y-66974621D01*
X30437175Y-66974697D01*
X30292056Y-66988990D01*
X30291860Y-66989000D01*
X30235500Y-66989000D01*
X30233768Y-66988000D01*
X30233768Y-66986000D01*
X30235304Y-66985010D01*
X30386398Y-66970129D01*
X30531502Y-66926112D01*
X30665229Y-66854634D01*
X30782440Y-66758440D01*
X30878634Y-66641229D01*
X30950112Y-66507502D01*
X30994129Y-66362398D01*
X31009010Y-66211304D01*
X31010175Y-66209678D01*
X31012165Y-66209874D01*
G37*
G36*
X27410990Y-66211304D02*
G01*
X27425871Y-66362398D01*
X27469888Y-66507502D01*
X27541366Y-66641229D01*
X27637560Y-66758440D01*
X27754771Y-66854634D01*
X27888498Y-66926112D01*
X28033602Y-66970129D01*
X28184696Y-66985010D01*
X28186322Y-66986175D01*
X28186126Y-66988165D01*
X28184500Y-66989000D01*
X28128140Y-66989000D01*
X28127944Y-66988990D01*
X27982825Y-66974697D01*
X27982440Y-66974621D01*
X27848794Y-66934080D01*
X27848432Y-66933930D01*
X27725273Y-66868100D01*
X27724947Y-66867882D01*
X27616991Y-66779286D01*
X27616714Y-66779009D01*
X27528118Y-66671053D01*
X27527900Y-66670727D01*
X27462070Y-66547568D01*
X27461920Y-66547206D01*
X27421379Y-66413560D01*
X27421303Y-66413175D01*
X27407010Y-66268056D01*
X27407000Y-66267860D01*
X27407000Y-66211500D01*
X27408000Y-66209768D01*
X27410000Y-66209768D01*
X27410990Y-66211304D01*
G37*
G36*
X28186232Y-63884000D02*
G01*
X28186232Y-63886000D01*
X28184696Y-63886990D01*
X28033602Y-63901871D01*
X27888498Y-63945888D01*
X27754771Y-64017366D01*
X27637560Y-64113560D01*
X27541366Y-64230771D01*
X27469888Y-64364498D01*
X27425871Y-64509602D01*
X27410990Y-64660696D01*
X27409825Y-64662322D01*
X27407835Y-64662126D01*
X27407000Y-64660500D01*
X27407000Y-64604140D01*
X27407010Y-64603944D01*
X27421303Y-64458825D01*
X27421379Y-64458440D01*
X27461920Y-64324794D01*
X27462070Y-64324432D01*
X27527900Y-64201273D01*
X27528118Y-64200947D01*
X27616714Y-64092991D01*
X27616991Y-64092714D01*
X27724947Y-64004118D01*
X27725273Y-64003900D01*
X27848432Y-63938070D01*
X27848794Y-63937920D01*
X27982440Y-63897379D01*
X27982825Y-63897303D01*
X28127944Y-63883010D01*
X28128140Y-63883000D01*
X28184500Y-63883000D01*
X28186232Y-63884000D01*
G37*
G36*
X30292056Y-63883010D02*
G01*
X30437175Y-63897303D01*
X30437560Y-63897379D01*
X30571206Y-63937920D01*
X30571568Y-63938070D01*
X30694727Y-64003900D01*
X30695053Y-64004118D01*
X30803009Y-64092714D01*
X30803286Y-64092991D01*
X30891882Y-64200947D01*
X30892100Y-64201273D01*
X30957930Y-64324432D01*
X30958080Y-64324794D01*
X30998621Y-64458440D01*
X30998697Y-64458825D01*
X31012990Y-64603944D01*
X31013000Y-64604140D01*
X31013000Y-64660500D01*
X31012000Y-64662232D01*
X31010000Y-64662232D01*
X31009010Y-64660696D01*
X30994129Y-64509602D01*
X30950112Y-64364498D01*
X30878634Y-64230771D01*
X30782440Y-64113560D01*
X30665229Y-64017366D01*
X30531502Y-63945888D01*
X30386398Y-63901871D01*
X30235304Y-63886990D01*
X30233678Y-63885825D01*
X30233874Y-63883835D01*
X30235500Y-63883000D01*
X30291860Y-63883000D01*
X30292056Y-63883010D01*
G37*
G36*
X35712165Y-63334874D02*
G01*
X35713000Y-63336500D01*
X35713000Y-63392860D01*
X35712990Y-63393056D01*
X35696295Y-63562562D01*
X35696219Y-63562947D01*
X35648565Y-63720041D01*
X35648415Y-63720403D01*
X35571033Y-63865174D01*
X35570815Y-63865500D01*
X35466674Y-63992397D01*
X35466397Y-63992674D01*
X35339500Y-64096815D01*
X35339174Y-64097033D01*
X35194403Y-64174415D01*
X35194041Y-64174565D01*
X35036947Y-64222219D01*
X35036562Y-64222295D01*
X34867056Y-64238990D01*
X34866860Y-64239000D01*
X34810500Y-64239000D01*
X34808768Y-64238000D01*
X34808768Y-64236000D01*
X34810304Y-64235010D01*
X34985784Y-64217727D01*
X35154337Y-64166597D01*
X35309675Y-64083567D01*
X35445829Y-63971829D01*
X35557567Y-63835675D01*
X35640597Y-63680337D01*
X35691727Y-63511784D01*
X35709010Y-63336304D01*
X35710175Y-63334678D01*
X35712165Y-63334874D01*
G37*
G36*
X32110990Y-63336304D02*
G01*
X32128273Y-63511784D01*
X32179403Y-63680337D01*
X32262433Y-63835675D01*
X32374171Y-63971829D01*
X32510325Y-64083567D01*
X32665663Y-64166597D01*
X32834216Y-64217727D01*
X33009696Y-64235010D01*
X33011322Y-64236175D01*
X33011126Y-64238165D01*
X33009500Y-64239000D01*
X32953140Y-64239000D01*
X32952944Y-64238990D01*
X32783438Y-64222295D01*
X32783053Y-64222219D01*
X32625959Y-64174565D01*
X32625597Y-64174415D01*
X32480826Y-64097033D01*
X32480500Y-64096815D01*
X32353603Y-63992674D01*
X32353326Y-63992397D01*
X32249185Y-63865500D01*
X32248967Y-63865174D01*
X32171585Y-63720403D01*
X32171435Y-63720041D01*
X32123781Y-63562947D01*
X32123705Y-63562562D01*
X32107010Y-63393056D01*
X32107000Y-63392860D01*
X32107000Y-63336500D01*
X32108000Y-63334768D01*
X32110000Y-63334768D01*
X32110990Y-63336304D01*
G37*
G36*
X33011232Y-60634000D02*
G01*
X33011232Y-60636000D01*
X33009696Y-60636990D01*
X32834216Y-60654273D01*
X32665663Y-60705403D01*
X32510325Y-60788433D01*
X32374171Y-60900171D01*
X32262433Y-61036325D01*
X32179403Y-61191663D01*
X32128273Y-61360216D01*
X32110990Y-61535696D01*
X32109825Y-61537322D01*
X32107835Y-61537126D01*
X32107000Y-61535500D01*
X32107000Y-61479140D01*
X32107010Y-61478944D01*
X32123705Y-61309438D01*
X32123781Y-61309053D01*
X32171435Y-61151959D01*
X32171585Y-61151597D01*
X32248967Y-61006826D01*
X32249185Y-61006500D01*
X32353326Y-60879603D01*
X32353603Y-60879326D01*
X32480500Y-60775185D01*
X32480826Y-60774967D01*
X32625597Y-60697585D01*
X32625959Y-60697435D01*
X32783053Y-60649781D01*
X32783438Y-60649705D01*
X32952944Y-60633010D01*
X32953140Y-60633000D01*
X33009500Y-60633000D01*
X33011232Y-60634000D01*
G37*
G36*
X34867056Y-60633010D02*
G01*
X35036562Y-60649705D01*
X35036947Y-60649781D01*
X35194041Y-60697435D01*
X35194403Y-60697585D01*
X35339174Y-60774967D01*
X35339500Y-60775185D01*
X35466397Y-60879326D01*
X35466674Y-60879603D01*
X35570815Y-61006500D01*
X35571033Y-61006826D01*
X35648415Y-61151597D01*
X35648565Y-61151959D01*
X35696219Y-61309053D01*
X35696295Y-61309438D01*
X35712990Y-61478944D01*
X35713000Y-61479140D01*
X35713000Y-61535500D01*
X35712000Y-61537232D01*
X35710000Y-61537232D01*
X35709010Y-61535696D01*
X35691727Y-61360216D01*
X35640597Y-61191663D01*
X35557567Y-61036325D01*
X35445829Y-60900171D01*
X35309675Y-60788433D01*
X35154337Y-60705403D01*
X34985784Y-60654273D01*
X34810304Y-60636990D01*
X34808678Y-60635825D01*
X34808874Y-60633835D01*
X34810500Y-60633000D01*
X34866860Y-60633000D01*
X34867056Y-60633010D01*
G37*
G36*
X23996990Y-48662150D02*
G01*
X24002055Y-48713582D01*
X24017003Y-48762856D01*
X24041273Y-48808264D01*
X24073936Y-48848064D01*
X24113736Y-48880727D01*
X24159144Y-48904997D01*
X24208418Y-48919945D01*
X24259850Y-48925010D01*
X24261476Y-48926175D01*
X24261280Y-48928165D01*
X24259654Y-48929000D01*
X24176712Y-48929000D01*
X24176516Y-48928990D01*
X24136244Y-48925024D01*
X24135859Y-48924948D01*
X24103035Y-48914990D01*
X24102673Y-48914840D01*
X24072425Y-48898672D01*
X24072099Y-48898454D01*
X24045583Y-48876694D01*
X24045306Y-48876417D01*
X24023546Y-48849901D01*
X24023328Y-48849575D01*
X24007160Y-48819327D01*
X24007010Y-48818965D01*
X23997052Y-48786141D01*
X23996976Y-48785756D01*
X23993010Y-48745484D01*
X23993000Y-48745288D01*
X23993000Y-48662346D01*
X23994000Y-48660614D01*
X23996000Y-48660614D01*
X23996990Y-48662150D01*
G37*
G36*
X26298165Y-48660720D02*
G01*
X26299000Y-48662346D01*
X26299000Y-48745288D01*
X26298990Y-48745484D01*
X26295024Y-48785756D01*
X26294948Y-48786141D01*
X26284990Y-48818965D01*
X26284840Y-48819327D01*
X26268672Y-48849575D01*
X26268454Y-48849901D01*
X26246694Y-48876417D01*
X26246417Y-48876694D01*
X26219901Y-48898454D01*
X26219575Y-48898672D01*
X26189327Y-48914840D01*
X26188965Y-48914990D01*
X26156141Y-48924948D01*
X26155756Y-48925024D01*
X26115484Y-48928990D01*
X26115288Y-48929000D01*
X26032346Y-48929000D01*
X26030614Y-48928000D01*
X26030614Y-48926000D01*
X26032150Y-48925010D01*
X26083582Y-48919945D01*
X26132856Y-48904997D01*
X26178264Y-48880727D01*
X26218064Y-48848064D01*
X26250727Y-48808264D01*
X26274997Y-48762856D01*
X26289945Y-48713582D01*
X26295010Y-48662150D01*
X26296175Y-48660524D01*
X26298165Y-48660720D01*
G37*
G36*
X24261386Y-47084000D02*
G01*
X24261386Y-47086000D01*
X24259850Y-47086990D01*
X24208418Y-47092055D01*
X24159144Y-47107003D01*
X24113736Y-47131273D01*
X24073936Y-47163936D01*
X24041273Y-47203736D01*
X24017003Y-47249144D01*
X24002055Y-47298418D01*
X23996990Y-47349850D01*
X23995825Y-47351476D01*
X23993835Y-47351280D01*
X23993000Y-47349654D01*
X23993000Y-47266712D01*
X23993010Y-47266516D01*
X23996976Y-47226244D01*
X23997052Y-47225859D01*
X24007010Y-47193035D01*
X24007160Y-47192673D01*
X24023328Y-47162425D01*
X24023546Y-47162099D01*
X24045306Y-47135583D01*
X24045583Y-47135306D01*
X24072099Y-47113546D01*
X24072425Y-47113328D01*
X24102673Y-47097160D01*
X24103035Y-47097010D01*
X24135859Y-47087052D01*
X24136244Y-47086976D01*
X24176516Y-47083010D01*
X24176712Y-47083000D01*
X24259654Y-47083000D01*
X24261386Y-47084000D01*
G37*
G36*
X26115484Y-47083010D02*
G01*
X26155756Y-47086976D01*
X26156141Y-47087052D01*
X26188965Y-47097010D01*
X26189327Y-47097160D01*
X26219575Y-47113328D01*
X26219901Y-47113546D01*
X26246417Y-47135306D01*
X26246694Y-47135583D01*
X26268454Y-47162099D01*
X26268672Y-47162425D01*
X26284840Y-47192673D01*
X26284990Y-47193035D01*
X26294948Y-47225859D01*
X26295024Y-47226244D01*
X26298990Y-47266516D01*
X26299000Y-47266712D01*
X26299000Y-47349654D01*
X26298000Y-47351386D01*
X26296000Y-47351386D01*
X26295010Y-47349850D01*
X26289945Y-47298418D01*
X26274997Y-47249144D01*
X26250727Y-47203736D01*
X26218064Y-47163936D01*
X26178264Y-47131273D01*
X26132856Y-47107003D01*
X26083582Y-47092055D01*
X26032150Y-47086990D01*
X26030524Y-47085825D01*
X26030720Y-47083835D01*
X26032346Y-47083000D01*
X26115288Y-47083000D01*
X26115484Y-47083010D01*
G37*
G36*
X80527165Y-42564720D02*
G01*
X80528000Y-42566346D01*
X80528000Y-42649288D01*
X80527990Y-42649484D01*
X80524024Y-42689756D01*
X80523948Y-42690141D01*
X80513990Y-42722965D01*
X80513840Y-42723327D01*
X80497672Y-42753575D01*
X80497454Y-42753901D01*
X80475694Y-42780417D01*
X80475417Y-42780694D01*
X80448901Y-42802454D01*
X80448575Y-42802672D01*
X80418327Y-42818840D01*
X80417965Y-42818990D01*
X80385141Y-42828948D01*
X80384756Y-42829024D01*
X80344484Y-42832990D01*
X80344288Y-42833000D01*
X80261346Y-42833000D01*
X80259614Y-42832000D01*
X80259614Y-42830000D01*
X80261150Y-42829010D01*
X80312582Y-42823945D01*
X80361856Y-42808997D01*
X80407264Y-42784727D01*
X80447064Y-42752064D01*
X80479727Y-42712264D01*
X80503997Y-42666856D01*
X80518945Y-42617582D01*
X80524010Y-42566150D01*
X80525175Y-42564524D01*
X80527165Y-42564720D01*
G37*
G36*
X78225990Y-42566150D02*
G01*
X78231055Y-42617582D01*
X78246003Y-42666856D01*
X78270273Y-42712264D01*
X78302936Y-42752064D01*
X78342736Y-42784727D01*
X78388144Y-42808997D01*
X78437418Y-42823945D01*
X78488850Y-42829010D01*
X78490476Y-42830175D01*
X78490280Y-42832165D01*
X78488654Y-42833000D01*
X78405712Y-42833000D01*
X78405516Y-42832990D01*
X78365244Y-42829024D01*
X78364859Y-42828948D01*
X78332035Y-42818990D01*
X78331673Y-42818840D01*
X78301425Y-42802672D01*
X78301099Y-42802454D01*
X78274583Y-42780694D01*
X78274306Y-42780417D01*
X78252546Y-42753901D01*
X78252328Y-42753575D01*
X78236160Y-42723327D01*
X78236010Y-42722965D01*
X78226052Y-42690141D01*
X78225976Y-42689756D01*
X78222010Y-42649484D01*
X78222000Y-42649288D01*
X78222000Y-42566346D01*
X78223000Y-42564614D01*
X78225000Y-42564614D01*
X78225990Y-42566150D01*
G37*
G36*
X78490386Y-40988000D02*
G01*
X78490386Y-40990000D01*
X78488850Y-40990990D01*
X78437418Y-40996055D01*
X78388144Y-41011003D01*
X78342736Y-41035273D01*
X78302936Y-41067936D01*
X78270273Y-41107736D01*
X78246003Y-41153144D01*
X78231055Y-41202418D01*
X78225990Y-41253850D01*
X78224825Y-41255476D01*
X78222835Y-41255280D01*
X78222000Y-41253654D01*
X78222000Y-41170712D01*
X78222010Y-41170516D01*
X78225976Y-41130244D01*
X78226052Y-41129859D01*
X78236010Y-41097035D01*
X78236160Y-41096673D01*
X78252328Y-41066425D01*
X78252546Y-41066099D01*
X78274306Y-41039583D01*
X78274583Y-41039306D01*
X78301099Y-41017546D01*
X78301425Y-41017328D01*
X78331673Y-41001160D01*
X78332035Y-41001010D01*
X78364859Y-40991052D01*
X78365244Y-40990976D01*
X78405516Y-40987010D01*
X78405712Y-40987000D01*
X78488654Y-40987000D01*
X78490386Y-40988000D01*
G37*
G36*
X80344484Y-40987010D02*
G01*
X80384756Y-40990976D01*
X80385141Y-40991052D01*
X80417965Y-41001010D01*
X80418327Y-41001160D01*
X80448575Y-41017328D01*
X80448901Y-41017546D01*
X80475417Y-41039306D01*
X80475694Y-41039583D01*
X80497454Y-41066099D01*
X80497672Y-41066425D01*
X80513840Y-41096673D01*
X80513990Y-41097035D01*
X80523948Y-41129859D01*
X80524024Y-41130244D01*
X80527990Y-41170516D01*
X80528000Y-41170712D01*
X80528000Y-41253654D01*
X80527000Y-41255386D01*
X80525000Y-41255386D01*
X80524010Y-41253850D01*
X80518945Y-41202418D01*
X80503997Y-41153144D01*
X80479727Y-41107736D01*
X80447064Y-41067936D01*
X80407264Y-41035273D01*
X80361856Y-41011003D01*
X80312582Y-40996055D01*
X80261150Y-40990990D01*
X80259524Y-40989825D01*
X80259720Y-40987835D01*
X80261346Y-40987000D01*
X80344288Y-40987000D01*
X80344484Y-40987010D01*
G37*
G36*
X23996990Y-33422150D02*
G01*
X24002055Y-33473582D01*
X24017003Y-33522856D01*
X24041273Y-33568264D01*
X24073936Y-33608064D01*
X24113736Y-33640727D01*
X24159144Y-33664997D01*
X24208418Y-33679945D01*
X24259850Y-33685010D01*
X24261476Y-33686175D01*
X24261280Y-33688165D01*
X24259654Y-33689000D01*
X24176712Y-33689000D01*
X24176516Y-33688990D01*
X24136244Y-33685024D01*
X24135859Y-33684948D01*
X24103035Y-33674990D01*
X24102673Y-33674840D01*
X24072425Y-33658672D01*
X24072099Y-33658454D01*
X24045583Y-33636694D01*
X24045306Y-33636417D01*
X24023546Y-33609901D01*
X24023328Y-33609575D01*
X24007160Y-33579327D01*
X24007010Y-33578965D01*
X23997052Y-33546141D01*
X23996976Y-33545756D01*
X23993010Y-33505484D01*
X23993000Y-33505288D01*
X23993000Y-33422346D01*
X23994000Y-33420614D01*
X23996000Y-33420614D01*
X23996990Y-33422150D01*
G37*
G36*
X26298165Y-33420720D02*
G01*
X26299000Y-33422346D01*
X26299000Y-33505288D01*
X26298990Y-33505484D01*
X26295024Y-33545756D01*
X26294948Y-33546141D01*
X26284990Y-33578965D01*
X26284840Y-33579327D01*
X26268672Y-33609575D01*
X26268454Y-33609901D01*
X26246694Y-33636417D01*
X26246417Y-33636694D01*
X26219901Y-33658454D01*
X26219575Y-33658672D01*
X26189327Y-33674840D01*
X26188965Y-33674990D01*
X26156141Y-33684948D01*
X26155756Y-33685024D01*
X26115484Y-33688990D01*
X26115288Y-33689000D01*
X26032346Y-33689000D01*
X26030614Y-33688000D01*
X26030614Y-33686000D01*
X26032150Y-33685010D01*
X26083582Y-33679945D01*
X26132856Y-33664997D01*
X26178264Y-33640727D01*
X26218064Y-33608064D01*
X26250727Y-33568264D01*
X26274997Y-33522856D01*
X26289945Y-33473582D01*
X26295010Y-33422150D01*
X26296175Y-33420524D01*
X26298165Y-33420720D01*
G37*
G36*
X80527165Y-32404720D02*
G01*
X80528000Y-32406346D01*
X80528000Y-32489288D01*
X80527990Y-32489484D01*
X80524024Y-32529756D01*
X80523948Y-32530141D01*
X80513990Y-32562965D01*
X80513840Y-32563327D01*
X80497672Y-32593575D01*
X80497454Y-32593901D01*
X80475694Y-32620417D01*
X80475417Y-32620694D01*
X80448901Y-32642454D01*
X80448575Y-32642672D01*
X80418327Y-32658840D01*
X80417965Y-32658990D01*
X80385141Y-32668948D01*
X80384756Y-32669024D01*
X80344484Y-32672990D01*
X80344288Y-32673000D01*
X80261346Y-32673000D01*
X80259614Y-32672000D01*
X80259614Y-32670000D01*
X80261150Y-32669010D01*
X80312582Y-32663945D01*
X80361856Y-32648997D01*
X80407264Y-32624727D01*
X80447064Y-32592064D01*
X80479727Y-32552264D01*
X80503997Y-32506856D01*
X80518945Y-32457582D01*
X80524010Y-32406150D01*
X80525175Y-32404524D01*
X80527165Y-32404720D01*
G37*
G36*
X78225990Y-32406150D02*
G01*
X78231055Y-32457582D01*
X78246003Y-32506856D01*
X78270273Y-32552264D01*
X78302936Y-32592064D01*
X78342736Y-32624727D01*
X78388144Y-32648997D01*
X78437418Y-32663945D01*
X78488850Y-32669010D01*
X78490476Y-32670175D01*
X78490280Y-32672165D01*
X78488654Y-32673000D01*
X78405712Y-32673000D01*
X78405516Y-32672990D01*
X78365244Y-32669024D01*
X78364859Y-32668948D01*
X78332035Y-32658990D01*
X78331673Y-32658840D01*
X78301425Y-32642672D01*
X78301099Y-32642454D01*
X78274583Y-32620694D01*
X78274306Y-32620417D01*
X78252546Y-32593901D01*
X78252328Y-32593575D01*
X78236160Y-32563327D01*
X78236010Y-32562965D01*
X78226052Y-32530141D01*
X78225976Y-32529756D01*
X78222010Y-32489484D01*
X78222000Y-32489288D01*
X78222000Y-32406346D01*
X78223000Y-32404614D01*
X78225000Y-32404614D01*
X78225990Y-32406150D01*
G37*
G36*
X24261386Y-31844000D02*
G01*
X24261386Y-31846000D01*
X24259850Y-31846990D01*
X24208418Y-31852055D01*
X24159144Y-31867003D01*
X24113736Y-31891273D01*
X24073936Y-31923936D01*
X24041273Y-31963736D01*
X24017003Y-32009144D01*
X24002055Y-32058418D01*
X23996990Y-32109850D01*
X23995825Y-32111476D01*
X23993835Y-32111280D01*
X23993000Y-32109654D01*
X23993000Y-32026712D01*
X23993010Y-32026516D01*
X23996976Y-31986244D01*
X23997052Y-31985859D01*
X24007010Y-31953035D01*
X24007160Y-31952673D01*
X24023328Y-31922425D01*
X24023546Y-31922099D01*
X24045306Y-31895583D01*
X24045583Y-31895306D01*
X24072099Y-31873546D01*
X24072425Y-31873328D01*
X24102673Y-31857160D01*
X24103035Y-31857010D01*
X24135859Y-31847052D01*
X24136244Y-31846976D01*
X24176516Y-31843010D01*
X24176712Y-31843000D01*
X24259654Y-31843000D01*
X24261386Y-31844000D01*
G37*
G36*
X26115484Y-31843010D02*
G01*
X26155756Y-31846976D01*
X26156141Y-31847052D01*
X26188965Y-31857010D01*
X26189327Y-31857160D01*
X26219575Y-31873328D01*
X26219901Y-31873546D01*
X26246417Y-31895306D01*
X26246694Y-31895583D01*
X26268454Y-31922099D01*
X26268672Y-31922425D01*
X26284840Y-31952673D01*
X26284990Y-31953035D01*
X26294948Y-31985859D01*
X26295024Y-31986244D01*
X26298990Y-32026516D01*
X26299000Y-32026712D01*
X26299000Y-32109654D01*
X26298000Y-32111386D01*
X26296000Y-32111386D01*
X26295010Y-32109850D01*
X26289945Y-32058418D01*
X26274997Y-32009144D01*
X26250727Y-31963736D01*
X26218064Y-31923936D01*
X26178264Y-31891273D01*
X26132856Y-31867003D01*
X26083582Y-31852055D01*
X26032150Y-31846990D01*
X26030524Y-31845825D01*
X26030720Y-31843835D01*
X26032346Y-31843000D01*
X26115288Y-31843000D01*
X26115484Y-31843010D01*
G37*
G36*
X78490386Y-30828000D02*
G01*
X78490386Y-30830000D01*
X78488850Y-30830990D01*
X78437418Y-30836055D01*
X78388144Y-30851003D01*
X78342736Y-30875273D01*
X78302936Y-30907936D01*
X78270273Y-30947736D01*
X78246003Y-30993144D01*
X78231055Y-31042418D01*
X78225990Y-31093850D01*
X78224825Y-31095476D01*
X78222835Y-31095280D01*
X78222000Y-31093654D01*
X78222000Y-31010712D01*
X78222010Y-31010516D01*
X78225976Y-30970244D01*
X78226052Y-30969859D01*
X78236010Y-30937035D01*
X78236160Y-30936673D01*
X78252328Y-30906425D01*
X78252546Y-30906099D01*
X78274306Y-30879583D01*
X78274583Y-30879306D01*
X78301099Y-30857546D01*
X78301425Y-30857328D01*
X78331673Y-30841160D01*
X78332035Y-30841010D01*
X78364859Y-30831052D01*
X78365244Y-30830976D01*
X78405516Y-30827010D01*
X78405712Y-30827000D01*
X78488654Y-30827000D01*
X78490386Y-30828000D01*
G37*
G36*
X80344484Y-30827010D02*
G01*
X80384756Y-30830976D01*
X80385141Y-30831052D01*
X80417965Y-30841010D01*
X80418327Y-30841160D01*
X80448575Y-30857328D01*
X80448901Y-30857546D01*
X80475417Y-30879306D01*
X80475694Y-30879583D01*
X80497454Y-30906099D01*
X80497672Y-30906425D01*
X80513840Y-30936673D01*
X80513990Y-30937035D01*
X80523948Y-30969859D01*
X80524024Y-30970244D01*
X80527990Y-31010516D01*
X80528000Y-31010712D01*
X80528000Y-31093654D01*
X80527000Y-31095386D01*
X80525000Y-31095386D01*
X80524010Y-31093850D01*
X80518945Y-31042418D01*
X80503997Y-30993144D01*
X80479727Y-30947736D01*
X80447064Y-30907936D01*
X80407264Y-30875273D01*
X80361856Y-30851003D01*
X80312582Y-30836055D01*
X80261150Y-30830990D01*
X80259524Y-30829825D01*
X80259720Y-30827835D01*
X80261346Y-30827000D01*
X80344288Y-30827000D01*
X80344484Y-30827010D01*
G37*
M02*
