G04 #@! TF.GenerationSoftware,KiCad,Pcbnew,(5.1.9)-1*
G04 #@! TF.CreationDate,2021-06-01T19:36:45+03:00*
G04 #@! TF.ProjectId,ESP-RGBW-3S,4553502d-5247-4425-972d-33532e6b6963,0.4*
G04 #@! TF.SameCoordinates,Original*
G04 #@! TF.FileFunction,Paste,Top*
G04 #@! TF.FilePolarity,Positive*
%FSLAX46Y46*%
G04 Gerber Fmt 4.6, Leading zero omitted, Abs format (unit mm)*
G04 Created by KiCad (PCBNEW (5.1.9)-1) date 2021-06-01 19:36:45*
%MOMM*%
%LPD*%
G01*
G04 APERTURE LIST*
%ADD10R,2.500000X1.100000*%
%ADD11R,1.100000X2.500000*%
G04 APERTURE END LIST*
G36*
G01*
X72244000Y-46539998D02*
X72244000Y-47440002D01*
G75*
G02*
X71994002Y-47690000I-249998J0D01*
G01*
X71468998Y-47690000D01*
G75*
G02*
X71219000Y-47440002I0J249998D01*
G01*
X71219000Y-46539998D01*
G75*
G02*
X71468998Y-46290000I249998J0D01*
G01*
X71994002Y-46290000D01*
G75*
G02*
X72244000Y-46539998I0J-249998D01*
G01*
G37*
G36*
G01*
X74069000Y-46539998D02*
X74069000Y-47440002D01*
G75*
G02*
X73819002Y-47690000I-249998J0D01*
G01*
X73293998Y-47690000D01*
G75*
G02*
X73044000Y-47440002I0J249998D01*
G01*
X73044000Y-46539998D01*
G75*
G02*
X73293998Y-46290000I249998J0D01*
G01*
X73819002Y-46290000D01*
G75*
G02*
X74069000Y-46539998I0J-249998D01*
G01*
G37*
G36*
G01*
X72244000Y-49206998D02*
X72244000Y-50107002D01*
G75*
G02*
X71994002Y-50357000I-249998J0D01*
G01*
X71468998Y-50357000D01*
G75*
G02*
X71219000Y-50107002I0J249998D01*
G01*
X71219000Y-49206998D01*
G75*
G02*
X71468998Y-48957000I249998J0D01*
G01*
X71994002Y-48957000D01*
G75*
G02*
X72244000Y-49206998I0J-249998D01*
G01*
G37*
G36*
G01*
X74069000Y-49206998D02*
X74069000Y-50107002D01*
G75*
G02*
X73819002Y-50357000I-249998J0D01*
G01*
X73293998Y-50357000D01*
G75*
G02*
X73044000Y-50107002I0J249998D01*
G01*
X73044000Y-49206998D01*
G75*
G02*
X73293998Y-48957000I249998J0D01*
G01*
X73819002Y-48957000D01*
G75*
G02*
X74069000Y-49206998I0J-249998D01*
G01*
G37*
G36*
G01*
X38144400Y-50310202D02*
X38144400Y-49410198D01*
G75*
G02*
X38394398Y-49160200I249998J0D01*
G01*
X38919402Y-49160200D01*
G75*
G02*
X39169400Y-49410198I0J-249998D01*
G01*
X39169400Y-50310202D01*
G75*
G02*
X38919402Y-50560200I-249998J0D01*
G01*
X38394398Y-50560200D01*
G75*
G02*
X38144400Y-50310202I0J249998D01*
G01*
G37*
G36*
G01*
X36319400Y-50310202D02*
X36319400Y-49410198D01*
G75*
G02*
X36569398Y-49160200I249998J0D01*
G01*
X37094402Y-49160200D01*
G75*
G02*
X37344400Y-49410198I0J-249998D01*
G01*
X37344400Y-50310202D01*
G75*
G02*
X37094402Y-50560200I-249998J0D01*
G01*
X36569398Y-50560200D01*
G75*
G02*
X36319400Y-50310202I0J249998D01*
G01*
G37*
G36*
G01*
X38119000Y-47136512D02*
X38119000Y-46236508D01*
G75*
G02*
X38368998Y-45986510I249998J0D01*
G01*
X38894002Y-45986510D01*
G75*
G02*
X39144000Y-46236508I0J-249998D01*
G01*
X39144000Y-47136512D01*
G75*
G02*
X38894002Y-47386510I-249998J0D01*
G01*
X38368998Y-47386510D01*
G75*
G02*
X38119000Y-47136512I0J249998D01*
G01*
G37*
G36*
G01*
X36294000Y-47136512D02*
X36294000Y-46236508D01*
G75*
G02*
X36543998Y-45986510I249998J0D01*
G01*
X37069002Y-45986510D01*
G75*
G02*
X37319000Y-46236508I0J-249998D01*
G01*
X37319000Y-47136512D01*
G75*
G02*
X37069002Y-47386510I-249998J0D01*
G01*
X36543998Y-47386510D01*
G75*
G02*
X36294000Y-47136512I0J249998D01*
G01*
G37*
G36*
G01*
X38119000Y-40789142D02*
X38119000Y-39889138D01*
G75*
G02*
X38368998Y-39639140I249998J0D01*
G01*
X38894002Y-39639140D01*
G75*
G02*
X39144000Y-39889138I0J-249998D01*
G01*
X39144000Y-40789142D01*
G75*
G02*
X38894002Y-41039140I-249998J0D01*
G01*
X38368998Y-41039140D01*
G75*
G02*
X38119000Y-40789142I0J249998D01*
G01*
G37*
G36*
G01*
X36294000Y-40789142D02*
X36294000Y-39889138D01*
G75*
G02*
X36543998Y-39639140I249998J0D01*
G01*
X37069002Y-39639140D01*
G75*
G02*
X37319000Y-39889138I0J-249998D01*
G01*
X37319000Y-40789142D01*
G75*
G02*
X37069002Y-41039140I-249998J0D01*
G01*
X36543998Y-41039140D01*
G75*
G02*
X36294000Y-40789142I0J249998D01*
G01*
G37*
G36*
G01*
X38119000Y-43962827D02*
X38119000Y-43062823D01*
G75*
G02*
X38368998Y-42812825I249998J0D01*
G01*
X38894002Y-42812825D01*
G75*
G02*
X39144000Y-43062823I0J-249998D01*
G01*
X39144000Y-43962827D01*
G75*
G02*
X38894002Y-44212825I-249998J0D01*
G01*
X38368998Y-44212825D01*
G75*
G02*
X38119000Y-43962827I0J249998D01*
G01*
G37*
G36*
G01*
X36294000Y-43962827D02*
X36294000Y-43062823D01*
G75*
G02*
X36543998Y-42812825I249998J0D01*
G01*
X37069002Y-42812825D01*
G75*
G02*
X37319000Y-43062823I0J-249998D01*
G01*
X37319000Y-43962827D01*
G75*
G02*
X37069002Y-44212825I-249998J0D01*
G01*
X36543998Y-44212825D01*
G75*
G02*
X36294000Y-43962827I0J249998D01*
G01*
G37*
G36*
G01*
X48557600Y-53992800D02*
X48557600Y-53042800D01*
G75*
G02*
X48807600Y-52792800I250000J0D01*
G01*
X49307600Y-52792800D01*
G75*
G02*
X49557600Y-53042800I0J-250000D01*
G01*
X49557600Y-53992800D01*
G75*
G02*
X49307600Y-54242800I-250000J0D01*
G01*
X48807600Y-54242800D01*
G75*
G02*
X48557600Y-53992800I0J250000D01*
G01*
G37*
G36*
G01*
X46657600Y-53992800D02*
X46657600Y-53042800D01*
G75*
G02*
X46907600Y-52792800I250000J0D01*
G01*
X47407600Y-52792800D01*
G75*
G02*
X47657600Y-53042800I0J-250000D01*
G01*
X47657600Y-53992800D01*
G75*
G02*
X47407600Y-54242800I-250000J0D01*
G01*
X46907600Y-54242800D01*
G75*
G02*
X46657600Y-53992800I0J250000D01*
G01*
G37*
G36*
G01*
X38194400Y-31263085D02*
X38194400Y-30313085D01*
G75*
G02*
X38444400Y-30063085I250000J0D01*
G01*
X38944400Y-30063085D01*
G75*
G02*
X39194400Y-30313085I0J-250000D01*
G01*
X39194400Y-31263085D01*
G75*
G02*
X38944400Y-31513085I-250000J0D01*
G01*
X38444400Y-31513085D01*
G75*
G02*
X38194400Y-31263085I0J250000D01*
G01*
G37*
G36*
G01*
X36294400Y-31263085D02*
X36294400Y-30313085D01*
G75*
G02*
X36544400Y-30063085I250000J0D01*
G01*
X37044400Y-30063085D01*
G75*
G02*
X37294400Y-30313085I0J-250000D01*
G01*
X37294400Y-31263085D01*
G75*
G02*
X37044400Y-31513085I-250000J0D01*
G01*
X36544400Y-31513085D01*
G75*
G02*
X36294400Y-31263085I0J250000D01*
G01*
G37*
G36*
G01*
X37319000Y-33541768D02*
X37319000Y-34441772D01*
G75*
G02*
X37069002Y-34691770I-249998J0D01*
G01*
X36543998Y-34691770D01*
G75*
G02*
X36294000Y-34441772I0J249998D01*
G01*
X36294000Y-33541768D01*
G75*
G02*
X36543998Y-33291770I249998J0D01*
G01*
X37069002Y-33291770D01*
G75*
G02*
X37319000Y-33541768I0J-249998D01*
G01*
G37*
G36*
G01*
X39144000Y-33541768D02*
X39144000Y-34441772D01*
G75*
G02*
X38894002Y-34691770I-249998J0D01*
G01*
X38368998Y-34691770D01*
G75*
G02*
X38119000Y-34441772I0J249998D01*
G01*
X38119000Y-33541768D01*
G75*
G02*
X38368998Y-33291770I249998J0D01*
G01*
X38894002Y-33291770D01*
G75*
G02*
X39144000Y-33541768I0J-249998D01*
G01*
G37*
G36*
G01*
X65932000Y-47440002D02*
X65932000Y-46539998D01*
G75*
G02*
X66181998Y-46290000I249998J0D01*
G01*
X66707002Y-46290000D01*
G75*
G02*
X66957000Y-46539998I0J-249998D01*
G01*
X66957000Y-47440002D01*
G75*
G02*
X66707002Y-47690000I-249998J0D01*
G01*
X66181998Y-47690000D01*
G75*
G02*
X65932000Y-47440002I0J249998D01*
G01*
G37*
G36*
G01*
X64107000Y-47440002D02*
X64107000Y-46539998D01*
G75*
G02*
X64356998Y-46290000I249998J0D01*
G01*
X64882002Y-46290000D01*
G75*
G02*
X65132000Y-46539998I0J-249998D01*
G01*
X65132000Y-47440002D01*
G75*
G02*
X64882002Y-47690000I-249998J0D01*
G01*
X64356998Y-47690000D01*
G75*
G02*
X64107000Y-47440002I0J249998D01*
G01*
G37*
G36*
G01*
X65932000Y-50107002D02*
X65932000Y-49206998D01*
G75*
G02*
X66181998Y-48957000I249998J0D01*
G01*
X66707002Y-48957000D01*
G75*
G02*
X66957000Y-49206998I0J-249998D01*
G01*
X66957000Y-50107002D01*
G75*
G02*
X66707002Y-50357000I-249998J0D01*
G01*
X66181998Y-50357000D01*
G75*
G02*
X65932000Y-50107002I0J249998D01*
G01*
G37*
G36*
G01*
X64107000Y-50107002D02*
X64107000Y-49206998D01*
G75*
G02*
X64356998Y-48957000I249998J0D01*
G01*
X64882002Y-48957000D01*
G75*
G02*
X65132000Y-49206998I0J-249998D01*
G01*
X65132000Y-50107002D01*
G75*
G02*
X64882002Y-50357000I-249998J0D01*
G01*
X64356998Y-50357000D01*
G75*
G02*
X64107000Y-50107002I0J249998D01*
G01*
G37*
G36*
G01*
X38093600Y-28034402D02*
X38093600Y-27134398D01*
G75*
G02*
X38343598Y-26884400I249998J0D01*
G01*
X38868602Y-26884400D01*
G75*
G02*
X39118600Y-27134398I0J-249998D01*
G01*
X39118600Y-28034402D01*
G75*
G02*
X38868602Y-28284400I-249998J0D01*
G01*
X38343598Y-28284400D01*
G75*
G02*
X38093600Y-28034402I0J249998D01*
G01*
G37*
G36*
G01*
X36268600Y-28034402D02*
X36268600Y-27134398D01*
G75*
G02*
X36518598Y-26884400I249998J0D01*
G01*
X37043602Y-26884400D01*
G75*
G02*
X37293600Y-27134398I0J-249998D01*
G01*
X37293600Y-28034402D01*
G75*
G02*
X37043602Y-28284400I-249998J0D01*
G01*
X36518598Y-28284400D01*
G75*
G02*
X36268600Y-28034402I0J249998D01*
G01*
G37*
G36*
G01*
X38119000Y-37615457D02*
X38119000Y-36715453D01*
G75*
G02*
X38368998Y-36465455I249998J0D01*
G01*
X38894002Y-36465455D01*
G75*
G02*
X39144000Y-36715453I0J-249998D01*
G01*
X39144000Y-37615457D01*
G75*
G02*
X38894002Y-37865455I-249998J0D01*
G01*
X38368998Y-37865455D01*
G75*
G02*
X38119000Y-37615457I0J249998D01*
G01*
G37*
G36*
G01*
X36294000Y-37615457D02*
X36294000Y-36715453D01*
G75*
G02*
X36543998Y-36465455I249998J0D01*
G01*
X37069002Y-36465455D01*
G75*
G02*
X37319000Y-36715453I0J-249998D01*
G01*
X37319000Y-37615457D01*
G75*
G02*
X37069002Y-37865455I-249998J0D01*
G01*
X36543998Y-37865455D01*
G75*
G02*
X36294000Y-37615457I0J249998D01*
G01*
G37*
D10*
X44385000Y-34163000D03*
X44385000Y-36163000D03*
X44385000Y-38163000D03*
X44385000Y-40163000D03*
X44385000Y-42163000D03*
X44385000Y-44163000D03*
X44385000Y-46163000D03*
X44385000Y-48163000D03*
X59785000Y-48163000D03*
X59785000Y-46163000D03*
X59785000Y-44163000D03*
X59785000Y-42163000D03*
X59785000Y-40163000D03*
X59785000Y-38163000D03*
X59785000Y-36163000D03*
X59785000Y-34163000D03*
D11*
X47075000Y-49863000D03*
X49075000Y-49863000D03*
X51075000Y-49863000D03*
X53075000Y-49863000D03*
X55075000Y-49863000D03*
X57075000Y-49863000D03*
G36*
G01*
X71842000Y-41364000D02*
X71842000Y-42964000D01*
G75*
G02*
X71642000Y-43164000I-200000J0D01*
G01*
X71242000Y-43164000D01*
G75*
G02*
X71042000Y-42964000I0J200000D01*
G01*
X71042000Y-41364000D01*
G75*
G02*
X71242000Y-41164000I200000J0D01*
G01*
X71642000Y-41164000D01*
G75*
G02*
X71842000Y-41364000I0J-200000D01*
G01*
G37*
G36*
G01*
X67642000Y-41364000D02*
X67642000Y-42964000D01*
G75*
G02*
X67442000Y-43164000I-200000J0D01*
G01*
X67042000Y-43164000D01*
G75*
G02*
X66842000Y-42964000I0J200000D01*
G01*
X66842000Y-41364000D01*
G75*
G02*
X67042000Y-41164000I200000J0D01*
G01*
X67442000Y-41164000D01*
G75*
G02*
X67642000Y-41364000I0J-200000D01*
G01*
G37*
M02*
